%TF.GenerationSoftware,KiCad,Pcbnew,(6.0.8)*%
%TF.CreationDate,2022-10-13T19:48:59+08:00*%
%TF.ProjectId,UINIO-LCD2.4-ST7789,55494e49-4f2d-44c4-9344-322e342d5354,rev?*%
%TF.SameCoordinates,Original*%
%TF.FileFunction,Soldermask,Top*%
%TF.FilePolarity,Negative*%
%FSLAX46Y46*%
G04 Gerber Fmt 4.6, Leading zero omitted, Abs format (unit mm)*
G04 Created by KiCad (PCBNEW (6.0.8)) date 2022-10-13 19:48:59*
%MOMM*%
%LPD*%
G01*
G04 APERTURE LIST*
G04 Aperture macros list*
%AMRoundRect*
0 Rectangle with rounded corners*
0 $1 Rounding radius*
0 $2 $3 $4 $5 $6 $7 $8 $9 X,Y pos of 4 corners*
0 Add a 4 corners polygon primitive as box body*
4,1,4,$2,$3,$4,$5,$6,$7,$8,$9,$2,$3,0*
0 Add four circle primitives for the rounded corners*
1,1,$1+$1,$2,$3*
1,1,$1+$1,$4,$5*
1,1,$1+$1,$6,$7*
1,1,$1+$1,$8,$9*
0 Add four rect primitives between the rounded corners*
20,1,$1+$1,$2,$3,$4,$5,0*
20,1,$1+$1,$4,$5,$6,$7,0*
20,1,$1+$1,$6,$7,$8,$9,0*
20,1,$1+$1,$8,$9,$2,$3,0*%
G04 Aperture macros list end*
%ADD10C,2.000000*%
%ADD11R,0.532000X1.070000*%
%ADD12RoundRect,0.225000X-0.225000X-0.250000X0.225000X-0.250000X0.225000X0.250000X-0.225000X0.250000X0*%
%ADD13RoundRect,0.200000X0.275000X-0.200000X0.275000X0.200000X-0.275000X0.200000X-0.275000X-0.200000X0*%
%ADD14R,1.000000X0.600000*%
%ADD15R,0.950000X1.200000*%
%ADD16RoundRect,0.200000X-0.200000X-0.275000X0.200000X-0.275000X0.200000X0.275000X-0.200000X0.275000X0*%
%ADD17RoundRect,0.105000X-4.895000X0.105000X-4.895000X-0.105000X4.895000X-0.105000X4.895000X0.105000X0*%
%ADD18R,1.700000X1.700000*%
%ADD19O,1.700000X1.700000*%
%ADD20RoundRect,0.225000X0.250000X-0.225000X0.250000X0.225000X-0.250000X0.225000X-0.250000X-0.225000X0*%
%ADD21R,0.300000X1.500000*%
%ADD22R,2.000000X1.500000*%
%ADD23RoundRect,0.200000X0.200000X0.275000X-0.200000X0.275000X-0.200000X-0.275000X0.200000X-0.275000X0*%
%ADD24R,2.366000X0.980000*%
%ADD25R,2.366000X3.600000*%
%ADD26RoundRect,0.225000X-0.250000X0.225000X-0.250000X-0.225000X0.250000X-0.225000X0.250000X0.225000X0*%
G04 APERTURE END LIST*
D10*
%TO.C,TP5*%
X137144284Y-117330000D03*
%TD*%
D11*
%TO.C,U3*%
X151070000Y-89320000D03*
X152970000Y-89320000D03*
X152020000Y-87050000D03*
%TD*%
D12*
%TO.C,C1*%
X168865000Y-119190000D03*
X170415000Y-119190000D03*
%TD*%
D13*
%TO.C,R2*%
X130560000Y-102275000D03*
X130560000Y-100625000D03*
%TD*%
D14*
%TO.C,U1*%
X168370000Y-115630000D03*
X168370000Y-116580000D03*
X168370000Y-117530000D03*
X170970000Y-117530000D03*
X170970000Y-115630000D03*
%TD*%
D13*
%TO.C,R3*%
X132890000Y-102275000D03*
X132890000Y-100625000D03*
%TD*%
D12*
%TO.C,C6*%
X126975000Y-91394500D03*
X128525000Y-91394500D03*
%TD*%
D10*
%TO.C,TP7*%
X143821426Y-117330000D03*
%TD*%
D15*
%TO.C,D2*%
X130580000Y-108577000D03*
X130580000Y-105177000D03*
%TD*%
D10*
%TO.C,TP4*%
X133805713Y-117330000D03*
%TD*%
D16*
%TO.C,R7*%
X126985000Y-88670000D03*
X128635000Y-88670000D03*
%TD*%
D15*
%TO.C,D5*%
X137880000Y-108497000D03*
X137880000Y-105097000D03*
%TD*%
D13*
%TO.C,R4*%
X135290000Y-102275000D03*
X135290000Y-100625000D03*
%TD*%
D17*
%TO.C,U4*%
X169270000Y-106910000D03*
X169270000Y-105910000D03*
X169270000Y-104910000D03*
X169270000Y-103910000D03*
X169270000Y-102910000D03*
X169270000Y-101910000D03*
X169270000Y-100910000D03*
X169270000Y-99910000D03*
X169270000Y-98910000D03*
X169270000Y-97910000D03*
%TD*%
D10*
%TO.C,TP8*%
X147160000Y-117330000D03*
%TD*%
D18*
%TO.C,J1*%
X126555000Y-125080000D03*
D19*
X129095000Y-125080000D03*
X131635000Y-125080000D03*
X134175000Y-125080000D03*
X136715000Y-125080000D03*
X139255000Y-125080000D03*
X141795000Y-125080000D03*
X144335000Y-125080000D03*
%TD*%
D11*
%TO.C,Q1*%
X130825000Y-90950500D03*
X132725000Y-90950500D03*
X131775000Y-88680500D03*
%TD*%
D20*
%TO.C,C4*%
X148820000Y-89350500D03*
X148820000Y-87800500D03*
%TD*%
D15*
%TO.C,D1*%
X128280000Y-108627000D03*
X128280000Y-105227000D03*
%TD*%
D20*
%TO.C,C7*%
X153000000Y-92635500D03*
X153000000Y-91085500D03*
%TD*%
D10*
%TO.C,TP2*%
X127128571Y-117290000D03*
%TD*%
%TO.C,TP3*%
X130467142Y-117330000D03*
%TD*%
D20*
%TO.C,C2*%
X173680000Y-88645000D03*
X173680000Y-87095000D03*
%TD*%
D16*
%TO.C,R8*%
X134855000Y-88655500D03*
X136505000Y-88655500D03*
%TD*%
D10*
%TO.C,TP6*%
X140482855Y-117330000D03*
%TD*%
D21*
%TO.C,CON1*%
X149260000Y-101431500D03*
X149760000Y-101431500D03*
X150260000Y-101431500D03*
X150760000Y-101431500D03*
X151260000Y-101431500D03*
X151760000Y-101431500D03*
X152260000Y-101431500D03*
X152760000Y-101431500D03*
D22*
X154460000Y-104031500D03*
X147560000Y-104031500D03*
%TD*%
D10*
%TO.C,TP1*%
X123790000Y-117340000D03*
%TD*%
D23*
%TO.C,R6*%
X136525000Y-91450000D03*
X134875000Y-91450000D03*
%TD*%
D15*
%TO.C,D4*%
X135295000Y-108512000D03*
X135295000Y-105112000D03*
%TD*%
D20*
%TO.C,C5*%
X151070000Y-92620500D03*
X151070000Y-91070500D03*
%TD*%
D13*
%TO.C,R1*%
X128260000Y-102295000D03*
X128260000Y-100645000D03*
%TD*%
%TO.C,R5*%
X137900000Y-102275000D03*
X137900000Y-100625000D03*
%TD*%
D24*
%TO.C,U2*%
X171113000Y-91680000D03*
X171113000Y-89380000D03*
X171113000Y-87080000D03*
D25*
X165387000Y-89380000D03*
%TD*%
D15*
%TO.C,D3*%
X132900000Y-108527000D03*
X132900000Y-105127000D03*
%TD*%
D26*
%TO.C,C3*%
X173690000Y-90140000D03*
X173690000Y-91690000D03*
%TD*%
M02*
