%TF.GenerationSoftware,KiCad,Pcbnew,(6.0.8)*%
%TF.CreationDate,2022-10-13T19:48:58+08:00*%
%TF.ProjectId,UINIO-LCD2.4-ST7789,55494e49-4f2d-44c4-9344-322e342d5354,rev?*%
%TF.SameCoordinates,Original*%
%TF.FileFunction,Copper,L1,Top*%
%TF.FilePolarity,Positive*%
%FSLAX46Y46*%
G04 Gerber Fmt 4.6, Leading zero omitted, Abs format (unit mm)*
G04 Created by KiCad (PCBNEW (6.0.8)) date 2022-10-13 19:48:58*
%MOMM*%
%LPD*%
G01*
G04 APERTURE LIST*
G04 Aperture macros list*
%AMRoundRect*
0 Rectangle with rounded corners*
0 $1 Rounding radius*
0 $2 $3 $4 $5 $6 $7 $8 $9 X,Y pos of 4 corners*
0 Add a 4 corners polygon primitive as box body*
4,1,4,$2,$3,$4,$5,$6,$7,$8,$9,$2,$3,0*
0 Add four circle primitives for the rounded corners*
1,1,$1+$1,$2,$3*
1,1,$1+$1,$4,$5*
1,1,$1+$1,$6,$7*
1,1,$1+$1,$8,$9*
0 Add four rect primitives between the rounded corners*
20,1,$1+$1,$2,$3,$4,$5,0*
20,1,$1+$1,$4,$5,$6,$7,0*
20,1,$1+$1,$6,$7,$8,$9,0*
20,1,$1+$1,$8,$9,$2,$3,0*%
G04 Aperture macros list end*
%TA.AperFunction,SMDPad,CuDef*%
%ADD10C,2.000000*%
%TD*%
%TA.AperFunction,SMDPad,CuDef*%
%ADD11R,0.532000X1.070000*%
%TD*%
%TA.AperFunction,SMDPad,CuDef*%
%ADD12RoundRect,0.225000X-0.225000X-0.250000X0.225000X-0.250000X0.225000X0.250000X-0.225000X0.250000X0*%
%TD*%
%TA.AperFunction,SMDPad,CuDef*%
%ADD13RoundRect,0.200000X0.275000X-0.200000X0.275000X0.200000X-0.275000X0.200000X-0.275000X-0.200000X0*%
%TD*%
%TA.AperFunction,SMDPad,CuDef*%
%ADD14R,1.000000X0.600000*%
%TD*%
%TA.AperFunction,SMDPad,CuDef*%
%ADD15R,0.950000X1.200000*%
%TD*%
%TA.AperFunction,SMDPad,CuDef*%
%ADD16RoundRect,0.200000X-0.200000X-0.275000X0.200000X-0.275000X0.200000X0.275000X-0.200000X0.275000X0*%
%TD*%
%TA.AperFunction,SMDPad,CuDef*%
%ADD17RoundRect,0.105000X-4.895000X0.105000X-4.895000X-0.105000X4.895000X-0.105000X4.895000X0.105000X0*%
%TD*%
%TA.AperFunction,ComponentPad*%
%ADD18R,1.700000X1.700000*%
%TD*%
%TA.AperFunction,ComponentPad*%
%ADD19O,1.700000X1.700000*%
%TD*%
%TA.AperFunction,SMDPad,CuDef*%
%ADD20RoundRect,0.225000X0.250000X-0.225000X0.250000X0.225000X-0.250000X0.225000X-0.250000X-0.225000X0*%
%TD*%
%TA.AperFunction,SMDPad,CuDef*%
%ADD21R,0.300000X1.500000*%
%TD*%
%TA.AperFunction,SMDPad,CuDef*%
%ADD22R,2.000000X1.500000*%
%TD*%
%TA.AperFunction,SMDPad,CuDef*%
%ADD23RoundRect,0.200000X0.200000X0.275000X-0.200000X0.275000X-0.200000X-0.275000X0.200000X-0.275000X0*%
%TD*%
%TA.AperFunction,SMDPad,CuDef*%
%ADD24R,2.366000X0.980000*%
%TD*%
%TA.AperFunction,SMDPad,CuDef*%
%ADD25R,2.366000X3.600000*%
%TD*%
%TA.AperFunction,SMDPad,CuDef*%
%ADD26RoundRect,0.225000X-0.250000X0.225000X-0.250000X-0.225000X0.250000X-0.225000X0.250000X0.225000X0*%
%TD*%
%TA.AperFunction,ViaPad*%
%ADD27C,0.900000*%
%TD*%
%TA.AperFunction,ViaPad*%
%ADD28C,1.100000*%
%TD*%
%TA.AperFunction,ViaPad*%
%ADD29C,0.700000*%
%TD*%
%TA.AperFunction,Conductor*%
%ADD30C,0.500000*%
%TD*%
%TA.AperFunction,Conductor*%
%ADD31C,0.700000*%
%TD*%
%TA.AperFunction,Conductor*%
%ADD32C,0.300000*%
%TD*%
%TA.AperFunction,Conductor*%
%ADD33C,0.600000*%
%TD*%
%TA.AperFunction,Conductor*%
%ADD34C,0.800000*%
%TD*%
G04 APERTURE END LIST*
D10*
%TO.P,TP5,1,1*%
%TO.N,Net-(CON1-Pad5)*%
X137144284Y-117330000D03*
%TD*%
D11*
%TO.P,U3,1,GND*%
%TO.N,GND*%
X151070000Y-89320000D03*
%TO.P,U3,2,VO*%
%TO.N,/VDD_3.3V*%
X152970000Y-89320000D03*
%TO.P,U3,3,VI*%
%TO.N,/VDD_5V*%
X152020000Y-87050000D03*
%TD*%
D12*
%TO.P,C1,1,1*%
%TO.N,GND*%
X168865000Y-119190000D03*
%TO.P,C1,2,2*%
%TO.N,/VDD_3.3V*%
X170415000Y-119190000D03*
%TD*%
D13*
%TO.P,R2,1*%
%TO.N,/DC*%
X130560000Y-102275000D03*
%TO.P,R2,2*%
%TO.N,/VDD_3.3V*%
X130560000Y-100625000D03*
%TD*%
D14*
%TO.P,U1,1,Vin*%
%TO.N,/VDD_5V*%
X168370000Y-115630000D03*
%TO.P,U1,2,Vss*%
%TO.N,GND*%
X168370000Y-116580000D03*
%TO.P,U1,3,CE*%
%TO.N,/VDD_5V*%
X168370000Y-117530000D03*
%TO.P,U1,4,NC*%
%TO.N,unconnected-(U1-Pad4)*%
X170970000Y-117530000D03*
%TO.P,U1,5,Vout*%
%TO.N,/VDD_3.3V*%
X170970000Y-115630000D03*
%TD*%
D13*
%TO.P,R3,1*%
%TO.N,/SCK*%
X132890000Y-102275000D03*
%TO.P,R3,2*%
%TO.N,/VDD_3.3V*%
X132890000Y-100625000D03*
%TD*%
D12*
%TO.P,C6,1*%
%TO.N,/VDD_3.3V*%
X126975000Y-91394500D03*
%TO.P,C6,2*%
%TO.N,GND*%
X128525000Y-91394500D03*
%TD*%
D10*
%TO.P,TP7,1,1*%
%TO.N,Net-(CON1-Pad7)*%
X143821426Y-117330000D03*
%TD*%
D15*
%TO.P,D2,1,K*%
%TO.N,Net-(CON1-Pad4)*%
X130580000Y-108577000D03*
%TO.P,D2,2,A*%
%TO.N,/DC*%
X130580000Y-105177000D03*
%TD*%
D10*
%TO.P,TP4,1,1*%
%TO.N,Net-(CON1-Pad4)*%
X133805713Y-117330000D03*
%TD*%
D16*
%TO.P,R7,1*%
%TO.N,/VDD_3.3V*%
X126985000Y-88670000D03*
%TO.P,R7,2*%
%TO.N,Net-(Q1-Pad2)*%
X128635000Y-88670000D03*
%TD*%
D15*
%TO.P,D5,1,K*%
%TO.N,Net-(CON1-Pad7)*%
X137880000Y-108497000D03*
%TO.P,D5,2,A*%
%TO.N,/RES*%
X137880000Y-105097000D03*
%TD*%
D13*
%TO.P,R4,1*%
%TO.N,/MOSI*%
X135290000Y-102275000D03*
%TO.P,R4,2*%
%TO.N,/VDD_3.3V*%
X135290000Y-100625000D03*
%TD*%
D17*
%TO.P,U4,10,LEDK*%
%TO.N,Net-(R8-Pad2)*%
X169270000Y-106910000D03*
%TO.P,U4,9,LEDA*%
%TO.N,/VDD_3.3V*%
X169270000Y-105910000D03*
%TO.P,U4,8,VCC*%
X169270000Y-104910000D03*
%TO.P,U4,7,MISO*%
%TO.N,/MISO*%
X169270000Y-103910000D03*
%TO.P,U4,6,MOSI*%
%TO.N,/MOSI*%
X169270000Y-102910000D03*
%TO.P,U4,5,CS*%
%TO.N,/CS*%
X169270000Y-101910000D03*
%TO.P,U4,4,D/C*%
%TO.N,/DC*%
X169270000Y-100910000D03*
%TO.P,U4,3,SCK*%
%TO.N,/SCK*%
X169270000Y-99910000D03*
%TO.P,U4,2,RESET*%
%TO.N,/RES*%
X169270000Y-98910000D03*
%TO.P,U4,1,GND*%
%TO.N,GND*%
X169270000Y-97910000D03*
%TD*%
D10*
%TO.P,TP8,1,1*%
%TO.N,/BL*%
X147160000Y-117330000D03*
%TD*%
D18*
%TO.P,J1,1,Pin_1*%
%TO.N,/VDD_5V*%
X126555000Y-125080000D03*
D19*
%TO.P,J1,2,Pin_2*%
%TO.N,Net-(CON1-Pad2)*%
X129095000Y-125080000D03*
%TO.P,J1,3,Pin_3*%
%TO.N,GND*%
X131635000Y-125080000D03*
%TO.P,J1,4,Pin_4*%
%TO.N,Net-(CON1-Pad4)*%
X134175000Y-125080000D03*
%TO.P,J1,5,Pin_5*%
%TO.N,Net-(CON1-Pad5)*%
X136715000Y-125080000D03*
%TO.P,J1,6,Pin_6*%
%TO.N,Net-(CON1-Pad6)*%
X139255000Y-125080000D03*
%TO.P,J1,7,Pin_7*%
%TO.N,Net-(CON1-Pad7)*%
X141795000Y-125080000D03*
%TO.P,J1,8,Pin_8*%
%TO.N,/BL*%
X144335000Y-125080000D03*
%TD*%
D11*
%TO.P,Q1,1,E*%
%TO.N,GND*%
X130825000Y-90950500D03*
%TO.P,Q1,2,B*%
%TO.N,Net-(Q1-Pad2)*%
X132725000Y-90950500D03*
%TO.P,Q1,3,C*%
%TO.N,Net-(Q1-Pad3)*%
X131775000Y-88680500D03*
%TD*%
D20*
%TO.P,C4,1*%
%TO.N,GND*%
X148820000Y-89350500D03*
%TO.P,C4,2*%
%TO.N,/VDD_5V*%
X148820000Y-87800500D03*
%TD*%
D15*
%TO.P,D1,1,K*%
%TO.N,Net-(CON1-Pad2)*%
X128280000Y-108627000D03*
%TO.P,D1,2,A*%
%TO.N,/CS*%
X128280000Y-105227000D03*
%TD*%
D20*
%TO.P,C7,1*%
%TO.N,GND*%
X153000000Y-92635500D03*
%TO.P,C7,2*%
%TO.N,/VDD_3.3V*%
X153000000Y-91085500D03*
%TD*%
D10*
%TO.P,TP2,1,1*%
%TO.N,Net-(CON1-Pad2)*%
X127128571Y-117290000D03*
%TD*%
%TO.P,TP3,1,1*%
%TO.N,GND*%
X130467142Y-117330000D03*
%TD*%
D20*
%TO.P,C2,1*%
%TO.N,/VDD_5V*%
X173680000Y-88645000D03*
%TO.P,C2,2*%
%TO.N,GND*%
X173680000Y-87095000D03*
%TD*%
D16*
%TO.P,R8,1*%
%TO.N,Net-(Q1-Pad3)*%
X134855000Y-88655500D03*
%TO.P,R8,2*%
%TO.N,Net-(R8-Pad2)*%
X136505000Y-88655500D03*
%TD*%
D10*
%TO.P,TP6,1,1*%
%TO.N,Net-(CON1-Pad6)*%
X140482855Y-117330000D03*
%TD*%
D21*
%TO.P,CON1,1,1*%
%TO.N,/VDD_5V*%
X149260000Y-101431500D03*
%TO.P,CON1,2,2*%
%TO.N,Net-(CON1-Pad2)*%
X149760000Y-101431500D03*
%TO.P,CON1,3,3*%
%TO.N,GND*%
X150260000Y-101431500D03*
%TO.P,CON1,4,4*%
%TO.N,Net-(CON1-Pad4)*%
X150760000Y-101431500D03*
%TO.P,CON1,5,5*%
%TO.N,Net-(CON1-Pad5)*%
X151260000Y-101431500D03*
%TO.P,CON1,6,6*%
%TO.N,Net-(CON1-Pad6)*%
X151760000Y-101431500D03*
%TO.P,CON1,7,7*%
%TO.N,Net-(CON1-Pad7)*%
X152260000Y-101431500D03*
%TO.P,CON1,8,8*%
%TO.N,/BL*%
X152760000Y-101431500D03*
D22*
%TO.P,CON1,9*%
%TO.N,N/C*%
X154460000Y-104031500D03*
%TO.P,CON1,10*%
X147560000Y-104031500D03*
%TD*%
D10*
%TO.P,TP1,1,1*%
%TO.N,/VDD_5V*%
X123790000Y-117340000D03*
%TD*%
D23*
%TO.P,R6,1*%
%TO.N,/BL*%
X136525000Y-91450000D03*
%TO.P,R6,2*%
%TO.N,Net-(Q1-Pad2)*%
X134875000Y-91450000D03*
%TD*%
D15*
%TO.P,D4,1,K*%
%TO.N,Net-(CON1-Pad6)*%
X135295000Y-108512000D03*
%TO.P,D4,2,A*%
%TO.N,/MOSI*%
X135295000Y-105112000D03*
%TD*%
D20*
%TO.P,C5,1*%
%TO.N,GND*%
X151070000Y-92620500D03*
%TO.P,C5,2*%
%TO.N,/VDD_5V*%
X151070000Y-91070500D03*
%TD*%
D13*
%TO.P,R1,1*%
%TO.N,/CS*%
X128260000Y-102295000D03*
%TO.P,R1,2*%
%TO.N,/VDD_3.3V*%
X128260000Y-100645000D03*
%TD*%
%TO.P,R5,1*%
%TO.N,/RES*%
X137900000Y-102275000D03*
%TO.P,R5,2*%
%TO.N,/VDD_3.3V*%
X137900000Y-100625000D03*
%TD*%
D24*
%TO.P,U2,1,GND*%
%TO.N,GND*%
X171113000Y-91680000D03*
%TO.P,U2,2,Vout*%
%TO.N,/VDD_3.3V*%
X171113000Y-89380000D03*
%TO.P,U2,3,Vin*%
%TO.N,/VDD_5V*%
X171113000Y-87080000D03*
D25*
%TO.P,U2,4,Vout*%
%TO.N,/VDD_3.3V*%
X165387000Y-89380000D03*
%TD*%
D15*
%TO.P,D3,1,K*%
%TO.N,Net-(CON1-Pad5)*%
X132900000Y-108527000D03*
%TO.P,D3,2,A*%
%TO.N,/SCK*%
X132900000Y-105127000D03*
%TD*%
D26*
%TO.P,C3,1*%
%TO.N,/VDD_3.3V*%
X173690000Y-90140000D03*
%TO.P,C3,2*%
%TO.N,GND*%
X173690000Y-91690000D03*
%TD*%
D27*
%TO.N,GND*%
X127930000Y-122500000D03*
X140620000Y-122600000D03*
X136770000Y-111560000D03*
X131800000Y-111560000D03*
X134170000Y-111560000D03*
X126400000Y-111560000D03*
X143630000Y-111560000D03*
D28*
X151060000Y-95250000D03*
X149280000Y-98730000D03*
D27*
%TO.N,/VDD_3.3V*%
X156130000Y-91090000D03*
D28*
X161420000Y-105410000D03*
D27*
X139820000Y-99540000D03*
X171060000Y-113830000D03*
D28*
%TO.N,/VDD_5V*%
X159630000Y-121130000D03*
X125111043Y-121128957D03*
X147280000Y-99620000D03*
X147290000Y-91090000D03*
D29*
%TO.N,/DC*%
X160220000Y-100900000D03*
X131730000Y-103150000D03*
%TO.N,/SCK*%
X134080000Y-102520000D03*
X160200000Y-99880000D03*
%TO.N,/MOSI*%
X134060000Y-104490000D03*
X160260000Y-102860000D03*
%TO.N,/CS*%
X129360000Y-103810000D03*
X160260000Y-101880000D03*
%TO.N,/RES*%
X139780000Y-100980000D03*
X160180000Y-98910000D03*
%TD*%
D30*
%TO.N,Net-(Q1-Pad2)*%
X134875000Y-91450000D02*
X134385000Y-90960000D01*
X134385000Y-90960000D02*
X132734500Y-90960000D01*
%TO.N,/BL*%
X136770000Y-91450000D02*
X136525000Y-91450000D01*
X137670000Y-90550000D02*
X136770000Y-91450000D01*
X143110000Y-90550000D02*
X137670000Y-90550000D01*
X152760000Y-100200000D02*
X143110000Y-90550000D01*
X152760000Y-101431500D02*
X152760000Y-100200000D01*
D31*
%TO.N,/VDD_5V*%
X125111043Y-121128957D02*
X125111043Y-121091043D01*
X125111043Y-121091043D02*
X123790000Y-119770000D01*
X123790000Y-119770000D02*
X123790000Y-117340000D01*
X126528571Y-122546485D02*
X126528571Y-125053571D01*
X125111043Y-121128957D02*
X126528571Y-122546485D01*
X147290000Y-84920000D02*
X147290000Y-91090000D01*
X147364000Y-84846000D02*
X147290000Y-84920000D01*
X150574000Y-84846000D02*
X147364000Y-84846000D01*
X169986000Y-84846000D02*
X171113000Y-85973000D01*
X171113000Y-85973000D02*
X171113000Y-87080000D01*
X150574000Y-84846000D02*
X169986000Y-84846000D01*
X150568000Y-84840000D02*
X150574000Y-84846000D01*
X125020000Y-84840000D02*
X150568000Y-84840000D01*
X123790000Y-86070000D02*
X125020000Y-84840000D01*
X123790000Y-117340000D02*
X123790000Y-86070000D01*
D30*
%TO.N,GND*%
X171113000Y-96067000D02*
X169270000Y-97910000D01*
X171113000Y-91680000D02*
X171113000Y-96067000D01*
D32*
%TO.N,/SCK*%
X160230000Y-99910000D02*
X160200000Y-99880000D01*
X169270000Y-99910000D02*
X160230000Y-99910000D01*
%TO.N,/DC*%
X169270000Y-100910000D02*
X160230000Y-100910000D01*
%TO.N,/CS*%
X160290000Y-101910000D02*
X160260000Y-101880000D01*
X169270000Y-101910000D02*
X160290000Y-101910000D01*
%TO.N,/MOSI*%
X160310000Y-102910000D02*
X160260000Y-102860000D01*
D30*
%TO.N,/VDD_3.3V*%
X161920000Y-104910000D02*
X169270000Y-104910000D01*
X161420000Y-105410000D02*
X161920000Y-104910000D01*
X169250000Y-105890000D02*
X169270000Y-105910000D01*
X161900000Y-105890000D02*
X169250000Y-105890000D01*
X161420000Y-105410000D02*
X161900000Y-105890000D01*
D32*
%TO.N,Net-(R8-Pad2)*%
X137619500Y-89770000D02*
X136505000Y-88655500D01*
X169270000Y-106910000D02*
X160560000Y-106910000D01*
X160560000Y-106910000D02*
X143420000Y-89770000D01*
%TO.N,/DC*%
X160230000Y-100910000D02*
X160220000Y-100900000D01*
%TO.N,/RES*%
X169270000Y-98910000D02*
X160180000Y-98910000D01*
%TO.N,/MOSI*%
X169270000Y-102910000D02*
X160310000Y-102910000D01*
%TO.N,Net-(R8-Pad2)*%
X143420000Y-89770000D02*
X137619500Y-89770000D01*
D30*
%TO.N,GND*%
X169680000Y-116850000D02*
X169410000Y-116580000D01*
X169410000Y-116580000D02*
X168370000Y-116580000D01*
X168865000Y-119190000D02*
X169680000Y-118375000D01*
X169680000Y-118375000D02*
X169680000Y-116850000D01*
D31*
%TO.N,/VDD_5V*%
X173515000Y-88645000D02*
X173680000Y-88645000D01*
X171440000Y-87080000D02*
X171950000Y-87080000D01*
X171950000Y-87080000D02*
X173515000Y-88645000D01*
%TO.N,/VDD_3.3V*%
X173520000Y-90110000D02*
X173660000Y-90110000D01*
X172790000Y-89380000D02*
X173520000Y-90110000D01*
X171113000Y-89380000D02*
X172790000Y-89380000D01*
D33*
%TO.N,Net-(Q1-Pad2)*%
X131574500Y-89800000D02*
X132725000Y-90950500D01*
X130440000Y-89800000D02*
X131574500Y-89800000D01*
X129310000Y-88670000D02*
X130440000Y-89800000D01*
X128635000Y-88670000D02*
X129310000Y-88670000D01*
D31*
%TO.N,/VDD_5V*%
X147290000Y-87818500D02*
X147272000Y-87800500D01*
X147290000Y-91090000D02*
X147290000Y-87818500D01*
X147272000Y-87800500D02*
X148820000Y-87800500D01*
D30*
%TO.N,GND*%
X151070000Y-89320000D02*
X148850500Y-89320000D01*
X173680000Y-91680000D02*
X173690000Y-91690000D01*
D33*
X131680000Y-121160000D02*
X131680000Y-125035000D01*
D34*
X130405500Y-91370000D02*
X128549500Y-91370000D01*
X130825000Y-90950500D02*
X130405500Y-91370000D01*
D33*
X130467142Y-119947142D02*
X131680000Y-121160000D01*
X130467142Y-117330000D02*
X130467142Y-119947142D01*
D30*
X152100000Y-91735500D02*
X153000000Y-92635500D01*
X152100000Y-90350000D02*
X152100000Y-91735500D01*
X171113000Y-91680000D02*
X173680000Y-91680000D01*
X150260000Y-99710000D02*
X150260000Y-101431500D01*
X151070000Y-89320000D02*
X152100000Y-90350000D01*
X151060000Y-95250000D02*
X151060000Y-92630500D01*
X149280000Y-98730000D02*
X150260000Y-99710000D01*
%TO.N,/VDD_3.3V*%
X171060000Y-113830000D02*
X172070000Y-113830000D01*
X138420000Y-99540000D02*
X137900000Y-100060000D01*
X171060000Y-115540000D02*
X170970000Y-115630000D01*
D34*
X126940000Y-88715000D02*
X126985000Y-88670000D01*
D31*
X171113000Y-89380000D02*
X165387000Y-89380000D01*
D30*
X172900000Y-114660000D02*
X172900000Y-118360000D01*
X157840000Y-89380000D02*
X165387000Y-89380000D01*
D34*
X128260000Y-94430000D02*
X126940000Y-93110000D01*
D30*
X153000000Y-91085500D02*
X156125500Y-91085500D01*
X171060000Y-113830000D02*
X171060000Y-115540000D01*
D31*
X153000000Y-91085500D02*
X153000000Y-89350000D01*
D30*
X137900000Y-100060000D02*
X137900000Y-100625000D01*
D33*
X128260000Y-100645000D02*
X137880000Y-100645000D01*
D31*
X153000000Y-89350000D02*
X152970000Y-89320000D01*
D34*
X128260000Y-100645000D02*
X128260000Y-94430000D01*
D30*
X156130000Y-91090000D02*
X157840000Y-89380000D01*
X156125500Y-91085500D02*
X156130000Y-91090000D01*
X172070000Y-113830000D02*
X172900000Y-114660000D01*
D34*
X126940000Y-93110000D02*
X126940000Y-88715000D01*
D30*
X139820000Y-99540000D02*
X138420000Y-99540000D01*
X172900000Y-118360000D02*
X172070000Y-119190000D01*
X172070000Y-119190000D02*
X170415000Y-119190000D01*
D31*
%TO.N,/VDD_5V*%
X165620000Y-117530000D02*
X168370000Y-117530000D01*
X151070000Y-91070500D02*
X147309500Y-91070500D01*
X149540500Y-87080000D02*
X151990000Y-87080000D01*
X165620000Y-117530000D02*
X167520000Y-115630000D01*
X149091500Y-101431500D02*
X149160000Y-101431500D01*
X147309500Y-91070500D02*
X147290000Y-91090000D01*
X159630000Y-121130000D02*
X162020000Y-121130000D01*
X151990000Y-87080000D02*
X152020000Y-87050000D01*
X167520000Y-115630000D02*
X168370000Y-115630000D01*
X148820000Y-87800500D02*
X149540500Y-87080000D01*
X147280000Y-99620000D02*
X149091500Y-101431500D01*
X162020000Y-121130000D02*
X165620000Y-117530000D01*
D32*
%TO.N,Net-(CON1-Pad2)*%
X131352000Y-105980000D02*
X128705000Y-108627000D01*
X127128571Y-117290000D02*
X127128571Y-119918571D01*
X149760000Y-101431500D02*
X149760000Y-105470000D01*
X129180000Y-121970000D02*
X129180000Y-124995000D01*
X128280000Y-108627000D02*
X128280000Y-113040000D01*
X127128571Y-114191429D02*
X127128571Y-117290000D01*
X149250000Y-105980000D02*
X131352000Y-105980000D01*
X128280000Y-113040000D02*
X127128571Y-114191429D01*
X149760000Y-105470000D02*
X149250000Y-105980000D01*
X127128571Y-119918571D02*
X129180000Y-121970000D01*
X128705000Y-108627000D02*
X128280000Y-108627000D01*
%TO.N,Net-(CON1-Pad4)*%
X134190000Y-117714287D02*
X134190000Y-125065000D01*
X133805713Y-116215713D02*
X133805713Y-117330000D01*
X130580000Y-112990000D02*
X133805713Y-116215713D01*
X132627000Y-106530000D02*
X130580000Y-108577000D01*
X150760000Y-101431500D02*
X150760000Y-105184314D01*
X149414314Y-106530000D02*
X132627000Y-106530000D01*
X130580000Y-108577000D02*
X130580000Y-112990000D01*
X150760000Y-105184314D02*
X149414314Y-106530000D01*
%TO.N,Net-(CON1-Pad5)*%
X132900000Y-112170000D02*
X137144284Y-116414284D01*
X151260000Y-105390000D02*
X149550000Y-107100000D01*
X136750000Y-117724284D02*
X136750000Y-125045000D01*
X151260000Y-101431500D02*
X151260000Y-105390000D01*
X132900000Y-108527000D02*
X132900000Y-112170000D01*
X149550000Y-107100000D02*
X134327000Y-107100000D01*
X134327000Y-107100000D02*
X132900000Y-108527000D01*
X137144284Y-116414284D02*
X137144284Y-117330000D01*
%TO.N,Net-(CON1-Pad6)*%
X136167000Y-107640000D02*
X135295000Y-108512000D01*
X135260000Y-108547000D02*
X135260000Y-111680000D01*
X149740000Y-107640000D02*
X136167000Y-107640000D01*
X140482855Y-119987145D02*
X139240000Y-121230000D01*
X151760000Y-105620000D02*
X149740000Y-107640000D01*
X140482855Y-117330000D02*
X140482855Y-119987145D01*
X139240000Y-121230000D02*
X139240000Y-125065000D01*
X151760000Y-101431500D02*
X151760000Y-105620000D01*
X135260000Y-111680000D02*
X140482855Y-116902855D01*
%TO.N,Net-(CON1-Pad7)*%
X141780000Y-121980000D02*
X141780000Y-125065000D01*
X143821426Y-119938574D02*
X141780000Y-121980000D01*
X137880000Y-108497000D02*
X137880000Y-111388574D01*
X137880000Y-111388574D02*
X143821426Y-117330000D01*
X143821426Y-117330000D02*
X143821426Y-119938574D01*
X149960000Y-108180000D02*
X138197000Y-108180000D01*
X152260000Y-101431500D02*
X152260000Y-105880000D01*
X152260000Y-105880000D02*
X149960000Y-108180000D01*
D30*
%TO.N,/BL*%
X147160000Y-117330000D02*
X147160000Y-120060000D01*
X147160000Y-120060000D02*
X144335000Y-122885000D01*
X147210000Y-117380000D02*
X149570000Y-117380000D01*
X152760000Y-114190000D02*
X152760000Y-101431500D01*
X144335000Y-122885000D02*
X144335000Y-125080000D01*
X149570000Y-117380000D02*
X152760000Y-114190000D01*
D33*
%TO.N,/DC*%
X130560000Y-102275000D02*
X130560000Y-105157000D01*
X131730000Y-102570000D02*
X131730000Y-103150000D01*
X130560000Y-102275000D02*
X131435000Y-102275000D01*
X131435000Y-102275000D02*
X131730000Y-102570000D01*
%TO.N,/SCK*%
X133835000Y-102275000D02*
X134080000Y-102520000D01*
X132890000Y-102275000D02*
X133835000Y-102275000D01*
X132890000Y-102275000D02*
X132890000Y-105117000D01*
%TO.N,/MOSI*%
X135290000Y-102275000D02*
X135290000Y-105107000D01*
X134060000Y-105030000D02*
X134060000Y-104490000D01*
X135197000Y-105210000D02*
X134240000Y-105210000D01*
X134240000Y-105210000D02*
X134060000Y-105030000D01*
%TO.N,/CS*%
X128975000Y-102295000D02*
X129370000Y-102690000D01*
X128260000Y-102295000D02*
X128260000Y-105207000D01*
X128260000Y-102295000D02*
X128975000Y-102295000D01*
X129370000Y-102690000D02*
X129370000Y-103800000D01*
X129370000Y-103800000D02*
X129360000Y-103810000D01*
%TO.N,Net-(Q1-Pad3)*%
X134855000Y-88655500D02*
X131800000Y-88655500D01*
X131800000Y-88655500D02*
X131775000Y-88680500D01*
%TO.N,/RES*%
X139780000Y-101850000D02*
X139780000Y-100980000D01*
X139355000Y-102275000D02*
X139780000Y-101850000D01*
X137900000Y-102275000D02*
X137900000Y-105077000D01*
X137900000Y-102275000D02*
X139355000Y-102275000D01*
%TD*%
%TA.AperFunction,Conductor*%
%TO.N,GND*%
G36*
X120694676Y-78648502D02*
G01*
X120741169Y-78702158D01*
X120751273Y-78772432D01*
X120725505Y-78832506D01*
X120604238Y-78986333D01*
X120601549Y-78991444D01*
X120601547Y-78991447D01*
X120576988Y-79038126D01*
X120505100Y-79174762D01*
X120503386Y-79180283D01*
X120503384Y-79180287D01*
X120450494Y-79350623D01*
X120441961Y-79378102D01*
X120416936Y-79589544D01*
X120418932Y-79620000D01*
X120430861Y-79802006D01*
X120432283Y-79807604D01*
X120432283Y-79807606D01*
X120481851Y-80002777D01*
X120483272Y-80008372D01*
X120485689Y-80013615D01*
X120522389Y-80093223D01*
X120572411Y-80201731D01*
X120695296Y-80375609D01*
X120847809Y-80524181D01*
X120852605Y-80527386D01*
X120852608Y-80527388D01*
X120929612Y-80578840D01*
X121024843Y-80642471D01*
X121030146Y-80644749D01*
X121030149Y-80644751D01*
X121112324Y-80680056D01*
X121220470Y-80726519D01*
X121296316Y-80743681D01*
X121422501Y-80772234D01*
X121422506Y-80772235D01*
X121428138Y-80773509D01*
X121433909Y-80773736D01*
X121433911Y-80773736D01*
X121495252Y-80776146D01*
X121640891Y-80781869D01*
X121646600Y-80781041D01*
X121646604Y-80781041D01*
X121845890Y-80752145D01*
X121845894Y-80752144D01*
X121851605Y-80751316D01*
X122053223Y-80682876D01*
X122238993Y-80578840D01*
X122402693Y-80442693D01*
X122538840Y-80278993D01*
X122642876Y-80093223D01*
X122711316Y-79891605D01*
X122715377Y-79863603D01*
X122741337Y-79684561D01*
X122741337Y-79684559D01*
X122741869Y-79680891D01*
X122743463Y-79620000D01*
X122730461Y-79478500D01*
X122724510Y-79413730D01*
X122724509Y-79413727D01*
X122723981Y-79407976D01*
X122670749Y-79219231D01*
X122667754Y-79208611D01*
X122667753Y-79208609D01*
X122666186Y-79203052D01*
X122572015Y-79012092D01*
X122486014Y-78896922D01*
X122448079Y-78846120D01*
X122448077Y-78846118D01*
X122444622Y-78841491D01*
X122441319Y-78838438D01*
X122410780Y-78774806D01*
X122419542Y-78704352D01*
X122465004Y-78649820D01*
X122535133Y-78628500D01*
X148756555Y-78628500D01*
X148824676Y-78648502D01*
X148871169Y-78702158D01*
X148881273Y-78772432D01*
X148855505Y-78832506D01*
X148734238Y-78986333D01*
X148731549Y-78991444D01*
X148731547Y-78991447D01*
X148706988Y-79038126D01*
X148635100Y-79174762D01*
X148633386Y-79180283D01*
X148633384Y-79180287D01*
X148580494Y-79350623D01*
X148571961Y-79378102D01*
X148546936Y-79589544D01*
X148548932Y-79620000D01*
X148560861Y-79802006D01*
X148562283Y-79807604D01*
X148562283Y-79807606D01*
X148611851Y-80002777D01*
X148613272Y-80008372D01*
X148615689Y-80013615D01*
X148652389Y-80093223D01*
X148702411Y-80201731D01*
X148825296Y-80375609D01*
X148977809Y-80524181D01*
X148982605Y-80527386D01*
X148982608Y-80527388D01*
X149059612Y-80578840D01*
X149154843Y-80642471D01*
X149160146Y-80644749D01*
X149160149Y-80644751D01*
X149242324Y-80680056D01*
X149350470Y-80726519D01*
X149426316Y-80743681D01*
X149552501Y-80772234D01*
X149552506Y-80772235D01*
X149558138Y-80773509D01*
X149563909Y-80773736D01*
X149563911Y-80773736D01*
X149625252Y-80776146D01*
X149770891Y-80781869D01*
X149776600Y-80781041D01*
X149776604Y-80781041D01*
X149975890Y-80752145D01*
X149975894Y-80752144D01*
X149981605Y-80751316D01*
X150183223Y-80682876D01*
X150368993Y-80578840D01*
X150532693Y-80442693D01*
X150668840Y-80278993D01*
X150772876Y-80093223D01*
X150841316Y-79891605D01*
X150845377Y-79863603D01*
X150871337Y-79684561D01*
X150871337Y-79684559D01*
X150871869Y-79680891D01*
X150873463Y-79620000D01*
X150860461Y-79478500D01*
X150854510Y-79413730D01*
X150854509Y-79413727D01*
X150853981Y-79407976D01*
X150800749Y-79219231D01*
X150797754Y-79208611D01*
X150797753Y-79208609D01*
X150796186Y-79203052D01*
X150702015Y-79012092D01*
X150616014Y-78896922D01*
X150578079Y-78846120D01*
X150578077Y-78846118D01*
X150574622Y-78841491D01*
X150571319Y-78838438D01*
X150540780Y-78774806D01*
X150549542Y-78704352D01*
X150595004Y-78649820D01*
X150665133Y-78628500D01*
X177886555Y-78628500D01*
X177954676Y-78648502D01*
X178001169Y-78702158D01*
X178011273Y-78772432D01*
X177985505Y-78832506D01*
X177864238Y-78986333D01*
X177861549Y-78991444D01*
X177861547Y-78991447D01*
X177836988Y-79038126D01*
X177765100Y-79174762D01*
X177763386Y-79180283D01*
X177763384Y-79180287D01*
X177710494Y-79350623D01*
X177701961Y-79378102D01*
X177676936Y-79589544D01*
X177678932Y-79620000D01*
X177690861Y-79802006D01*
X177692283Y-79807604D01*
X177692283Y-79807606D01*
X177741851Y-80002777D01*
X177743272Y-80008372D01*
X177745689Y-80013615D01*
X177782389Y-80093223D01*
X177832411Y-80201731D01*
X177955296Y-80375609D01*
X178107809Y-80524181D01*
X178112605Y-80527386D01*
X178112608Y-80527388D01*
X178189612Y-80578840D01*
X178284843Y-80642471D01*
X178290146Y-80644749D01*
X178290149Y-80644751D01*
X178372324Y-80680056D01*
X178480470Y-80726519D01*
X178556316Y-80743681D01*
X178682501Y-80772234D01*
X178682506Y-80772235D01*
X178688138Y-80773509D01*
X178693909Y-80773736D01*
X178693911Y-80773736D01*
X178755252Y-80776146D01*
X178900891Y-80781869D01*
X178906600Y-80781041D01*
X178906604Y-80781041D01*
X179105890Y-80752145D01*
X179105894Y-80752144D01*
X179111605Y-80751316D01*
X179313223Y-80682876D01*
X179498993Y-80578840D01*
X179662693Y-80442693D01*
X179798840Y-80278993D01*
X179902876Y-80093223D01*
X179971316Y-79891605D01*
X179975377Y-79863603D01*
X180001337Y-79684561D01*
X180001337Y-79684559D01*
X180001869Y-79680891D01*
X180003463Y-79620000D01*
X179990461Y-79478500D01*
X179984510Y-79413730D01*
X179984509Y-79413727D01*
X179983981Y-79407976D01*
X179930749Y-79219231D01*
X179927754Y-79208611D01*
X179927753Y-79208609D01*
X179926186Y-79203052D01*
X179832015Y-79012092D01*
X179746014Y-78896922D01*
X179708079Y-78846120D01*
X179708077Y-78846118D01*
X179704622Y-78841491D01*
X179701319Y-78838438D01*
X179670780Y-78774806D01*
X179679542Y-78704352D01*
X179725004Y-78649820D01*
X179795133Y-78628500D01*
X180790633Y-78628500D01*
X180810018Y-78630000D01*
X180824852Y-78632310D01*
X180824855Y-78632310D01*
X180833724Y-78633691D01*
X180842627Y-78632527D01*
X180842628Y-78632527D01*
X180853076Y-78631161D01*
X180875594Y-78630249D01*
X181176051Y-78645010D01*
X181188345Y-78646221D01*
X181515034Y-78694680D01*
X181527156Y-78697090D01*
X181547387Y-78702158D01*
X181847523Y-78777339D01*
X181859355Y-78780928D01*
X182170311Y-78892190D01*
X182181735Y-78896922D01*
X182249500Y-78928972D01*
X182480292Y-79038128D01*
X182491188Y-79043953D01*
X182632101Y-79128412D01*
X182774467Y-79213744D01*
X182784748Y-79220614D01*
X183050017Y-79417350D01*
X183059556Y-79425177D01*
X183304282Y-79646985D01*
X183313015Y-79655718D01*
X183534823Y-79900444D01*
X183542650Y-79909983D01*
X183674494Y-80087755D01*
X183739386Y-80175252D01*
X183746256Y-80185533D01*
X183799257Y-80273959D01*
X183897733Y-80438255D01*
X183916045Y-80468807D01*
X183921874Y-80479712D01*
X184063078Y-80778265D01*
X184067810Y-80789689D01*
X184179072Y-81100645D01*
X184182661Y-81112477D01*
X184262909Y-81432841D01*
X184265320Y-81444966D01*
X184293029Y-81631760D01*
X184313779Y-81771650D01*
X184314990Y-81783949D01*
X184321370Y-81913787D01*
X184329390Y-82077034D01*
X184328042Y-82102598D01*
X184326309Y-82113724D01*
X184327474Y-82122630D01*
X184330436Y-82145283D01*
X184331500Y-82161621D01*
X184331500Y-83170717D01*
X184311498Y-83238838D01*
X184257842Y-83285331D01*
X184187568Y-83295435D01*
X184119972Y-83263242D01*
X184052517Y-83200888D01*
X184048271Y-83196963D01*
X183868201Y-83083347D01*
X183670441Y-83004449D01*
X183664781Y-83003323D01*
X183664777Y-83003322D01*
X183467282Y-82964038D01*
X183467280Y-82964038D01*
X183461615Y-82962911D01*
X183455840Y-82962835D01*
X183455836Y-82962835D01*
X183349161Y-82961439D01*
X183248716Y-82960124D01*
X183243019Y-82961103D01*
X183243018Y-82961103D01*
X183044564Y-82995203D01*
X183044561Y-82995204D01*
X183038874Y-82996181D01*
X182839116Y-83069875D01*
X182816472Y-83083347D01*
X182669618Y-83170717D01*
X182656134Y-83178739D01*
X182630878Y-83200888D01*
X182557577Y-83265171D01*
X182493173Y-83295048D01*
X182422840Y-83285362D01*
X182368909Y-83239189D01*
X182348500Y-83170439D01*
X182348500Y-83033250D01*
X182350246Y-83012345D01*
X182352770Y-82997344D01*
X182352770Y-82997341D01*
X182353576Y-82992552D01*
X182353729Y-82980000D01*
X182353039Y-82975182D01*
X182353036Y-82975135D01*
X182352162Y-82967256D01*
X182334923Y-82748223D01*
X182334535Y-82743289D01*
X182279105Y-82512406D01*
X182188240Y-82293037D01*
X182102683Y-82153421D01*
X182066759Y-82094798D01*
X182066755Y-82094792D01*
X182064176Y-82090584D01*
X181909969Y-81910031D01*
X181729416Y-81755824D01*
X181725208Y-81753245D01*
X181725202Y-81753241D01*
X181531183Y-81634346D01*
X181526963Y-81631760D01*
X181522393Y-81629867D01*
X181522389Y-81629865D01*
X181312167Y-81542789D01*
X181312165Y-81542788D01*
X181307594Y-81540895D01*
X181227391Y-81521640D01*
X181081524Y-81486620D01*
X181081518Y-81486619D01*
X181076711Y-81485465D01*
X180840000Y-81466835D01*
X180603289Y-81485465D01*
X180598482Y-81486619D01*
X180598476Y-81486620D01*
X180452609Y-81521640D01*
X180372406Y-81540895D01*
X180367835Y-81542788D01*
X180367833Y-81542789D01*
X180157611Y-81629865D01*
X180157607Y-81629867D01*
X180153037Y-81631760D01*
X180148817Y-81634346D01*
X179954798Y-81753241D01*
X179954792Y-81753245D01*
X179950584Y-81755824D01*
X179770031Y-81910031D01*
X179615824Y-82090584D01*
X179613245Y-82094792D01*
X179613241Y-82094798D01*
X179577317Y-82153421D01*
X179491760Y-82293037D01*
X179400895Y-82512406D01*
X179345465Y-82743289D01*
X179345077Y-82748223D01*
X179328746Y-82955720D01*
X179327785Y-82963921D01*
X179327821Y-82964011D01*
X179326309Y-82973724D01*
X179326946Y-82978593D01*
X179326835Y-82980000D01*
X179327130Y-82980000D01*
X179328380Y-82989560D01*
X179328380Y-82989562D01*
X179330436Y-83005283D01*
X179331500Y-83021620D01*
X179331500Y-121930633D01*
X179330000Y-121950018D01*
X179326309Y-121973724D01*
X179327130Y-121980000D01*
X179326835Y-121980000D01*
X179345465Y-122216711D01*
X179346619Y-122221518D01*
X179346620Y-122221524D01*
X179357818Y-122268167D01*
X179400895Y-122447594D01*
X179402788Y-122452165D01*
X179402789Y-122452167D01*
X179485195Y-122651113D01*
X179491760Y-122666963D01*
X179494346Y-122671183D01*
X179613241Y-122865202D01*
X179613245Y-122865208D01*
X179615824Y-122869416D01*
X179770031Y-123049969D01*
X179950584Y-123204176D01*
X179954792Y-123206755D01*
X179954798Y-123206759D01*
X180148817Y-123325654D01*
X180153037Y-123328240D01*
X180157607Y-123330133D01*
X180157611Y-123330135D01*
X180367833Y-123417211D01*
X180372406Y-123419105D01*
X180452609Y-123438360D01*
X180598476Y-123473380D01*
X180598482Y-123473381D01*
X180603289Y-123474535D01*
X180840000Y-123493165D01*
X181076711Y-123474535D01*
X181081518Y-123473381D01*
X181081524Y-123473380D01*
X181227391Y-123438360D01*
X181307594Y-123419105D01*
X181312167Y-123417211D01*
X181522389Y-123330135D01*
X181522393Y-123330133D01*
X181526963Y-123328240D01*
X181531183Y-123325654D01*
X181725202Y-123206759D01*
X181725208Y-123206755D01*
X181729416Y-123204176D01*
X181909969Y-123049969D01*
X182064176Y-122869416D01*
X182066755Y-122865208D01*
X182066759Y-122865202D01*
X182185654Y-122671183D01*
X182188240Y-122666963D01*
X182194806Y-122651113D01*
X182277211Y-122452167D01*
X182277212Y-122452165D01*
X182279105Y-122447594D01*
X182322182Y-122268167D01*
X182333380Y-122221524D01*
X182333381Y-122221518D01*
X182334535Y-122216711D01*
X182350512Y-122013704D01*
X182351871Y-122002684D01*
X182352768Y-121997356D01*
X182352768Y-121997351D01*
X182353576Y-121992552D01*
X182353729Y-121980000D01*
X182349773Y-121952376D01*
X182348500Y-121934514D01*
X182348500Y-121790221D01*
X182368502Y-121722100D01*
X182422158Y-121675607D01*
X182492432Y-121665503D01*
X182557012Y-121694997D01*
X182562422Y-121699967D01*
X182585142Y-121722100D01*
X182607809Y-121744181D01*
X182612605Y-121747386D01*
X182612608Y-121747388D01*
X182707167Y-121810570D01*
X182784843Y-121862471D01*
X182790146Y-121864749D01*
X182790149Y-121864751D01*
X182973413Y-121943487D01*
X182980470Y-121946519D01*
X183038457Y-121959640D01*
X183182501Y-121992234D01*
X183182506Y-121992235D01*
X183188138Y-121993509D01*
X183193909Y-121993736D01*
X183193911Y-121993736D01*
X183255252Y-121996146D01*
X183400891Y-122001869D01*
X183406600Y-122001041D01*
X183406604Y-122001041D01*
X183605890Y-121972145D01*
X183605894Y-121972144D01*
X183611605Y-121971316D01*
X183813223Y-121902876D01*
X183998993Y-121798840D01*
X184124931Y-121694099D01*
X184190095Y-121665918D01*
X184260150Y-121677442D01*
X184312854Y-121725011D01*
X184331500Y-121790973D01*
X184331500Y-122790633D01*
X184330000Y-122810018D01*
X184327756Y-122824432D01*
X184326309Y-122833724D01*
X184327473Y-122842627D01*
X184327473Y-122842628D01*
X184328839Y-122853076D01*
X184329751Y-122875594D01*
X184321185Y-123049969D01*
X184314991Y-123176045D01*
X184313779Y-123188345D01*
X184292747Y-123330135D01*
X184265321Y-123515031D01*
X184262909Y-123527159D01*
X184182661Y-123847523D01*
X184179072Y-123859355D01*
X184067810Y-124170311D01*
X184063078Y-124181735D01*
X184011932Y-124289875D01*
X183940650Y-124440590D01*
X183921874Y-124480288D01*
X183916047Y-124491188D01*
X183884600Y-124543655D01*
X183746256Y-124774467D01*
X183739386Y-124784748D01*
X183542650Y-125050017D01*
X183534823Y-125059556D01*
X183313445Y-125303808D01*
X183313020Y-125304277D01*
X183304282Y-125313015D01*
X183059556Y-125534823D01*
X183050017Y-125542650D01*
X182855517Y-125686901D01*
X182784748Y-125739386D01*
X182774467Y-125746256D01*
X182707306Y-125786511D01*
X182491188Y-125916047D01*
X182480292Y-125921872D01*
X182392300Y-125963489D01*
X182181735Y-126063078D01*
X182170311Y-126067810D01*
X181859355Y-126179072D01*
X181847523Y-126182661D01*
X181699733Y-126219681D01*
X181527156Y-126262910D01*
X181515034Y-126265320D01*
X181188345Y-126313779D01*
X181176051Y-126314990D01*
X180882961Y-126329390D01*
X180857402Y-126328042D01*
X180846276Y-126326309D01*
X180814714Y-126330436D01*
X180798379Y-126331500D01*
X179790973Y-126331500D01*
X179722852Y-126311498D01*
X179676359Y-126257842D01*
X179666255Y-126187568D01*
X179694099Y-126124931D01*
X179697225Y-126121173D01*
X179798840Y-125998993D01*
X179902876Y-125813223D01*
X179971316Y-125611605D01*
X179974076Y-125592575D01*
X180001337Y-125404561D01*
X180001337Y-125404559D01*
X180001869Y-125400891D01*
X180003463Y-125340000D01*
X179985996Y-125149908D01*
X179984510Y-125133730D01*
X179984509Y-125133727D01*
X179983981Y-125127976D01*
X179970450Y-125080000D01*
X179927754Y-124928611D01*
X179927753Y-124928609D01*
X179926186Y-124923052D01*
X179916846Y-124904111D01*
X179834570Y-124737273D01*
X179832015Y-124732092D01*
X179704622Y-124561491D01*
X179548271Y-124416963D01*
X179368201Y-124303347D01*
X179170441Y-124224449D01*
X179164781Y-124223323D01*
X179164777Y-124223322D01*
X178967282Y-124184038D01*
X178967280Y-124184038D01*
X178961615Y-124182911D01*
X178955840Y-124182835D01*
X178955836Y-124182835D01*
X178849161Y-124181439D01*
X178748716Y-124180124D01*
X178743019Y-124181103D01*
X178743018Y-124181103D01*
X178544564Y-124215203D01*
X178544561Y-124215204D01*
X178538874Y-124216181D01*
X178339116Y-124289875D01*
X178156134Y-124398739D01*
X177996054Y-124539125D01*
X177864238Y-124706333D01*
X177861549Y-124711444D01*
X177861547Y-124711447D01*
X177807085Y-124814961D01*
X177765100Y-124894762D01*
X177763386Y-124900283D01*
X177763384Y-124900287D01*
X177717923Y-125046695D01*
X177701961Y-125098102D01*
X177676936Y-125309544D01*
X177678932Y-125340000D01*
X177690861Y-125522006D01*
X177692283Y-125527604D01*
X177692283Y-125527606D01*
X177715006Y-125617075D01*
X177743272Y-125728372D01*
X177745689Y-125733615D01*
X177823291Y-125901947D01*
X177832411Y-125921731D01*
X177955296Y-126095609D01*
X177959430Y-126099636D01*
X177959435Y-126099642D01*
X177975453Y-126115246D01*
X178010291Y-126177107D01*
X178006154Y-126247983D01*
X177964355Y-126305371D01*
X177898165Y-126331051D01*
X177887532Y-126331500D01*
X150640607Y-126331500D01*
X150572486Y-126311498D01*
X150525993Y-126257842D01*
X150515889Y-126187568D01*
X150543733Y-126124931D01*
X150665159Y-125978931D01*
X150668850Y-125974493D01*
X150772886Y-125788723D01*
X150841326Y-125587105D01*
X150851602Y-125516239D01*
X150871347Y-125380061D01*
X150871347Y-125380059D01*
X150871879Y-125376391D01*
X150873473Y-125315500D01*
X150860471Y-125174000D01*
X150854520Y-125109230D01*
X150854519Y-125109227D01*
X150853991Y-125103476D01*
X150796196Y-124898552D01*
X150791804Y-124889644D01*
X150704580Y-124712773D01*
X150702025Y-124707592D01*
X150574632Y-124536991D01*
X150418281Y-124392463D01*
X150238211Y-124278847D01*
X150040451Y-124199949D01*
X150034791Y-124198823D01*
X150034787Y-124198822D01*
X149837292Y-124159538D01*
X149837290Y-124159538D01*
X149831625Y-124158411D01*
X149825850Y-124158335D01*
X149825846Y-124158335D01*
X149719171Y-124156939D01*
X149618726Y-124155624D01*
X149613029Y-124156603D01*
X149613028Y-124156603D01*
X149414574Y-124190703D01*
X149414571Y-124190704D01*
X149408884Y-124191681D01*
X149209126Y-124265375D01*
X149026144Y-124374239D01*
X148866064Y-124514625D01*
X148734248Y-124681833D01*
X148731559Y-124686944D01*
X148731557Y-124686947D01*
X148682719Y-124779773D01*
X148635110Y-124870262D01*
X148633396Y-124875783D01*
X148633394Y-124875787D01*
X148618718Y-124923052D01*
X148571971Y-125073602D01*
X148546946Y-125285044D01*
X148548942Y-125315500D01*
X148560871Y-125497506D01*
X148562293Y-125503104D01*
X148562293Y-125503106D01*
X148585016Y-125592575D01*
X148613282Y-125703872D01*
X148615699Y-125709115D01*
X148652399Y-125788723D01*
X148702421Y-125897231D01*
X148825306Y-126071109D01*
X148829440Y-126075136D01*
X148829445Y-126075142D01*
X148870613Y-126115246D01*
X148905451Y-126177107D01*
X148901314Y-126247983D01*
X148859515Y-126305371D01*
X148793325Y-126331051D01*
X148782692Y-126331500D01*
X145308741Y-126331500D01*
X145240620Y-126311498D01*
X145194127Y-126257842D01*
X145184023Y-126187568D01*
X145213517Y-126122988D01*
X145219801Y-126116249D01*
X145303884Y-126032460D01*
X145373096Y-125963489D01*
X145503453Y-125782077D01*
X145516995Y-125754678D01*
X145600136Y-125586453D01*
X145600137Y-125586451D01*
X145602430Y-125581811D01*
X145649030Y-125428433D01*
X145665865Y-125373023D01*
X145665865Y-125373021D01*
X145667370Y-125368069D01*
X145696529Y-125146590D01*
X145697442Y-125109230D01*
X145698074Y-125083365D01*
X145698074Y-125083361D01*
X145698156Y-125080000D01*
X145679852Y-124857361D01*
X145625431Y-124640702D01*
X145536354Y-124435840D01*
X145452632Y-124306426D01*
X145417822Y-124252617D01*
X145417820Y-124252614D01*
X145415014Y-124248277D01*
X145264670Y-124083051D01*
X145260615Y-124079848D01*
X145141407Y-123985703D01*
X145100345Y-123927785D01*
X145093500Y-123886821D01*
X145093500Y-123251371D01*
X145113502Y-123183250D01*
X145130405Y-123162276D01*
X147177531Y-121115150D01*
X158566482Y-121115150D01*
X158566998Y-121121294D01*
X158583249Y-121314820D01*
X158583852Y-121322004D01*
X158641069Y-121521545D01*
X158643887Y-121527027D01*
X158643888Y-121527031D01*
X158733135Y-121700686D01*
X158735955Y-121706173D01*
X158739786Y-121711007D01*
X158739787Y-121711008D01*
X158771282Y-121750745D01*
X158864894Y-121868854D01*
X158869581Y-121872843D01*
X158869584Y-121872846D01*
X159018284Y-121999399D01*
X159022976Y-122003392D01*
X159204180Y-122104664D01*
X159401603Y-122168810D01*
X159607725Y-122193389D01*
X159613860Y-122192917D01*
X159613862Y-122192917D01*
X159808555Y-122177936D01*
X159808560Y-122177935D01*
X159814696Y-122177463D01*
X159820626Y-122175807D01*
X159820628Y-122175807D01*
X159914664Y-122149552D01*
X160014632Y-122121640D01*
X160046535Y-122105525D01*
X160194414Y-122030826D01*
X160194416Y-122030825D01*
X160199917Y-122028046D01*
X160216345Y-122015211D01*
X160282339Y-121989033D01*
X160293919Y-121988500D01*
X161978610Y-121988500D01*
X161989152Y-121988942D01*
X162041099Y-121993304D01*
X162047859Y-121992402D01*
X162047861Y-121992402D01*
X162121602Y-121982563D01*
X162124657Y-121982193D01*
X162156889Y-121978691D01*
X162205437Y-121973417D01*
X162211901Y-121971242D01*
X162215176Y-121970522D01*
X162215572Y-121970452D01*
X162215996Y-121970329D01*
X162219216Y-121969538D01*
X162225989Y-121968634D01*
X162302323Y-121940851D01*
X162305198Y-121939844D01*
X162338703Y-121928568D01*
X162382223Y-121913922D01*
X162388077Y-121910404D01*
X162391084Y-121909015D01*
X162391489Y-121908848D01*
X162391865Y-121908643D01*
X162394852Y-121907173D01*
X162401268Y-121904838D01*
X162469920Y-121861270D01*
X162472389Y-121859745D01*
X162542109Y-121817853D01*
X162547066Y-121813166D01*
X162549723Y-121811149D01*
X162550469Y-121810631D01*
X162554402Y-121807656D01*
X162558759Y-121804891D01*
X162563032Y-121801070D01*
X162617010Y-121747092D01*
X162619532Y-121744638D01*
X162643365Y-121722100D01*
X162677636Y-121689692D01*
X162681474Y-121684044D01*
X162685893Y-121678852D01*
X162686293Y-121679192D01*
X162692902Y-121671200D01*
X164878665Y-119485438D01*
X167907000Y-119485438D01*
X167907337Y-119491953D01*
X167916894Y-119584057D01*
X167919788Y-119597456D01*
X167969381Y-119746107D01*
X167975555Y-119759286D01*
X168057788Y-119892173D01*
X168066824Y-119903574D01*
X168177429Y-120013986D01*
X168188840Y-120022998D01*
X168321880Y-120105004D01*
X168335061Y-120111151D01*
X168483814Y-120160491D01*
X168497190Y-120163358D01*
X168588097Y-120172672D01*
X168593126Y-120172929D01*
X168608124Y-120168525D01*
X168609329Y-120167135D01*
X168611000Y-120159452D01*
X168611000Y-119462115D01*
X168606525Y-119446876D01*
X168605135Y-119445671D01*
X168597452Y-119444000D01*
X167925115Y-119444000D01*
X167909876Y-119448475D01*
X167908671Y-119449865D01*
X167907000Y-119457548D01*
X167907000Y-119485438D01*
X164878665Y-119485438D01*
X165938698Y-118425405D01*
X166001010Y-118391379D01*
X166027793Y-118388500D01*
X167893171Y-118388500D01*
X167961292Y-118408502D01*
X168007785Y-118462158D01*
X168017889Y-118532432D01*
X168000431Y-118580616D01*
X167974996Y-118621880D01*
X167968849Y-118635061D01*
X167919509Y-118783814D01*
X167916642Y-118797190D01*
X167907328Y-118888097D01*
X167907000Y-118894514D01*
X167907000Y-118917885D01*
X167911475Y-118933124D01*
X167912865Y-118934329D01*
X167920548Y-118936000D01*
X168993000Y-118936000D01*
X169061121Y-118956002D01*
X169107614Y-119009658D01*
X169119000Y-119062000D01*
X169119000Y-120154885D01*
X169123475Y-120170124D01*
X169124865Y-120171329D01*
X169132548Y-120173000D01*
X169135438Y-120173000D01*
X169141953Y-120172663D01*
X169234057Y-120163106D01*
X169247456Y-120160212D01*
X169396107Y-120110619D01*
X169409286Y-120104445D01*
X169542173Y-120022212D01*
X169559311Y-120008629D01*
X169560841Y-120010559D01*
X169612880Y-119982097D01*
X169683699Y-119987113D01*
X169720617Y-120010799D01*
X169721372Y-120009843D01*
X169727118Y-120014381D01*
X169732298Y-120019552D01*
X169738528Y-120023392D01*
X169738529Y-120023393D01*
X169870020Y-120104445D01*
X169877899Y-120109302D01*
X170040243Y-120163149D01*
X170047080Y-120163849D01*
X170047082Y-120163850D01*
X170088401Y-120168083D01*
X170141268Y-120173500D01*
X170688732Y-120173500D01*
X170691978Y-120173163D01*
X170691982Y-120173163D01*
X170726083Y-120169625D01*
X170791019Y-120162887D01*
X170831186Y-120149486D01*
X170946324Y-120111073D01*
X170946326Y-120111072D01*
X170953268Y-120108756D01*
X170992209Y-120084659D01*
X171092485Y-120022606D01*
X171098713Y-120018752D01*
X171131925Y-119985482D01*
X171194207Y-119951403D01*
X171221098Y-119948500D01*
X172002930Y-119948500D01*
X172021880Y-119949933D01*
X172036115Y-119952099D01*
X172036119Y-119952099D01*
X172043349Y-119953199D01*
X172050641Y-119952606D01*
X172050644Y-119952606D01*
X172096018Y-119948915D01*
X172106233Y-119948500D01*
X172114293Y-119948500D01*
X172127583Y-119946951D01*
X172142507Y-119945211D01*
X172146882Y-119944778D01*
X172212339Y-119939454D01*
X172212342Y-119939453D01*
X172219637Y-119938860D01*
X172226601Y-119936604D01*
X172232560Y-119935413D01*
X172238415Y-119934029D01*
X172245681Y-119933182D01*
X172314327Y-119908265D01*
X172318455Y-119906848D01*
X172380936Y-119886607D01*
X172380938Y-119886606D01*
X172387899Y-119884351D01*
X172394154Y-119880555D01*
X172399628Y-119878049D01*
X172405058Y-119875330D01*
X172411937Y-119872833D01*
X172437447Y-119856108D01*
X172472976Y-119832814D01*
X172476680Y-119830477D01*
X172539107Y-119792595D01*
X172544451Y-119787876D01*
X172547484Y-119785197D01*
X172547508Y-119785224D01*
X172550500Y-119782571D01*
X172553733Y-119779868D01*
X172559852Y-119775856D01*
X172613128Y-119719617D01*
X172615506Y-119717175D01*
X173388911Y-118943770D01*
X173403323Y-118931384D01*
X173414918Y-118922851D01*
X173414923Y-118922846D01*
X173420818Y-118918508D01*
X173425557Y-118912930D01*
X173425560Y-118912927D01*
X173455035Y-118878232D01*
X173461965Y-118870716D01*
X173467660Y-118865021D01*
X173485281Y-118842749D01*
X173488072Y-118839345D01*
X173530591Y-118789297D01*
X173530592Y-118789295D01*
X173535333Y-118783715D01*
X173538661Y-118777199D01*
X173542028Y-118772150D01*
X173545195Y-118767021D01*
X173549734Y-118761284D01*
X173580655Y-118695125D01*
X173582561Y-118691225D01*
X173588453Y-118679687D01*
X173615769Y-118626192D01*
X173617508Y-118619084D01*
X173619607Y-118613441D01*
X173621524Y-118607678D01*
X173624622Y-118601050D01*
X173639487Y-118529583D01*
X173640457Y-118525299D01*
X173643179Y-118514176D01*
X173657808Y-118454390D01*
X173658500Y-118443236D01*
X173658536Y-118443238D01*
X173658775Y-118439245D01*
X173659149Y-118435053D01*
X173660640Y-118427885D01*
X173658546Y-118350479D01*
X173658500Y-118347072D01*
X173658500Y-114727069D01*
X173659933Y-114708118D01*
X173662099Y-114693883D01*
X173662099Y-114693881D01*
X173663199Y-114686651D01*
X173662069Y-114672749D01*
X173658915Y-114633982D01*
X173658500Y-114623767D01*
X173658500Y-114615707D01*
X173655211Y-114587493D01*
X173654778Y-114583118D01*
X173649454Y-114517661D01*
X173649453Y-114517658D01*
X173648860Y-114510363D01*
X173646604Y-114503399D01*
X173645413Y-114497440D01*
X173644029Y-114491585D01*
X173643182Y-114484319D01*
X173618265Y-114415673D01*
X173616848Y-114411545D01*
X173596607Y-114349064D01*
X173596606Y-114349062D01*
X173594351Y-114342101D01*
X173590555Y-114335846D01*
X173588049Y-114330372D01*
X173585330Y-114324942D01*
X173582833Y-114318063D01*
X173542809Y-114257016D01*
X173540472Y-114253312D01*
X173505509Y-114195693D01*
X173505505Y-114195688D01*
X173502595Y-114190892D01*
X173495197Y-114182516D01*
X173495223Y-114182493D01*
X173492574Y-114179503D01*
X173489866Y-114176264D01*
X173485856Y-114170148D01*
X173480549Y-114165121D01*
X173480546Y-114165117D01*
X173429617Y-114116872D01*
X173427175Y-114114494D01*
X172653770Y-113341089D01*
X172641384Y-113326677D01*
X172632851Y-113315082D01*
X172632846Y-113315077D01*
X172628508Y-113309182D01*
X172622930Y-113304443D01*
X172622927Y-113304440D01*
X172588232Y-113274965D01*
X172580716Y-113268035D01*
X172575021Y-113262340D01*
X172563974Y-113253600D01*
X172552749Y-113244719D01*
X172549345Y-113241928D01*
X172499297Y-113199409D01*
X172499295Y-113199408D01*
X172493715Y-113194667D01*
X172487199Y-113191339D01*
X172482150Y-113187972D01*
X172477021Y-113184805D01*
X172471284Y-113180266D01*
X172405125Y-113149345D01*
X172401225Y-113147439D01*
X172382742Y-113138001D01*
X172336192Y-113114231D01*
X172329084Y-113112492D01*
X172323441Y-113110393D01*
X172317678Y-113108476D01*
X172311050Y-113105378D01*
X172293594Y-113101747D01*
X172270252Y-113096892D01*
X172239583Y-113090513D01*
X172235299Y-113089543D01*
X172164390Y-113072192D01*
X172158788Y-113071844D01*
X172158785Y-113071844D01*
X172153236Y-113071500D01*
X172153238Y-113071464D01*
X172149245Y-113071225D01*
X172145053Y-113070851D01*
X172137885Y-113069360D01*
X172071675Y-113071151D01*
X172060479Y-113071454D01*
X172057072Y-113071500D01*
X171692269Y-113071500D01*
X171624148Y-113051498D01*
X171611954Y-113042585D01*
X171603331Y-113035451D01*
X171603322Y-113035445D01*
X171598580Y-113031522D01*
X171593163Y-113028593D01*
X171593160Y-113028591D01*
X171515906Y-112986821D01*
X171433231Y-112942119D01*
X171253666Y-112886534D01*
X171247541Y-112885890D01*
X171247540Y-112885890D01*
X171072852Y-112867529D01*
X171072851Y-112867529D01*
X171066724Y-112866885D01*
X170989673Y-112873897D01*
X170885665Y-112883363D01*
X170885662Y-112883364D01*
X170879526Y-112883922D01*
X170873620Y-112885660D01*
X170873616Y-112885661D01*
X170766113Y-112917301D01*
X170699202Y-112936994D01*
X170693742Y-112939848D01*
X170693743Y-112939848D01*
X170550273Y-113014852D01*
X170532621Y-113024080D01*
X170386128Y-113141864D01*
X170382170Y-113146582D01*
X170382167Y-113146584D01*
X170299703Y-113244861D01*
X170265302Y-113285859D01*
X170262338Y-113291251D01*
X170262335Y-113291255D01*
X170214720Y-113377868D01*
X170174746Y-113450580D01*
X170172885Y-113456447D01*
X170172884Y-113456449D01*
X170166179Y-113477586D01*
X170117909Y-113629752D01*
X170096956Y-113816552D01*
X170097472Y-113822696D01*
X170111233Y-113986568D01*
X170112685Y-114003865D01*
X170126452Y-114051877D01*
X170162753Y-114178472D01*
X170164497Y-114184555D01*
X170167312Y-114190032D01*
X170167313Y-114190035D01*
X170233110Y-114318063D01*
X170250418Y-114351740D01*
X170254241Y-114356564D01*
X170254244Y-114356568D01*
X170274245Y-114381802D01*
X170300883Y-114447612D01*
X170301500Y-114460067D01*
X170301500Y-114763355D01*
X170281498Y-114831476D01*
X170236009Y-114873875D01*
X170231700Y-114876234D01*
X170223295Y-114879385D01*
X170106739Y-114966739D01*
X170019385Y-115083295D01*
X169968255Y-115219684D01*
X169961500Y-115281866D01*
X169961500Y-115978134D01*
X169968255Y-116040316D01*
X170019385Y-116176705D01*
X170106739Y-116293261D01*
X170223295Y-116380615D01*
X170359684Y-116431745D01*
X170421866Y-116438500D01*
X171518134Y-116438500D01*
X171580316Y-116431745D01*
X171716705Y-116380615D01*
X171833261Y-116293261D01*
X171914674Y-116184632D01*
X171971533Y-116142117D01*
X172042352Y-116137091D01*
X172104645Y-116171151D01*
X172138635Y-116233482D01*
X172141500Y-116260197D01*
X172141500Y-116899803D01*
X172121498Y-116967924D01*
X172067842Y-117014417D01*
X171997568Y-117024521D01*
X171932988Y-116995027D01*
X171914674Y-116975368D01*
X171868828Y-116914196D01*
X171833261Y-116866739D01*
X171716705Y-116779385D01*
X171580316Y-116728255D01*
X171518134Y-116721500D01*
X170421866Y-116721500D01*
X170359684Y-116728255D01*
X170223295Y-116779385D01*
X170106739Y-116866739D01*
X170019385Y-116983295D01*
X169968255Y-117119684D01*
X169961500Y-117181866D01*
X169961500Y-117878134D01*
X169968255Y-117940316D01*
X169984105Y-117982595D01*
X170019385Y-118076705D01*
X170018155Y-118077166D01*
X170031375Y-118137599D01*
X170006642Y-118204148D01*
X169945562Y-118248280D01*
X169883679Y-118268926D01*
X169883677Y-118268927D01*
X169876732Y-118271244D01*
X169870508Y-118275096D01*
X169870507Y-118275096D01*
X169778963Y-118331745D01*
X169731287Y-118361248D01*
X169726114Y-118366430D01*
X169720377Y-118370977D01*
X169718945Y-118369170D01*
X169666425Y-118397902D01*
X169595605Y-118392892D01*
X169559147Y-118369501D01*
X169558317Y-118370552D01*
X169541160Y-118357002D01*
X169408120Y-118274996D01*
X169394938Y-118268849D01*
X169385190Y-118265615D01*
X169326832Y-118225183D01*
X169299597Y-118159618D01*
X169314342Y-118085512D01*
X169315230Y-118083890D01*
X169320615Y-118076705D01*
X169371745Y-117940316D01*
X169378500Y-117878134D01*
X169378500Y-117181866D01*
X169371745Y-117119684D01*
X169363810Y-117098517D01*
X169358627Y-117027711D01*
X169363810Y-117010058D01*
X169368478Y-116997605D01*
X169372105Y-116982351D01*
X169377631Y-116931486D01*
X169378000Y-116924672D01*
X169378000Y-116852115D01*
X169373525Y-116836876D01*
X169372135Y-116835671D01*
X169364452Y-116834000D01*
X169231553Y-116834000D01*
X169163432Y-116813998D01*
X169155988Y-116808826D01*
X169154625Y-116807804D01*
X169116705Y-116779385D01*
X168980316Y-116728255D01*
X168918134Y-116721500D01*
X168693276Y-116721500D01*
X168653431Y-116714904D01*
X168648296Y-116712510D01*
X168606006Y-116703057D01*
X168543890Y-116668677D01*
X168510221Y-116606171D01*
X168515691Y-116535385D01*
X168558562Y-116478794D01*
X168593305Y-116460673D01*
X168639637Y-116445081D01*
X168679825Y-116438500D01*
X168918134Y-116438500D01*
X168980316Y-116431745D01*
X169116705Y-116380615D01*
X169155988Y-116351174D01*
X169222494Y-116326326D01*
X169231553Y-116326000D01*
X169359884Y-116326000D01*
X169375123Y-116321525D01*
X169376328Y-116320135D01*
X169377999Y-116312452D01*
X169377999Y-116235331D01*
X169377629Y-116228510D01*
X169372105Y-116177648D01*
X169368479Y-116162397D01*
X169363810Y-116149942D01*
X169358627Y-116079135D01*
X169363808Y-116061488D01*
X169371745Y-116040316D01*
X169378500Y-115978134D01*
X169378500Y-115281866D01*
X169371745Y-115219684D01*
X169320615Y-115083295D01*
X169233261Y-114966739D01*
X169116705Y-114879385D01*
X168980316Y-114828255D01*
X168918134Y-114821500D01*
X168693276Y-114821500D01*
X168653431Y-114814904D01*
X168648296Y-114812510D01*
X168466260Y-114771820D01*
X168460537Y-114771500D01*
X167561391Y-114771500D01*
X167550848Y-114771058D01*
X167498902Y-114766696D01*
X167492142Y-114767598D01*
X167492141Y-114767598D01*
X167418397Y-114777438D01*
X167415340Y-114777808D01*
X167341343Y-114785846D01*
X167341339Y-114785847D01*
X167334563Y-114786583D01*
X167328100Y-114788758D01*
X167324824Y-114789478D01*
X167324428Y-114789548D01*
X167324004Y-114789671D01*
X167320784Y-114790462D01*
X167314011Y-114791366D01*
X167237677Y-114819149D01*
X167234802Y-114820156D01*
X167216227Y-114826407D01*
X167157777Y-114846078D01*
X167151923Y-114849596D01*
X167148916Y-114850985D01*
X167148511Y-114851152D01*
X167148135Y-114851357D01*
X167145148Y-114852827D01*
X167138732Y-114855162D01*
X167070080Y-114898730D01*
X167067611Y-114900255D01*
X166997891Y-114942147D01*
X166992934Y-114946834D01*
X166990277Y-114948851D01*
X166989543Y-114949361D01*
X166985605Y-114952339D01*
X166981241Y-114955109D01*
X166976968Y-114958929D01*
X166922972Y-115012925D01*
X166920450Y-115015379D01*
X166862364Y-115070308D01*
X166858526Y-115075956D01*
X166854107Y-115081148D01*
X166853707Y-115080808D01*
X166847100Y-115088797D01*
X165022972Y-116912925D01*
X165020450Y-116915379D01*
X164962364Y-116970308D01*
X164958526Y-116975956D01*
X164954107Y-116981148D01*
X164953707Y-116980808D01*
X164947100Y-116988797D01*
X161701302Y-120234595D01*
X161638990Y-120268621D01*
X161612207Y-120271500D01*
X160296735Y-120271500D01*
X160227227Y-120250249D01*
X160224770Y-120248217D01*
X160219351Y-120245287D01*
X160219348Y-120245285D01*
X160047590Y-120152416D01*
X160047585Y-120152414D01*
X160042170Y-120149486D01*
X159843871Y-120088102D01*
X159837746Y-120087458D01*
X159837745Y-120087458D01*
X159643554Y-120067048D01*
X159643552Y-120067048D01*
X159637425Y-120066404D01*
X159551515Y-120074223D01*
X159436836Y-120084659D01*
X159436833Y-120084660D01*
X159430697Y-120085218D01*
X159424791Y-120086956D01*
X159424787Y-120086957D01*
X159290120Y-120126592D01*
X159231560Y-120143827D01*
X159047600Y-120239999D01*
X159042800Y-120243859D01*
X159042799Y-120243859D01*
X159038676Y-120247174D01*
X158885823Y-120370071D01*
X158881865Y-120374788D01*
X158881863Y-120374790D01*
X158794688Y-120478681D01*
X158752391Y-120529089D01*
X158749427Y-120534481D01*
X158749424Y-120534485D01*
X158694864Y-120633730D01*
X158652387Y-120710995D01*
X158589621Y-120908861D01*
X158588935Y-120914978D01*
X158588934Y-120914982D01*
X158577599Y-121016037D01*
X158566482Y-121115150D01*
X147177531Y-121115150D01*
X147648911Y-120643770D01*
X147663323Y-120631384D01*
X147674918Y-120622851D01*
X147674923Y-120622846D01*
X147680818Y-120618508D01*
X147685557Y-120612930D01*
X147685560Y-120612927D01*
X147715035Y-120578232D01*
X147721965Y-120570716D01*
X147727660Y-120565021D01*
X147745281Y-120542749D01*
X147748072Y-120539345D01*
X147790591Y-120489297D01*
X147790592Y-120489295D01*
X147795333Y-120483715D01*
X147798661Y-120477199D01*
X147802028Y-120472150D01*
X147805195Y-120467021D01*
X147809734Y-120461284D01*
X147840655Y-120395125D01*
X147842561Y-120391225D01*
X147875769Y-120326192D01*
X147877508Y-120319084D01*
X147879607Y-120313441D01*
X147881524Y-120307678D01*
X147884622Y-120301050D01*
X147899487Y-120229583D01*
X147900457Y-120225299D01*
X147906494Y-120200629D01*
X147917808Y-120154390D01*
X147918500Y-120143236D01*
X147918536Y-120143238D01*
X147918775Y-120139245D01*
X147919149Y-120135053D01*
X147920640Y-120127885D01*
X147918546Y-120050479D01*
X147918500Y-120047072D01*
X147918500Y-118704965D01*
X147938502Y-118636844D01*
X147978664Y-118597533D01*
X147984614Y-118593887D01*
X148049416Y-118554176D01*
X148205851Y-118420568D01*
X148226213Y-118403177D01*
X148229969Y-118399969D01*
X148239765Y-118388500D01*
X148380963Y-118223178D01*
X148384176Y-118219416D01*
X148396893Y-118198664D01*
X148449538Y-118151034D01*
X148504324Y-118138500D01*
X149502930Y-118138500D01*
X149521880Y-118139933D01*
X149536115Y-118142099D01*
X149536119Y-118142099D01*
X149543349Y-118143199D01*
X149550641Y-118142606D01*
X149550644Y-118142606D01*
X149596018Y-118138915D01*
X149606233Y-118138500D01*
X149614293Y-118138500D01*
X149627583Y-118136951D01*
X149642507Y-118135211D01*
X149646882Y-118134778D01*
X149712339Y-118129454D01*
X149712342Y-118129453D01*
X149719637Y-118128860D01*
X149726601Y-118126604D01*
X149732560Y-118125413D01*
X149738415Y-118124029D01*
X149745681Y-118123182D01*
X149814327Y-118098265D01*
X149818455Y-118096848D01*
X149880936Y-118076607D01*
X149880938Y-118076606D01*
X149887899Y-118074351D01*
X149894154Y-118070555D01*
X149899628Y-118068049D01*
X149905058Y-118065330D01*
X149911937Y-118062833D01*
X149918058Y-118058820D01*
X149972976Y-118022814D01*
X149976680Y-118020477D01*
X150039107Y-117982595D01*
X150047484Y-117975197D01*
X150047508Y-117975224D01*
X150050500Y-117972571D01*
X150053733Y-117969868D01*
X150059852Y-117965856D01*
X150113128Y-117909617D01*
X150115506Y-117907175D01*
X153248911Y-114773770D01*
X153263323Y-114761384D01*
X153274918Y-114752851D01*
X153274923Y-114752846D01*
X153280818Y-114748508D01*
X153285557Y-114742930D01*
X153285560Y-114742927D01*
X153315035Y-114708232D01*
X153321965Y-114700716D01*
X153327660Y-114695021D01*
X153334282Y-114686651D01*
X153345281Y-114672749D01*
X153348072Y-114669345D01*
X153390591Y-114619297D01*
X153390592Y-114619295D01*
X153395333Y-114613715D01*
X153398661Y-114607199D01*
X153402028Y-114602150D01*
X153405195Y-114597021D01*
X153409734Y-114591284D01*
X153440655Y-114525125D01*
X153442561Y-114521225D01*
X153444381Y-114517661D01*
X153475769Y-114456192D01*
X153477508Y-114449084D01*
X153479607Y-114443441D01*
X153481524Y-114437678D01*
X153484622Y-114431050D01*
X153499487Y-114359583D01*
X153500457Y-114355299D01*
X153502668Y-114346263D01*
X153517808Y-114284390D01*
X153518500Y-114273236D01*
X153518536Y-114273238D01*
X153518775Y-114269245D01*
X153519149Y-114265053D01*
X153520640Y-114257885D01*
X153518546Y-114180479D01*
X153518500Y-114177072D01*
X153518500Y-105416000D01*
X153538502Y-105347879D01*
X153592158Y-105301386D01*
X153644500Y-105290000D01*
X155508134Y-105290000D01*
X155570316Y-105283245D01*
X155706705Y-105232115D01*
X155823261Y-105144761D01*
X155910615Y-105028205D01*
X155961745Y-104891816D01*
X155968500Y-104829634D01*
X155968500Y-103553949D01*
X155988502Y-103485828D01*
X156042158Y-103439335D01*
X156112432Y-103429231D01*
X156177012Y-103458725D01*
X156183595Y-103464854D01*
X160036341Y-107317600D01*
X160044331Y-107326381D01*
X160044339Y-107326390D01*
X160048584Y-107333080D01*
X160054359Y-107338503D01*
X160100274Y-107381620D01*
X160103116Y-107384375D01*
X160123667Y-107404926D01*
X160126801Y-107407357D01*
X160127163Y-107407638D01*
X160136191Y-107415348D01*
X160169867Y-107446972D01*
X160176818Y-107450793D01*
X160176819Y-107450794D01*
X160188655Y-107457301D01*
X160205184Y-107468158D01*
X160215869Y-107476447D01*
X160215871Y-107476448D01*
X160222131Y-107481304D01*
X160264544Y-107499657D01*
X160275181Y-107504868D01*
X160315663Y-107527124D01*
X160323342Y-107529096D01*
X160323343Y-107529096D01*
X160336434Y-107532457D01*
X160355136Y-107538859D01*
X160374823Y-107547379D01*
X160382652Y-107548619D01*
X160420448Y-107554605D01*
X160432074Y-107557013D01*
X160469135Y-107566529D01*
X160469136Y-107566529D01*
X160476812Y-107568500D01*
X160498258Y-107568500D01*
X160517968Y-107570051D01*
X160539151Y-107573406D01*
X160585135Y-107569059D01*
X160596994Y-107568500D01*
X164073430Y-107568500D01*
X164123107Y-107578788D01*
X164129413Y-107582517D01*
X164137025Y-107584728D01*
X164137026Y-107584729D01*
X164272088Y-107623969D01*
X164272094Y-107623970D01*
X164278265Y-107625763D01*
X164299166Y-107627408D01*
X164310586Y-107628307D01*
X164310595Y-107628307D01*
X164313043Y-107628500D01*
X169265987Y-107628500D01*
X174226956Y-107628499D01*
X174244960Y-107627083D01*
X174255317Y-107626268D01*
X174255318Y-107626268D01*
X174261735Y-107625763D01*
X174267917Y-107623967D01*
X174402974Y-107584729D01*
X174402975Y-107584728D01*
X174410587Y-107582517D01*
X174426286Y-107573233D01*
X174537186Y-107507647D01*
X174544007Y-107503613D01*
X174653613Y-107394007D01*
X174732517Y-107260587D01*
X174735352Y-107250829D01*
X174773969Y-107117912D01*
X174773970Y-107117906D01*
X174775763Y-107111735D01*
X174778500Y-107076957D01*
X174778499Y-106743044D01*
X174775763Y-106708265D01*
X174732517Y-106559413D01*
X174728481Y-106552588D01*
X174728479Y-106552584D01*
X174682087Y-106474139D01*
X174664627Y-106405323D01*
X174682087Y-106345861D01*
X174728479Y-106267416D01*
X174728481Y-106267412D01*
X174732517Y-106260587D01*
X174734729Y-106252974D01*
X174773969Y-106117912D01*
X174773970Y-106117906D01*
X174775763Y-106111735D01*
X174777408Y-106090834D01*
X174778307Y-106079414D01*
X174778307Y-106079405D01*
X174778500Y-106076957D01*
X174778499Y-105743044D01*
X174775763Y-105708265D01*
X174744891Y-105602004D01*
X174734729Y-105567026D01*
X174734728Y-105567025D01*
X174732517Y-105559413D01*
X174728481Y-105552588D01*
X174728479Y-105552584D01*
X174682087Y-105474139D01*
X174664627Y-105405323D01*
X174682087Y-105345861D01*
X174728479Y-105267416D01*
X174728481Y-105267412D01*
X174732517Y-105260587D01*
X174742354Y-105226729D01*
X174773969Y-105117912D01*
X174773970Y-105117906D01*
X174775763Y-105111735D01*
X174778500Y-105076957D01*
X174778499Y-104743044D01*
X174775763Y-104708265D01*
X174757735Y-104646212D01*
X174734729Y-104567026D01*
X174734728Y-104567025D01*
X174732517Y-104559413D01*
X174728481Y-104552588D01*
X174728479Y-104552584D01*
X174682087Y-104474139D01*
X174664627Y-104405323D01*
X174682087Y-104345861D01*
X174728479Y-104267416D01*
X174728481Y-104267412D01*
X174732517Y-104260587D01*
X174746128Y-104213739D01*
X174773969Y-104117912D01*
X174773970Y-104117906D01*
X174775763Y-104111735D01*
X174778500Y-104076957D01*
X174778499Y-103743044D01*
X174775763Y-103708265D01*
X174773967Y-103702083D01*
X174734729Y-103567026D01*
X174734728Y-103567025D01*
X174732517Y-103559413D01*
X174728481Y-103552588D01*
X174728479Y-103552584D01*
X174682087Y-103474139D01*
X174664627Y-103405323D01*
X174682087Y-103345861D01*
X174728479Y-103267416D01*
X174728481Y-103267412D01*
X174732517Y-103260587D01*
X174740426Y-103233366D01*
X174773969Y-103117912D01*
X174773970Y-103117906D01*
X174775763Y-103111735D01*
X174777647Y-103087794D01*
X174778307Y-103079414D01*
X174778307Y-103079405D01*
X174778500Y-103076957D01*
X174778499Y-102743044D01*
X174775763Y-102708265D01*
X174770756Y-102691032D01*
X174734729Y-102567026D01*
X174734728Y-102567025D01*
X174732517Y-102559413D01*
X174728481Y-102552588D01*
X174728479Y-102552584D01*
X174682087Y-102474139D01*
X174664627Y-102405323D01*
X174682087Y-102345861D01*
X174728479Y-102267416D01*
X174728481Y-102267412D01*
X174732517Y-102260587D01*
X174735127Y-102251605D01*
X174773969Y-102117912D01*
X174773970Y-102117906D01*
X174775763Y-102111735D01*
X174777665Y-102087572D01*
X174778307Y-102079414D01*
X174778307Y-102079405D01*
X174778500Y-102076957D01*
X174778499Y-101743044D01*
X174775763Y-101708265D01*
X174732517Y-101559413D01*
X174728481Y-101552588D01*
X174728479Y-101552584D01*
X174682087Y-101474139D01*
X174664627Y-101405323D01*
X174682087Y-101345861D01*
X174728479Y-101267416D01*
X174728481Y-101267412D01*
X174732517Y-101260587D01*
X174748343Y-101206114D01*
X174773969Y-101117912D01*
X174773970Y-101117906D01*
X174775763Y-101111735D01*
X174778500Y-101076957D01*
X174778499Y-100743044D01*
X174777083Y-100725040D01*
X174776268Y-100714683D01*
X174776268Y-100714682D01*
X174775763Y-100708265D01*
X174773967Y-100702083D01*
X174734729Y-100567026D01*
X174734728Y-100567025D01*
X174732517Y-100559413D01*
X174728481Y-100552588D01*
X174728479Y-100552584D01*
X174682087Y-100474139D01*
X174664627Y-100405323D01*
X174682087Y-100345861D01*
X174728479Y-100267416D01*
X174728481Y-100267412D01*
X174732517Y-100260587D01*
X174739582Y-100236269D01*
X174773969Y-100117912D01*
X174773970Y-100117906D01*
X174775763Y-100111735D01*
X174778500Y-100076957D01*
X174778499Y-99743044D01*
X174775763Y-99708265D01*
X174761368Y-99658716D01*
X174734729Y-99567026D01*
X174734728Y-99567025D01*
X174732517Y-99559413D01*
X174728481Y-99552588D01*
X174728479Y-99552584D01*
X174682087Y-99474139D01*
X174664627Y-99405323D01*
X174682087Y-99345861D01*
X174728479Y-99267416D01*
X174728481Y-99267412D01*
X174732517Y-99260587D01*
X174734729Y-99252974D01*
X174773969Y-99117912D01*
X174773970Y-99117906D01*
X174775763Y-99111735D01*
X174777515Y-99089475D01*
X174778307Y-99079414D01*
X174778307Y-99079405D01*
X174778500Y-99076957D01*
X174778499Y-98743044D01*
X174775763Y-98708265D01*
X174773967Y-98702083D01*
X174734729Y-98567026D01*
X174734728Y-98567025D01*
X174732517Y-98559413D01*
X174728480Y-98552586D01*
X174681796Y-98473646D01*
X174664337Y-98404830D01*
X174681796Y-98345369D01*
X174728021Y-98267206D01*
X174734267Y-98252774D01*
X174767787Y-98137395D01*
X174767747Y-98123295D01*
X174760477Y-98120000D01*
X163785274Y-98120000D01*
X163771743Y-98123973D01*
X163768945Y-98143433D01*
X163739452Y-98208013D01*
X163679725Y-98246396D01*
X163644228Y-98251500D01*
X160775160Y-98251500D01*
X160707039Y-98231498D01*
X160701099Y-98227436D01*
X160616957Y-98166303D01*
X160616956Y-98166302D01*
X160611615Y-98162422D01*
X160605587Y-98159738D01*
X160605585Y-98159737D01*
X160452783Y-98091705D01*
X160452781Y-98091705D01*
X160446752Y-98089020D01*
X160358492Y-98070260D01*
X160276689Y-98052872D01*
X160276685Y-98052872D01*
X160270232Y-98051500D01*
X160089768Y-98051500D01*
X160083315Y-98052872D01*
X160083311Y-98052872D01*
X160001508Y-98070260D01*
X159913248Y-98089020D01*
X159907219Y-98091704D01*
X159907217Y-98091705D01*
X159754416Y-98159737D01*
X159754414Y-98159738D01*
X159748386Y-98162422D01*
X159743045Y-98166302D01*
X159743044Y-98166303D01*
X159607731Y-98264613D01*
X159607729Y-98264615D01*
X159602387Y-98268496D01*
X159481633Y-98402607D01*
X159391401Y-98558893D01*
X159335635Y-98730525D01*
X159334945Y-98737088D01*
X159334945Y-98737089D01*
X159329931Y-98784789D01*
X159316771Y-98910000D01*
X159317461Y-98916565D01*
X159334578Y-99079414D01*
X159335635Y-99089475D01*
X159391401Y-99261107D01*
X159394704Y-99266829D01*
X159394705Y-99266830D01*
X159442331Y-99349320D01*
X159459069Y-99418315D01*
X159442332Y-99475318D01*
X159411401Y-99528893D01*
X159355635Y-99700525D01*
X159354945Y-99707088D01*
X159354945Y-99707089D01*
X159350079Y-99753382D01*
X159336771Y-99880000D01*
X159355635Y-100059475D01*
X159357675Y-100065753D01*
X159357675Y-100065754D01*
X159365164Y-100088802D01*
X159411401Y-100231107D01*
X159450311Y-100298500D01*
X159476765Y-100344320D01*
X159493503Y-100413315D01*
X159476765Y-100470320D01*
X159461710Y-100496397D01*
X159431401Y-100548893D01*
X159375635Y-100720525D01*
X159374945Y-100727088D01*
X159374945Y-100727089D01*
X159364874Y-100822911D01*
X159356771Y-100900000D01*
X159357461Y-100906565D01*
X159365870Y-100986565D01*
X159375635Y-101079475D01*
X159377675Y-101085753D01*
X159377675Y-101085754D01*
X159400190Y-101155048D01*
X159431401Y-101251107D01*
X159434704Y-101256829D01*
X159434705Y-101256830D01*
X159495218Y-101361641D01*
X159511956Y-101430636D01*
X159495218Y-101487640D01*
X159471401Y-101528893D01*
X159415635Y-101700525D01*
X159396771Y-101880000D01*
X159397461Y-101886565D01*
X159405699Y-101964938D01*
X159415635Y-102059475D01*
X159417675Y-102065753D01*
X159417675Y-102065754D01*
X159434622Y-102117912D01*
X159471401Y-102231107D01*
X159474704Y-102236829D01*
X159474705Y-102236830D01*
X159515218Y-102307000D01*
X159531956Y-102375995D01*
X159515218Y-102433000D01*
X159471401Y-102508893D01*
X159457999Y-102550140D01*
X159438082Y-102611441D01*
X159415635Y-102680525D01*
X159396771Y-102860000D01*
X159397461Y-102866565D01*
X159412884Y-103013297D01*
X159415635Y-103039475D01*
X159417675Y-103045753D01*
X159417675Y-103045754D01*
X159430224Y-103084377D01*
X159471401Y-103211107D01*
X159561633Y-103367393D01*
X159566051Y-103372300D01*
X159566052Y-103372301D01*
X159617312Y-103429231D01*
X159682387Y-103501504D01*
X159687729Y-103505385D01*
X159687731Y-103505387D01*
X159772570Y-103567026D01*
X159828385Y-103607578D01*
X159834413Y-103610262D01*
X159834415Y-103610263D01*
X159966385Y-103669020D01*
X159993248Y-103680980D01*
X160081508Y-103699740D01*
X160163311Y-103717128D01*
X160163315Y-103717128D01*
X160169768Y-103718500D01*
X160350232Y-103718500D01*
X160356685Y-103717128D01*
X160356689Y-103717128D01*
X160438492Y-103699740D01*
X160526752Y-103680980D01*
X160553615Y-103669020D01*
X160685585Y-103610263D01*
X160685587Y-103610262D01*
X160691615Y-103607578D01*
X160712280Y-103592564D01*
X160786341Y-103568500D01*
X163639333Y-103568500D01*
X163707454Y-103588502D01*
X163753947Y-103642158D01*
X163762161Y-103708102D01*
X163764237Y-103708265D01*
X163761694Y-103740580D01*
X163761500Y-103743043D01*
X163761500Y-103745512D01*
X163761501Y-104025500D01*
X163741499Y-104093620D01*
X163687844Y-104140113D01*
X163635501Y-104151500D01*
X161987070Y-104151500D01*
X161968120Y-104150067D01*
X161953885Y-104147901D01*
X161953881Y-104147901D01*
X161946651Y-104146801D01*
X161939359Y-104147394D01*
X161939356Y-104147394D01*
X161893982Y-104151085D01*
X161883767Y-104151500D01*
X161875707Y-104151500D01*
X161872073Y-104151924D01*
X161872067Y-104151924D01*
X161859042Y-104153443D01*
X161847480Y-104154791D01*
X161843132Y-104155221D01*
X161770364Y-104161140D01*
X161763403Y-104163395D01*
X161757463Y-104164582D01*
X161751588Y-104165971D01*
X161744319Y-104166818D01*
X161675670Y-104191736D01*
X161671542Y-104193153D01*
X161609064Y-104213393D01*
X161609062Y-104213394D01*
X161602101Y-104215649D01*
X161595846Y-104219445D01*
X161590372Y-104221951D01*
X161584942Y-104224670D01*
X161578063Y-104227167D01*
X161571943Y-104231180D01*
X161571942Y-104231180D01*
X161517024Y-104267186D01*
X161513320Y-104269523D01*
X161450893Y-104307405D01*
X161442516Y-104314803D01*
X161442493Y-104314777D01*
X161439501Y-104317429D01*
X161436272Y-104320129D01*
X161430148Y-104324144D01*
X161429829Y-104324481D01*
X161362886Y-104352278D01*
X161293531Y-104358590D01*
X161226836Y-104364659D01*
X161226833Y-104364660D01*
X161220697Y-104365218D01*
X161214791Y-104366956D01*
X161214787Y-104366957D01*
X161084431Y-104405323D01*
X161021560Y-104423827D01*
X160837600Y-104519999D01*
X160675823Y-104650071D01*
X160671865Y-104654788D01*
X160671863Y-104654790D01*
X160650805Y-104679886D01*
X160542391Y-104809089D01*
X160539427Y-104814481D01*
X160539424Y-104814485D01*
X160445354Y-104985598D01*
X160442387Y-104990995D01*
X160379621Y-105188861D01*
X160378935Y-105194978D01*
X160378934Y-105194982D01*
X160369345Y-105280471D01*
X160356482Y-105395150D01*
X160356998Y-105401294D01*
X160362512Y-105466961D01*
X160348280Y-105536516D01*
X160298703Y-105587336D01*
X160229521Y-105603285D01*
X160162699Y-105579299D01*
X160147859Y-105566599D01*
X152263865Y-97682605D01*
X163772213Y-97682605D01*
X163772253Y-97696705D01*
X163779523Y-97700000D01*
X169041885Y-97700000D01*
X169057124Y-97695525D01*
X169058329Y-97694135D01*
X169060000Y-97686452D01*
X169060000Y-97681885D01*
X169480000Y-97681885D01*
X169484475Y-97697124D01*
X169485865Y-97698329D01*
X169493548Y-97700000D01*
X174754726Y-97700000D01*
X174768257Y-97696027D01*
X174769392Y-97688129D01*
X174734267Y-97567226D01*
X174728018Y-97552787D01*
X174657253Y-97433129D01*
X174647606Y-97420693D01*
X174549307Y-97322394D01*
X174536871Y-97312747D01*
X174417213Y-97241982D01*
X174402774Y-97235733D01*
X174267833Y-97196530D01*
X174255246Y-97194230D01*
X174229361Y-97192193D01*
X174224435Y-97192000D01*
X169498115Y-97192000D01*
X169482876Y-97196475D01*
X169481671Y-97197865D01*
X169480000Y-97205548D01*
X169480000Y-97681885D01*
X169060000Y-97681885D01*
X169060000Y-97210116D01*
X169055525Y-97194877D01*
X169054135Y-97193672D01*
X169046452Y-97192001D01*
X164315569Y-97192001D01*
X164310633Y-97192195D01*
X164284762Y-97194230D01*
X164272161Y-97196531D01*
X164137226Y-97235733D01*
X164122787Y-97241982D01*
X164003129Y-97312747D01*
X163990693Y-97322394D01*
X163892394Y-97420693D01*
X163882747Y-97433129D01*
X163811982Y-97552787D01*
X163805733Y-97567226D01*
X163772213Y-97682605D01*
X152263865Y-97682605D01*
X147472198Y-92890938D01*
X150087000Y-92890938D01*
X150087337Y-92897453D01*
X150096894Y-92989557D01*
X150099788Y-93002956D01*
X150149381Y-93151607D01*
X150155555Y-93164786D01*
X150237788Y-93297673D01*
X150246824Y-93309074D01*
X150357429Y-93419486D01*
X150368840Y-93428498D01*
X150501880Y-93510504D01*
X150515061Y-93516651D01*
X150663814Y-93565991D01*
X150677190Y-93568858D01*
X150768097Y-93578172D01*
X150774513Y-93578500D01*
X150797885Y-93578500D01*
X150813124Y-93574025D01*
X150814329Y-93572635D01*
X150816000Y-93564952D01*
X150816000Y-93560385D01*
X151324000Y-93560385D01*
X151328475Y-93575624D01*
X151329865Y-93576829D01*
X151337548Y-93578500D01*
X151365438Y-93578500D01*
X151371953Y-93578163D01*
X151464057Y-93568606D01*
X151477456Y-93565712D01*
X151626107Y-93516119D01*
X151639286Y-93509945D01*
X151772173Y-93427712D01*
X151783574Y-93418676D01*
X151893986Y-93308071D01*
X151902998Y-93296660D01*
X151923139Y-93263985D01*
X151975911Y-93216492D01*
X152045983Y-93205068D01*
X152111107Y-93233342D01*
X152137543Y-93263798D01*
X152167788Y-93312673D01*
X152176824Y-93324074D01*
X152287429Y-93434486D01*
X152298840Y-93443498D01*
X152431880Y-93525504D01*
X152445061Y-93531651D01*
X152593814Y-93580991D01*
X152607190Y-93583858D01*
X152698097Y-93593172D01*
X152704513Y-93593500D01*
X152727885Y-93593500D01*
X152743124Y-93589025D01*
X152744329Y-93587635D01*
X152746000Y-93579952D01*
X152746000Y-93575385D01*
X153254000Y-93575385D01*
X153258475Y-93590624D01*
X153259865Y-93591829D01*
X153267548Y-93593500D01*
X153295438Y-93593500D01*
X153301953Y-93593163D01*
X153394057Y-93583606D01*
X153407456Y-93580712D01*
X153556107Y-93531119D01*
X153569286Y-93524945D01*
X153702173Y-93442712D01*
X153713574Y-93433676D01*
X153823986Y-93323071D01*
X153832998Y-93311660D01*
X153915004Y-93178620D01*
X153921151Y-93165439D01*
X153970491Y-93016686D01*
X153973358Y-93003310D01*
X153982672Y-92912403D01*
X153982929Y-92907374D01*
X153978525Y-92892376D01*
X153977135Y-92891171D01*
X153969452Y-92889500D01*
X153272115Y-92889500D01*
X153256876Y-92893975D01*
X153255671Y-92895365D01*
X153254000Y-92903048D01*
X153254000Y-93575385D01*
X152746000Y-93575385D01*
X152746000Y-92907615D01*
X152741525Y-92892376D01*
X152740135Y-92891171D01*
X152732452Y-92889500D01*
X152033513Y-92889500D01*
X152003090Y-92880567D01*
X152002559Y-92883007D01*
X151963452Y-92874500D01*
X151342115Y-92874500D01*
X151326876Y-92878975D01*
X151325671Y-92880365D01*
X151324000Y-92888048D01*
X151324000Y-93560385D01*
X150816000Y-93560385D01*
X150816000Y-92892615D01*
X150811525Y-92877376D01*
X150810135Y-92876171D01*
X150802452Y-92874500D01*
X150105115Y-92874500D01*
X150089876Y-92878975D01*
X150088671Y-92880365D01*
X150087000Y-92888048D01*
X150087000Y-92890938D01*
X147472198Y-92890938D01*
X146911984Y-92330724D01*
X146877958Y-92268412D01*
X146883023Y-92197597D01*
X146925570Y-92140761D01*
X146992090Y-92115950D01*
X147040013Y-92121795D01*
X147061603Y-92128810D01*
X147267725Y-92153389D01*
X147273860Y-92152917D01*
X147273862Y-92152917D01*
X147468555Y-92137936D01*
X147468560Y-92137935D01*
X147474696Y-92137463D01*
X147480626Y-92135807D01*
X147480628Y-92135807D01*
X147593140Y-92104393D01*
X147674632Y-92081640D01*
X147695328Y-92071186D01*
X147854414Y-91990826D01*
X147854416Y-91990825D01*
X147859917Y-91988046D01*
X147864775Y-91984251D01*
X147864779Y-91984248D01*
X147901307Y-91955710D01*
X147967301Y-91929533D01*
X147978879Y-91929000D01*
X150027894Y-91929000D01*
X150096015Y-91949002D01*
X150142508Y-92002658D01*
X150152612Y-92072932D01*
X150147487Y-92094668D01*
X150099509Y-92239314D01*
X150096642Y-92252690D01*
X150087328Y-92343597D01*
X150087071Y-92348626D01*
X150091475Y-92363624D01*
X150092865Y-92364829D01*
X150100548Y-92366500D01*
X152036487Y-92366500D01*
X152066910Y-92375433D01*
X152067441Y-92372993D01*
X152106548Y-92381500D01*
X153964885Y-92381500D01*
X153980124Y-92377025D01*
X153981329Y-92375635D01*
X153983000Y-92367952D01*
X153983000Y-92365062D01*
X153982663Y-92358547D01*
X153973106Y-92266443D01*
X153970212Y-92253044D01*
X153957409Y-92214669D01*
X169422001Y-92214669D01*
X169422371Y-92221490D01*
X169427895Y-92272352D01*
X169431521Y-92287604D01*
X169476676Y-92408054D01*
X169485214Y-92423649D01*
X169561715Y-92525724D01*
X169574276Y-92538285D01*
X169676351Y-92614786D01*
X169691946Y-92623324D01*
X169812394Y-92668478D01*
X169827649Y-92672105D01*
X169878514Y-92677631D01*
X169885328Y-92678000D01*
X170840885Y-92678000D01*
X170856124Y-92673525D01*
X170857329Y-92672135D01*
X170859000Y-92664452D01*
X170859000Y-92659884D01*
X171367000Y-92659884D01*
X171371475Y-92675123D01*
X171372865Y-92676328D01*
X171380548Y-92677999D01*
X172340669Y-92677999D01*
X172347490Y-92677629D01*
X172398352Y-92672105D01*
X172413604Y-92668479D01*
X172534054Y-92623324D01*
X172549649Y-92614786D01*
X172651724Y-92538285D01*
X172664284Y-92525725D01*
X172726968Y-92442085D01*
X172783827Y-92399569D01*
X172854646Y-92394543D01*
X172916812Y-92428476D01*
X172977424Y-92488982D01*
X172988840Y-92497998D01*
X173121880Y-92580004D01*
X173135061Y-92586151D01*
X173283814Y-92635491D01*
X173297190Y-92638358D01*
X173388097Y-92647672D01*
X173394513Y-92648000D01*
X173417885Y-92648000D01*
X173433124Y-92643525D01*
X173434329Y-92642135D01*
X173436000Y-92634452D01*
X173436000Y-92629885D01*
X173944000Y-92629885D01*
X173948475Y-92645124D01*
X173949865Y-92646329D01*
X173957548Y-92648000D01*
X173985438Y-92648000D01*
X173991953Y-92647663D01*
X174084057Y-92638106D01*
X174097456Y-92635212D01*
X174246107Y-92585619D01*
X174259286Y-92579445D01*
X174392173Y-92497212D01*
X174403574Y-92488176D01*
X174513986Y-92377571D01*
X174522998Y-92366160D01*
X174605004Y-92233120D01*
X174611151Y-92219939D01*
X174660491Y-92071186D01*
X174663358Y-92057810D01*
X174672672Y-91966903D01*
X174672929Y-91961874D01*
X174668525Y-91946876D01*
X174667135Y-91945671D01*
X174659452Y-91944000D01*
X173962115Y-91944000D01*
X173946876Y-91948475D01*
X173945671Y-91949865D01*
X173944000Y-91957548D01*
X173944000Y-92629885D01*
X173436000Y-92629885D01*
X173436000Y-91962115D01*
X173431525Y-91946876D01*
X173430135Y-91945671D01*
X173422452Y-91944000D01*
X172712970Y-91944000D01*
X172686187Y-91941121D01*
X172653452Y-91934000D01*
X171385115Y-91934000D01*
X171369876Y-91938475D01*
X171368671Y-91939865D01*
X171367000Y-91947548D01*
X171367000Y-92659884D01*
X170859000Y-92659884D01*
X170859000Y-91952115D01*
X170854525Y-91936876D01*
X170853135Y-91935671D01*
X170845452Y-91934000D01*
X169440116Y-91934000D01*
X169424877Y-91938475D01*
X169423672Y-91939865D01*
X169422001Y-91947548D01*
X169422001Y-92214669D01*
X153957409Y-92214669D01*
X153920619Y-92104393D01*
X153914445Y-92091215D01*
X153880465Y-92036303D01*
X153861627Y-91967851D01*
X153882788Y-91900082D01*
X153937229Y-91854510D01*
X153987609Y-91844000D01*
X155490631Y-91844000D01*
X155558752Y-91864002D01*
X155572294Y-91874046D01*
X155580324Y-91880880D01*
X155585702Y-91883886D01*
X155585704Y-91883887D01*
X155658657Y-91924659D01*
X155744409Y-91972584D01*
X155923180Y-92030670D01*
X156109830Y-92052927D01*
X156115965Y-92052455D01*
X156115967Y-92052455D01*
X156291105Y-92038979D01*
X156291109Y-92038978D01*
X156297247Y-92038506D01*
X156394153Y-92011449D01*
X156472350Y-91989616D01*
X156472353Y-91989615D01*
X156478294Y-91987956D01*
X156483798Y-91985176D01*
X156483800Y-91985175D01*
X156640574Y-91905983D01*
X156640576Y-91905982D01*
X156646075Y-91903204D01*
X156794199Y-91787477D01*
X156815340Y-91762985D01*
X156912994Y-91649852D01*
X156912995Y-91649850D01*
X156917023Y-91645184D01*
X157009870Y-91481744D01*
X157069203Y-91303382D01*
X157075350Y-91254723D01*
X157103732Y-91189646D01*
X157111261Y-91181420D01*
X158117276Y-90175405D01*
X158179588Y-90141379D01*
X158206371Y-90138500D01*
X163569500Y-90138500D01*
X163637621Y-90158502D01*
X163684114Y-90212158D01*
X163695500Y-90264500D01*
X163695500Y-91228134D01*
X163702255Y-91290316D01*
X163753385Y-91426705D01*
X163840739Y-91543261D01*
X163957295Y-91630615D01*
X164093684Y-91681745D01*
X164155866Y-91688500D01*
X166618134Y-91688500D01*
X166680316Y-91681745D01*
X166816705Y-91630615D01*
X166933261Y-91543261D01*
X167020615Y-91426705D01*
X167027670Y-91407885D01*
X169422000Y-91407885D01*
X169426475Y-91423124D01*
X169427865Y-91424329D01*
X169435548Y-91426000D01*
X170840885Y-91426000D01*
X170856124Y-91421525D01*
X170857329Y-91420135D01*
X170859000Y-91412452D01*
X170859000Y-90700116D01*
X170854525Y-90684877D01*
X170853135Y-90683672D01*
X170845452Y-90682001D01*
X169885331Y-90682001D01*
X169878510Y-90682371D01*
X169827648Y-90687895D01*
X169812396Y-90691521D01*
X169691946Y-90736676D01*
X169676351Y-90745214D01*
X169574276Y-90821715D01*
X169561715Y-90834276D01*
X169485214Y-90936351D01*
X169476676Y-90951946D01*
X169431522Y-91072394D01*
X169427895Y-91087649D01*
X169422369Y-91138514D01*
X169422000Y-91145328D01*
X169422000Y-91407885D01*
X167027670Y-91407885D01*
X167071745Y-91290316D01*
X167078500Y-91228134D01*
X167078500Y-90364500D01*
X167098502Y-90296379D01*
X167152158Y-90249886D01*
X167204500Y-90238500D01*
X169531754Y-90238500D01*
X169599875Y-90258502D01*
X169607314Y-90263671D01*
X169683295Y-90320615D01*
X169819684Y-90371745D01*
X169881866Y-90378500D01*
X172344134Y-90378500D01*
X172347531Y-90378131D01*
X172398466Y-90372598D01*
X172398468Y-90372598D01*
X172406316Y-90371745D01*
X172447695Y-90356233D01*
X172518498Y-90351050D01*
X172581017Y-90385120D01*
X172698695Y-90502798D01*
X172729122Y-90552014D01*
X172747271Y-90606413D01*
X172749855Y-90677361D01*
X172713671Y-90738445D01*
X172650207Y-90770269D01*
X172579612Y-90762730D01*
X172552180Y-90747112D01*
X172549645Y-90745212D01*
X172534054Y-90736676D01*
X172413606Y-90691522D01*
X172398351Y-90687895D01*
X172347486Y-90682369D01*
X172340672Y-90682000D01*
X171385115Y-90682000D01*
X171369876Y-90686475D01*
X171368671Y-90687865D01*
X171367000Y-90695548D01*
X171367000Y-91407885D01*
X171371475Y-91423124D01*
X171372865Y-91424329D01*
X171380548Y-91426000D01*
X172798030Y-91426000D01*
X172824813Y-91428879D01*
X172857548Y-91436000D01*
X174654885Y-91436000D01*
X174670124Y-91431525D01*
X174671329Y-91430135D01*
X174673000Y-91422452D01*
X174673000Y-91419562D01*
X174672663Y-91413047D01*
X174663106Y-91320943D01*
X174660212Y-91307544D01*
X174610619Y-91158893D01*
X174604445Y-91145714D01*
X174522212Y-91012827D01*
X174508629Y-90995689D01*
X174510559Y-90994159D01*
X174482097Y-90942120D01*
X174487113Y-90871301D01*
X174510799Y-90834383D01*
X174509843Y-90833628D01*
X174514381Y-90827882D01*
X174519552Y-90822702D01*
X174551941Y-90770158D01*
X174605462Y-90683331D01*
X174605463Y-90683329D01*
X174609302Y-90677101D01*
X174663149Y-90514757D01*
X174664375Y-90502798D01*
X174669021Y-90457446D01*
X174673500Y-90413732D01*
X174673500Y-89866268D01*
X174662887Y-89763981D01*
X174623980Y-89647364D01*
X174611073Y-89608676D01*
X174611072Y-89608674D01*
X174608756Y-89601732D01*
X174518752Y-89456287D01*
X174520116Y-89455443D01*
X174496732Y-89397658D01*
X174509909Y-89327895D01*
X174514856Y-89319098D01*
X174595462Y-89188331D01*
X174595463Y-89188329D01*
X174599302Y-89182101D01*
X174653149Y-89019757D01*
X174663500Y-88918732D01*
X174663500Y-88371268D01*
X174652887Y-88268981D01*
X174598756Y-88106732D01*
X174590340Y-88093131D01*
X174512606Y-87967515D01*
X174508752Y-87961287D01*
X174503570Y-87956114D01*
X174499023Y-87950377D01*
X174500830Y-87948945D01*
X174472098Y-87896425D01*
X174477108Y-87825605D01*
X174500499Y-87789147D01*
X174499448Y-87788317D01*
X174512998Y-87771160D01*
X174595004Y-87638120D01*
X174601151Y-87624939D01*
X174650491Y-87476186D01*
X174653358Y-87462810D01*
X174662672Y-87371903D01*
X174662929Y-87366874D01*
X174658525Y-87351876D01*
X174657135Y-87350671D01*
X174649452Y-87349000D01*
X173552000Y-87349000D01*
X173483879Y-87328998D01*
X173437386Y-87275342D01*
X173426000Y-87223000D01*
X173426000Y-86822885D01*
X173934000Y-86822885D01*
X173938475Y-86838124D01*
X173939865Y-86839329D01*
X173947548Y-86841000D01*
X174644885Y-86841000D01*
X174660124Y-86836525D01*
X174661329Y-86835135D01*
X174663000Y-86827452D01*
X174663000Y-86824562D01*
X174662663Y-86818047D01*
X174653106Y-86725943D01*
X174650212Y-86712544D01*
X174600619Y-86563893D01*
X174594445Y-86550714D01*
X174512212Y-86417827D01*
X174503176Y-86406426D01*
X174392571Y-86296014D01*
X174381160Y-86287002D01*
X174248120Y-86204996D01*
X174234939Y-86198849D01*
X174086186Y-86149509D01*
X174072810Y-86146642D01*
X173981903Y-86137328D01*
X173975486Y-86137000D01*
X173952115Y-86137000D01*
X173936876Y-86141475D01*
X173935671Y-86142865D01*
X173934000Y-86150548D01*
X173934000Y-86822885D01*
X173426000Y-86822885D01*
X173426000Y-86155115D01*
X173421525Y-86139876D01*
X173420135Y-86138671D01*
X173412452Y-86137000D01*
X173384562Y-86137000D01*
X173378047Y-86137337D01*
X173285943Y-86146894D01*
X173272544Y-86149788D01*
X173123893Y-86199381D01*
X173110714Y-86205555D01*
X172977827Y-86287788D01*
X172966426Y-86296824D01*
X172923746Y-86339578D01*
X172861463Y-86373657D01*
X172790643Y-86368654D01*
X172733747Y-86326125D01*
X172664643Y-86233920D01*
X172664642Y-86233919D01*
X172659261Y-86226739D01*
X172542705Y-86139385D01*
X172406316Y-86088255D01*
X172344134Y-86081500D01*
X172101692Y-86081500D01*
X172033571Y-86061498D01*
X171987078Y-86007842D01*
X171975740Y-85958620D01*
X171976304Y-85951902D01*
X171965563Y-85871395D01*
X171965193Y-85868341D01*
X171957154Y-85794349D01*
X171956417Y-85787563D01*
X171954239Y-85781092D01*
X171953527Y-85777852D01*
X171953450Y-85777417D01*
X171953334Y-85777017D01*
X171952537Y-85773774D01*
X171951635Y-85767012D01*
X171923838Y-85690638D01*
X171922839Y-85687788D01*
X171899100Y-85617247D01*
X171899098Y-85617242D01*
X171896922Y-85610777D01*
X171893405Y-85604924D01*
X171892015Y-85601916D01*
X171891848Y-85601511D01*
X171891643Y-85601135D01*
X171890173Y-85598148D01*
X171887838Y-85591732D01*
X171844270Y-85523080D01*
X171842745Y-85520611D01*
X171800853Y-85450891D01*
X171796166Y-85445934D01*
X171794149Y-85443277D01*
X171793639Y-85442543D01*
X171790661Y-85438605D01*
X171787891Y-85434241D01*
X171784071Y-85429968D01*
X171730075Y-85375972D01*
X171727621Y-85373450D01*
X171677381Y-85320323D01*
X171672692Y-85315364D01*
X171667044Y-85311526D01*
X171661852Y-85307107D01*
X171662192Y-85306707D01*
X171654203Y-85300100D01*
X170622320Y-84268217D01*
X170615177Y-84260450D01*
X170585935Y-84225847D01*
X170581529Y-84220633D01*
X170517031Y-84171321D01*
X170514615Y-84169427D01*
X170513301Y-84168370D01*
X170451262Y-84118490D01*
X170445143Y-84115453D01*
X170442348Y-84113665D01*
X170441987Y-84113412D01*
X170441620Y-84113210D01*
X170438762Y-84111479D01*
X170433348Y-84107340D01*
X170359736Y-84073014D01*
X170356964Y-84071680D01*
X170343834Y-84065162D01*
X170284186Y-84035553D01*
X170277565Y-84033902D01*
X170274437Y-84032751D01*
X170274044Y-84032587D01*
X170273639Y-84032468D01*
X170270475Y-84031391D01*
X170264296Y-84028510D01*
X170185000Y-84010785D01*
X170182002Y-84010076D01*
X170109821Y-83992079D01*
X170109820Y-83992079D01*
X170103199Y-83990428D01*
X170096378Y-83990237D01*
X170093075Y-83989785D01*
X170092191Y-83989626D01*
X170087308Y-83988948D01*
X170082260Y-83987820D01*
X170076537Y-83987500D01*
X170000156Y-83987500D01*
X169996637Y-83987451D01*
X169996136Y-83987437D01*
X169916743Y-83985219D01*
X169910039Y-83986498D01*
X169903238Y-83987045D01*
X169903196Y-83986525D01*
X169892875Y-83987500D01*
X150710783Y-83987500D01*
X150693682Y-83986334D01*
X150691821Y-83986079D01*
X150685199Y-83984428D01*
X150678378Y-83984237D01*
X150675075Y-83983785D01*
X150674191Y-83983626D01*
X150669308Y-83982948D01*
X150664260Y-83981820D01*
X150658537Y-83981500D01*
X150582156Y-83981500D01*
X150578637Y-83981451D01*
X150498743Y-83979219D01*
X150492039Y-83980498D01*
X150485238Y-83981045D01*
X150485196Y-83980525D01*
X150474875Y-83981500D01*
X125061391Y-83981500D01*
X125050848Y-83981058D01*
X125050693Y-83981045D01*
X124998902Y-83976696D01*
X124992142Y-83977598D01*
X124992139Y-83977598D01*
X124918395Y-83987437D01*
X124915341Y-83987807D01*
X124876021Y-83992079D01*
X124834563Y-83996583D01*
X124828092Y-83998761D01*
X124824852Y-83999473D01*
X124824417Y-83999550D01*
X124824017Y-83999666D01*
X124820774Y-84000463D01*
X124814012Y-84001365D01*
X124737638Y-84029162D01*
X124734817Y-84030151D01*
X124709753Y-84038586D01*
X124664247Y-84053900D01*
X124664242Y-84053902D01*
X124657777Y-84056078D01*
X124651924Y-84059595D01*
X124648916Y-84060985D01*
X124648511Y-84061152D01*
X124648135Y-84061357D01*
X124645148Y-84062827D01*
X124638732Y-84065162D01*
X124570080Y-84108730D01*
X124567611Y-84110255D01*
X124497891Y-84152147D01*
X124492934Y-84156834D01*
X124490277Y-84158851D01*
X124489543Y-84159361D01*
X124485605Y-84162339D01*
X124481241Y-84165109D01*
X124476968Y-84168929D01*
X124422972Y-84222925D01*
X124420450Y-84225379D01*
X124362364Y-84280308D01*
X124358526Y-84285956D01*
X124354107Y-84291148D01*
X124353707Y-84290808D01*
X124347100Y-84298797D01*
X123212217Y-85433680D01*
X123204451Y-85440822D01*
X123164633Y-85474471D01*
X123160486Y-85479895D01*
X123160485Y-85479896D01*
X123115326Y-85538962D01*
X123113427Y-85541385D01*
X123077581Y-85585969D01*
X123062490Y-85604738D01*
X123059453Y-85610857D01*
X123057665Y-85613652D01*
X123057412Y-85614013D01*
X123057210Y-85614380D01*
X123055479Y-85617238D01*
X123051340Y-85622652D01*
X123020298Y-85689222D01*
X123017015Y-85696262D01*
X123015681Y-85699033D01*
X122979553Y-85771814D01*
X122977902Y-85778435D01*
X122976751Y-85781563D01*
X122976587Y-85781956D01*
X122976468Y-85782361D01*
X122975391Y-85785525D01*
X122972510Y-85791704D01*
X122963838Y-85830500D01*
X122954785Y-85871002D01*
X122954076Y-85873998D01*
X122934428Y-85952801D01*
X122934237Y-85959622D01*
X122933785Y-85962925D01*
X122933626Y-85963809D01*
X122932948Y-85968692D01*
X122931820Y-85973740D01*
X122931500Y-85979463D01*
X122931500Y-86055844D01*
X122931451Y-86059363D01*
X122929219Y-86139257D01*
X122930498Y-86145961D01*
X122931045Y-86152762D01*
X122930525Y-86152804D01*
X122931500Y-86163125D01*
X122931500Y-116031332D01*
X122911498Y-116099453D01*
X122887331Y-116127143D01*
X122734244Y-116257892D01*
X122720031Y-116270031D01*
X122565824Y-116450584D01*
X122563245Y-116454792D01*
X122563241Y-116454798D01*
X122450474Y-116638817D01*
X122441760Y-116653037D01*
X122439867Y-116657607D01*
X122439865Y-116657611D01*
X122369612Y-116827218D01*
X122350895Y-116872406D01*
X122349740Y-116877218D01*
X122296663Y-117098301D01*
X122295465Y-117103289D01*
X122276835Y-117340000D01*
X122295465Y-117576711D01*
X122296619Y-117581518D01*
X122296620Y-117581524D01*
X122325549Y-117702022D01*
X122350895Y-117807594D01*
X122352788Y-117812165D01*
X122352789Y-117812167D01*
X122439543Y-118021610D01*
X122441760Y-118026963D01*
X122444346Y-118031183D01*
X122563241Y-118225202D01*
X122563245Y-118225208D01*
X122565824Y-118229416D01*
X122720031Y-118409969D01*
X122723787Y-118413177D01*
X122887331Y-118552857D01*
X122926140Y-118612308D01*
X122931500Y-118648668D01*
X122931500Y-119728610D01*
X122931058Y-119739152D01*
X122926696Y-119791099D01*
X122927598Y-119797859D01*
X122927598Y-119797861D01*
X122937437Y-119871602D01*
X122937807Y-119874657D01*
X122940732Y-119901580D01*
X122946583Y-119955437D01*
X122948758Y-119961901D01*
X122949478Y-119965176D01*
X122949548Y-119965572D01*
X122949671Y-119965996D01*
X122950462Y-119969216D01*
X122951366Y-119975989D01*
X122977899Y-120048887D01*
X122979139Y-120052294D01*
X122980156Y-120055198D01*
X122982274Y-120061491D01*
X123006078Y-120132223D01*
X123009596Y-120138077D01*
X123010985Y-120141084D01*
X123011152Y-120141489D01*
X123011357Y-120141865D01*
X123012827Y-120144852D01*
X123015162Y-120151268D01*
X123058730Y-120219920D01*
X123060255Y-120222389D01*
X123102147Y-120292109D01*
X123106834Y-120297066D01*
X123108851Y-120299723D01*
X123109369Y-120300469D01*
X123112344Y-120304402D01*
X123115109Y-120308759D01*
X123118930Y-120313032D01*
X123172909Y-120367011D01*
X123175363Y-120369533D01*
X123230308Y-120427636D01*
X123235956Y-120431474D01*
X123241148Y-120435893D01*
X123240808Y-120436293D01*
X123248800Y-120442902D01*
X124026610Y-121220712D01*
X124060636Y-121283024D01*
X124063073Y-121299263D01*
X124064895Y-121320961D01*
X124122112Y-121520502D01*
X124124930Y-121525984D01*
X124124931Y-121525988D01*
X124209064Y-121689692D01*
X124216998Y-121705130D01*
X124220829Y-121709964D01*
X124220830Y-121709965D01*
X124249249Y-121745821D01*
X124345937Y-121867811D01*
X124350624Y-121871800D01*
X124350627Y-121871803D01*
X124497327Y-121996654D01*
X124504019Y-122002349D01*
X124685223Y-122103621D01*
X124882646Y-122167767D01*
X124888763Y-122168496D01*
X124888770Y-122168498D01*
X124899619Y-122169792D01*
X124964892Y-122197719D01*
X124973794Y-122205810D01*
X125633166Y-122865182D01*
X125667192Y-122927494D01*
X125670071Y-122954277D01*
X125670071Y-123612666D01*
X125650069Y-123680787D01*
X125596413Y-123727280D01*
X125588300Y-123730648D01*
X125466705Y-123776232D01*
X125466704Y-123776233D01*
X125458295Y-123779385D01*
X125341739Y-123866739D01*
X125254385Y-123983295D01*
X125203255Y-124119684D01*
X125196500Y-124181866D01*
X125196500Y-125978134D01*
X125203255Y-126040316D01*
X125239948Y-126138193D01*
X125248599Y-126161270D01*
X125253782Y-126232077D01*
X125219861Y-126294446D01*
X125157606Y-126328576D01*
X125130617Y-126331500D01*
X122530973Y-126331500D01*
X122462852Y-126311498D01*
X122416359Y-126257842D01*
X122406255Y-126187568D01*
X122434099Y-126124931D01*
X122437225Y-126121173D01*
X122538840Y-125998993D01*
X122642876Y-125813223D01*
X122711316Y-125611605D01*
X122714076Y-125592575D01*
X122741337Y-125404561D01*
X122741337Y-125404559D01*
X122741869Y-125400891D01*
X122743463Y-125340000D01*
X122725996Y-125149908D01*
X122724510Y-125133730D01*
X122724509Y-125133727D01*
X122723981Y-125127976D01*
X122710450Y-125080000D01*
X122667754Y-124928611D01*
X122667753Y-124928609D01*
X122666186Y-124923052D01*
X122656846Y-124904111D01*
X122574570Y-124737273D01*
X122572015Y-124732092D01*
X122444622Y-124561491D01*
X122288271Y-124416963D01*
X122108201Y-124303347D01*
X121910441Y-124224449D01*
X121904781Y-124223323D01*
X121904777Y-124223322D01*
X121707282Y-124184038D01*
X121707280Y-124184038D01*
X121701615Y-124182911D01*
X121695840Y-124182835D01*
X121695836Y-124182835D01*
X121589161Y-124181439D01*
X121488716Y-124180124D01*
X121483019Y-124181103D01*
X121483018Y-124181103D01*
X121284564Y-124215203D01*
X121284561Y-124215204D01*
X121278874Y-124216181D01*
X121079116Y-124289875D01*
X120896134Y-124398739D01*
X120736054Y-124539125D01*
X120604238Y-124706333D01*
X120601549Y-124711444D01*
X120601547Y-124711447D01*
X120547085Y-124814961D01*
X120505100Y-124894762D01*
X120503386Y-124900283D01*
X120503384Y-124900287D01*
X120457923Y-125046695D01*
X120441961Y-125098102D01*
X120416936Y-125309544D01*
X120418932Y-125340000D01*
X120430861Y-125522006D01*
X120432283Y-125527604D01*
X120432283Y-125527606D01*
X120455006Y-125617075D01*
X120483272Y-125728372D01*
X120485689Y-125733615D01*
X120563291Y-125901947D01*
X120572411Y-125921731D01*
X120695296Y-126095609D01*
X120699430Y-126099636D01*
X120699435Y-126099642D01*
X120715453Y-126115246D01*
X120750291Y-126177107D01*
X120746154Y-126247983D01*
X120704355Y-126305371D01*
X120638165Y-126331051D01*
X120627532Y-126331500D01*
X119629367Y-126331500D01*
X119609982Y-126330000D01*
X119595148Y-126327690D01*
X119595145Y-126327690D01*
X119586276Y-126326309D01*
X119577373Y-126327473D01*
X119577372Y-126327473D01*
X119566924Y-126328839D01*
X119544406Y-126329751D01*
X119243949Y-126314990D01*
X119231655Y-126313779D01*
X118904966Y-126265320D01*
X118892844Y-126262910D01*
X118720267Y-126219681D01*
X118572477Y-126182661D01*
X118560645Y-126179072D01*
X118249689Y-126067810D01*
X118238265Y-126063078D01*
X118027700Y-125963489D01*
X117939708Y-125921872D01*
X117928812Y-125916047D01*
X117712694Y-125786511D01*
X117645533Y-125746256D01*
X117635252Y-125739386D01*
X117564483Y-125686901D01*
X117369983Y-125542650D01*
X117360444Y-125534823D01*
X117115718Y-125313015D01*
X117106980Y-125304277D01*
X117106555Y-125303808D01*
X116885177Y-125059556D01*
X116877350Y-125050017D01*
X116680614Y-124784748D01*
X116673744Y-124774467D01*
X116535400Y-124543655D01*
X116503953Y-124491188D01*
X116498126Y-124480288D01*
X116479351Y-124440590D01*
X116408068Y-124289875D01*
X116356922Y-124181735D01*
X116352190Y-124170311D01*
X116240928Y-123859355D01*
X116237339Y-123847523D01*
X116157091Y-123527159D01*
X116154679Y-123515031D01*
X116140169Y-123417211D01*
X116106220Y-123188343D01*
X116105009Y-123176045D01*
X116090795Y-122886695D01*
X116092387Y-122859619D01*
X116093576Y-122852552D01*
X116093729Y-122840000D01*
X116089773Y-122812376D01*
X116088500Y-122794514D01*
X116088500Y-121790221D01*
X116108502Y-121722100D01*
X116162158Y-121675607D01*
X116232432Y-121665503D01*
X116297012Y-121694997D01*
X116302422Y-121699967D01*
X116325142Y-121722100D01*
X116347809Y-121744181D01*
X116352605Y-121747386D01*
X116352608Y-121747388D01*
X116447167Y-121810570D01*
X116524843Y-121862471D01*
X116530146Y-121864749D01*
X116530149Y-121864751D01*
X116713413Y-121943487D01*
X116720470Y-121946519D01*
X116778457Y-121959640D01*
X116922501Y-121992234D01*
X116922506Y-121992235D01*
X116928138Y-121993509D01*
X116933909Y-121993736D01*
X116933911Y-121993736D01*
X116995252Y-121996146D01*
X117140891Y-122001869D01*
X117146600Y-122001041D01*
X117146604Y-122001041D01*
X117345890Y-121972145D01*
X117345894Y-121972144D01*
X117351605Y-121971316D01*
X117553223Y-121902876D01*
X117738993Y-121798840D01*
X117902693Y-121662693D01*
X118038840Y-121498993D01*
X118142876Y-121313223D01*
X118211316Y-121111605D01*
X118212699Y-121102071D01*
X118241337Y-120904561D01*
X118241337Y-120904559D01*
X118241869Y-120900891D01*
X118243463Y-120840000D01*
X118223981Y-120627976D01*
X118190935Y-120510804D01*
X118167754Y-120428611D01*
X118167753Y-120428609D01*
X118166186Y-120423052D01*
X118162356Y-120415284D01*
X118074570Y-120237273D01*
X118072015Y-120232092D01*
X118066943Y-120225299D01*
X117961922Y-120084659D01*
X117944622Y-120061491D01*
X117788271Y-119916963D01*
X117608201Y-119803347D01*
X117410441Y-119724449D01*
X117404781Y-119723323D01*
X117404777Y-119723322D01*
X117207282Y-119684038D01*
X117207280Y-119684038D01*
X117201615Y-119682911D01*
X117195840Y-119682835D01*
X117195836Y-119682835D01*
X117089161Y-119681439D01*
X116988716Y-119680124D01*
X116983019Y-119681103D01*
X116983018Y-119681103D01*
X116784564Y-119715203D01*
X116784561Y-119715204D01*
X116778874Y-119716181D01*
X116579116Y-119789875D01*
X116480794Y-119848371D01*
X116409618Y-119890717D01*
X116396134Y-119898739D01*
X116301082Y-119982097D01*
X116297577Y-119985171D01*
X116233173Y-120015048D01*
X116162840Y-120005362D01*
X116108909Y-119959189D01*
X116088500Y-119890439D01*
X116088500Y-102930221D01*
X116108502Y-102862100D01*
X116162158Y-102815607D01*
X116232432Y-102805503D01*
X116297012Y-102834997D01*
X116302422Y-102839967D01*
X116325142Y-102862100D01*
X116347809Y-102884181D01*
X116352605Y-102887386D01*
X116352608Y-102887388D01*
X116468979Y-102965144D01*
X116524843Y-103002471D01*
X116530146Y-103004749D01*
X116530149Y-103004751D01*
X116712191Y-103082962D01*
X116720470Y-103086519D01*
X116796316Y-103103681D01*
X116922501Y-103132234D01*
X116922506Y-103132235D01*
X116928138Y-103133509D01*
X116933909Y-103133736D01*
X116933911Y-103133736D01*
X116995252Y-103136146D01*
X117140891Y-103141869D01*
X117146600Y-103141041D01*
X117146604Y-103141041D01*
X117345890Y-103112145D01*
X117345894Y-103112144D01*
X117351605Y-103111316D01*
X117553223Y-103042876D01*
X117738993Y-102938840D01*
X117902693Y-102802693D01*
X118038840Y-102638993D01*
X118142876Y-102453223D01*
X118211316Y-102251605D01*
X118213459Y-102236830D01*
X118241337Y-102044561D01*
X118241337Y-102044559D01*
X118241869Y-102040891D01*
X118243463Y-101980000D01*
X118226446Y-101794804D01*
X118224510Y-101773730D01*
X118224509Y-101773727D01*
X118223981Y-101767976D01*
X118216949Y-101743044D01*
X118167754Y-101568611D01*
X118167753Y-101568609D01*
X118166186Y-101563052D01*
X118159368Y-101549225D01*
X118074570Y-101377273D01*
X118072015Y-101372092D01*
X117944622Y-101201491D01*
X117788271Y-101056963D01*
X117608201Y-100943347D01*
X117410441Y-100864449D01*
X117404781Y-100863323D01*
X117404777Y-100863322D01*
X117207282Y-100824038D01*
X117207280Y-100824038D01*
X117201615Y-100822911D01*
X117195840Y-100822835D01*
X117195836Y-100822835D01*
X117089161Y-100821439D01*
X116988716Y-100820124D01*
X116983019Y-100821103D01*
X116983018Y-100821103D01*
X116784564Y-100855203D01*
X116784561Y-100855204D01*
X116778874Y-100856181D01*
X116579116Y-100929875D01*
X116492442Y-100981441D01*
X116409618Y-101030717D01*
X116396134Y-101038739D01*
X116342524Y-101085754D01*
X116297577Y-101125171D01*
X116233173Y-101155048D01*
X116162840Y-101145362D01*
X116108909Y-101099189D01*
X116088500Y-101030439D01*
X116088500Y-85070221D01*
X116108502Y-85002100D01*
X116162158Y-84955607D01*
X116232432Y-84945503D01*
X116297012Y-84974997D01*
X116302422Y-84979967D01*
X116347809Y-85024181D01*
X116352605Y-85027386D01*
X116352608Y-85027388D01*
X116416713Y-85070221D01*
X116524843Y-85142471D01*
X116530146Y-85144749D01*
X116530149Y-85144751D01*
X116612324Y-85180056D01*
X116720470Y-85226519D01*
X116796316Y-85243681D01*
X116922501Y-85272234D01*
X116922506Y-85272235D01*
X116928138Y-85273509D01*
X116933909Y-85273736D01*
X116933911Y-85273736D01*
X116995252Y-85276146D01*
X117140891Y-85281869D01*
X117146600Y-85281041D01*
X117146604Y-85281041D01*
X117345890Y-85252145D01*
X117345894Y-85252144D01*
X117351605Y-85251316D01*
X117553223Y-85182876D01*
X117738993Y-85078840D01*
X117902693Y-84942693D01*
X118038840Y-84778993D01*
X118142876Y-84593223D01*
X118211316Y-84391605D01*
X118225932Y-84290808D01*
X118241337Y-84184561D01*
X118241337Y-84184559D01*
X118241869Y-84180891D01*
X118243463Y-84120000D01*
X118223981Y-83907976D01*
X118166186Y-83703052D01*
X118072015Y-83512092D01*
X117944622Y-83341491D01*
X117788271Y-83196963D01*
X117608201Y-83083347D01*
X117410441Y-83004449D01*
X117404781Y-83003323D01*
X117404777Y-83003322D01*
X117207282Y-82964038D01*
X117207280Y-82964038D01*
X117201615Y-82962911D01*
X117195840Y-82962835D01*
X117195836Y-82962835D01*
X117089161Y-82961439D01*
X116988716Y-82960124D01*
X116983019Y-82961103D01*
X116983018Y-82961103D01*
X116784564Y-82995203D01*
X116784561Y-82995204D01*
X116778874Y-82996181D01*
X116579116Y-83069875D01*
X116556472Y-83083347D01*
X116409618Y-83170717D01*
X116396134Y-83178739D01*
X116370878Y-83200888D01*
X116297577Y-83265171D01*
X116233173Y-83295048D01*
X116162840Y-83285362D01*
X116108909Y-83239189D01*
X116088500Y-83170439D01*
X116088500Y-82173250D01*
X116090246Y-82152345D01*
X116092770Y-82137344D01*
X116092770Y-82137341D01*
X116093576Y-82132552D01*
X116093729Y-82120000D01*
X116093040Y-82115185D01*
X116093039Y-82115177D01*
X116091550Y-82104781D01*
X116090429Y-82080735D01*
X116098816Y-81910031D01*
X116105010Y-81783949D01*
X116106221Y-81771650D01*
X116126972Y-81631760D01*
X116154680Y-81444966D01*
X116157091Y-81432841D01*
X116237339Y-81112477D01*
X116240928Y-81100645D01*
X116352190Y-80789689D01*
X116356922Y-80778265D01*
X116498126Y-80479712D01*
X116503955Y-80468807D01*
X116522268Y-80438255D01*
X116620743Y-80273959D01*
X116673744Y-80185533D01*
X116680614Y-80175252D01*
X116745506Y-80087755D01*
X116877350Y-79909983D01*
X116885177Y-79900444D01*
X117106985Y-79655718D01*
X117115718Y-79646985D01*
X117360444Y-79425177D01*
X117369983Y-79417350D01*
X117635252Y-79220614D01*
X117645533Y-79213744D01*
X117787899Y-79128412D01*
X117928812Y-79043953D01*
X117939708Y-79038128D01*
X118170500Y-78928972D01*
X118238265Y-78896922D01*
X118249689Y-78892190D01*
X118560645Y-78780928D01*
X118572477Y-78777339D01*
X118872613Y-78702158D01*
X118892844Y-78697090D01*
X118904966Y-78694680D01*
X119231655Y-78646221D01*
X119243949Y-78645010D01*
X119537039Y-78630610D01*
X119562598Y-78631958D01*
X119573724Y-78633691D01*
X119605286Y-78629564D01*
X119621621Y-78628500D01*
X120626555Y-78628500D01*
X120694676Y-78648502D01*
G37*
%TD.AperFunction*%
%TA.AperFunction,Conductor*%
G36*
X129514532Y-108852894D02*
G01*
X129571368Y-108895441D01*
X129596179Y-108961961D01*
X129596500Y-108970950D01*
X129596500Y-109225134D01*
X129603255Y-109287316D01*
X129654385Y-109423705D01*
X129741739Y-109540261D01*
X129858295Y-109627615D01*
X129858951Y-109627861D01*
X129906157Y-109675175D01*
X129921500Y-109735433D01*
X129921500Y-112907944D01*
X129920941Y-112919800D01*
X129919212Y-112927537D01*
X129919461Y-112935459D01*
X129921438Y-112998369D01*
X129921500Y-113002327D01*
X129921500Y-113031432D01*
X129922056Y-113035832D01*
X129922988Y-113047664D01*
X129924438Y-113093831D01*
X129926650Y-113101444D01*
X129926650Y-113101445D01*
X129930419Y-113114416D01*
X129934430Y-113133782D01*
X129937118Y-113155064D01*
X129940034Y-113162429D01*
X129940035Y-113162433D01*
X129954126Y-113198021D01*
X129957965Y-113209231D01*
X129970855Y-113253600D01*
X129981775Y-113272065D01*
X129990466Y-113289805D01*
X129998365Y-113309756D01*
X130016230Y-113334345D01*
X130025516Y-113347126D01*
X130032033Y-113357048D01*
X130051507Y-113389977D01*
X130051510Y-113389981D01*
X130055547Y-113396807D01*
X130070711Y-113411971D01*
X130083551Y-113427004D01*
X130096159Y-113444357D01*
X130131752Y-113473802D01*
X130140532Y-113481792D01*
X132738437Y-116079697D01*
X132772463Y-116142009D01*
X132767398Y-116212824D01*
X132738658Y-116257543D01*
X132735744Y-116260031D01*
X132581537Y-116440584D01*
X132578958Y-116444792D01*
X132578954Y-116444798D01*
X132479182Y-116607611D01*
X132457473Y-116643037D01*
X132455580Y-116647607D01*
X132455578Y-116647611D01*
X132368502Y-116857833D01*
X132366608Y-116862406D01*
X132354174Y-116914196D01*
X132319597Y-117058223D01*
X132311178Y-117093289D01*
X132292548Y-117330000D01*
X132311178Y-117566711D01*
X132312332Y-117571518D01*
X132312333Y-117571524D01*
X132314734Y-117581524D01*
X132366608Y-117797594D01*
X132368501Y-117802165D01*
X132368502Y-117802167D01*
X132455485Y-118012163D01*
X132457473Y-118016963D01*
X132460059Y-118021183D01*
X132578954Y-118215202D01*
X132578958Y-118215208D01*
X132581537Y-118219416D01*
X132701581Y-118359969D01*
X132725949Y-118388500D01*
X132735744Y-118399969D01*
X132916297Y-118554176D01*
X132920505Y-118556755D01*
X132920511Y-118556759D01*
X133072962Y-118650181D01*
X133118750Y-118678240D01*
X133123320Y-118680133D01*
X133123324Y-118680135D01*
X133333546Y-118767211D01*
X133338119Y-118769105D01*
X133342933Y-118770261D01*
X133342940Y-118770263D01*
X133434915Y-118792345D01*
X133496484Y-118827697D01*
X133529166Y-118890724D01*
X133531500Y-118914863D01*
X133531500Y-123806897D01*
X133511498Y-123875018D01*
X133463677Y-123918662D01*
X133448607Y-123926507D01*
X133269965Y-124060635D01*
X133266393Y-124064373D01*
X133121322Y-124216181D01*
X133115629Y-124222138D01*
X133008204Y-124379618D01*
X133007898Y-124380066D01*
X132952987Y-124425069D01*
X132882462Y-124433240D01*
X132818715Y-124401986D01*
X132798018Y-124377502D01*
X132717426Y-124252926D01*
X132711136Y-124244757D01*
X132567806Y-124087240D01*
X132560273Y-124080215D01*
X132393139Y-123948222D01*
X132384552Y-123942517D01*
X132198117Y-123839599D01*
X132188705Y-123835369D01*
X131987959Y-123764280D01*
X131977988Y-123761646D01*
X131906837Y-123748972D01*
X131893540Y-123750432D01*
X131889000Y-123764989D01*
X131889000Y-125208000D01*
X131868998Y-125276121D01*
X131815342Y-125322614D01*
X131763000Y-125334000D01*
X131507000Y-125334000D01*
X131438879Y-125313998D01*
X131392386Y-125260342D01*
X131381000Y-125208000D01*
X131381000Y-123763102D01*
X131377082Y-123749758D01*
X131362806Y-123747771D01*
X131324324Y-123753660D01*
X131314288Y-123756051D01*
X131111868Y-123822212D01*
X131102359Y-123826209D01*
X130913463Y-123924542D01*
X130904738Y-123930036D01*
X130734433Y-124057905D01*
X130726726Y-124064748D01*
X130579590Y-124218717D01*
X130573109Y-124226722D01*
X130468498Y-124380074D01*
X130413587Y-124425076D01*
X130343062Y-124433247D01*
X130279315Y-124401993D01*
X130258618Y-124377509D01*
X130177822Y-124252617D01*
X130177820Y-124252614D01*
X130175014Y-124248277D01*
X130024670Y-124083051D01*
X130020619Y-124079852D01*
X130020615Y-124079848D01*
X129909004Y-123991703D01*
X129886407Y-123973857D01*
X129845345Y-123915941D01*
X129838500Y-123874976D01*
X129838500Y-122052059D01*
X129839059Y-122040203D01*
X129840789Y-122032463D01*
X129840012Y-122007726D01*
X129838562Y-121961611D01*
X129838500Y-121957653D01*
X129838500Y-121928568D01*
X129837946Y-121924179D01*
X129837013Y-121912337D01*
X129836904Y-121908848D01*
X129835562Y-121866169D01*
X129829580Y-121845579D01*
X129825570Y-121826216D01*
X129823875Y-121812796D01*
X129823875Y-121812795D01*
X129822882Y-121804936D01*
X129819966Y-121797571D01*
X129819965Y-121797567D01*
X129805874Y-121761979D01*
X129802035Y-121750769D01*
X129789145Y-121706400D01*
X129778225Y-121687935D01*
X129769534Y-121670195D01*
X129761635Y-121650244D01*
X129734482Y-121612871D01*
X129727967Y-121602952D01*
X129708493Y-121570023D01*
X129708490Y-121570019D01*
X129704453Y-121563193D01*
X129689289Y-121548029D01*
X129676448Y-121532995D01*
X129668501Y-121522057D01*
X129663841Y-121515643D01*
X129628247Y-121486197D01*
X129619468Y-121478208D01*
X127823976Y-119682716D01*
X127789950Y-119620404D01*
X127787071Y-119593621D01*
X127787071Y-118726246D01*
X127807073Y-118658125D01*
X127847236Y-118618814D01*
X127938854Y-118562670D01*
X129599302Y-118562670D01*
X129605029Y-118570320D01*
X129776184Y-118675205D01*
X129784979Y-118679687D01*
X129995130Y-118766734D01*
X130004515Y-118769783D01*
X130225696Y-118822885D01*
X130235443Y-118824428D01*
X130462212Y-118842275D01*
X130472072Y-118842275D01*
X130698841Y-118824428D01*
X130708588Y-118822885D01*
X130929769Y-118769783D01*
X130939154Y-118766734D01*
X131149305Y-118679687D01*
X131158100Y-118675205D01*
X131325587Y-118572568D01*
X131335049Y-118562110D01*
X131331266Y-118553334D01*
X130479954Y-117702022D01*
X130466010Y-117694408D01*
X130464177Y-117694539D01*
X130457562Y-117698790D01*
X129606062Y-118550290D01*
X129599302Y-118562670D01*
X127938854Y-118562670D01*
X128013764Y-118516765D01*
X128013774Y-118516758D01*
X128017987Y-118514176D01*
X128186149Y-118370552D01*
X128194784Y-118363177D01*
X128198540Y-118359969D01*
X128352747Y-118179416D01*
X128355326Y-118175208D01*
X128355330Y-118175202D01*
X128474225Y-117981183D01*
X128476811Y-117976963D01*
X128504707Y-117909617D01*
X128565782Y-117762167D01*
X128565783Y-117762165D01*
X128567676Y-117757594D01*
X128612287Y-117571777D01*
X128621951Y-117531524D01*
X128621952Y-117531518D01*
X128623106Y-117526711D01*
X128638200Y-117334930D01*
X128954867Y-117334930D01*
X128972714Y-117561699D01*
X128974257Y-117571446D01*
X129027359Y-117792627D01*
X129030408Y-117802012D01*
X129117455Y-118012163D01*
X129121937Y-118020958D01*
X129224574Y-118188445D01*
X129235032Y-118197907D01*
X129243808Y-118194124D01*
X130095120Y-117342812D01*
X130101498Y-117331132D01*
X130831550Y-117331132D01*
X130831681Y-117332965D01*
X130835932Y-117339580D01*
X131687432Y-118191080D01*
X131699812Y-118197840D01*
X131707462Y-118192113D01*
X131812347Y-118020958D01*
X131816829Y-118012163D01*
X131903876Y-117802012D01*
X131906925Y-117792627D01*
X131960027Y-117571446D01*
X131961570Y-117561699D01*
X131979417Y-117334930D01*
X131979417Y-117325070D01*
X131961570Y-117098301D01*
X131960027Y-117088554D01*
X131906925Y-116867373D01*
X131903876Y-116857988D01*
X131816829Y-116647837D01*
X131812347Y-116639042D01*
X131709710Y-116471555D01*
X131699252Y-116462093D01*
X131690476Y-116465876D01*
X130839164Y-117317188D01*
X130831550Y-117331132D01*
X130101498Y-117331132D01*
X130102734Y-117328868D01*
X130102603Y-117327035D01*
X130098352Y-117320420D01*
X129246852Y-116468920D01*
X129234472Y-116462160D01*
X129226822Y-116467887D01*
X129121937Y-116639042D01*
X129117455Y-116647837D01*
X129030408Y-116857988D01*
X129027359Y-116867373D01*
X128974257Y-117088554D01*
X128972714Y-117098301D01*
X128954867Y-117325070D01*
X128954867Y-117334930D01*
X128638200Y-117334930D01*
X128641736Y-117290000D01*
X128623106Y-117053289D01*
X128616966Y-117027711D01*
X128578582Y-116867833D01*
X128567676Y-116822406D01*
X128565782Y-116817833D01*
X128478706Y-116607611D01*
X128478704Y-116607607D01*
X128476811Y-116603037D01*
X128426643Y-116521171D01*
X128355330Y-116404798D01*
X128355326Y-116404792D01*
X128352747Y-116400584D01*
X128198540Y-116220031D01*
X128055531Y-116097890D01*
X129599235Y-116097890D01*
X129603018Y-116106666D01*
X130454330Y-116957978D01*
X130468274Y-116965592D01*
X130470107Y-116965461D01*
X130476722Y-116961210D01*
X131328222Y-116109710D01*
X131334982Y-116097330D01*
X131329255Y-116089680D01*
X131158100Y-115984795D01*
X131149305Y-115980313D01*
X130939154Y-115893266D01*
X130929769Y-115890217D01*
X130708588Y-115837115D01*
X130698841Y-115835572D01*
X130472072Y-115817725D01*
X130462212Y-115817725D01*
X130235443Y-115835572D01*
X130225696Y-115837115D01*
X130004515Y-115890217D01*
X129995130Y-115893266D01*
X129784979Y-115980313D01*
X129776184Y-115984795D01*
X129608697Y-116087432D01*
X129599235Y-116097890D01*
X128055531Y-116097890D01*
X128017987Y-116065824D01*
X128013774Y-116063242D01*
X128013764Y-116063235D01*
X127847236Y-115961186D01*
X127799605Y-115908539D01*
X127787071Y-115853754D01*
X127787071Y-114516379D01*
X127807073Y-114448258D01*
X127823976Y-114427284D01*
X128687605Y-113563655D01*
X128696385Y-113555665D01*
X128696387Y-113555663D01*
X128703080Y-113551416D01*
X128751605Y-113499742D01*
X128754359Y-113496901D01*
X128774927Y-113476333D01*
X128777647Y-113472826D01*
X128785353Y-113463804D01*
X128811544Y-113435913D01*
X128816972Y-113430133D01*
X128823101Y-113418985D01*
X128827303Y-113411342D01*
X128838157Y-113394818D01*
X128846445Y-113384132D01*
X128851304Y-113377868D01*
X128854452Y-113370594D01*
X128869654Y-113335465D01*
X128874876Y-113324805D01*
X128893305Y-113291284D01*
X128893306Y-113291282D01*
X128897124Y-113284337D01*
X128902459Y-113263559D01*
X128908858Y-113244869D01*
X128917380Y-113225176D01*
X128921462Y-113199409D01*
X128924608Y-113179543D01*
X128927015Y-113167921D01*
X128936529Y-113130867D01*
X128936530Y-113130863D01*
X128938500Y-113123188D01*
X128938500Y-113101747D01*
X128940051Y-113082036D01*
X128941726Y-113071464D01*
X128943407Y-113060848D01*
X128941681Y-113042585D01*
X128939059Y-113014852D01*
X128938500Y-113002994D01*
X128938500Y-109785433D01*
X128958502Y-109717312D01*
X129000678Y-109678000D01*
X129001705Y-109677615D01*
X129118261Y-109590261D01*
X129205615Y-109473705D01*
X129256745Y-109337316D01*
X129263500Y-109275134D01*
X129263500Y-109051950D01*
X129283502Y-108983829D01*
X129300405Y-108962855D01*
X129381405Y-108881855D01*
X129443717Y-108847829D01*
X129514532Y-108852894D01*
G37*
%TD.AperFunction*%
%TA.AperFunction,Conductor*%
G36*
X141994941Y-116434775D02*
G01*
X142340217Y-116780051D01*
X142374243Y-116842363D01*
X142373641Y-116898560D01*
X142335310Y-117058223D01*
X142326891Y-117093289D01*
X142308261Y-117330000D01*
X142326891Y-117566711D01*
X142328045Y-117571518D01*
X142328046Y-117571524D01*
X142330447Y-117581524D01*
X142382321Y-117797594D01*
X142384214Y-117802165D01*
X142384215Y-117802167D01*
X142471198Y-118012163D01*
X142473186Y-118016963D01*
X142475772Y-118021183D01*
X142594667Y-118215202D01*
X142594671Y-118215208D01*
X142597250Y-118219416D01*
X142717294Y-118359969D01*
X142741662Y-118388500D01*
X142751457Y-118399969D01*
X142932010Y-118554176D01*
X142936223Y-118556758D01*
X142936233Y-118556765D01*
X143102761Y-118658814D01*
X143150392Y-118711461D01*
X143162926Y-118766246D01*
X143162926Y-119613625D01*
X143142924Y-119681746D01*
X143126021Y-119702720D01*
X142215813Y-120612927D01*
X141372395Y-121456345D01*
X141363615Y-121464335D01*
X141363613Y-121464337D01*
X141356920Y-121468584D01*
X141351494Y-121474362D01*
X141351493Y-121474363D01*
X141308396Y-121520257D01*
X141305641Y-121523099D01*
X141285073Y-121543667D01*
X141282356Y-121547170D01*
X141274648Y-121556195D01*
X141243028Y-121589867D01*
X141239207Y-121596818D01*
X141239206Y-121596819D01*
X141232697Y-121608658D01*
X141221843Y-121625182D01*
X141214018Y-121635271D01*
X141208696Y-121642132D01*
X141205549Y-121649404D01*
X141205548Y-121649406D01*
X141190346Y-121684535D01*
X141185124Y-121695195D01*
X141170333Y-121722100D01*
X141162876Y-121735663D01*
X141157541Y-121756441D01*
X141151142Y-121775131D01*
X141142620Y-121794824D01*
X141139774Y-121812796D01*
X141135394Y-121840448D01*
X141132987Y-121852071D01*
X141128946Y-121867811D01*
X141121500Y-121896812D01*
X141121500Y-121918259D01*
X141119949Y-121937969D01*
X141116594Y-121959152D01*
X141120611Y-122001642D01*
X141120941Y-122005138D01*
X141121500Y-122016996D01*
X141121500Y-123824144D01*
X141101498Y-123892265D01*
X141067894Y-123925558D01*
X141068607Y-123926507D01*
X140889965Y-124060635D01*
X140886393Y-124064373D01*
X140741322Y-124216181D01*
X140735629Y-124222138D01*
X140628201Y-124379621D01*
X140573293Y-124424621D01*
X140502768Y-124432792D01*
X140439021Y-124401538D01*
X140418324Y-124377054D01*
X140337822Y-124252617D01*
X140337820Y-124252614D01*
X140335014Y-124248277D01*
X140184670Y-124083051D01*
X140180619Y-124079852D01*
X140180615Y-124079848D01*
X140013414Y-123947800D01*
X140013410Y-123947798D01*
X140009359Y-123944598D01*
X139963606Y-123919341D01*
X139913636Y-123868910D01*
X139898500Y-123809033D01*
X139898500Y-121554950D01*
X139918502Y-121486829D01*
X139935400Y-121465860D01*
X140890465Y-120510794D01*
X140899236Y-120502814D01*
X140899245Y-120502806D01*
X140905935Y-120498561D01*
X140954475Y-120446871D01*
X140957229Y-120444030D01*
X140977781Y-120423478D01*
X140980493Y-120419982D01*
X140988204Y-120410953D01*
X141014399Y-120383058D01*
X141019827Y-120377278D01*
X141025635Y-120366713D01*
X141030156Y-120358490D01*
X141041013Y-120341961D01*
X141049302Y-120331276D01*
X141049303Y-120331274D01*
X141054159Y-120325014D01*
X141072512Y-120282601D01*
X141077723Y-120271964D01*
X141099979Y-120231482D01*
X141105312Y-120210711D01*
X141111714Y-120192009D01*
X141120234Y-120172322D01*
X141123569Y-120151268D01*
X141127460Y-120126697D01*
X141129868Y-120115071D01*
X141139384Y-120078010D01*
X141139384Y-120078009D01*
X141141355Y-120070333D01*
X141141355Y-120048887D01*
X141142906Y-120029176D01*
X141145021Y-120015823D01*
X141146261Y-120007994D01*
X141141914Y-119962009D01*
X141141355Y-119950151D01*
X141141355Y-118766246D01*
X141161357Y-118698125D01*
X141201520Y-118658814D01*
X141368048Y-118556765D01*
X141368058Y-118556758D01*
X141372271Y-118554176D01*
X141552824Y-118399969D01*
X141562620Y-118388500D01*
X141586987Y-118359969D01*
X141707031Y-118219416D01*
X141709610Y-118215208D01*
X141709614Y-118215202D01*
X141828509Y-118021183D01*
X141831095Y-118016963D01*
X141833084Y-118012163D01*
X141920066Y-117802167D01*
X141920067Y-117802165D01*
X141921960Y-117797594D01*
X141973834Y-117581524D01*
X141976235Y-117571524D01*
X141976236Y-117571518D01*
X141977390Y-117566711D01*
X141996020Y-117330000D01*
X141977390Y-117093289D01*
X141968972Y-117058223D01*
X141934394Y-116914196D01*
X141921960Y-116862406D01*
X141920066Y-116857833D01*
X141832990Y-116647611D01*
X141832988Y-116647607D01*
X141831095Y-116643037D01*
X141798413Y-116589705D01*
X141779875Y-116521171D01*
X141801331Y-116453495D01*
X141855970Y-116408162D01*
X141926445Y-116399565D01*
X141994941Y-116434775D01*
G37*
%TD.AperFunction*%
%TA.AperFunction,Conductor*%
G36*
X134229532Y-108232894D02*
G01*
X134286368Y-108275441D01*
X134311179Y-108341961D01*
X134311500Y-108350950D01*
X134311500Y-109160134D01*
X134318255Y-109222316D01*
X134369385Y-109358705D01*
X134456739Y-109475261D01*
X134463919Y-109480642D01*
X134463920Y-109480643D01*
X134551065Y-109545955D01*
X134593580Y-109602815D01*
X134601500Y-109646781D01*
X134601500Y-111597944D01*
X134600941Y-111609800D01*
X134599212Y-111617537D01*
X134600301Y-111652174D01*
X134601438Y-111688369D01*
X134601500Y-111692327D01*
X134601500Y-111721432D01*
X134602056Y-111725832D01*
X134602988Y-111737664D01*
X134604438Y-111783831D01*
X134606650Y-111791444D01*
X134606650Y-111791445D01*
X134610419Y-111804416D01*
X134614430Y-111823782D01*
X134617118Y-111845064D01*
X134620034Y-111852429D01*
X134620035Y-111852433D01*
X134634126Y-111888021D01*
X134637965Y-111899231D01*
X134650855Y-111943600D01*
X134661775Y-111962065D01*
X134670466Y-111979805D01*
X134678365Y-111999756D01*
X134705516Y-112037126D01*
X134712033Y-112047048D01*
X134731507Y-112079977D01*
X134731510Y-112079981D01*
X134735547Y-112086807D01*
X134750711Y-112101971D01*
X134763551Y-112117004D01*
X134776159Y-112134357D01*
X134811752Y-112163802D01*
X134820532Y-112171792D01*
X137005309Y-114356568D01*
X139124094Y-116475353D01*
X139158120Y-116537665D01*
X139153055Y-116608480D01*
X139142432Y-116630281D01*
X139134615Y-116643037D01*
X139132722Y-116647607D01*
X139132721Y-116647609D01*
X139045644Y-116857833D01*
X139043750Y-116862406D01*
X139031316Y-116914196D01*
X138996739Y-117058223D01*
X138988320Y-117093289D01*
X138969690Y-117330000D01*
X138988320Y-117566711D01*
X138989474Y-117571518D01*
X138989475Y-117571524D01*
X138991876Y-117581524D01*
X139043750Y-117797594D01*
X139045643Y-117802165D01*
X139045644Y-117802167D01*
X139132627Y-118012163D01*
X139134615Y-118016963D01*
X139137201Y-118021183D01*
X139256096Y-118215202D01*
X139256100Y-118215208D01*
X139258679Y-118219416D01*
X139378723Y-118359969D01*
X139403091Y-118388500D01*
X139412886Y-118399969D01*
X139593439Y-118554176D01*
X139597652Y-118556758D01*
X139597662Y-118556765D01*
X139764190Y-118658814D01*
X139811821Y-118711461D01*
X139824355Y-118766246D01*
X139824355Y-119662196D01*
X139804353Y-119730317D01*
X139787450Y-119751291D01*
X138832396Y-120706345D01*
X138823613Y-120714337D01*
X138816920Y-120718584D01*
X138811494Y-120724362D01*
X138768395Y-120770258D01*
X138765640Y-120773100D01*
X138745073Y-120793667D01*
X138742356Y-120797170D01*
X138734648Y-120806195D01*
X138703028Y-120839867D01*
X138699207Y-120846818D01*
X138699206Y-120846819D01*
X138692697Y-120858658D01*
X138681843Y-120875182D01*
X138674018Y-120885271D01*
X138668696Y-120892132D01*
X138665549Y-120899404D01*
X138665548Y-120899406D01*
X138650346Y-120934535D01*
X138645124Y-120945195D01*
X138622876Y-120985663D01*
X138617541Y-121006441D01*
X138611142Y-121025131D01*
X138602620Y-121044824D01*
X138601380Y-121052655D01*
X138595394Y-121090448D01*
X138592987Y-121102071D01*
X138589629Y-121115150D01*
X138581500Y-121146812D01*
X138581500Y-121168259D01*
X138579949Y-121187969D01*
X138576594Y-121209152D01*
X138577340Y-121217043D01*
X138580941Y-121255138D01*
X138581500Y-121266996D01*
X138581500Y-123824144D01*
X138561498Y-123892265D01*
X138527894Y-123925558D01*
X138528607Y-123926507D01*
X138349965Y-124060635D01*
X138346393Y-124064373D01*
X138201322Y-124216181D01*
X138195629Y-124222138D01*
X138088201Y-124379621D01*
X138033293Y-124424621D01*
X137962768Y-124432792D01*
X137899021Y-124401538D01*
X137878324Y-124377054D01*
X137797822Y-124252617D01*
X137797820Y-124252614D01*
X137795014Y-124248277D01*
X137644670Y-124083051D01*
X137640619Y-124079852D01*
X137640615Y-124079848D01*
X137570692Y-124024626D01*
X137469359Y-123944598D01*
X137464836Y-123942101D01*
X137464771Y-123942058D01*
X137419101Y-123887699D01*
X137408500Y-123837111D01*
X137408500Y-118917263D01*
X137428502Y-118849142D01*
X137482158Y-118802649D01*
X137505085Y-118794745D01*
X137607057Y-118770263D01*
X137607064Y-118770261D01*
X137611878Y-118769105D01*
X137616451Y-118767211D01*
X137826673Y-118680135D01*
X137826677Y-118680133D01*
X137831247Y-118678240D01*
X137877035Y-118650181D01*
X138029486Y-118556759D01*
X138029492Y-118556755D01*
X138033700Y-118554176D01*
X138214253Y-118399969D01*
X138224049Y-118388500D01*
X138248416Y-118359969D01*
X138368460Y-118219416D01*
X138371039Y-118215208D01*
X138371043Y-118215202D01*
X138489938Y-118021183D01*
X138492524Y-118016963D01*
X138494513Y-118012163D01*
X138581495Y-117802167D01*
X138581496Y-117802165D01*
X138583389Y-117797594D01*
X138635263Y-117581524D01*
X138637664Y-117571524D01*
X138637665Y-117571518D01*
X138638819Y-117566711D01*
X138657449Y-117330000D01*
X138638819Y-117093289D01*
X138630401Y-117058223D01*
X138595823Y-116914196D01*
X138583389Y-116862406D01*
X138581495Y-116857833D01*
X138494419Y-116647611D01*
X138494417Y-116647607D01*
X138492524Y-116643037D01*
X138470815Y-116607611D01*
X138371043Y-116444798D01*
X138371039Y-116444792D01*
X138368460Y-116440584D01*
X138214253Y-116260031D01*
X138033700Y-116105824D01*
X138029492Y-116103245D01*
X138029486Y-116103241D01*
X137835467Y-115984346D01*
X137831247Y-115981760D01*
X137826677Y-115979867D01*
X137826673Y-115979865D01*
X137616451Y-115892789D01*
X137616449Y-115892788D01*
X137611878Y-115890895D01*
X137567838Y-115880322D01*
X137508158Y-115846898D01*
X133595405Y-111934145D01*
X133561379Y-111871833D01*
X133558500Y-111845050D01*
X133558500Y-109685433D01*
X133578502Y-109617312D01*
X133620678Y-109578000D01*
X133621705Y-109577615D01*
X133738261Y-109490261D01*
X133825615Y-109373705D01*
X133876745Y-109237316D01*
X133883500Y-109175134D01*
X133883500Y-108526950D01*
X133903502Y-108458829D01*
X133920405Y-108437855D01*
X134096405Y-108261855D01*
X134158717Y-108227829D01*
X134229532Y-108232894D01*
G37*
%TD.AperFunction*%
%TA.AperFunction,Conductor*%
G36*
X151919532Y-107255894D02*
G01*
X151976368Y-107298441D01*
X152001179Y-107364961D01*
X152001500Y-107373950D01*
X152001500Y-113823629D01*
X151981498Y-113891750D01*
X151964595Y-113912724D01*
X149292724Y-116584595D01*
X149230412Y-116618621D01*
X149203629Y-116621500D01*
X148565606Y-116621500D01*
X148497485Y-116601498D01*
X148458174Y-116561335D01*
X148386765Y-116444807D01*
X148386758Y-116444797D01*
X148384176Y-116440584D01*
X148229969Y-116260031D01*
X148049416Y-116105824D01*
X148045208Y-116103245D01*
X148045202Y-116103241D01*
X147851183Y-115984346D01*
X147846963Y-115981760D01*
X147842393Y-115979867D01*
X147842389Y-115979865D01*
X147632167Y-115892789D01*
X147632165Y-115892788D01*
X147627594Y-115890895D01*
X147547391Y-115871640D01*
X147401524Y-115836620D01*
X147401518Y-115836619D01*
X147396711Y-115835465D01*
X147160000Y-115816835D01*
X146923289Y-115835465D01*
X146918482Y-115836619D01*
X146918476Y-115836620D01*
X146772609Y-115871640D01*
X146692406Y-115890895D01*
X146687835Y-115892788D01*
X146687833Y-115892789D01*
X146477611Y-115979865D01*
X146477607Y-115979867D01*
X146473037Y-115981760D01*
X146468817Y-115984346D01*
X146274798Y-116103241D01*
X146274792Y-116103245D01*
X146270584Y-116105824D01*
X146090031Y-116260031D01*
X145935824Y-116440584D01*
X145933245Y-116444792D01*
X145933241Y-116444798D01*
X145833469Y-116607611D01*
X145811760Y-116643037D01*
X145809867Y-116647607D01*
X145809865Y-116647611D01*
X145722789Y-116857833D01*
X145720895Y-116862406D01*
X145708461Y-116914196D01*
X145673884Y-117058223D01*
X145665465Y-117093289D01*
X145646835Y-117330000D01*
X145665465Y-117566711D01*
X145666619Y-117571518D01*
X145666620Y-117571524D01*
X145669021Y-117581524D01*
X145720895Y-117797594D01*
X145722788Y-117802165D01*
X145722789Y-117802167D01*
X145809772Y-118012163D01*
X145811760Y-118016963D01*
X145814346Y-118021183D01*
X145933241Y-118215202D01*
X145933245Y-118215208D01*
X145935824Y-118219416D01*
X146055868Y-118359969D01*
X146080236Y-118388500D01*
X146090031Y-118399969D01*
X146093787Y-118403177D01*
X146114149Y-118420568D01*
X146270584Y-118554176D01*
X146335386Y-118593887D01*
X146341336Y-118597533D01*
X146388967Y-118650181D01*
X146401500Y-118704965D01*
X146401500Y-119693629D01*
X146381498Y-119761750D01*
X146364595Y-119782724D01*
X143846089Y-122301230D01*
X143831677Y-122313616D01*
X143820082Y-122322149D01*
X143820077Y-122322154D01*
X143814182Y-122326492D01*
X143809443Y-122332070D01*
X143809440Y-122332073D01*
X143779965Y-122366768D01*
X143773035Y-122374284D01*
X143767340Y-122379979D01*
X143765060Y-122382861D01*
X143749719Y-122402251D01*
X143746928Y-122405655D01*
X143711298Y-122447594D01*
X143699667Y-122461285D01*
X143696339Y-122467801D01*
X143692972Y-122472850D01*
X143689805Y-122477979D01*
X143685266Y-122483716D01*
X143654345Y-122549875D01*
X143652442Y-122553769D01*
X143619231Y-122618808D01*
X143617492Y-122625916D01*
X143615393Y-122631559D01*
X143613476Y-122637322D01*
X143610378Y-122643950D01*
X143608888Y-122651112D01*
X143608888Y-122651113D01*
X143595514Y-122715412D01*
X143594544Y-122719696D01*
X143577192Y-122790610D01*
X143576500Y-122801764D01*
X143576464Y-122801762D01*
X143576225Y-122805755D01*
X143575851Y-122809947D01*
X143574360Y-122817115D01*
X143575050Y-122842628D01*
X143576454Y-122894521D01*
X143576500Y-122897928D01*
X143576500Y-123887655D01*
X143556498Y-123955776D01*
X143526153Y-123988415D01*
X143434100Y-124057530D01*
X143429965Y-124060635D01*
X143426393Y-124064373D01*
X143281322Y-124216181D01*
X143275629Y-124222138D01*
X143168201Y-124379621D01*
X143113293Y-124424621D01*
X143042768Y-124432792D01*
X142979021Y-124401538D01*
X142958324Y-124377054D01*
X142877822Y-124252617D01*
X142877820Y-124252614D01*
X142875014Y-124248277D01*
X142724670Y-124083051D01*
X142720619Y-124079852D01*
X142720615Y-124079848D01*
X142553414Y-123947800D01*
X142553410Y-123947798D01*
X142549359Y-123944598D01*
X142503606Y-123919341D01*
X142453636Y-123868910D01*
X142438500Y-123809033D01*
X142438500Y-122304950D01*
X142458502Y-122236829D01*
X142475405Y-122215855D01*
X144229026Y-120462233D01*
X144237807Y-120454243D01*
X144237816Y-120454235D01*
X144244506Y-120449990D01*
X144293047Y-120398299D01*
X144295801Y-120395458D01*
X144316352Y-120374907D01*
X144319064Y-120371411D01*
X144326775Y-120362382D01*
X144338592Y-120349798D01*
X144358398Y-120328707D01*
X144366328Y-120314282D01*
X144368727Y-120309919D01*
X144379584Y-120293390D01*
X144387873Y-120282705D01*
X144387874Y-120282703D01*
X144392730Y-120276443D01*
X144411083Y-120234030D01*
X144416294Y-120223393D01*
X144438550Y-120182911D01*
X144441051Y-120173172D01*
X144443883Y-120162140D01*
X144450285Y-120143438D01*
X144458805Y-120123751D01*
X144460729Y-120111606D01*
X144466031Y-120078126D01*
X144468439Y-120066500D01*
X144477955Y-120029439D01*
X144477955Y-120029438D01*
X144479926Y-120021762D01*
X144479926Y-120000316D01*
X144481477Y-119980605D01*
X144483592Y-119967252D01*
X144484832Y-119959423D01*
X144480485Y-119913438D01*
X144479926Y-119901580D01*
X144479926Y-118766246D01*
X144499928Y-118698125D01*
X144540091Y-118658814D01*
X144706619Y-118556765D01*
X144706629Y-118556758D01*
X144710842Y-118554176D01*
X144891395Y-118399969D01*
X144901191Y-118388500D01*
X144925558Y-118359969D01*
X145045602Y-118219416D01*
X145048181Y-118215208D01*
X145048185Y-118215202D01*
X145167080Y-118021183D01*
X145169666Y-118016963D01*
X145171655Y-118012163D01*
X145258637Y-117802167D01*
X145258638Y-117802165D01*
X145260531Y-117797594D01*
X145312405Y-117581524D01*
X145314806Y-117571524D01*
X145314807Y-117571518D01*
X145315961Y-117566711D01*
X145334591Y-117330000D01*
X145315961Y-117093289D01*
X145307543Y-117058223D01*
X145272965Y-116914196D01*
X145260531Y-116862406D01*
X145258637Y-116857833D01*
X145171561Y-116647611D01*
X145171559Y-116647607D01*
X145169666Y-116643037D01*
X145147957Y-116607611D01*
X145048185Y-116444798D01*
X145048181Y-116444792D01*
X145045602Y-116440584D01*
X144891395Y-116260031D01*
X144710842Y-116105824D01*
X144706634Y-116103245D01*
X144706628Y-116103241D01*
X144512609Y-115984346D01*
X144508389Y-115981760D01*
X144503819Y-115979867D01*
X144503815Y-115979865D01*
X144293593Y-115892789D01*
X144293591Y-115892788D01*
X144289020Y-115890895D01*
X144208817Y-115871640D01*
X144062950Y-115836620D01*
X144062944Y-115836619D01*
X144058137Y-115835465D01*
X143821426Y-115816835D01*
X143584715Y-115835465D01*
X143579908Y-115836619D01*
X143579902Y-115836620D01*
X143389986Y-115882215D01*
X143319078Y-115878668D01*
X143271477Y-115848791D01*
X138575405Y-111152719D01*
X138541379Y-111090407D01*
X138538500Y-111063624D01*
X138538500Y-109655433D01*
X138558502Y-109587312D01*
X138600678Y-109548000D01*
X138601705Y-109547615D01*
X138718261Y-109460261D01*
X138805615Y-109343705D01*
X138856745Y-109207316D01*
X138863500Y-109145134D01*
X138863500Y-108964500D01*
X138883502Y-108896379D01*
X138937158Y-108849886D01*
X138989500Y-108838500D01*
X149877944Y-108838500D01*
X149889800Y-108839059D01*
X149889803Y-108839059D01*
X149897537Y-108840788D01*
X149968369Y-108838562D01*
X149972327Y-108838500D01*
X150001432Y-108838500D01*
X150005832Y-108837944D01*
X150017664Y-108837012D01*
X150063831Y-108835562D01*
X150084421Y-108829580D01*
X150103782Y-108825570D01*
X150110770Y-108824688D01*
X150117204Y-108823875D01*
X150117205Y-108823875D01*
X150125064Y-108822882D01*
X150132429Y-108819966D01*
X150132433Y-108819965D01*
X150168021Y-108805874D01*
X150179231Y-108802035D01*
X150223600Y-108789145D01*
X150242065Y-108778225D01*
X150259805Y-108769534D01*
X150279756Y-108761635D01*
X150317129Y-108734482D01*
X150327048Y-108727967D01*
X150359977Y-108708493D01*
X150359981Y-108708490D01*
X150366807Y-108704453D01*
X150381971Y-108689289D01*
X150397005Y-108676448D01*
X150407943Y-108668501D01*
X150414357Y-108663841D01*
X150443803Y-108628247D01*
X150451792Y-108619468D01*
X151786405Y-107284855D01*
X151848717Y-107250829D01*
X151919532Y-107255894D01*
G37*
%TD.AperFunction*%
%TA.AperFunction,Conductor*%
G36*
X131834532Y-108357894D02*
G01*
X131891368Y-108400441D01*
X131916179Y-108466961D01*
X131916500Y-108475950D01*
X131916500Y-109175134D01*
X131923255Y-109237316D01*
X131974385Y-109373705D01*
X132061739Y-109490261D01*
X132178295Y-109577615D01*
X132178951Y-109577861D01*
X132226157Y-109625175D01*
X132241500Y-109685433D01*
X132241500Y-112087944D01*
X132240941Y-112099800D01*
X132239212Y-112107537D01*
X132239461Y-112115459D01*
X132241438Y-112178369D01*
X132241500Y-112182327D01*
X132241500Y-112211432D01*
X132242056Y-112215832D01*
X132242988Y-112227664D01*
X132244438Y-112273831D01*
X132246650Y-112281444D01*
X132246650Y-112281445D01*
X132250419Y-112294416D01*
X132254430Y-112313782D01*
X132257118Y-112335064D01*
X132260034Y-112342429D01*
X132260035Y-112342433D01*
X132274126Y-112378021D01*
X132277965Y-112389231D01*
X132290855Y-112433600D01*
X132301775Y-112452065D01*
X132310466Y-112469805D01*
X132318365Y-112489756D01*
X132345516Y-112527126D01*
X132352033Y-112537048D01*
X132371507Y-112569977D01*
X132371510Y-112569981D01*
X132375547Y-112576807D01*
X132390711Y-112591971D01*
X132403551Y-112607004D01*
X132416159Y-112624357D01*
X132451752Y-112653802D01*
X132460532Y-112661792D01*
X135984796Y-116186056D01*
X136018822Y-116248368D01*
X136013757Y-116319183D01*
X135991514Y-116356979D01*
X135975927Y-116375229D01*
X135923318Y-116436825D01*
X135923315Y-116436829D01*
X135920108Y-116440584D01*
X135917529Y-116444792D01*
X135917525Y-116444798D01*
X135817753Y-116607611D01*
X135796044Y-116643037D01*
X135794151Y-116647607D01*
X135794149Y-116647611D01*
X135707073Y-116857833D01*
X135705179Y-116862406D01*
X135692745Y-116914196D01*
X135658168Y-117058223D01*
X135649749Y-117093289D01*
X135631119Y-117330000D01*
X135649749Y-117566711D01*
X135650903Y-117571518D01*
X135650904Y-117571524D01*
X135653305Y-117581524D01*
X135705179Y-117797594D01*
X135707072Y-117802165D01*
X135707073Y-117802167D01*
X135794056Y-118012163D01*
X135796044Y-118016963D01*
X135798630Y-118021183D01*
X135917525Y-118215202D01*
X135917529Y-118215208D01*
X135920108Y-118219416D01*
X136061311Y-118384743D01*
X136090342Y-118449533D01*
X136091500Y-118466574D01*
X136091500Y-123796486D01*
X136071498Y-123864607D01*
X136023680Y-123908249D01*
X135988607Y-123926507D01*
X135809965Y-124060635D01*
X135806393Y-124064373D01*
X135661322Y-124216181D01*
X135655629Y-124222138D01*
X135548201Y-124379621D01*
X135493293Y-124424621D01*
X135422768Y-124432792D01*
X135359021Y-124401538D01*
X135338324Y-124377054D01*
X135257822Y-124252617D01*
X135257820Y-124252614D01*
X135255014Y-124248277D01*
X135104670Y-124083051D01*
X135100619Y-124079852D01*
X135100615Y-124079848D01*
X134933414Y-123947800D01*
X134933410Y-123947798D01*
X134929359Y-123944598D01*
X134913608Y-123935903D01*
X134863637Y-123885473D01*
X134848500Y-123825594D01*
X134848500Y-118478279D01*
X134868502Y-118410158D01*
X134878689Y-118396448D01*
X134881726Y-118392892D01*
X135029889Y-118219416D01*
X135032468Y-118215208D01*
X135032472Y-118215202D01*
X135151367Y-118021183D01*
X135153953Y-118016963D01*
X135155942Y-118012163D01*
X135242924Y-117802167D01*
X135242925Y-117802165D01*
X135244818Y-117797594D01*
X135296692Y-117581524D01*
X135299093Y-117571524D01*
X135299094Y-117571518D01*
X135300248Y-117566711D01*
X135318878Y-117330000D01*
X135300248Y-117093289D01*
X135291830Y-117058223D01*
X135257252Y-116914196D01*
X135244818Y-116862406D01*
X135242924Y-116857833D01*
X135155848Y-116647611D01*
X135155846Y-116647607D01*
X135153953Y-116643037D01*
X135132244Y-116607611D01*
X135032472Y-116444798D01*
X135032468Y-116444792D01*
X135029889Y-116440584D01*
X134875682Y-116260031D01*
X134695129Y-116105824D01*
X134690921Y-116103245D01*
X134690915Y-116103241D01*
X134496896Y-115984346D01*
X134492676Y-115981760D01*
X134488106Y-115979867D01*
X134488098Y-115979863D01*
X134456615Y-115966823D01*
X134401334Y-115922276D01*
X134394717Y-115909926D01*
X134394084Y-115910274D01*
X134390268Y-115903334D01*
X134387348Y-115895957D01*
X134360195Y-115858584D01*
X134353680Y-115848665D01*
X134334206Y-115815736D01*
X134334203Y-115815732D01*
X134330166Y-115808906D01*
X134315002Y-115793742D01*
X134302161Y-115778708D01*
X134294214Y-115767770D01*
X134289554Y-115761356D01*
X134253960Y-115731910D01*
X134245181Y-115723921D01*
X131275405Y-112754145D01*
X131241379Y-112691833D01*
X131238500Y-112665050D01*
X131238500Y-109735433D01*
X131258502Y-109667312D01*
X131300678Y-109628000D01*
X131301705Y-109627615D01*
X131418261Y-109540261D01*
X131505615Y-109423705D01*
X131556745Y-109287316D01*
X131563500Y-109225134D01*
X131563500Y-108576950D01*
X131583502Y-108508829D01*
X131600405Y-108487855D01*
X131701405Y-108386855D01*
X131763717Y-108352829D01*
X131834532Y-108357894D01*
G37*
%TD.AperFunction*%
%TA.AperFunction,Conductor*%
G36*
X146373621Y-85718502D02*
G01*
X146420114Y-85772158D01*
X146431500Y-85824500D01*
X146431500Y-87593423D01*
X146427117Y-87622409D01*
X146427624Y-87622508D01*
X146426322Y-87629205D01*
X146424304Y-87635725D01*
X146420019Y-87686766D01*
X146419810Y-87689250D01*
X146418562Y-87699273D01*
X146409784Y-87752295D01*
X146410141Y-87759114D01*
X146410141Y-87759119D01*
X146411152Y-87778413D01*
X146410883Y-87795544D01*
X146409813Y-87808297D01*
X146408696Y-87821599D01*
X146409598Y-87828359D01*
X146409598Y-87828361D01*
X146415801Y-87874849D01*
X146416735Y-87884917D01*
X146419547Y-87938567D01*
X146421358Y-87945143D01*
X146421359Y-87945147D01*
X146426491Y-87963779D01*
X146429907Y-87980565D01*
X146430392Y-87984198D01*
X146431500Y-88000871D01*
X146431500Y-90423241D01*
X146411303Y-90488491D01*
X146412391Y-90489089D01*
X146312387Y-90670995D01*
X146249621Y-90868861D01*
X146248935Y-90874978D01*
X146248934Y-90874982D01*
X146231125Y-91033756D01*
X146226482Y-91075150D01*
X146228490Y-91099062D01*
X146243019Y-91272081D01*
X146243852Y-91282004D01*
X146262566Y-91347268D01*
X146262115Y-91418262D01*
X146223354Y-91477743D01*
X146158587Y-91506826D01*
X146088379Y-91496276D01*
X146052352Y-91471092D01*
X143943655Y-89362395D01*
X143935665Y-89353615D01*
X143935663Y-89353613D01*
X143931416Y-89346920D01*
X143901789Y-89319098D01*
X143879743Y-89298396D01*
X143876901Y-89295641D01*
X143856333Y-89275073D01*
X143852826Y-89272353D01*
X143843804Y-89264647D01*
X143810133Y-89233028D01*
X143803181Y-89229206D01*
X143791342Y-89222697D01*
X143774818Y-89211843D01*
X143764132Y-89203555D01*
X143757868Y-89198696D01*
X143750596Y-89195549D01*
X143750594Y-89195548D01*
X143715465Y-89180346D01*
X143704805Y-89175124D01*
X143671284Y-89156695D01*
X143671282Y-89156694D01*
X143664337Y-89152876D01*
X143643559Y-89147541D01*
X143624869Y-89141142D01*
X143605176Y-89132620D01*
X143559552Y-89125394D01*
X143547929Y-89122987D01*
X143519928Y-89115798D01*
X143503188Y-89111500D01*
X143481741Y-89111500D01*
X143462031Y-89109949D01*
X143440848Y-89106594D01*
X143394859Y-89110941D01*
X143383004Y-89111500D01*
X137944450Y-89111500D01*
X137876329Y-89091498D01*
X137855355Y-89074595D01*
X137450404Y-88669644D01*
X137416378Y-88607332D01*
X137413499Y-88580549D01*
X137413499Y-88323866D01*
X137411264Y-88299532D01*
X137408697Y-88271601D01*
X137406753Y-88250438D01*
X137383193Y-88175257D01*
X137357744Y-88094050D01*
X137357743Y-88094048D01*
X137355472Y-88086801D01*
X137266639Y-87940119D01*
X137145381Y-87818861D01*
X136998699Y-87730028D01*
X136991452Y-87727757D01*
X136991450Y-87727756D01*
X136925164Y-87706983D01*
X136835062Y-87678747D01*
X136761635Y-87672000D01*
X136758737Y-87672000D01*
X136504335Y-87672001D01*
X136248366Y-87672001D01*
X136245508Y-87672264D01*
X136245499Y-87672264D01*
X136209996Y-87675526D01*
X136174938Y-87678747D01*
X136168560Y-87680746D01*
X136168559Y-87680746D01*
X136018550Y-87727756D01*
X136018548Y-87727757D01*
X136011301Y-87730028D01*
X135864619Y-87818861D01*
X135769095Y-87914385D01*
X135706783Y-87948411D01*
X135635968Y-87943346D01*
X135590905Y-87914385D01*
X135495381Y-87818861D01*
X135348699Y-87730028D01*
X135341452Y-87727757D01*
X135341450Y-87727756D01*
X135275164Y-87706983D01*
X135185062Y-87678747D01*
X135111635Y-87672000D01*
X135108737Y-87672000D01*
X134854335Y-87672001D01*
X134598366Y-87672001D01*
X134595508Y-87672264D01*
X134595499Y-87672264D01*
X134559996Y-87675526D01*
X134524938Y-87678747D01*
X134518560Y-87680746D01*
X134518559Y-87680746D01*
X134368550Y-87727756D01*
X134368548Y-87727757D01*
X134361301Y-87730028D01*
X134313266Y-87759119D01*
X134221328Y-87814798D01*
X134214619Y-87818861D01*
X134212581Y-87820899D01*
X134148501Y-87846446D01*
X134136703Y-87847000D01*
X132515824Y-87847000D01*
X132447703Y-87826998D01*
X132414999Y-87796566D01*
X132409644Y-87789421D01*
X132409642Y-87789419D01*
X132404261Y-87782239D01*
X132287705Y-87694885D01*
X132151316Y-87643755D01*
X132089134Y-87637000D01*
X131460866Y-87637000D01*
X131398684Y-87643755D01*
X131262295Y-87694885D01*
X131145739Y-87782239D01*
X131058385Y-87898795D01*
X131007255Y-88035184D01*
X131000500Y-88097366D01*
X131000500Y-88426553D01*
X130997271Y-88454897D01*
X130966776Y-88586985D01*
X130966751Y-88594023D01*
X130966751Y-88594027D01*
X130966484Y-88670680D01*
X130966143Y-88768370D01*
X130981711Y-88838016D01*
X130977050Y-88908858D01*
X130934829Y-88965936D01*
X130868451Y-88991126D01*
X130858745Y-88991500D01*
X130827082Y-88991500D01*
X130758961Y-88971498D01*
X130737986Y-88954595D01*
X130330338Y-88546946D01*
X129888187Y-88104795D01*
X129887260Y-88103858D01*
X129829157Y-88044525D01*
X129829156Y-88044524D01*
X129824229Y-88039493D01*
X129787779Y-88016002D01*
X129777454Y-88008583D01*
X129743557Y-87981524D01*
X129713362Y-87966927D01*
X129699945Y-87959398D01*
X129697537Y-87957846D01*
X129671762Y-87941235D01*
X129665145Y-87938827D01*
X129665140Y-87938824D01*
X129631027Y-87926408D01*
X129619284Y-87921447D01*
X129586597Y-87905646D01*
X129586592Y-87905644D01*
X129580251Y-87902579D01*
X129573393Y-87900996D01*
X129573391Y-87900995D01*
X129547574Y-87895035D01*
X129532831Y-87890668D01*
X129501315Y-87879197D01*
X129494325Y-87878314D01*
X129494317Y-87878312D01*
X129458299Y-87873762D01*
X129445747Y-87871526D01*
X129410386Y-87863362D01*
X129410383Y-87863362D01*
X129403515Y-87861776D01*
X129396469Y-87861751D01*
X129396466Y-87861751D01*
X129362944Y-87861634D01*
X129362062Y-87861605D01*
X129361231Y-87861500D01*
X129353297Y-87861500D01*
X129285176Y-87841498D01*
X129279439Y-87837419D01*
X129275381Y-87833361D01*
X129264875Y-87826998D01*
X129184650Y-87778413D01*
X129128699Y-87744528D01*
X129121452Y-87742257D01*
X129121450Y-87742256D01*
X129055164Y-87721483D01*
X128965062Y-87693247D01*
X128891635Y-87686500D01*
X128888737Y-87686500D01*
X128634335Y-87686501D01*
X128378366Y-87686501D01*
X128375508Y-87686764D01*
X128375499Y-87686764D01*
X128339996Y-87690026D01*
X128304938Y-87693247D01*
X128298560Y-87695246D01*
X128298559Y-87695246D01*
X128148550Y-87742256D01*
X128148548Y-87742257D01*
X128141301Y-87744528D01*
X127994619Y-87833361D01*
X127899095Y-87928885D01*
X127836783Y-87962911D01*
X127765968Y-87957846D01*
X127720905Y-87928885D01*
X127625381Y-87833361D01*
X127478699Y-87744528D01*
X127471452Y-87742257D01*
X127471450Y-87742256D01*
X127405164Y-87721483D01*
X127315062Y-87693247D01*
X127241635Y-87686500D01*
X127238737Y-87686500D01*
X126984335Y-87686501D01*
X126728366Y-87686501D01*
X126725508Y-87686764D01*
X126725499Y-87686764D01*
X126689996Y-87690026D01*
X126654938Y-87693247D01*
X126648560Y-87695246D01*
X126648559Y-87695246D01*
X126498550Y-87742256D01*
X126498548Y-87742257D01*
X126491301Y-87744528D01*
X126344619Y-87833361D01*
X126223361Y-87954619D01*
X126134528Y-88101301D01*
X126132257Y-88108548D01*
X126132256Y-88108550D01*
X126113495Y-88168418D01*
X126083247Y-88264938D01*
X126076500Y-88338365D01*
X126076500Y-88410865D01*
X126072207Y-88443474D01*
X126069469Y-88453693D01*
X126067600Y-88460003D01*
X126046458Y-88525072D01*
X126045768Y-88531637D01*
X126045766Y-88531646D01*
X126044985Y-88539075D01*
X126041383Y-88558509D01*
X126040014Y-88563621D01*
X126037743Y-88572097D01*
X126037398Y-88578688D01*
X126037397Y-88578692D01*
X126034164Y-88640384D01*
X126033647Y-88646958D01*
X126032017Y-88662474D01*
X126031500Y-88667390D01*
X126031500Y-88687926D01*
X126031327Y-88694520D01*
X126028504Y-88748387D01*
X126027748Y-88762810D01*
X126028780Y-88769325D01*
X126029949Y-88776705D01*
X126031500Y-88796417D01*
X126031500Y-90963275D01*
X126028781Y-90988925D01*
X126026851Y-90994743D01*
X126016500Y-91095768D01*
X126016500Y-91693232D01*
X126027113Y-91795519D01*
X126028823Y-91800644D01*
X126031500Y-91825719D01*
X126031500Y-93028583D01*
X126029949Y-93048292D01*
X126027748Y-93062190D01*
X126028093Y-93068777D01*
X126028093Y-93068782D01*
X126031327Y-93130480D01*
X126031500Y-93137074D01*
X126031500Y-93157610D01*
X126031844Y-93160882D01*
X126031844Y-93160884D01*
X126033647Y-93178042D01*
X126034164Y-93184616D01*
X126035835Y-93216492D01*
X126037743Y-93252903D01*
X126039453Y-93259284D01*
X126039453Y-93259286D01*
X126041383Y-93266491D01*
X126044985Y-93285925D01*
X126045766Y-93293354D01*
X126045768Y-93293363D01*
X126046458Y-93299928D01*
X126067600Y-93364997D01*
X126069467Y-93371299D01*
X126087171Y-93437370D01*
X126093559Y-93449907D01*
X126101125Y-93468173D01*
X126105473Y-93481556D01*
X126108776Y-93487278D01*
X126108777Y-93487279D01*
X126139667Y-93540782D01*
X126142814Y-93546577D01*
X126173871Y-93607530D01*
X126178024Y-93612658D01*
X126178025Y-93612660D01*
X126182727Y-93618466D01*
X126193927Y-93634763D01*
X126197657Y-93641224D01*
X126197660Y-93641228D01*
X126200960Y-93646944D01*
X126205377Y-93651850D01*
X126205381Y-93651855D01*
X126246722Y-93697769D01*
X126251006Y-93702784D01*
X126263928Y-93718741D01*
X126278443Y-93733256D01*
X126282984Y-93738041D01*
X126328747Y-93788866D01*
X126334086Y-93792745D01*
X126334087Y-93792746D01*
X126340135Y-93797140D01*
X126355168Y-93809981D01*
X127314595Y-94769408D01*
X127348621Y-94831720D01*
X127351500Y-94858503D01*
X127351500Y-100088802D01*
X127340338Y-100140650D01*
X127338462Y-100144806D01*
X127334528Y-100151301D01*
X127332257Y-100158548D01*
X127332256Y-100158550D01*
X127327455Y-100173870D01*
X127283247Y-100314938D01*
X127276500Y-100388365D01*
X127276501Y-100901634D01*
X127276764Y-100904492D01*
X127276764Y-100904501D01*
X127279367Y-100932828D01*
X127283247Y-100975062D01*
X127285246Y-100981440D01*
X127285246Y-100981441D01*
X127330289Y-101125171D01*
X127334528Y-101138699D01*
X127423361Y-101285381D01*
X127518885Y-101380905D01*
X127552911Y-101443217D01*
X127547846Y-101514032D01*
X127518885Y-101559095D01*
X127423361Y-101654619D01*
X127334528Y-101801301D01*
X127283247Y-101964938D01*
X127276500Y-102038365D01*
X127276501Y-102551634D01*
X127276764Y-102554492D01*
X127276764Y-102554501D01*
X127277915Y-102567026D01*
X127283247Y-102625062D01*
X127285246Y-102631440D01*
X127285246Y-102631441D01*
X127331691Y-102779645D01*
X127334528Y-102788699D01*
X127365577Y-102839967D01*
X127417181Y-102925176D01*
X127423361Y-102935381D01*
X127425399Y-102937419D01*
X127450946Y-103001499D01*
X127451500Y-103013297D01*
X127451500Y-104208739D01*
X127431498Y-104276860D01*
X127426326Y-104284304D01*
X127364381Y-104366957D01*
X127354385Y-104380295D01*
X127303255Y-104516684D01*
X127296500Y-104578866D01*
X127296500Y-105875134D01*
X127303255Y-105937316D01*
X127354385Y-106073705D01*
X127441739Y-106190261D01*
X127558295Y-106277615D01*
X127694684Y-106328745D01*
X127756866Y-106335500D01*
X128803134Y-106335500D01*
X128865316Y-106328745D01*
X129001705Y-106277615D01*
X129118261Y-106190261D01*
X129205615Y-106073705D01*
X129256745Y-105937316D01*
X129263500Y-105875134D01*
X129263500Y-104794500D01*
X129283502Y-104726379D01*
X129337158Y-104679886D01*
X129389500Y-104668500D01*
X129450232Y-104668500D01*
X129456690Y-104667127D01*
X129457331Y-104667060D01*
X129527169Y-104679833D01*
X129579015Y-104728335D01*
X129596500Y-104792370D01*
X129596500Y-105825134D01*
X129603255Y-105887316D01*
X129654385Y-106023705D01*
X129741739Y-106140261D01*
X129858295Y-106227615D01*
X129896030Y-106241761D01*
X129904037Y-106244763D01*
X129960801Y-106287405D01*
X129985500Y-106353967D01*
X129970292Y-106423316D01*
X129948901Y-106451840D01*
X128917176Y-107483564D01*
X128854864Y-107517590D01*
X128814474Y-107519732D01*
X128803134Y-107518500D01*
X127756866Y-107518500D01*
X127694684Y-107525255D01*
X127558295Y-107576385D01*
X127441739Y-107663739D01*
X127354385Y-107780295D01*
X127303255Y-107916684D01*
X127296500Y-107978866D01*
X127296500Y-109275134D01*
X127303255Y-109337316D01*
X127354385Y-109473705D01*
X127441739Y-109590261D01*
X127558295Y-109677615D01*
X127558951Y-109677861D01*
X127606157Y-109725175D01*
X127621500Y-109785433D01*
X127621500Y-112715050D01*
X127601498Y-112783171D01*
X127584595Y-112804145D01*
X126720966Y-113667774D01*
X126712186Y-113675764D01*
X126712184Y-113675766D01*
X126705491Y-113680013D01*
X126700065Y-113685791D01*
X126700064Y-113685792D01*
X126656967Y-113731686D01*
X126654212Y-113734528D01*
X126633644Y-113755096D01*
X126630927Y-113758599D01*
X126623219Y-113767624D01*
X126591599Y-113801296D01*
X126587778Y-113808247D01*
X126587777Y-113808248D01*
X126581268Y-113820087D01*
X126570414Y-113836611D01*
X126562589Y-113846700D01*
X126557267Y-113853561D01*
X126554120Y-113860833D01*
X126554119Y-113860835D01*
X126538917Y-113895964D01*
X126533695Y-113906624D01*
X126511447Y-113947092D01*
X126506112Y-113967870D01*
X126499713Y-113986560D01*
X126491191Y-114006253D01*
X126489951Y-114014084D01*
X126483965Y-114051877D01*
X126481558Y-114063500D01*
X126470071Y-114108241D01*
X126470071Y-114129688D01*
X126468520Y-114149398D01*
X126465165Y-114170581D01*
X126465911Y-114178472D01*
X126469512Y-114216567D01*
X126470071Y-114228425D01*
X126470071Y-115853754D01*
X126450069Y-115921875D01*
X126409906Y-115961186D01*
X126243378Y-116063235D01*
X126243368Y-116063242D01*
X126239155Y-116065824D01*
X126058602Y-116220031D01*
X125904395Y-116400584D01*
X125901816Y-116404792D01*
X125901812Y-116404798D01*
X125830499Y-116521171D01*
X125780331Y-116603037D01*
X125778438Y-116607607D01*
X125778436Y-116607611D01*
X125691360Y-116817833D01*
X125689466Y-116822406D01*
X125678560Y-116867833D01*
X125640177Y-117027711D01*
X125634036Y-117053289D01*
X125615406Y-117290000D01*
X125634036Y-117526711D01*
X125635190Y-117531518D01*
X125635191Y-117531524D01*
X125644855Y-117571777D01*
X125689466Y-117757594D01*
X125691359Y-117762165D01*
X125691360Y-117762167D01*
X125752436Y-117909617D01*
X125780331Y-117976963D01*
X125782917Y-117981183D01*
X125901812Y-118175202D01*
X125901816Y-118175208D01*
X125904395Y-118179416D01*
X126058602Y-118359969D01*
X126062358Y-118363177D01*
X126070993Y-118370552D01*
X126239155Y-118514176D01*
X126243368Y-118516758D01*
X126243378Y-118516765D01*
X126409906Y-118618814D01*
X126457537Y-118671461D01*
X126470071Y-118726246D01*
X126470071Y-119836515D01*
X126469512Y-119848371D01*
X126467783Y-119856108D01*
X126468862Y-119890439D01*
X126470009Y-119926940D01*
X126470071Y-119930898D01*
X126470071Y-119960003D01*
X126470627Y-119964403D01*
X126471559Y-119976235D01*
X126473009Y-120022402D01*
X126475221Y-120030015D01*
X126475221Y-120030016D01*
X126478990Y-120042987D01*
X126483001Y-120062353D01*
X126485689Y-120083635D01*
X126488605Y-120091000D01*
X126488606Y-120091004D01*
X126502697Y-120126592D01*
X126506536Y-120137802D01*
X126519426Y-120182171D01*
X126530346Y-120200636D01*
X126539037Y-120218376D01*
X126546936Y-120238327D01*
X126556218Y-120251102D01*
X126574087Y-120275697D01*
X126580604Y-120285619D01*
X126600078Y-120318548D01*
X126600081Y-120318552D01*
X126604118Y-120325378D01*
X126619282Y-120340542D01*
X126632122Y-120355575D01*
X126644730Y-120372928D01*
X126675400Y-120398300D01*
X126680323Y-120402373D01*
X126689103Y-120410363D01*
X128484595Y-122205855D01*
X128518621Y-122268167D01*
X128521500Y-122294950D01*
X128521500Y-123770458D01*
X128501498Y-123838579D01*
X128453680Y-123882221D01*
X128368607Y-123926507D01*
X128364474Y-123929610D01*
X128364471Y-123929612D01*
X128260072Y-124007997D01*
X128189965Y-124060635D01*
X128133537Y-124119684D01*
X128109283Y-124145064D01*
X128047759Y-124180494D01*
X127976846Y-124177037D01*
X127919060Y-124135791D01*
X127900207Y-124102243D01*
X127858767Y-123991703D01*
X127855615Y-123983295D01*
X127768261Y-123866739D01*
X127651705Y-123779385D01*
X127515316Y-123728255D01*
X127507463Y-123727402D01*
X127507459Y-123727401D01*
X127499465Y-123726533D01*
X127433902Y-123699292D01*
X127393475Y-123640929D01*
X127387071Y-123601270D01*
X127387071Y-122587875D01*
X127387513Y-122577332D01*
X127391304Y-122532184D01*
X127391875Y-122525386D01*
X127386315Y-122483716D01*
X127381134Y-122444883D01*
X127380764Y-122441828D01*
X127376834Y-122405655D01*
X127371988Y-122361048D01*
X127369813Y-122354584D01*
X127369093Y-122351309D01*
X127369023Y-122350913D01*
X127368900Y-122350489D01*
X127368109Y-122347270D01*
X127367205Y-122340496D01*
X127339423Y-122264165D01*
X127338426Y-122261315D01*
X127314671Y-122190730D01*
X127314666Y-122190720D01*
X127312493Y-122184262D01*
X127308981Y-122178416D01*
X127307579Y-122175383D01*
X127307421Y-122174999D01*
X127307208Y-122174609D01*
X127305743Y-122171630D01*
X127303408Y-122165217D01*
X127299754Y-122159459D01*
X127299751Y-122159453D01*
X127259884Y-122096632D01*
X127258267Y-122094014D01*
X127219940Y-122030227D01*
X127219938Y-122030225D01*
X127216424Y-122024376D01*
X127211734Y-122019417D01*
X127209721Y-122016765D01*
X127209217Y-122016040D01*
X127206239Y-122012102D01*
X127203462Y-122007726D01*
X127199641Y-122003453D01*
X127198395Y-122002207D01*
X127198378Y-122002189D01*
X127145644Y-121949455D01*
X127143226Y-121946970D01*
X127088263Y-121888849D01*
X127082622Y-121885016D01*
X127077424Y-121880592D01*
X127077764Y-121880193D01*
X127069773Y-121873585D01*
X126189565Y-120993376D01*
X126155062Y-120928761D01*
X126155009Y-120928493D01*
X126154408Y-120922365D01*
X126152179Y-120914982D01*
X126096195Y-120729550D01*
X126096194Y-120729547D01*
X126094411Y-120723642D01*
X126091515Y-120718195D01*
X125999852Y-120545804D01*
X125999851Y-120545802D01*
X125996956Y-120540358D01*
X125927062Y-120454659D01*
X125869653Y-120384268D01*
X125869650Y-120384265D01*
X125865758Y-120379493D01*
X125857823Y-120372928D01*
X125710561Y-120251102D01*
X125710562Y-120251102D01*
X125705813Y-120247174D01*
X125700396Y-120244245D01*
X125700393Y-120244243D01*
X125528633Y-120151373D01*
X125528628Y-120151371D01*
X125523213Y-120148443D01*
X125404212Y-120111606D01*
X125349266Y-120094597D01*
X125297430Y-120063327D01*
X124685405Y-119451302D01*
X124651379Y-119388990D01*
X124648500Y-119362207D01*
X124648500Y-118648668D01*
X124668502Y-118580547D01*
X124692669Y-118552857D01*
X124856213Y-118413177D01*
X124859969Y-118409969D01*
X125014176Y-118229416D01*
X125016755Y-118225208D01*
X125016759Y-118225202D01*
X125135654Y-118031183D01*
X125138240Y-118026963D01*
X125140458Y-118021610D01*
X125227211Y-117812167D01*
X125227212Y-117812165D01*
X125229105Y-117807594D01*
X125254451Y-117702022D01*
X125283380Y-117581524D01*
X125283381Y-117581518D01*
X125284535Y-117576711D01*
X125303165Y-117340000D01*
X125284535Y-117103289D01*
X125283338Y-117098301D01*
X125230260Y-116877218D01*
X125229105Y-116872406D01*
X125210388Y-116827218D01*
X125140135Y-116657611D01*
X125140133Y-116657607D01*
X125138240Y-116653037D01*
X125129526Y-116638817D01*
X125016759Y-116454798D01*
X125016755Y-116454792D01*
X125014176Y-116450584D01*
X124859969Y-116270031D01*
X124845756Y-116257892D01*
X124692669Y-116127143D01*
X124653860Y-116067692D01*
X124648500Y-116031332D01*
X124648500Y-86477793D01*
X124668502Y-86409672D01*
X124685405Y-86388697D01*
X125338699Y-85735404D01*
X125401011Y-85701379D01*
X125427794Y-85698500D01*
X146305500Y-85698500D01*
X146373621Y-85718502D01*
G37*
%TD.AperFunction*%
%TA.AperFunction,Conductor*%
G36*
X136838621Y-108318502D02*
G01*
X136885114Y-108372158D01*
X136896500Y-108424500D01*
X136896500Y-109145134D01*
X136903255Y-109207316D01*
X136954385Y-109343705D01*
X137041739Y-109460261D01*
X137158295Y-109547615D01*
X137158951Y-109547861D01*
X137206157Y-109595175D01*
X137221500Y-109655433D01*
X137221500Y-111306518D01*
X137220941Y-111318374D01*
X137219212Y-111326111D01*
X137219461Y-111334033D01*
X137221438Y-111396943D01*
X137221500Y-111400901D01*
X137221500Y-111430006D01*
X137222056Y-111434406D01*
X137222988Y-111446238D01*
X137224438Y-111492405D01*
X137226650Y-111500018D01*
X137226650Y-111500019D01*
X137230419Y-111512990D01*
X137234430Y-111532356D01*
X137237118Y-111553638D01*
X137240034Y-111561003D01*
X137240035Y-111561007D01*
X137254126Y-111596595D01*
X137257965Y-111607805D01*
X137270855Y-111652174D01*
X137281775Y-111670639D01*
X137290466Y-111688379D01*
X137298365Y-111708330D01*
X137315364Y-111731727D01*
X137325516Y-111745700D01*
X137332033Y-111755622D01*
X137351507Y-111788551D01*
X137351510Y-111788555D01*
X137355547Y-111795381D01*
X137370711Y-111810545D01*
X137383551Y-111825578D01*
X137396159Y-111842931D01*
X137431096Y-111871833D01*
X137431752Y-111872376D01*
X137440532Y-111880366D01*
X141378080Y-115817914D01*
X141412106Y-115880226D01*
X141407041Y-115951041D01*
X141364494Y-116007877D01*
X141297974Y-116032688D01*
X141223150Y-116014442D01*
X141174038Y-115984346D01*
X141169818Y-115981760D01*
X141165248Y-115979867D01*
X141165244Y-115979865D01*
X140955022Y-115892789D01*
X140955020Y-115892788D01*
X140950449Y-115890895D01*
X140870246Y-115871640D01*
X140724379Y-115836620D01*
X140724373Y-115836619D01*
X140719566Y-115835465D01*
X140482855Y-115816835D01*
X140477925Y-115817223D01*
X140397292Y-115823569D01*
X140327812Y-115808973D01*
X140298311Y-115787052D01*
X135955405Y-111444145D01*
X135921379Y-111381833D01*
X135918500Y-111355050D01*
X135918500Y-109686758D01*
X135938502Y-109618637D01*
X135992158Y-109572144D01*
X136000256Y-109568781D01*
X136016705Y-109562615D01*
X136023884Y-109557235D01*
X136023887Y-109557233D01*
X136126081Y-109480642D01*
X136133261Y-109475261D01*
X136220615Y-109358705D01*
X136271745Y-109222316D01*
X136278500Y-109160134D01*
X136278500Y-108511950D01*
X136298502Y-108443829D01*
X136315405Y-108422855D01*
X136402855Y-108335405D01*
X136465167Y-108301379D01*
X136491950Y-108298500D01*
X136770500Y-108298500D01*
X136838621Y-108318502D01*
G37*
%TD.AperFunction*%
%TA.AperFunction,Conductor*%
G36*
X128039771Y-89533984D02*
G01*
X128128217Y-89587548D01*
X128141301Y-89595472D01*
X128148548Y-89597743D01*
X128148550Y-89597744D01*
X128209304Y-89616783D01*
X128304938Y-89646753D01*
X128378365Y-89653500D01*
X128381263Y-89653500D01*
X128635665Y-89653499D01*
X128891634Y-89653499D01*
X128894492Y-89653236D01*
X128894501Y-89653236D01*
X128930004Y-89649974D01*
X128965062Y-89646753D01*
X128971439Y-89644755D01*
X128971442Y-89644754D01*
X129028002Y-89627029D01*
X129098987Y-89625745D01*
X129154776Y-89658168D01*
X129861766Y-90365158D01*
X129862694Y-90366095D01*
X129919408Y-90424009D01*
X129925771Y-90430507D01*
X129962221Y-90453998D01*
X129972559Y-90461427D01*
X130003609Y-90486214D01*
X130044368Y-90544345D01*
X130051000Y-90584685D01*
X130051000Y-90678385D01*
X130055475Y-90693624D01*
X130056865Y-90694829D01*
X130064548Y-90696500D01*
X130953000Y-90696500D01*
X131021121Y-90716502D01*
X131067614Y-90770158D01*
X131079000Y-90822500D01*
X131079000Y-91975384D01*
X131083475Y-91990623D01*
X131084865Y-91991828D01*
X131092548Y-91993499D01*
X131135669Y-91993499D01*
X131142490Y-91993129D01*
X131193352Y-91987605D01*
X131208604Y-91983979D01*
X131329054Y-91938824D01*
X131344649Y-91930286D01*
X131446724Y-91853785D01*
X131459285Y-91841224D01*
X131535786Y-91739149D01*
X131544324Y-91723554D01*
X131589478Y-91603106D01*
X131593105Y-91587851D01*
X131598631Y-91536986D01*
X131599000Y-91530172D01*
X131599000Y-91272081D01*
X131619002Y-91203960D01*
X131672658Y-91157467D01*
X131742932Y-91147363D01*
X131807512Y-91176857D01*
X131814095Y-91182986D01*
X131913595Y-91282486D01*
X131947621Y-91344798D01*
X131950500Y-91371581D01*
X131950500Y-91533634D01*
X131957255Y-91595816D01*
X132008385Y-91732205D01*
X132095739Y-91848761D01*
X132212295Y-91936115D01*
X132348684Y-91987245D01*
X132410866Y-91994000D01*
X133039134Y-91994000D01*
X133101316Y-91987245D01*
X133237705Y-91936115D01*
X133354261Y-91848761D01*
X133414088Y-91768934D01*
X133470946Y-91726420D01*
X133514913Y-91718500D01*
X133845746Y-91718500D01*
X133913867Y-91738502D01*
X133960360Y-91792158D01*
X133971218Y-91832974D01*
X133973247Y-91855062D01*
X133975246Y-91861440D01*
X133975246Y-91861441D01*
X134016788Y-91994000D01*
X134024528Y-92018699D01*
X134113361Y-92165381D01*
X134234619Y-92286639D01*
X134381301Y-92375472D01*
X134388548Y-92377743D01*
X134388550Y-92377744D01*
X134400536Y-92381500D01*
X134544938Y-92426753D01*
X134618365Y-92433500D01*
X134621263Y-92433500D01*
X134875665Y-92433499D01*
X135131634Y-92433499D01*
X135134492Y-92433236D01*
X135134501Y-92433236D01*
X135170004Y-92429974D01*
X135205062Y-92426753D01*
X135214967Y-92423649D01*
X135361450Y-92377744D01*
X135361452Y-92377743D01*
X135368699Y-92375472D01*
X135515381Y-92286639D01*
X135610905Y-92191115D01*
X135673217Y-92157089D01*
X135744032Y-92162154D01*
X135789095Y-92191115D01*
X135884619Y-92286639D01*
X136031301Y-92375472D01*
X136038548Y-92377743D01*
X136038550Y-92377744D01*
X136050536Y-92381500D01*
X136194938Y-92426753D01*
X136268365Y-92433500D01*
X136271263Y-92433500D01*
X136525665Y-92433499D01*
X136781634Y-92433499D01*
X136784492Y-92433236D01*
X136784501Y-92433236D01*
X136820004Y-92429974D01*
X136855062Y-92426753D01*
X136864967Y-92423649D01*
X137011450Y-92377744D01*
X137011452Y-92377743D01*
X137018699Y-92375472D01*
X137165381Y-92286639D01*
X137286639Y-92165381D01*
X137305165Y-92134790D01*
X137371536Y-92025199D01*
X137371537Y-92025196D01*
X137375472Y-92018699D01*
X137391704Y-91966903D01*
X137412540Y-91900417D01*
X137443679Y-91849002D01*
X137947276Y-91345405D01*
X138009588Y-91311379D01*
X138036371Y-91308500D01*
X142743629Y-91308500D01*
X142811750Y-91328502D01*
X142832724Y-91345405D01*
X151445224Y-99957905D01*
X151479250Y-100020217D01*
X151474185Y-100091032D01*
X151431638Y-100147868D01*
X151365118Y-100172679D01*
X151356129Y-100173000D01*
X151061866Y-100173000D01*
X151058471Y-100173369D01*
X151058467Y-100173369D01*
X151032469Y-100176193D01*
X151023606Y-100177156D01*
X150996394Y-100177156D01*
X150987531Y-100176193D01*
X150961533Y-100173369D01*
X150961529Y-100173369D01*
X150958134Y-100173000D01*
X150561866Y-100173000D01*
X150521280Y-100177409D01*
X150494067Y-100177409D01*
X150461483Y-100173869D01*
X150454672Y-100173500D01*
X150428115Y-100173500D01*
X150412876Y-100177975D01*
X150390611Y-100203670D01*
X150390082Y-100203212D01*
X150383318Y-100215600D01*
X150363160Y-100230708D01*
X150363294Y-100230886D01*
X150356111Y-100236269D01*
X150335564Y-100251668D01*
X150269057Y-100276515D01*
X150199675Y-100261461D01*
X150184436Y-100251668D01*
X150163889Y-100236269D01*
X150156706Y-100230886D01*
X150156922Y-100230597D01*
X150110861Y-100184435D01*
X150108647Y-100179082D01*
X150104135Y-100175172D01*
X150096452Y-100173501D01*
X150065330Y-100173501D01*
X150058512Y-100173870D01*
X150025933Y-100177409D01*
X149998720Y-100177409D01*
X149958134Y-100173000D01*
X149561866Y-100173000D01*
X149558471Y-100173369D01*
X149558467Y-100173369D01*
X149532469Y-100176193D01*
X149523606Y-100177156D01*
X149496394Y-100177156D01*
X149487531Y-100176193D01*
X149461533Y-100173369D01*
X149461529Y-100173369D01*
X149458134Y-100173000D01*
X149099293Y-100173000D01*
X149031172Y-100152998D01*
X149010198Y-100136095D01*
X148358523Y-99484420D01*
X148324019Y-99419804D01*
X148323966Y-99419536D01*
X148323365Y-99413408D01*
X148279111Y-99266830D01*
X148265152Y-99220593D01*
X148265151Y-99220590D01*
X148263368Y-99214685D01*
X148253219Y-99195598D01*
X148168809Y-99036847D01*
X148168808Y-99036845D01*
X148165913Y-99031401D01*
X148095264Y-98944776D01*
X148038610Y-98875311D01*
X148038607Y-98875308D01*
X148034715Y-98870536D01*
X148027770Y-98864790D01*
X147879518Y-98742145D01*
X147879519Y-98742145D01*
X147874770Y-98738217D01*
X147869353Y-98735288D01*
X147869350Y-98735286D01*
X147697590Y-98642416D01*
X147697585Y-98642414D01*
X147692170Y-98639486D01*
X147493871Y-98578102D01*
X147487746Y-98577458D01*
X147487745Y-98577458D01*
X147293554Y-98557048D01*
X147293552Y-98557048D01*
X147287425Y-98556404D01*
X147201515Y-98564223D01*
X147086836Y-98574659D01*
X147086833Y-98574660D01*
X147080697Y-98575218D01*
X147074791Y-98576956D01*
X147074787Y-98576957D01*
X146926932Y-98620473D01*
X146881560Y-98633827D01*
X146697600Y-98729999D01*
X146535823Y-98860071D01*
X146531865Y-98864788D01*
X146531863Y-98864790D01*
X146488419Y-98916565D01*
X146402391Y-99019089D01*
X146399427Y-99024481D01*
X146399424Y-99024485D01*
X146305354Y-99195598D01*
X146302387Y-99200995D01*
X146239621Y-99398861D01*
X146238935Y-99404978D01*
X146238934Y-99404982D01*
X146217169Y-99599025D01*
X146216482Y-99605150D01*
X146216998Y-99611294D01*
X146228416Y-99747263D01*
X146233852Y-99812004D01*
X146291069Y-100011545D01*
X146293887Y-100017027D01*
X146293888Y-100017031D01*
X146376312Y-100177409D01*
X146385955Y-100196173D01*
X146389786Y-100201007D01*
X146389787Y-100201008D01*
X146408662Y-100224822D01*
X146514894Y-100358854D01*
X146519581Y-100362843D01*
X146519584Y-100362846D01*
X146655272Y-100478325D01*
X146672976Y-100493392D01*
X146854180Y-100594664D01*
X147051603Y-100658810D01*
X147057720Y-100659539D01*
X147057727Y-100659541D01*
X147068576Y-100660835D01*
X147133849Y-100688762D01*
X147142751Y-100696853D01*
X147807538Y-101361641D01*
X148455180Y-102009283D01*
X148462322Y-102017049D01*
X148495971Y-102056867D01*
X148552030Y-102099727D01*
X148593997Y-102156992D01*
X148601500Y-102199823D01*
X148601500Y-102229634D01*
X148608255Y-102291816D01*
X148659385Y-102428205D01*
X148746739Y-102544761D01*
X148758476Y-102553557D01*
X148800989Y-102610416D01*
X148806014Y-102681234D01*
X148771954Y-102743527D01*
X148709623Y-102777518D01*
X148669303Y-102779645D01*
X148608134Y-102773000D01*
X146511866Y-102773000D01*
X146449684Y-102779755D01*
X146313295Y-102830885D01*
X146196739Y-102918239D01*
X146109385Y-103034795D01*
X146058255Y-103171184D01*
X146051500Y-103233366D01*
X146051500Y-104829634D01*
X146058255Y-104891816D01*
X146109385Y-105028205D01*
X146114771Y-105035391D01*
X146178133Y-105119935D01*
X146202981Y-105186441D01*
X146187928Y-105255824D01*
X146137754Y-105306054D01*
X146077307Y-105321500D01*
X138989500Y-105321500D01*
X138921379Y-105301498D01*
X138874886Y-105247842D01*
X138863500Y-105195500D01*
X138863500Y-104448866D01*
X138856745Y-104386684D01*
X138805615Y-104250295D01*
X138800230Y-104243110D01*
X138800229Y-104243108D01*
X138733674Y-104154304D01*
X138708826Y-104087797D01*
X138708500Y-104078739D01*
X138708500Y-103209500D01*
X138728502Y-103141379D01*
X138782158Y-103094886D01*
X138834500Y-103083500D01*
X139345786Y-103083500D01*
X139347106Y-103083507D01*
X139437221Y-103084451D01*
X139479597Y-103075289D01*
X139492163Y-103073231D01*
X139535255Y-103068397D01*
X139541906Y-103066081D01*
X139541910Y-103066080D01*
X139566930Y-103057367D01*
X139581742Y-103053204D01*
X139607619Y-103047609D01*
X139614510Y-103046119D01*
X139653813Y-103027792D01*
X139665589Y-103023010D01*
X139706552Y-103008745D01*
X139712527Y-103005011D01*
X139712530Y-103005010D01*
X139734995Y-102990973D01*
X139748512Y-102983634D01*
X139772514Y-102972441D01*
X139772515Y-102972440D01*
X139778902Y-102969462D01*
X139786563Y-102963520D01*
X139813153Y-102942894D01*
X139823612Y-102935598D01*
X139854404Y-102916358D01*
X139854407Y-102916356D01*
X139860376Y-102912626D01*
X139889179Y-102884024D01*
X139889804Y-102883439D01*
X139890470Y-102882922D01*
X139916460Y-102856932D01*
X139989082Y-102784815D01*
X139989740Y-102783778D01*
X139990843Y-102782549D01*
X140345158Y-102428234D01*
X140346095Y-102427306D01*
X140405475Y-102369157D01*
X140405476Y-102369156D01*
X140410507Y-102364229D01*
X140433998Y-102327779D01*
X140441417Y-102317454D01*
X140468476Y-102283557D01*
X140483073Y-102253362D01*
X140490602Y-102239945D01*
X140508765Y-102211762D01*
X140511173Y-102205145D01*
X140511176Y-102205140D01*
X140523592Y-102171027D01*
X140528553Y-102159284D01*
X140544353Y-102126600D01*
X140544356Y-102126591D01*
X140547421Y-102120251D01*
X140554966Y-102087572D01*
X140559334Y-102072825D01*
X140564193Y-102059475D01*
X140570803Y-102041315D01*
X140571685Y-102034330D01*
X140571687Y-102034323D01*
X140576237Y-101998308D01*
X140578472Y-101985757D01*
X140583279Y-101964938D01*
X140588225Y-101943515D01*
X140588367Y-101902928D01*
X140588396Y-101902058D01*
X140588500Y-101901231D01*
X140588500Y-101864590D01*
X140588857Y-101762130D01*
X140588589Y-101760930D01*
X140588500Y-101759292D01*
X140588500Y-101289813D01*
X140594667Y-101250877D01*
X140622325Y-101165754D01*
X140622325Y-101165753D01*
X140624365Y-101159475D01*
X140630702Y-101099189D01*
X140642539Y-100986565D01*
X140643229Y-100980000D01*
X140637750Y-100927876D01*
X140625055Y-100807089D01*
X140625055Y-100807088D01*
X140624365Y-100800525D01*
X140605689Y-100743044D01*
X140578557Y-100659541D01*
X140568599Y-100628893D01*
X140478367Y-100472607D01*
X140446903Y-100437662D01*
X140416187Y-100373657D01*
X140424950Y-100303204D01*
X140462965Y-100254067D01*
X140484199Y-100237477D01*
X140488594Y-100232385D01*
X140602994Y-100099852D01*
X140602995Y-100099850D01*
X140607023Y-100095184D01*
X140610649Y-100088802D01*
X140651420Y-100017031D01*
X140699870Y-99931744D01*
X140759203Y-99753382D01*
X140782762Y-99566892D01*
X140783138Y-99540000D01*
X140764795Y-99352926D01*
X140710465Y-99172977D01*
X140622218Y-99007008D01*
X140503415Y-98861340D01*
X140428437Y-98799313D01*
X140363329Y-98745450D01*
X140363324Y-98745447D01*
X140358580Y-98741522D01*
X140353161Y-98738592D01*
X140353158Y-98738590D01*
X140283671Y-98701019D01*
X140193231Y-98652119D01*
X140013666Y-98596534D01*
X140007541Y-98595890D01*
X140007540Y-98595890D01*
X139832852Y-98577529D01*
X139832851Y-98577529D01*
X139826724Y-98576885D01*
X139749673Y-98583897D01*
X139645665Y-98593363D01*
X139645662Y-98593364D01*
X139639526Y-98593922D01*
X139633620Y-98595660D01*
X139633616Y-98595661D01*
X139509848Y-98632088D01*
X139459202Y-98646994D01*
X139292621Y-98734080D01*
X139287823Y-98737938D01*
X139287821Y-98737939D01*
X139268224Y-98753696D01*
X139202602Y-98780793D01*
X139189271Y-98781500D01*
X138487070Y-98781500D01*
X138468120Y-98780067D01*
X138453885Y-98777901D01*
X138453881Y-98777901D01*
X138446651Y-98776801D01*
X138439359Y-98777394D01*
X138439356Y-98777394D01*
X138393982Y-98781085D01*
X138383767Y-98781500D01*
X138375707Y-98781500D01*
X138362417Y-98783049D01*
X138347493Y-98784789D01*
X138343118Y-98785222D01*
X138277661Y-98790546D01*
X138277658Y-98790547D01*
X138270363Y-98791140D01*
X138263399Y-98793396D01*
X138257440Y-98794587D01*
X138251585Y-98795971D01*
X138244319Y-98796818D01*
X138175673Y-98821735D01*
X138171545Y-98823152D01*
X138109064Y-98843393D01*
X138109062Y-98843394D01*
X138102101Y-98845649D01*
X138095846Y-98849445D01*
X138090372Y-98851951D01*
X138084942Y-98854670D01*
X138078063Y-98857167D01*
X138071943Y-98861180D01*
X138071942Y-98861180D01*
X138017024Y-98897186D01*
X138013320Y-98899523D01*
X137950893Y-98937405D01*
X137942516Y-98944803D01*
X137942492Y-98944776D01*
X137939500Y-98947429D01*
X137936267Y-98950132D01*
X137930148Y-98954144D01*
X137925116Y-98959456D01*
X137876872Y-99010383D01*
X137874494Y-99012825D01*
X137411089Y-99476230D01*
X137396677Y-99488616D01*
X137385082Y-99497149D01*
X137385077Y-99497154D01*
X137379182Y-99501492D01*
X137374443Y-99507070D01*
X137374440Y-99507073D01*
X137344965Y-99541768D01*
X137338035Y-99549284D01*
X137332340Y-99554979D01*
X137330060Y-99557861D01*
X137314719Y-99577251D01*
X137311928Y-99580655D01*
X137269409Y-99630703D01*
X137264667Y-99636285D01*
X137261339Y-99642801D01*
X137257972Y-99647850D01*
X137254805Y-99652979D01*
X137250266Y-99658716D01*
X137219345Y-99724875D01*
X137217438Y-99728776D01*
X137197510Y-99767802D01*
X137148717Y-99819374D01*
X137085294Y-99836500D01*
X135996207Y-99836500D01*
X135930936Y-99818276D01*
X135858699Y-99774528D01*
X135851452Y-99772257D01*
X135851450Y-99772256D01*
X135750371Y-99740580D01*
X135695062Y-99723247D01*
X135621635Y-99716500D01*
X135618737Y-99716500D01*
X135289140Y-99716501D01*
X134958366Y-99716501D01*
X134955508Y-99716764D01*
X134955499Y-99716764D01*
X134919996Y-99720026D01*
X134884938Y-99723247D01*
X134878560Y-99725246D01*
X134878559Y-99725246D01*
X134728550Y-99772256D01*
X134728548Y-99772257D01*
X134721301Y-99774528D01*
X134649064Y-99818276D01*
X134583793Y-99836500D01*
X133596207Y-99836500D01*
X133530936Y-99818276D01*
X133458699Y-99774528D01*
X133451452Y-99772257D01*
X133451450Y-99772256D01*
X133350371Y-99740580D01*
X133295062Y-99723247D01*
X133221635Y-99716500D01*
X133218737Y-99716500D01*
X132889140Y-99716501D01*
X132558366Y-99716501D01*
X132555508Y-99716764D01*
X132555499Y-99716764D01*
X132519996Y-99720026D01*
X132484938Y-99723247D01*
X132478560Y-99725246D01*
X132478559Y-99725246D01*
X132328550Y-99772256D01*
X132328548Y-99772257D01*
X132321301Y-99774528D01*
X132249064Y-99818276D01*
X132183793Y-99836500D01*
X131266207Y-99836500D01*
X131200936Y-99818276D01*
X131128699Y-99774528D01*
X131121452Y-99772257D01*
X131121450Y-99772256D01*
X131020371Y-99740580D01*
X130965062Y-99723247D01*
X130891635Y-99716500D01*
X130888737Y-99716500D01*
X130559140Y-99716501D01*
X130228366Y-99716501D01*
X130225508Y-99716764D01*
X130225499Y-99716764D01*
X130189996Y-99720026D01*
X130154938Y-99723247D01*
X130148560Y-99725246D01*
X130148559Y-99725246D01*
X129998550Y-99772256D01*
X129998548Y-99772257D01*
X129991301Y-99774528D01*
X129919064Y-99818276D01*
X129853793Y-99836500D01*
X129294500Y-99836500D01*
X129226379Y-99816498D01*
X129179886Y-99762842D01*
X129168500Y-99710500D01*
X129168500Y-94511417D01*
X129170051Y-94491705D01*
X129171220Y-94484325D01*
X129172252Y-94477810D01*
X129168673Y-94409520D01*
X129168500Y-94402926D01*
X129168500Y-94382390D01*
X129168156Y-94379116D01*
X129166353Y-94361958D01*
X129165836Y-94355384D01*
X129162603Y-94293696D01*
X129162603Y-94293694D01*
X129162257Y-94287097D01*
X129158615Y-94273504D01*
X129155014Y-94254075D01*
X129154232Y-94246639D01*
X129153542Y-94240072D01*
X129132407Y-94175025D01*
X129130535Y-94168706D01*
X129114538Y-94109003D01*
X129114537Y-94109000D01*
X129112830Y-94102630D01*
X129106438Y-94090085D01*
X129098874Y-94071823D01*
X129096568Y-94064726D01*
X129094527Y-94058444D01*
X129060336Y-93999223D01*
X129057188Y-93993426D01*
X129029126Y-93938351D01*
X129029124Y-93938348D01*
X129026129Y-93932470D01*
X129017273Y-93921533D01*
X129006073Y-93905237D01*
X129002343Y-93898776D01*
X129002340Y-93898772D01*
X128999040Y-93893056D01*
X128994623Y-93888150D01*
X128994619Y-93888145D01*
X128953278Y-93842231D01*
X128948994Y-93837216D01*
X128938148Y-93823823D01*
X128936072Y-93821259D01*
X128921557Y-93806744D01*
X128917016Y-93801959D01*
X128875673Y-93756043D01*
X128871253Y-93751134D01*
X128859865Y-93742860D01*
X128844832Y-93730019D01*
X127885405Y-92770592D01*
X127851379Y-92708280D01*
X127848500Y-92681497D01*
X127848500Y-92441582D01*
X127868502Y-92373461D01*
X127922158Y-92326968D01*
X127992432Y-92316864D01*
X128014167Y-92321989D01*
X128143811Y-92364990D01*
X128157190Y-92367858D01*
X128248097Y-92377172D01*
X128253126Y-92377429D01*
X128268124Y-92373025D01*
X128269329Y-92371635D01*
X128271000Y-92363952D01*
X128271000Y-92359385D01*
X128779000Y-92359385D01*
X128783475Y-92374624D01*
X128784865Y-92375829D01*
X128792548Y-92377500D01*
X128795438Y-92377500D01*
X128801953Y-92377163D01*
X128894057Y-92367606D01*
X128907456Y-92364712D01*
X129056107Y-92315119D01*
X129069286Y-92308945D01*
X129202173Y-92226712D01*
X129213574Y-92217676D01*
X129323986Y-92107071D01*
X129332998Y-92095660D01*
X129415004Y-91962620D01*
X129421151Y-91949439D01*
X129470491Y-91800686D01*
X129473358Y-91787310D01*
X129482672Y-91696403D01*
X129483000Y-91689987D01*
X129483000Y-91666615D01*
X129478525Y-91651376D01*
X129477135Y-91650171D01*
X129469452Y-91648500D01*
X128797115Y-91648500D01*
X128781876Y-91652975D01*
X128780671Y-91654365D01*
X128779000Y-91662048D01*
X128779000Y-92359385D01*
X128271000Y-92359385D01*
X128271000Y-91530169D01*
X130051001Y-91530169D01*
X130051371Y-91536990D01*
X130056895Y-91587852D01*
X130060521Y-91603104D01*
X130105676Y-91723554D01*
X130114214Y-91739149D01*
X130190715Y-91841224D01*
X130203276Y-91853785D01*
X130305351Y-91930286D01*
X130320946Y-91938824D01*
X130441394Y-91983978D01*
X130456649Y-91987605D01*
X130507514Y-91993131D01*
X130514328Y-91993500D01*
X130552885Y-91993500D01*
X130568124Y-91989025D01*
X130569329Y-91987635D01*
X130571000Y-91979952D01*
X130571000Y-91222615D01*
X130566525Y-91207376D01*
X130565135Y-91206171D01*
X130557452Y-91204500D01*
X130069116Y-91204500D01*
X130053877Y-91208975D01*
X130052672Y-91210365D01*
X130051001Y-91218048D01*
X130051001Y-91530169D01*
X128271000Y-91530169D01*
X128271000Y-91122385D01*
X128779000Y-91122385D01*
X128783475Y-91137624D01*
X128784865Y-91138829D01*
X128792548Y-91140500D01*
X129464885Y-91140500D01*
X129480124Y-91136025D01*
X129481329Y-91134635D01*
X129483000Y-91126952D01*
X129483000Y-91099062D01*
X129482663Y-91092547D01*
X129473106Y-91000443D01*
X129470212Y-90987044D01*
X129420619Y-90838393D01*
X129414445Y-90825214D01*
X129332212Y-90692327D01*
X129323176Y-90680926D01*
X129212571Y-90570514D01*
X129201160Y-90561502D01*
X129068120Y-90479496D01*
X129054939Y-90473349D01*
X128906186Y-90424009D01*
X128892810Y-90421142D01*
X128801903Y-90411828D01*
X128796874Y-90411571D01*
X128781876Y-90415975D01*
X128780671Y-90417365D01*
X128779000Y-90425048D01*
X128779000Y-91122385D01*
X128271000Y-91122385D01*
X128271000Y-90429615D01*
X128266525Y-90414376D01*
X128265135Y-90413171D01*
X128257452Y-90411500D01*
X128254562Y-90411500D01*
X128248047Y-90411837D01*
X128155943Y-90421394D01*
X128142541Y-90424289D01*
X128014375Y-90467047D01*
X127943426Y-90469631D01*
X127882342Y-90433447D01*
X127850518Y-90369982D01*
X127848500Y-90347523D01*
X127848500Y-89641760D01*
X127868502Y-89573639D01*
X127922158Y-89527146D01*
X127992432Y-89517042D01*
X128039771Y-89533984D01*
G37*
%TD.AperFunction*%
%TA.AperFunction,Conductor*%
G36*
X150563363Y-85704549D02*
G01*
X150643257Y-85706781D01*
X150649961Y-85705502D01*
X150656762Y-85704955D01*
X150656804Y-85705475D01*
X150667125Y-85704500D01*
X169578207Y-85704500D01*
X169646328Y-85724502D01*
X169667302Y-85741405D01*
X169822746Y-85896849D01*
X169856772Y-85959161D01*
X169851707Y-86029976D01*
X169809160Y-86086812D01*
X169777881Y-86103926D01*
X169701829Y-86132437D01*
X169683295Y-86139385D01*
X169566739Y-86226739D01*
X169479385Y-86343295D01*
X169428255Y-86479684D01*
X169421500Y-86541866D01*
X169421500Y-87618134D01*
X169428255Y-87680316D01*
X169479385Y-87816705D01*
X169566739Y-87933261D01*
X169683295Y-88020615D01*
X169819684Y-88071745D01*
X169881866Y-88078500D01*
X171682208Y-88078500D01*
X171750329Y-88098502D01*
X171771303Y-88115405D01*
X171822303Y-88166405D01*
X171856329Y-88228717D01*
X171851264Y-88299532D01*
X171808717Y-88356368D01*
X171742197Y-88381179D01*
X171733208Y-88381500D01*
X169881866Y-88381500D01*
X169819684Y-88388255D01*
X169683295Y-88439385D01*
X169609244Y-88494883D01*
X169607319Y-88496326D01*
X169540813Y-88521174D01*
X169531754Y-88521500D01*
X167204500Y-88521500D01*
X167136379Y-88501498D01*
X167089886Y-88447842D01*
X167078500Y-88395500D01*
X167078500Y-87531866D01*
X167071745Y-87469684D01*
X167020615Y-87333295D01*
X166933261Y-87216739D01*
X166816705Y-87129385D01*
X166680316Y-87078255D01*
X166618134Y-87071500D01*
X164155866Y-87071500D01*
X164093684Y-87078255D01*
X163957295Y-87129385D01*
X163840739Y-87216739D01*
X163753385Y-87333295D01*
X163702255Y-87469684D01*
X163695500Y-87531866D01*
X163695500Y-88495500D01*
X163675498Y-88563621D01*
X163621842Y-88610114D01*
X163569500Y-88621500D01*
X157907069Y-88621500D01*
X157888121Y-88620067D01*
X157880780Y-88618950D01*
X157873883Y-88617901D01*
X157873881Y-88617901D01*
X157866651Y-88616801D01*
X157859359Y-88617394D01*
X157859356Y-88617394D01*
X157813982Y-88621085D01*
X157803767Y-88621500D01*
X157795707Y-88621500D01*
X157782417Y-88623049D01*
X157767493Y-88624789D01*
X157763118Y-88625222D01*
X157697661Y-88630546D01*
X157697658Y-88630547D01*
X157690363Y-88631140D01*
X157683399Y-88633396D01*
X157677440Y-88634587D01*
X157671585Y-88635971D01*
X157664319Y-88636818D01*
X157595673Y-88661735D01*
X157591545Y-88663152D01*
X157529064Y-88683393D01*
X157529062Y-88683394D01*
X157522101Y-88685649D01*
X157515846Y-88689445D01*
X157510372Y-88691951D01*
X157504942Y-88694670D01*
X157498063Y-88697167D01*
X157437016Y-88737191D01*
X157433327Y-88739518D01*
X157413135Y-88751771D01*
X157375693Y-88774491D01*
X157375688Y-88774495D01*
X157370892Y-88777405D01*
X157362516Y-88784803D01*
X157362493Y-88784777D01*
X157359503Y-88787426D01*
X157356264Y-88790134D01*
X157350148Y-88794144D01*
X157345121Y-88799451D01*
X157345117Y-88799454D01*
X157296872Y-88850383D01*
X157294494Y-88852825D01*
X156041043Y-90106276D01*
X155978731Y-90140302D01*
X155963369Y-90142662D01*
X155955666Y-90143363D01*
X155955664Y-90143363D01*
X155949526Y-90143922D01*
X155769202Y-90196994D01*
X155602621Y-90284080D01*
X155597823Y-90287937D01*
X155597821Y-90287939D01*
X155583821Y-90299196D01*
X155518199Y-90326293D01*
X155504868Y-90327000D01*
X153984500Y-90327000D01*
X153916379Y-90306998D01*
X153869886Y-90253342D01*
X153858500Y-90201000D01*
X153858500Y-89391390D01*
X153858942Y-89380847D01*
X153862008Y-89344330D01*
X153863304Y-89328901D01*
X153858866Y-89295641D01*
X153852563Y-89248398D01*
X153852193Y-89245343D01*
X153845322Y-89182101D01*
X153843417Y-89164563D01*
X153841242Y-89158099D01*
X153840522Y-89154824D01*
X153840452Y-89154428D01*
X153840329Y-89154004D01*
X153839538Y-89150785D01*
X153838634Y-89144011D01*
X153810852Y-89067680D01*
X153809855Y-89064830D01*
X153786100Y-88994245D01*
X153786095Y-88994235D01*
X153783922Y-88987777D01*
X153780410Y-88981931D01*
X153779008Y-88978898D01*
X153778850Y-88978514D01*
X153778637Y-88978124D01*
X153777172Y-88975145D01*
X153774837Y-88968732D01*
X153771183Y-88962974D01*
X153771180Y-88962968D01*
X153764114Y-88951834D01*
X153744500Y-88884321D01*
X153744500Y-88736866D01*
X153737745Y-88674684D01*
X153686615Y-88538295D01*
X153599261Y-88421739D01*
X153482705Y-88334385D01*
X153346316Y-88283255D01*
X153284134Y-88276500D01*
X152655866Y-88276500D01*
X152593684Y-88283255D01*
X152457295Y-88334385D01*
X152340739Y-88421739D01*
X152253385Y-88538295D01*
X152202255Y-88674684D01*
X152195500Y-88736866D01*
X152195500Y-88911994D01*
X152181744Y-88964060D01*
X152183544Y-88964839D01*
X152180832Y-88971105D01*
X152177462Y-88977038D01*
X152175444Y-88983556D01*
X152175443Y-88983559D01*
X152124322Y-89148705D01*
X152122304Y-89155225D01*
X152106696Y-89341099D01*
X152107598Y-89347859D01*
X152107598Y-89347861D01*
X152114243Y-89397658D01*
X152131366Y-89525989D01*
X152133903Y-89532959D01*
X152134071Y-89533914D01*
X152135327Y-89539026D01*
X152134987Y-89539109D01*
X152141500Y-89576048D01*
X152141500Y-90336004D01*
X152121498Y-90404125D01*
X152067842Y-90450618D01*
X151997568Y-90460722D01*
X151932988Y-90431228D01*
X151908359Y-90402312D01*
X151898752Y-90386787D01*
X151789410Y-90277635D01*
X151755331Y-90215354D01*
X151760334Y-90144534D01*
X151777603Y-90112897D01*
X151780788Y-90108647D01*
X151789322Y-90093059D01*
X151834478Y-89972606D01*
X151838105Y-89957351D01*
X151843631Y-89906486D01*
X151844000Y-89899672D01*
X151844000Y-89592115D01*
X151839525Y-89576876D01*
X151838135Y-89575671D01*
X151830452Y-89574000D01*
X150314116Y-89574000D01*
X150298877Y-89578475D01*
X150297672Y-89579865D01*
X150296001Y-89587548D01*
X150296001Y-89899669D01*
X150296371Y-89906490D01*
X150301895Y-89957352D01*
X150305522Y-89972607D01*
X150331450Y-90041771D01*
X150336633Y-90112578D01*
X150302712Y-90174947D01*
X150240456Y-90209076D01*
X150213468Y-90212000D01*
X149764435Y-90212000D01*
X149696314Y-90191998D01*
X149649821Y-90138342D01*
X149639717Y-90068068D01*
X149657175Y-90019884D01*
X149735004Y-89893620D01*
X149741151Y-89880439D01*
X149790491Y-89731686D01*
X149793358Y-89718310D01*
X149802672Y-89627403D01*
X149802929Y-89622374D01*
X149798525Y-89607376D01*
X149797135Y-89606171D01*
X149789452Y-89604500D01*
X148692000Y-89604500D01*
X148623879Y-89584498D01*
X148577386Y-89530842D01*
X148566000Y-89478500D01*
X148566000Y-89222500D01*
X148586002Y-89154379D01*
X148639658Y-89107886D01*
X148692000Y-89096500D01*
X149784885Y-89096500D01*
X149800124Y-89092025D01*
X149801329Y-89090635D01*
X149803000Y-89082952D01*
X149803000Y-89080062D01*
X149802663Y-89073547D01*
X149800000Y-89047885D01*
X150296000Y-89047885D01*
X150300475Y-89063124D01*
X150301865Y-89064329D01*
X150309548Y-89066000D01*
X150797885Y-89066000D01*
X150813124Y-89061525D01*
X150814329Y-89060135D01*
X150816000Y-89052452D01*
X150816000Y-89047885D01*
X151324000Y-89047885D01*
X151328475Y-89063124D01*
X151329865Y-89064329D01*
X151337548Y-89066000D01*
X151825884Y-89066000D01*
X151841123Y-89061525D01*
X151842328Y-89060135D01*
X151843999Y-89052452D01*
X151843999Y-88740331D01*
X151843629Y-88733510D01*
X151838105Y-88682648D01*
X151834479Y-88667396D01*
X151789324Y-88546946D01*
X151780786Y-88531351D01*
X151704285Y-88429276D01*
X151691724Y-88416715D01*
X151589649Y-88340214D01*
X151574054Y-88331676D01*
X151453606Y-88286522D01*
X151438351Y-88282895D01*
X151387486Y-88277369D01*
X151380672Y-88277000D01*
X151342115Y-88277000D01*
X151326876Y-88281475D01*
X151325671Y-88282865D01*
X151324000Y-88290548D01*
X151324000Y-89047885D01*
X150816000Y-89047885D01*
X150816000Y-88295116D01*
X150811525Y-88279877D01*
X150810135Y-88278672D01*
X150802452Y-88277001D01*
X150759331Y-88277001D01*
X150752510Y-88277371D01*
X150701648Y-88282895D01*
X150686396Y-88286521D01*
X150565946Y-88331676D01*
X150550351Y-88340214D01*
X150448276Y-88416715D01*
X150435715Y-88429276D01*
X150359214Y-88531351D01*
X150350676Y-88546946D01*
X150305523Y-88667390D01*
X150301895Y-88682649D01*
X150296369Y-88733514D01*
X150296000Y-88740328D01*
X150296000Y-89047885D01*
X149800000Y-89047885D01*
X149793106Y-88981443D01*
X149790212Y-88968044D01*
X149740619Y-88819393D01*
X149734445Y-88806214D01*
X149652212Y-88673327D01*
X149638629Y-88656189D01*
X149640559Y-88654659D01*
X149612097Y-88602620D01*
X149617113Y-88531801D01*
X149640799Y-88494883D01*
X149639843Y-88494128D01*
X149644381Y-88488382D01*
X149649552Y-88483202D01*
X149684471Y-88426553D01*
X149735462Y-88343831D01*
X149735463Y-88343829D01*
X149739302Y-88337601D01*
X149793149Y-88175257D01*
X149799282Y-88115405D01*
X149803173Y-88077425D01*
X149803173Y-88077422D01*
X149803500Y-88074232D01*
X149804245Y-88074308D01*
X149826621Y-88010350D01*
X149839917Y-87994686D01*
X149859198Y-87975405D01*
X149921510Y-87941379D01*
X149948293Y-87938500D01*
X151335739Y-87938500D01*
X151403860Y-87958502D01*
X151411304Y-87963674D01*
X151491486Y-88023767D01*
X151507295Y-88035615D01*
X151643684Y-88086745D01*
X151705866Y-88093500D01*
X152334134Y-88093500D01*
X152396316Y-88086745D01*
X152532705Y-88035615D01*
X152649261Y-87948261D01*
X152736615Y-87831705D01*
X152787745Y-87695316D01*
X152794500Y-87633134D01*
X152794500Y-87450154D01*
X152807641Y-87394130D01*
X152827410Y-87354306D01*
X152827412Y-87354302D01*
X152830447Y-87348187D01*
X152835232Y-87328998D01*
X152873920Y-87173823D01*
X152875572Y-87167199D01*
X152876629Y-87129385D01*
X152878235Y-87071869D01*
X152880781Y-86980743D01*
X152856338Y-86852613D01*
X152847107Y-86804222D01*
X152847106Y-86804219D01*
X152845828Y-86797519D01*
X152804689Y-86701534D01*
X152794500Y-86651898D01*
X152794500Y-86466866D01*
X152787745Y-86404684D01*
X152736615Y-86268295D01*
X152649261Y-86151739D01*
X152532705Y-86064385D01*
X152396316Y-86013255D01*
X152334134Y-86006500D01*
X151705866Y-86006500D01*
X151643684Y-86013255D01*
X151507295Y-86064385D01*
X151390739Y-86151739D01*
X151385358Y-86158919D01*
X151376255Y-86171065D01*
X151319396Y-86213580D01*
X151275429Y-86221500D01*
X149581890Y-86221500D01*
X149571347Y-86221058D01*
X149519401Y-86216696D01*
X149512641Y-86217598D01*
X149512639Y-86217598D01*
X149438898Y-86227437D01*
X149435843Y-86227807D01*
X149403611Y-86231309D01*
X149355063Y-86236583D01*
X149348599Y-86238758D01*
X149345324Y-86239478D01*
X149344928Y-86239548D01*
X149344504Y-86239671D01*
X149341284Y-86240462D01*
X149334511Y-86241366D01*
X149258177Y-86269149D01*
X149255302Y-86270156D01*
X149236727Y-86276407D01*
X149178277Y-86296078D01*
X149172423Y-86299596D01*
X149169416Y-86300985D01*
X149169011Y-86301152D01*
X149168635Y-86301357D01*
X149165648Y-86302827D01*
X149159232Y-86305162D01*
X149090580Y-86348730D01*
X149088111Y-86350255D01*
X149018391Y-86392147D01*
X149013434Y-86396834D01*
X149010777Y-86398851D01*
X149010043Y-86399361D01*
X149006105Y-86402339D01*
X149001741Y-86405109D01*
X148997468Y-86408929D01*
X148943472Y-86462925D01*
X148940950Y-86465379D01*
X148882864Y-86520308D01*
X148879026Y-86525956D01*
X148874607Y-86531148D01*
X148874207Y-86530808D01*
X148867600Y-86538797D01*
X148600807Y-86805590D01*
X148538495Y-86839616D01*
X148521260Y-86841919D01*
X148521268Y-86842000D01*
X148518526Y-86842284D01*
X148518510Y-86842286D01*
X148518033Y-86842336D01*
X148518026Y-86842336D01*
X148470564Y-86847261D01*
X148418981Y-86852613D01*
X148412440Y-86854795D01*
X148412441Y-86854795D01*
X148314377Y-86887512D01*
X148243427Y-86890097D01*
X148182343Y-86853914D01*
X148150518Y-86790450D01*
X148148500Y-86767989D01*
X148148500Y-85830500D01*
X148168502Y-85762379D01*
X148222158Y-85715886D01*
X148274500Y-85704500D01*
X150559844Y-85704500D01*
X150563363Y-85704549D01*
G37*
%TD.AperFunction*%
%TD*%
M02*
