M48
; DRILL file {KiCad (6.0.7)} date Fri Sep 23 01:36:32 2022
; FORMAT={-:-/ absolute / metric / decimal}
; #@! TF.CreationDate,2022-09-23T01:36:32+08:00
; #@! TF.GenerationSoftware,Kicad,Pcbnew,(6.0.7)
; #@! TF.FileFunction,MixedPlating,1,2
FMAT,2
METRIC
; #@! TA.AperFunction,Plated,PTH,ViaDrill
T1C0.300
; #@! TA.AperFunction,Plated,PTH,ViaDrill
T2C0.500
; #@! TA.AperFunction,Plated,PTH,ComponentDrill
T3C1.000
%
G90
G05
T1
X141.16Y-107.04
X143.53Y-106.38
X145.86Y-107.72
X145.88Y-105.75
X151.58Y-104.21
X171.98Y-102.14
X172.0Y-103.11
X172.02Y-104.13
X172.06Y-105.11
X172.06Y-106.09
T2
X138.329Y-124.351
X151.62Y-102.77
X159.08Y-102.85
X159.09Y-94.32
X161.08Y-101.96
X162.86Y-98.48
X167.93Y-94.32
X171.43Y-124.36
X173.23Y-108.59
X183.38Y-115.29
T3
X138.355Y-128.31
X140.895Y-128.31
X143.435Y-128.31
X145.975Y-128.31
X148.515Y-128.31
X151.055Y-128.31
X153.595Y-128.31
X156.135Y-128.31
T0
M30
