M48
; DRILL file {KiCad (6.0.8)} date Thu Oct 13 19:49:00 2022
; FORMAT={-:-/ absolute / metric / decimal}
; #@! TF.CreationDate,2022-10-13T19:49:00+08:00
; #@! TF.GenerationSoftware,Kicad,Pcbnew,(6.0.8)
; #@! TF.FileFunction,MixedPlating,1,2
FMAT,2
METRIC
; #@! TA.AperFunction,Plated,PTH,ViaDrill
T1C0.300
; #@! TA.AperFunction,Plated,PTH,ViaDrill
T2C0.500
; #@! TA.AperFunction,Plated,PTH,ComponentDrill
T3C1.000
%
G90
G05
T1
X129.36Y-103.81
X131.73Y-103.15
X134.06Y-104.49
X134.08Y-102.52
X139.78Y-100.98
X160.18Y-98.91
X160.2Y-99.88
X160.22Y-100.9
X160.26Y-101.88
X160.26Y-102.86
T2
X125.111Y-121.129
X126.4Y-111.56
X127.93Y-122.5
X131.8Y-111.56
X134.17Y-111.56
X136.77Y-111.56
X139.82Y-99.54
X140.62Y-122.6
X143.63Y-111.56
X147.28Y-99.62
X147.29Y-91.09
X149.28Y-98.73
X151.06Y-95.25
X156.13Y-91.09
X159.63Y-121.13
X161.42Y-105.41
X171.06Y-113.83
T3
X126.555Y-125.08
X129.095Y-125.08
X131.635Y-125.08
X134.175Y-125.08
X136.715Y-125.08
X139.255Y-125.08
X141.795Y-125.08
X144.335Y-125.08
T0
M30
