%TF.GenerationSoftware,KiCad,Pcbnew,(6.0.8)*%
%TF.CreationDate,2022-10-13T19:48:59+08:00*%
%TF.ProjectId,UINIO-LCD2.4-ST7789,55494e49-4f2d-44c4-9344-322e342d5354,rev?*%
%TF.SameCoordinates,Original*%
%TF.FileFunction,Legend,Bot*%
%TF.FilePolarity,Positive*%
%FSLAX46Y46*%
G04 Gerber Fmt 4.6, Leading zero omitted, Abs format (unit mm)*
G04 Created by KiCad (PCBNEW (6.0.8)) date 2022-10-13 19:48:59*
%MOMM*%
%LPD*%
G01*
G04 APERTURE LIST*
%ADD10C,0.200000*%
%ADD11C,0.300000*%
%ADD12R,1.700000X1.700000*%
%ADD13O,1.700000X1.700000*%
G04 APERTURE END LIST*
D10*
X118530000Y-123800000D02*
X178790000Y-123800000D01*
X178790000Y-123800000D02*
X178790000Y-81080000D01*
X178790000Y-81080000D02*
X118530000Y-81080000D01*
X118530000Y-81080000D02*
X118530000Y-123800000D01*
D11*
%TO.C,*%
G36*
X140823391Y-97644843D02*
G01*
X140876401Y-97703549D01*
X140918306Y-97755584D01*
X140934364Y-97783566D01*
X140933681Y-97785661D01*
X140908487Y-97813426D01*
X140852371Y-97864352D01*
X140772701Y-97931964D01*
X140676847Y-98009789D01*
X140570454Y-98095451D01*
X140460263Y-98185996D01*
X140363691Y-98267112D01*
X140293711Y-98328024D01*
X140228513Y-98384804D01*
X140176630Y-98426212D01*
X140150257Y-98442433D01*
X140145965Y-98441212D01*
X140113407Y-98415990D01*
X140062484Y-98366975D01*
X140004025Y-98305779D01*
X139948860Y-98244014D01*
X139907820Y-98193293D01*
X139891733Y-98165228D01*
X139907662Y-98144324D01*
X139957035Y-98098277D01*
X140032538Y-98033828D01*
X140126706Y-97956958D01*
X140232075Y-97873651D01*
X140341182Y-97789891D01*
X140446561Y-97711662D01*
X140540750Y-97644947D01*
X140712419Y-97527391D01*
X140823391Y-97644843D01*
G37*
G36*
X166678884Y-101864311D02*
G01*
X166798177Y-101868306D01*
X166909248Y-101875504D01*
X167001591Y-101885232D01*
X167064702Y-101896817D01*
X167088073Y-101909589D01*
X167082492Y-101914642D01*
X167039309Y-101928000D01*
X166962705Y-101943230D01*
X166863840Y-101957927D01*
X166846127Y-101960376D01*
X166729585Y-101981581D01*
X166585226Y-102013986D01*
X166429715Y-102053633D01*
X166279716Y-102096569D01*
X166129415Y-102140454D01*
X165962031Y-102182008D01*
X165828533Y-102204421D01*
X165722161Y-102208737D01*
X165636156Y-102196001D01*
X165594629Y-102176349D01*
X165594026Y-102147107D01*
X165639576Y-102107698D01*
X165732410Y-102056483D01*
X165834239Y-102011782D01*
X166031419Y-101946309D01*
X166244673Y-101896879D01*
X166452975Y-101868966D01*
X166457657Y-101868613D01*
X166561876Y-101864189D01*
X166678884Y-101864311D01*
G37*
G36*
X164454802Y-106139354D02*
G01*
X164466430Y-106148397D01*
X164439623Y-106154533D01*
X164414141Y-106152756D01*
X164406648Y-106141337D01*
X164415536Y-106136359D01*
X164454802Y-106139354D01*
G37*
G36*
X158596283Y-101182035D02*
G01*
X158596283Y-100830304D01*
X157196863Y-100830304D01*
X157181695Y-101226002D01*
X157178558Y-101297033D01*
X157169988Y-101437143D01*
X157159393Y-101561063D01*
X157147827Y-101657445D01*
X157136341Y-101714940D01*
X157089654Y-101819384D01*
X156990180Y-101940151D01*
X156852925Y-102029695D01*
X156680173Y-102086158D01*
X156661729Y-102088752D01*
X156589258Y-102093664D01*
X156476932Y-102097735D01*
X156331791Y-102100835D01*
X156160874Y-102102832D01*
X155971221Y-102103598D01*
X155769873Y-102103001D01*
X155703909Y-102102568D01*
X155477057Y-102100665D01*
X155293143Y-102097675D01*
X155146354Y-102092611D01*
X155030874Y-102084484D01*
X154940890Y-102072306D01*
X154870587Y-102055088D01*
X154814151Y-102031844D01*
X154765768Y-102001584D01*
X154719624Y-101963321D01*
X154669904Y-101916067D01*
X154617771Y-101855210D01*
X154565096Y-101763523D01*
X154519417Y-101643394D01*
X154478052Y-101487558D01*
X154438319Y-101288750D01*
X154431212Y-101249159D01*
X154412572Y-101146844D01*
X154397100Y-101063986D01*
X154387584Y-101015598D01*
X154386215Y-101007946D01*
X154389951Y-100980828D01*
X154415434Y-100956841D01*
X154471436Y-100930059D01*
X154566730Y-100894554D01*
X154593939Y-100885003D01*
X154678564Y-100856833D01*
X154739409Y-100838951D01*
X154764783Y-100834878D01*
X154770590Y-100858913D01*
X154781868Y-100923224D01*
X154796793Y-101017563D01*
X154813692Y-101131788D01*
X154841298Y-101295696D01*
X154879455Y-101447921D01*
X154925951Y-101560667D01*
X154983258Y-101639691D01*
X155053850Y-101690750D01*
X155054144Y-101690897D01*
X155085057Y-101703866D01*
X155123689Y-101714023D01*
X155176117Y-101721697D01*
X155248415Y-101727217D01*
X155346658Y-101730912D01*
X155476921Y-101733112D01*
X155645278Y-101734147D01*
X155857806Y-101734346D01*
X155990508Y-101734215D01*
X156187724Y-101733274D01*
X156343483Y-101730610D01*
X156463390Y-101725270D01*
X156553047Y-101716301D01*
X156618060Y-101702751D01*
X156664033Y-101683665D01*
X156696570Y-101658091D01*
X156721276Y-101625075D01*
X156743755Y-101583664D01*
X156761116Y-101542435D01*
X156773944Y-101488184D01*
X156780980Y-101414845D01*
X156783165Y-101312060D01*
X156781440Y-101169473D01*
X156774819Y-100842866D01*
X154953355Y-100829678D01*
X154953355Y-100478573D01*
X155355333Y-100478573D01*
X158596283Y-100478573D01*
X158596283Y-99649493D01*
X157189359Y-99649493D01*
X157189359Y-100478573D01*
X156787381Y-100478573D01*
X156787381Y-99649493D01*
X155355333Y-99649493D01*
X155355333Y-100478573D01*
X154953355Y-100478573D01*
X154953355Y-99297762D01*
X155355333Y-99297762D01*
X158596283Y-99297762D01*
X158596283Y-98443559D01*
X157189359Y-98443559D01*
X157189359Y-99297762D01*
X156788596Y-99297762D01*
X156781707Y-98876941D01*
X156774819Y-98456120D01*
X155355333Y-98442776D01*
X155355333Y-99297762D01*
X154953355Y-99297762D01*
X154953355Y-98091828D01*
X156787381Y-98091828D01*
X156787381Y-97463737D01*
X157189359Y-97463737D01*
X157189359Y-98091828D01*
X158998261Y-98091828D01*
X158998261Y-101182035D01*
X158596283Y-101182035D01*
G37*
G36*
X164123484Y-106143954D02*
G01*
X164110922Y-106156516D01*
X164098360Y-106143954D01*
X164110922Y-106131392D01*
X164123484Y-106143954D01*
G37*
G36*
X164173731Y-106219325D02*
G01*
X164161169Y-106231887D01*
X164148607Y-106219325D01*
X164161169Y-106206763D01*
X164173731Y-106219325D01*
G37*
G36*
X138547618Y-98820413D02*
G01*
X139050091Y-98820413D01*
X139050091Y-99172144D01*
X138547618Y-99172144D01*
X138547618Y-102287475D01*
X138195887Y-102287475D01*
X138195887Y-99172144D01*
X137718538Y-99172144D01*
X137718538Y-98820413D01*
X138195887Y-98820413D01*
X138195887Y-97438613D01*
X138547618Y-97438613D01*
X138547618Y-98820413D01*
G37*
G36*
X163922494Y-106018336D02*
G01*
X163909933Y-106030898D01*
X163897371Y-106018336D01*
X163909933Y-106005774D01*
X163922494Y-106018336D01*
G37*
G36*
X165630902Y-105993212D02*
G01*
X165618340Y-106005774D01*
X165605778Y-105993212D01*
X165618340Y-105980651D01*
X165630902Y-105993212D01*
G37*
G36*
X166768082Y-107556540D02*
G01*
X166765712Y-107597515D01*
X166759368Y-107619558D01*
X166749933Y-107634745D01*
X166741095Y-107603760D01*
X166740115Y-107599172D01*
X166727763Y-107572073D01*
X166706761Y-107591198D01*
X166705236Y-107593375D01*
X166688270Y-107613480D01*
X166691825Y-107590759D01*
X166700450Y-107574077D01*
X166740934Y-107549463D01*
X166768082Y-107556540D01*
G37*
G36*
X165404789Y-106143954D02*
G01*
X165392227Y-106156516D01*
X165379666Y-106143954D01*
X165392227Y-106131392D01*
X165404789Y-106143954D01*
G37*
G36*
X141838815Y-98644548D02*
G01*
X143974324Y-98644548D01*
X143974324Y-98996279D01*
X143004376Y-98996279D01*
X142972697Y-98996280D01*
X142731950Y-98996422D01*
X142536358Y-98996949D01*
X142381365Y-98998073D01*
X142262417Y-99000001D01*
X142174961Y-99002945D01*
X142114441Y-99007115D01*
X142076305Y-99012719D01*
X142055997Y-99019969D01*
X142048963Y-99029075D01*
X142050649Y-99040245D01*
X142059426Y-99061102D01*
X142100161Y-99139289D01*
X142162868Y-99246452D01*
X142242143Y-99374174D01*
X142332583Y-99514037D01*
X142428783Y-99657621D01*
X142525340Y-99796509D01*
X142616850Y-99922283D01*
X142697293Y-100025869D01*
X142856252Y-100215909D01*
X143037066Y-100417891D01*
X143229580Y-100621208D01*
X143423641Y-100815253D01*
X143609097Y-100989418D01*
X143775794Y-101133095D01*
X143861011Y-101202302D01*
X143951828Y-101276201D01*
X144024887Y-101335803D01*
X144069547Y-101372440D01*
X144132679Y-101424664D01*
X144000961Y-101592271D01*
X143977444Y-101621919D01*
X143919505Y-101692430D01*
X143876192Y-101741483D01*
X143855490Y-101759879D01*
X143829836Y-101748623D01*
X143770980Y-101705634D01*
X143687396Y-101635363D01*
X143584458Y-101543001D01*
X143467541Y-101433744D01*
X143342018Y-101312783D01*
X143213264Y-101185312D01*
X143086654Y-101056526D01*
X142967560Y-100931618D01*
X142861359Y-100815780D01*
X142773423Y-100714207D01*
X142614416Y-100513301D01*
X142382535Y-100187318D01*
X142164960Y-99842895D01*
X141974006Y-99498751D01*
X141851377Y-99260077D01*
X141844901Y-100786338D01*
X141838426Y-102312599D01*
X141462350Y-102312599D01*
X141449398Y-99260077D01*
X141281076Y-99580681D01*
X141121678Y-99868003D01*
X140829912Y-100323779D01*
X140510539Y-100742485D01*
X140166565Y-101119970D01*
X140093276Y-101191171D01*
X139989374Y-101287042D01*
X139879250Y-101384264D01*
X139770071Y-101476906D01*
X139669004Y-101559037D01*
X139583216Y-101624727D01*
X139519874Y-101668043D01*
X139486144Y-101683055D01*
X139477806Y-101678265D01*
X139441713Y-101643218D01*
X139387007Y-101581705D01*
X139321858Y-101502696D01*
X139179086Y-101323791D01*
X139321858Y-101235854D01*
X139590750Y-101055255D01*
X139941785Y-100772410D01*
X140275177Y-100448857D01*
X140585865Y-100089625D01*
X140868783Y-99699741D01*
X140874177Y-99691581D01*
X140947932Y-99576948D01*
X141023538Y-99454560D01*
X141096186Y-99332772D01*
X141161063Y-99219938D01*
X141213361Y-99124410D01*
X141248267Y-99054544D01*
X141260971Y-99018693D01*
X141260713Y-99018148D01*
X141231564Y-99013006D01*
X141157467Y-99008354D01*
X141043234Y-99004300D01*
X140893675Y-99000956D01*
X140713600Y-98998431D01*
X140507822Y-98996835D01*
X140281149Y-98996279D01*
X139301327Y-98996279D01*
X139301327Y-98644548D01*
X141461960Y-98644548D01*
X141461960Y-97438613D01*
X141838815Y-97438613D01*
X141838815Y-98644548D01*
G37*
G36*
X162741683Y-107437822D02*
G01*
X162739870Y-107451122D01*
X162724934Y-107454571D01*
X162721927Y-107450888D01*
X162724934Y-107421073D01*
X162732491Y-107417142D01*
X162741683Y-107437822D01*
G37*
G36*
X164557181Y-106135231D02*
G01*
X164563147Y-106156516D01*
X164557998Y-106164117D01*
X164538024Y-106181640D01*
X164534390Y-106180457D01*
X164512900Y-106156516D01*
X164510888Y-106143210D01*
X164538024Y-106131392D01*
X164557181Y-106135231D01*
G37*
G36*
X163781858Y-102672151D02*
G01*
X163829668Y-102730806D01*
X163844296Y-102788879D01*
X163812990Y-102837248D01*
X163804684Y-102843262D01*
X163767490Y-102847405D01*
X163714813Y-102815201D01*
X163677973Y-102790181D01*
X163593408Y-102763575D01*
X163519183Y-102783505D01*
X163461405Y-102849154D01*
X163458511Y-102854332D01*
X163403416Y-102923112D01*
X163336354Y-102974011D01*
X163289349Y-102992494D01*
X163181732Y-103002831D01*
X163077102Y-102976842D01*
X162989559Y-102919380D01*
X162933202Y-102835295D01*
X162904987Y-102760363D01*
X162741683Y-102777633D01*
X162660692Y-102787330D01*
X162596481Y-102797307D01*
X162568066Y-102804834D01*
X162571521Y-102822582D01*
X162599470Y-102860862D01*
X162626762Y-102896506D01*
X162637576Y-102944602D01*
X162601683Y-102975598D01*
X162555938Y-102979249D01*
X162487137Y-102944687D01*
X162416823Y-102867773D01*
X162404403Y-102849668D01*
X162370016Y-102777331D01*
X162377711Y-102722029D01*
X162428035Y-102674322D01*
X162452802Y-102661897D01*
X162492565Y-102650911D01*
X162551560Y-102642186D01*
X162635990Y-102635222D01*
X162752057Y-102629518D01*
X162905965Y-102624577D01*
X163103916Y-102619897D01*
X163716592Y-102606886D01*
X163781858Y-102672151D01*
G37*
G36*
X137115571Y-100604192D02*
G01*
X137115571Y-100202213D01*
X136211120Y-100202213D01*
X136211120Y-100528821D01*
X135861786Y-100528821D01*
X135854307Y-100371798D01*
X135846827Y-100214775D01*
X135388320Y-100207927D01*
X134929814Y-100201080D01*
X134929814Y-100503697D01*
X134578083Y-100503697D01*
X134578083Y-99925853D01*
X134929814Y-99925853D01*
X137115571Y-99925853D01*
X137115571Y-99574122D01*
X136211120Y-99574122D01*
X136211120Y-99925853D01*
X135861684Y-99925853D01*
X135854256Y-99756269D01*
X135846827Y-99586684D01*
X135388320Y-99579836D01*
X134929814Y-99572989D01*
X134929814Y-99925853D01*
X134578083Y-99925853D01*
X134578083Y-99297762D01*
X134929814Y-99297762D01*
X137115571Y-99297762D01*
X137115571Y-98946031D01*
X136211120Y-98946031D01*
X136211120Y-99297762D01*
X135859389Y-99297762D01*
X135859389Y-98946031D01*
X134929814Y-98946031D01*
X134929814Y-99297762D01*
X134578083Y-99297762D01*
X134578083Y-98644548D01*
X135859389Y-98644548D01*
X135859389Y-98317940D01*
X134276599Y-98317940D01*
X134276599Y-98016457D01*
X135859389Y-98016457D01*
X135859389Y-97438613D01*
X136211120Y-97438613D01*
X136211120Y-98016457D01*
X137718538Y-98016457D01*
X137718538Y-98317940D01*
X136211120Y-98317940D01*
X136211120Y-98644548D01*
X137467302Y-98644548D01*
X137467302Y-100604192D01*
X137115571Y-100604192D01*
G37*
G36*
X166574525Y-106170399D02*
G01*
X166672594Y-106370851D01*
X166774463Y-106604269D01*
X166877854Y-106865459D01*
X166980490Y-107149228D01*
X167080091Y-107450383D01*
X167096778Y-107503189D01*
X167135302Y-107624922D01*
X167167700Y-107727055D01*
X167190975Y-107800149D01*
X167202131Y-107834763D01*
X167196041Y-107853515D01*
X167155921Y-107861401D01*
X167073963Y-107859887D01*
X166934856Y-107852362D01*
X166873540Y-107676496D01*
X166870757Y-107668527D01*
X166838568Y-107577938D01*
X166811469Y-107504319D01*
X166795072Y-107462945D01*
X166783703Y-107429538D01*
X166770976Y-107365826D01*
X166763777Y-107325957D01*
X166750889Y-107293252D01*
X166741418Y-107291744D01*
X166722951Y-107318521D01*
X166706748Y-107368506D01*
X166697704Y-107424528D01*
X166700708Y-107469410D01*
X166706006Y-107502726D01*
X166685875Y-107500495D01*
X166676029Y-107497961D01*
X166665114Y-107517640D01*
X166661652Y-107573823D01*
X166664829Y-107673214D01*
X166674509Y-107864924D01*
X162766807Y-107864924D01*
X162766807Y-107813194D01*
X162770726Y-107784125D01*
X162785650Y-107773096D01*
X162796284Y-107773094D01*
X162807915Y-107741141D01*
X162810748Y-107678565D01*
X162805275Y-107597321D01*
X162791990Y-107509366D01*
X162771384Y-107426656D01*
X162724464Y-107278505D01*
X162696448Y-107358871D01*
X162695427Y-107361861D01*
X162681150Y-107429180D01*
X162684204Y-107480336D01*
X162689208Y-107501981D01*
X162675063Y-107506039D01*
X162671833Y-107505423D01*
X162650405Y-107529395D01*
X162621242Y-107590018D01*
X162589141Y-107677705D01*
X162528132Y-107864768D01*
X162432226Y-107864846D01*
X162379183Y-107862549D01*
X162349081Y-107849902D01*
X162349017Y-107820957D01*
X162350902Y-107814303D01*
X162365045Y-107763001D01*
X162388685Y-107676319D01*
X162419033Y-107564509D01*
X162453299Y-107437822D01*
X162543152Y-107118412D01*
X162636447Y-106818257D01*
X162727207Y-106561078D01*
X162816820Y-106343241D01*
X162906674Y-106161111D01*
X162998157Y-106011052D01*
X163060527Y-105937506D01*
X163125813Y-105881467D01*
X163781714Y-105881467D01*
X163782706Y-105913492D01*
X163783848Y-105921126D01*
X163802631Y-105983916D01*
X163834336Y-106055855D01*
X163838975Y-106064752D01*
X163867040Y-106112740D01*
X163883770Y-106120657D01*
X163897622Y-106093541D01*
X163908570Y-106068704D01*
X163919699Y-106073414D01*
X163933036Y-106123013D01*
X163933550Y-106125272D01*
X163956627Y-106184143D01*
X163986839Y-106216438D01*
X164002068Y-106219833D01*
X164020208Y-106205642D01*
X164026609Y-106157909D01*
X164023253Y-106068583D01*
X164023018Y-106064804D01*
X164024447Y-106018865D01*
X164033811Y-106008526D01*
X164039300Y-106020556D01*
X164048826Y-106072191D01*
X164055052Y-106146706D01*
X164057620Y-106191361D01*
X164066763Y-106244350D01*
X164088285Y-106268436D01*
X164130190Y-106277563D01*
X164174753Y-106289775D01*
X164185475Y-106308581D01*
X164187864Y-106325953D01*
X164221239Y-106359072D01*
X164276295Y-106393944D01*
X164338036Y-106421528D01*
X164391469Y-106432782D01*
X164425839Y-106438511D01*
X164455414Y-106461406D01*
X164462026Y-106465231D01*
X164478270Y-106439815D01*
X164497766Y-106389278D01*
X164515854Y-106328115D01*
X164527876Y-106270820D01*
X164528547Y-106250730D01*
X164702218Y-106250730D01*
X164717316Y-106271436D01*
X164764136Y-106282134D01*
X164786410Y-106281356D01*
X164819041Y-106269212D01*
X164822452Y-106233842D01*
X164799929Y-106164432D01*
X164772912Y-106093707D01*
X164952564Y-106093707D01*
X164956137Y-106111156D01*
X164983968Y-106131777D01*
X164998827Y-106135980D01*
X164978848Y-106155267D01*
X164973196Y-106159074D01*
X164955268Y-106188001D01*
X164970116Y-106233842D01*
X164970988Y-106236534D01*
X164991069Y-106281955D01*
X165014750Y-106348903D01*
X165023295Y-106372447D01*
X165064909Y-106413406D01*
X165134710Y-106413835D01*
X165155642Y-106403429D01*
X165170020Y-106373965D01*
X165176908Y-106315514D01*
X165178676Y-106217483D01*
X165178610Y-106186429D01*
X165176495Y-106102695D01*
X165171260Y-106068583D01*
X165203800Y-106068583D01*
X165211604Y-106110005D01*
X165235205Y-106131777D01*
X165252595Y-106135523D01*
X165233575Y-106153110D01*
X165232956Y-106153514D01*
X165211166Y-106196157D01*
X165210448Y-106217483D01*
X165208451Y-106276761D01*
X165209005Y-106283784D01*
X165217008Y-106343745D01*
X165231934Y-106364099D01*
X165260328Y-106354675D01*
X165286319Y-106330054D01*
X165307209Y-106274605D01*
X165307637Y-106267286D01*
X165312409Y-106240770D01*
X165321452Y-106262455D01*
X165324235Y-106271948D01*
X165342399Y-106292155D01*
X165381347Y-106275254D01*
X165408782Y-106248950D01*
X165425346Y-106198513D01*
X165429913Y-106112787D01*
X165430001Y-106106269D01*
X165459336Y-106106269D01*
X165461605Y-106140109D01*
X165474727Y-106194698D01*
X165497640Y-106200920D01*
X165529523Y-106158168D01*
X165536134Y-106145003D01*
X165555697Y-106075391D01*
X165544863Y-106025113D01*
X165505465Y-106005774D01*
X165475577Y-106011821D01*
X165460653Y-106040861D01*
X165459336Y-106106269D01*
X165430001Y-106106269D01*
X165430725Y-106052583D01*
X165437466Y-106004250D01*
X165456142Y-105984458D01*
X165492722Y-105980651D01*
X165580655Y-105980651D01*
X165581135Y-106025836D01*
X165583352Y-106075391D01*
X165583722Y-106083654D01*
X165587800Y-106106269D01*
X165588675Y-106105939D01*
X165607126Y-106082470D01*
X165638047Y-106033302D01*
X165657351Y-105996885D01*
X165679949Y-105923493D01*
X165671024Y-105873501D01*
X165630902Y-105855032D01*
X165619280Y-105855570D01*
X165594529Y-105867726D01*
X165592560Y-105874315D01*
X165583300Y-105905304D01*
X165581978Y-105942965D01*
X165580655Y-105980651D01*
X165492722Y-105980651D01*
X165533691Y-105973275D01*
X165555531Y-105942965D01*
X165552483Y-105923472D01*
X165522591Y-105906638D01*
X165460976Y-105928569D01*
X165435028Y-105941214D01*
X165370666Y-105966510D01*
X165353779Y-105973837D01*
X165333244Y-106005146D01*
X165334216Y-106068838D01*
X165334618Y-106072413D01*
X165333926Y-106134036D01*
X165316163Y-106156516D01*
X165298905Y-106137200D01*
X165298936Y-106081145D01*
X165302498Y-106047342D01*
X165293365Y-106013743D01*
X165256899Y-106005774D01*
X165255652Y-106005779D01*
X165215132Y-106019795D01*
X165203800Y-106068583D01*
X165171260Y-106068583D01*
X165169304Y-106055834D01*
X165154221Y-106035389D01*
X165128429Y-106030898D01*
X165096665Y-106038729D01*
X165078182Y-106079662D01*
X165074504Y-106108422D01*
X165055401Y-106142506D01*
X165044115Y-106140305D01*
X165045770Y-106106303D01*
X165045822Y-106106102D01*
X165044816Y-106066648D01*
X165005741Y-106056021D01*
X164973779Y-106063088D01*
X164952564Y-106093707D01*
X164772912Y-106093707D01*
X164770774Y-106097555D01*
X164738010Y-106156516D01*
X164714376Y-106206789D01*
X164702218Y-106250730D01*
X164528547Y-106250730D01*
X164529176Y-106231887D01*
X164527521Y-106214949D01*
X164539442Y-106212664D01*
X164539661Y-106212873D01*
X164562842Y-106206342D01*
X164592078Y-106165826D01*
X164603132Y-106144211D01*
X164622578Y-106097555D01*
X164614097Y-106082084D01*
X164575709Y-106088425D01*
X164545542Y-106092297D01*
X164525462Y-106081646D01*
X164521088Y-106075416D01*
X164482277Y-106059324D01*
X164416367Y-106045367D01*
X164394825Y-106042100D01*
X164308749Y-106028476D01*
X164240502Y-106016899D01*
X164230231Y-106015197D01*
X164185247Y-106017965D01*
X164171227Y-106049249D01*
X164171063Y-106051777D01*
X164164552Y-106065753D01*
X164151251Y-106030898D01*
X164131351Y-105990919D01*
X164084665Y-105968089D01*
X164055532Y-105964831D01*
X164020736Y-105947999D01*
X164010458Y-105940057D01*
X163961993Y-105917739D01*
X163891261Y-105893402D01*
X163838656Y-105878036D01*
X163818456Y-105874381D01*
X164260076Y-105874381D01*
X164262389Y-105875500D01*
X164298746Y-105884905D01*
X164369127Y-105900087D01*
X164461182Y-105918348D01*
X164468328Y-105919700D01*
X164578423Y-105937505D01*
X164682914Y-105949634D01*
X164760066Y-105953530D01*
X164820047Y-105948763D01*
X164919631Y-105934935D01*
X165030884Y-105915605D01*
X165133653Y-105894323D01*
X165207787Y-105874640D01*
X165208246Y-105874315D01*
X165184440Y-105872185D01*
X165118624Y-105870340D01*
X165017998Y-105868887D01*
X164889759Y-105867935D01*
X164741106Y-105867594D01*
X164721155Y-105867600D01*
X164573399Y-105868012D01*
X164445921Y-105869002D01*
X164346213Y-105870464D01*
X164281767Y-105872292D01*
X164260076Y-105874381D01*
X163818456Y-105874381D01*
X163796377Y-105870386D01*
X163781714Y-105881467D01*
X163125813Y-105881467D01*
X163170226Y-105843344D01*
X163297229Y-105760758D01*
X163423794Y-105702604D01*
X163515499Y-105670887D01*
X163323299Y-105572611D01*
X163225761Y-105521940D01*
X163034415Y-105415576D01*
X162873328Y-105313340D01*
X162730584Y-105206651D01*
X162594262Y-105086926D01*
X162452446Y-104945585D01*
X162365976Y-104853751D01*
X162267149Y-104741359D01*
X162188376Y-104639015D01*
X162119344Y-104532995D01*
X162049743Y-104409573D01*
X161994565Y-104307424D01*
X161949976Y-104229697D01*
X161916465Y-104182156D01*
X161887435Y-104157356D01*
X161856292Y-104147849D01*
X161816437Y-104146189D01*
X161753081Y-104141722D01*
X161655661Y-104128419D01*
X161552789Y-104109438D01*
X161430011Y-104076131D01*
X161237543Y-103986503D01*
X161072983Y-103855715D01*
X160933536Y-103681837D01*
X160836377Y-103510869D01*
X160769435Y-103327336D01*
X160744085Y-103141252D01*
X160747469Y-103091432D01*
X160971920Y-103091432D01*
X160972565Y-103172653D01*
X160977092Y-103265390D01*
X160988694Y-103334305D01*
X161010529Y-103395350D01*
X161045753Y-103464476D01*
X161089738Y-103535292D01*
X161208268Y-103674620D01*
X161349983Y-103790178D01*
X161500221Y-103868914D01*
X161557261Y-103887655D01*
X161657070Y-103911278D01*
X161739373Y-103920512D01*
X161740007Y-103920512D01*
X161803640Y-103917313D01*
X161828490Y-103903733D01*
X161825761Y-103873702D01*
X161805756Y-103798745D01*
X161777797Y-103654671D01*
X161751438Y-103473797D01*
X161727789Y-103264018D01*
X161707954Y-103033232D01*
X161696422Y-102876480D01*
X161917447Y-102876480D01*
X161921918Y-102958446D01*
X161930721Y-103065962D01*
X161942816Y-103188881D01*
X161957159Y-103317052D01*
X161972710Y-103440327D01*
X161988427Y-103548556D01*
X162003267Y-103631590D01*
X162072432Y-103903733D01*
X162074513Y-103911922D01*
X162174360Y-104179555D01*
X162303420Y-104420466D01*
X162467347Y-104645078D01*
X162671796Y-104863816D01*
X162845173Y-105016751D01*
X163136378Y-105221755D01*
X163456546Y-105392547D01*
X163797843Y-105525151D01*
X164152439Y-105615590D01*
X164195065Y-105622828D01*
X164304864Y-105637123D01*
X164434784Y-105650017D01*
X164573153Y-105660772D01*
X164708299Y-105668651D01*
X164828552Y-105672919D01*
X164922238Y-105672838D01*
X164977687Y-105667671D01*
X164989767Y-105665204D01*
X165047598Y-105655637D01*
X165135686Y-105642457D01*
X165240317Y-105627751D01*
X165453633Y-105587405D01*
X165734280Y-105505872D01*
X166016572Y-105395583D01*
X166284684Y-105262875D01*
X166522791Y-105114087D01*
X166542246Y-105099956D01*
X166677996Y-104987733D01*
X166823877Y-104847726D01*
X166967063Y-104693621D01*
X167094727Y-104539104D01*
X167194042Y-104397861D01*
X167216763Y-104360222D01*
X167343193Y-104099824D01*
X167401674Y-103920512D01*
X167648900Y-103920512D01*
X167751622Y-103920492D01*
X167794764Y-103917149D01*
X167911826Y-103886570D01*
X168040093Y-103830394D01*
X168163459Y-103756393D01*
X168265818Y-103672342D01*
X168292727Y-103644720D01*
X168381607Y-103535645D01*
X168440026Y-103422659D01*
X168474109Y-103290809D01*
X168489982Y-103125139D01*
X168492513Y-103064672D01*
X168493295Y-102966839D01*
X168485966Y-102894110D01*
X168468116Y-102829606D01*
X168437335Y-102756446D01*
X168387282Y-102665144D01*
X168318901Y-102567005D01*
X168244021Y-102477951D01*
X168172603Y-102409780D01*
X168114609Y-102374287D01*
X168084498Y-102372969D01*
X168029949Y-102398872D01*
X167954184Y-102461262D01*
X167902194Y-102506717D01*
X167869996Y-102531279D01*
X167848153Y-102547942D01*
X167817220Y-102563835D01*
X167816000Y-102564006D01*
X167803151Y-102591421D01*
X167794625Y-102659750D01*
X167791535Y-102760461D01*
X167790388Y-102813137D01*
X167788754Y-102888186D01*
X167775792Y-103098445D01*
X167754147Y-103319621D01*
X167725919Y-103531342D01*
X167693211Y-103713242D01*
X167648900Y-103920512D01*
X167401674Y-103920512D01*
X167441620Y-103798029D01*
X167511952Y-103455181D01*
X167554097Y-103071622D01*
X167572032Y-102813137D01*
X167509170Y-102841779D01*
X167502011Y-102845190D01*
X167465837Y-102873040D01*
X167454723Y-102898518D01*
X167445141Y-102920484D01*
X167432640Y-103002845D01*
X167429761Y-103026817D01*
X167389604Y-103181938D01*
X167317800Y-103310897D01*
X167219476Y-103404042D01*
X167168101Y-103433128D01*
X167083361Y-103465931D01*
X166976985Y-103491155D01*
X166843282Y-103509520D01*
X166676563Y-103521750D01*
X166471135Y-103528566D01*
X166221307Y-103530691D01*
X166090768Y-103530596D01*
X165939186Y-103529768D01*
X165824707Y-103527519D01*
X165739562Y-103523175D01*
X165675980Y-103516062D01*
X165626189Y-103505508D01*
X165582418Y-103490839D01*
X165536898Y-103471381D01*
X165488755Y-103446553D01*
X165394700Y-103384044D01*
X165320101Y-103317828D01*
X165282217Y-103268529D01*
X165226651Y-103174346D01*
X165177290Y-103068773D01*
X165141946Y-102969132D01*
X165128429Y-102892745D01*
X165126972Y-102879694D01*
X165108799Y-102857113D01*
X165061430Y-102841744D01*
X164974350Y-102829254D01*
X164959661Y-102827761D01*
X164852522Y-102822520D01*
X164724342Y-102822954D01*
X164599717Y-102829075D01*
X164379161Y-102846329D01*
X164378747Y-102848554D01*
X164362208Y-102937476D01*
X164323011Y-103081722D01*
X164237533Y-103245086D01*
X164113469Y-103376426D01*
X163950204Y-103476544D01*
X163932520Y-103484512D01*
X163891428Y-103500262D01*
X163845725Y-103511916D01*
X163787804Y-103520083D01*
X163710062Y-103525374D01*
X163604891Y-103528397D01*
X163464686Y-103529762D01*
X163281842Y-103530077D01*
X163175112Y-103529789D01*
X162948955Y-103526449D01*
X162764468Y-103518672D01*
X162615652Y-103505598D01*
X162496505Y-103486366D01*
X162401027Y-103460117D01*
X162323219Y-103425990D01*
X162257078Y-103383123D01*
X162252440Y-103379535D01*
X162152924Y-103270781D01*
X162088679Y-103132781D01*
X162064711Y-102976127D01*
X162060626Y-102917321D01*
X162041296Y-102872225D01*
X161997289Y-102843288D01*
X161948313Y-102825442D01*
X161920370Y-102824055D01*
X161918351Y-102830214D01*
X161917447Y-102876480D01*
X161696422Y-102876480D01*
X161691153Y-102804858D01*
X162144237Y-102804858D01*
X162144734Y-102943296D01*
X162148560Y-102985274D01*
X162179827Y-103130103D01*
X162240088Y-103241045D01*
X162333979Y-103322500D01*
X162466135Y-103378865D01*
X162641189Y-103414542D01*
X162688454Y-103420419D01*
X162844139Y-103434873D01*
X163021263Y-103445799D01*
X163205552Y-103452761D01*
X163382736Y-103455326D01*
X163538541Y-103453058D01*
X163658696Y-103445523D01*
X163748733Y-103432574D01*
X163926631Y-103379975D01*
X164066999Y-103294682D01*
X164170937Y-103175895D01*
X164239546Y-103022810D01*
X164251055Y-102982386D01*
X164275000Y-102848554D01*
X164269213Y-102797143D01*
X165230488Y-102797143D01*
X165235414Y-102920407D01*
X165279428Y-103073790D01*
X165321651Y-103165436D01*
X165407294Y-103276903D01*
X165523667Y-103358513D01*
X165675857Y-103413467D01*
X165868946Y-103444969D01*
X165940466Y-103451442D01*
X166091311Y-103460928D01*
X166236921Y-103462744D01*
X166395588Y-103456842D01*
X166585600Y-103443178D01*
X166800948Y-103421576D01*
X166973685Y-103393742D01*
X167106160Y-103356290D01*
X167203363Y-103305612D01*
X167270286Y-103238102D01*
X167311918Y-103150154D01*
X167333249Y-103038161D01*
X167339270Y-102898518D01*
X167337319Y-102800302D01*
X167326286Y-102713430D01*
X167300514Y-102657091D01*
X167254445Y-102620435D01*
X167182516Y-102592611D01*
X167097156Y-102571614D01*
X166944372Y-102548344D01*
X166759608Y-102531476D01*
X166553091Y-102521010D01*
X166335050Y-102516944D01*
X166115710Y-102519279D01*
X165905299Y-102528015D01*
X165714044Y-102543152D01*
X165552173Y-102564689D01*
X165429913Y-102592627D01*
X165340826Y-102631617D01*
X165265381Y-102701660D01*
X165230488Y-102797143D01*
X164269213Y-102797143D01*
X164263541Y-102746754D01*
X164213326Y-102671128D01*
X164121004Y-102615820D01*
X163983223Y-102574975D01*
X163977419Y-102573716D01*
X163830682Y-102550180D01*
X163649659Y-102533418D01*
X163444877Y-102523303D01*
X163226860Y-102519710D01*
X163006133Y-102522510D01*
X162793221Y-102531579D01*
X162598650Y-102546788D01*
X162432945Y-102568013D01*
X162306631Y-102595126D01*
X162298957Y-102597447D01*
X162218267Y-102638560D01*
X162167720Y-102705489D01*
X162144237Y-102804858D01*
X161691153Y-102804858D01*
X161676872Y-102610738D01*
X161600030Y-102578617D01*
X161536060Y-102543787D01*
X161529579Y-102538397D01*
X161912603Y-102538397D01*
X161913504Y-102598700D01*
X161920857Y-102661774D01*
X161940025Y-102700318D01*
X161976196Y-102729963D01*
X161977339Y-102730710D01*
X162023355Y-102756735D01*
X162046031Y-102761947D01*
X162048408Y-102757599D01*
X162066575Y-102719866D01*
X162094547Y-102659184D01*
X162105752Y-102636470D01*
X162153841Y-102571952D01*
X162223658Y-102525428D01*
X162324675Y-102491996D01*
X162466361Y-102466755D01*
X162608870Y-102449616D01*
X162849701Y-102430498D01*
X163095943Y-102421708D01*
X163339722Y-102422826D01*
X163573165Y-102433428D01*
X163788399Y-102453092D01*
X163977549Y-102481396D01*
X164132743Y-102517917D01*
X164246107Y-102562233D01*
X164246845Y-102562633D01*
X164296857Y-102607822D01*
X164336830Y-102672633D01*
X164370058Y-102752263D01*
X164749249Y-102744723D01*
X165128441Y-102737183D01*
X165166381Y-102663816D01*
X165183124Y-102635986D01*
X165233092Y-102583638D01*
X165306198Y-102540927D01*
X165407858Y-102506240D01*
X165543490Y-102477968D01*
X165718510Y-102454498D01*
X165938336Y-102434220D01*
X165951465Y-102433215D01*
X166130578Y-102424303D01*
X166327053Y-102421982D01*
X166529643Y-102425735D01*
X166727098Y-102435046D01*
X166908171Y-102449395D01*
X167061615Y-102468267D01*
X167176180Y-102491144D01*
X167206476Y-102500806D01*
X167305384Y-102553193D01*
X167383285Y-102625316D01*
X167425688Y-102704769D01*
X167425772Y-102705102D01*
X167447111Y-102754455D01*
X167478716Y-102757710D01*
X167526869Y-102715536D01*
X167527853Y-102714439D01*
X167544452Y-102690693D01*
X167555766Y-102657714D01*
X167562413Y-102607307D01*
X167565012Y-102531279D01*
X167564183Y-102421439D01*
X167560543Y-102269592D01*
X167558542Y-102199336D01*
X167553779Y-102066072D01*
X167547659Y-101968623D01*
X167538637Y-101896877D01*
X167525162Y-101840725D01*
X167505689Y-101790055D01*
X167478668Y-101734755D01*
X167395612Y-101583651D01*
X167248824Y-101366219D01*
X167089855Y-101192697D01*
X166914217Y-101059265D01*
X166717422Y-100962103D01*
X166494981Y-100897390D01*
X166493830Y-100897148D01*
X166401877Y-100879213D01*
X166346449Y-100873462D01*
X166315424Y-100879985D01*
X166296678Y-100898874D01*
X166256206Y-100956494D01*
X166203654Y-101011172D01*
X166142919Y-101041174D01*
X166055805Y-101058563D01*
X166046651Y-101059814D01*
X165920973Y-101070958D01*
X165759283Y-101077305D01*
X165574409Y-101079023D01*
X165379180Y-101076280D01*
X165186423Y-101069242D01*
X165008966Y-101058078D01*
X164859637Y-101042955D01*
X164640791Y-101008127D01*
X164339328Y-100943266D01*
X164029764Y-100860001D01*
X163726685Y-100762715D01*
X163444676Y-100655793D01*
X163198321Y-100543618D01*
X163156523Y-100522533D01*
X163092273Y-100492075D01*
X163058477Y-100482480D01*
X163045366Y-100492254D01*
X163043167Y-100519903D01*
X163030267Y-100574848D01*
X162995138Y-100659579D01*
X162944252Y-100761454D01*
X162884082Y-100868314D01*
X162821101Y-100968002D01*
X162761784Y-101048359D01*
X162758041Y-101052825D01*
X162680511Y-101135088D01*
X162582925Y-101225659D01*
X162485476Y-101305727D01*
X162463840Y-101322357D01*
X162332149Y-101439260D01*
X162224217Y-101568840D01*
X162134333Y-101720487D01*
X162056790Y-101903591D01*
X161985878Y-102127544D01*
X161980061Y-102148630D01*
X161944614Y-102297003D01*
X161921113Y-102432615D01*
X161912603Y-102538397D01*
X161529579Y-102538397D01*
X161487331Y-102503262D01*
X161443941Y-102464012D01*
X161380981Y-102423574D01*
X161340234Y-102405340D01*
X161307083Y-102405640D01*
X161268759Y-102431076D01*
X161210425Y-102487181D01*
X161172970Y-102528300D01*
X161100133Y-102624002D01*
X161041009Y-102720000D01*
X161021904Y-102757856D01*
X160995428Y-102822301D01*
X160980267Y-102888647D01*
X160973429Y-102972991D01*
X160971920Y-103091432D01*
X160747469Y-103091432D01*
X160757659Y-102941392D01*
X160783817Y-102827135D01*
X160835375Y-102683023D01*
X160902357Y-102542756D01*
X160977314Y-102421640D01*
X161052795Y-102334985D01*
X161071417Y-102318396D01*
X161113865Y-102273674D01*
X161125021Y-102238402D01*
X161111777Y-102196380D01*
X161092050Y-102128558D01*
X161083523Y-102048561D01*
X161080510Y-102010180D01*
X161063300Y-101922037D01*
X161035920Y-101829911D01*
X161028295Y-101808215D01*
X160963955Y-101589598D01*
X160907233Y-101333871D01*
X160859596Y-101052523D01*
X160822514Y-100757044D01*
X160797456Y-100458926D01*
X160785891Y-100169657D01*
X160789288Y-99900730D01*
X160791599Y-99855189D01*
X160820872Y-99552239D01*
X160872432Y-99258219D01*
X160943765Y-98983081D01*
X161032358Y-98736776D01*
X161135698Y-98529256D01*
X161167428Y-98479610D01*
X161274835Y-98340095D01*
X161409233Y-98193616D01*
X161558180Y-98052293D01*
X161709232Y-97928246D01*
X161849946Y-97833594D01*
X161936203Y-97780509D01*
X162040143Y-97702303D01*
X162099777Y-97634527D01*
X162117363Y-97606031D01*
X162237204Y-97454593D01*
X162396272Y-97305275D01*
X162585534Y-97164250D01*
X162795957Y-97037688D01*
X163018509Y-96931761D01*
X163244156Y-96852641D01*
X163391771Y-96817729D01*
X163609594Y-96782266D01*
X163856687Y-96755565D01*
X164121820Y-96738113D01*
X164393758Y-96730396D01*
X164661271Y-96732902D01*
X164913125Y-96746118D01*
X165138089Y-96770531D01*
X165293331Y-96795420D01*
X165775396Y-96904552D01*
X166237073Y-97059300D01*
X166680549Y-97260484D01*
X167108014Y-97508924D01*
X167109391Y-97509817D01*
X167262333Y-97612914D01*
X167398518Y-97714502D01*
X167527300Y-97822942D01*
X167658032Y-97946597D01*
X167800070Y-98093828D01*
X167962767Y-98272996D01*
X167971132Y-98282389D01*
X168124587Y-98451701D01*
X168252900Y-98586316D01*
X168361366Y-98691075D01*
X168455278Y-98770820D01*
X168539929Y-98830393D01*
X168620615Y-98874635D01*
X168655285Y-98892482D01*
X168728276Y-98938627D01*
X168777079Y-98981129D01*
X168814426Y-99057614D01*
X168814054Y-99148774D01*
X168774877Y-99235928D01*
X168700126Y-99305466D01*
X168645414Y-99339562D01*
X168602862Y-99366956D01*
X168593928Y-99378808D01*
X168587109Y-99415064D01*
X168587214Y-99480365D01*
X168594355Y-99581605D01*
X168608643Y-99725674D01*
X168609038Y-99729391D01*
X168622989Y-99890348D01*
X168634531Y-100077919D01*
X168642476Y-100269100D01*
X168645632Y-100440888D01*
X168646334Y-100521439D01*
X168652637Y-100708275D01*
X168665005Y-100859724D01*
X168682922Y-100968484D01*
X168698538Y-101038423D01*
X168713912Y-101121979D01*
X168720215Y-101177687D01*
X168720014Y-101184093D01*
X168695973Y-101247424D01*
X168643096Y-101312224D01*
X168577233Y-101362691D01*
X168514235Y-101383024D01*
X168503272Y-101383443D01*
X168482019Y-101389946D01*
X168463470Y-101409921D01*
X168444755Y-101450448D01*
X168423003Y-101518610D01*
X168395342Y-101621486D01*
X168358902Y-101766160D01*
X168339560Y-101843594D01*
X168308128Y-101968076D01*
X168281787Y-102070709D01*
X168262850Y-102142513D01*
X168253633Y-102174511D01*
X168259400Y-102192846D01*
X168295033Y-102235398D01*
X168353361Y-102287536D01*
X168461113Y-102391365D01*
X168581840Y-102563907D01*
X168672892Y-102769689D01*
X168710287Y-102928094D01*
X168712061Y-102966839D01*
X168719767Y-103135139D01*
X168690378Y-103341200D01*
X168623208Y-103529637D01*
X168531082Y-103689544D01*
X168388317Y-103860474D01*
X168218316Y-103989650D01*
X168019027Y-104078546D01*
X167788395Y-104128634D01*
X167714970Y-104138323D01*
X167631461Y-104152334D01*
X167580996Y-104167695D01*
X167553108Y-104188097D01*
X167537332Y-104217235D01*
X167531221Y-104232442D01*
X167484103Y-104328139D01*
X167415368Y-104447188D01*
X167333285Y-104576459D01*
X167246120Y-104702821D01*
X167162143Y-104813140D01*
X167117832Y-104866496D01*
X166987891Y-105008583D01*
X166850068Y-105135542D01*
X166694451Y-105255228D01*
X166511127Y-105375498D01*
X166290184Y-105504207D01*
X166032453Y-105647938D01*
X166170200Y-105715331D01*
X166226936Y-105747098D01*
X166319594Y-105812906D01*
X166391142Y-105879920D01*
X166398900Y-105889162D01*
X166423040Y-105923493D01*
X166482534Y-106008105D01*
X166574525Y-106170399D01*
G37*
G36*
X154752366Y-104598850D02*
G01*
X153797668Y-104598850D01*
X153797668Y-103920512D01*
X154752366Y-103920512D01*
X154752366Y-104598850D01*
G37*
G36*
X135329330Y-97470185D02*
G01*
X135366767Y-97508740D01*
X135409797Y-97570512D01*
X135474673Y-97677288D01*
X135195962Y-97818217D01*
X135189580Y-97821442D01*
X135081117Y-97875338D01*
X134988284Y-97919872D01*
X134920762Y-97950501D01*
X134888235Y-97962678D01*
X134874466Y-97957850D01*
X134839772Y-97922209D01*
X134800625Y-97864860D01*
X134765892Y-97801111D01*
X134744442Y-97746272D01*
X134745143Y-97715653D01*
X134772228Y-97699208D01*
X134835892Y-97667353D01*
X134923443Y-97626399D01*
X135023333Y-97581448D01*
X135124013Y-97537603D01*
X135213932Y-97499968D01*
X135281543Y-97473645D01*
X135315296Y-97463737D01*
X135329330Y-97470185D01*
G37*
G36*
X164265851Y-106139767D02*
G01*
X164269781Y-106147324D01*
X164249102Y-106156516D01*
X164235801Y-106154703D01*
X164232353Y-106139767D01*
X164236035Y-106136760D01*
X164265851Y-106139767D01*
G37*
G36*
X153646926Y-98066704D02*
G01*
X152064136Y-98066704D01*
X152001471Y-98066719D01*
X151727635Y-98067135D01*
X151470145Y-98068089D01*
X151233240Y-98069528D01*
X151021156Y-98071403D01*
X150838131Y-98073663D01*
X150688404Y-98076258D01*
X150576210Y-98079137D01*
X150505789Y-98082250D01*
X150481377Y-98085547D01*
X150495017Y-98099195D01*
X150544917Y-98139750D01*
X150627023Y-98203357D01*
X150736701Y-98286510D01*
X150869318Y-98385700D01*
X151020241Y-98497421D01*
X151184839Y-98618163D01*
X151888271Y-99131937D01*
X151888271Y-99649493D01*
X154174522Y-99649493D01*
X154174522Y-100001224D01*
X151888271Y-100001224D01*
X151888271Y-100806428D01*
X151888275Y-100849413D01*
X151888645Y-101080064D01*
X151890210Y-101266594D01*
X151893800Y-101414256D01*
X151900243Y-101528302D01*
X151910369Y-101613985D01*
X151925007Y-101676558D01*
X151944987Y-101721273D01*
X151971137Y-101753383D01*
X152004288Y-101778141D01*
X152045268Y-101800799D01*
X152069085Y-101811738D01*
X152111761Y-101824278D01*
X152168846Y-101831659D01*
X152249275Y-101834399D01*
X152361985Y-101833015D01*
X152515911Y-101828023D01*
X152589639Y-101825031D01*
X152719813Y-101818504D01*
X152828909Y-101811438D01*
X152907209Y-101804503D01*
X152945000Y-101798372D01*
X152957329Y-101795146D01*
X152969559Y-101803109D01*
X152972682Y-101834826D01*
X152967030Y-101898908D01*
X152952936Y-102003967D01*
X152946401Y-102049999D01*
X152933387Y-102141206D01*
X152924021Y-102206188D01*
X152919995Y-102233180D01*
X152918595Y-102233764D01*
X152883838Y-102235704D01*
X152808054Y-102236616D01*
X152698748Y-102236499D01*
X152563423Y-102235354D01*
X152409586Y-102233180D01*
X152375638Y-102232605D01*
X152209171Y-102229313D01*
X152083406Y-102225383D01*
X151990219Y-102219939D01*
X151921488Y-102212109D01*
X151869092Y-102201019D01*
X151824907Y-102185796D01*
X151780812Y-102165566D01*
X151702833Y-102119172D01*
X151589771Y-102008377D01*
X151509778Y-101860374D01*
X151509315Y-101859143D01*
X151499499Y-101818537D01*
X151491231Y-101751888D01*
X151484334Y-101655164D01*
X151478630Y-101524330D01*
X151473941Y-101355353D01*
X151470090Y-101144198D01*
X151466900Y-100886833D01*
X151457723Y-100001224D01*
X149300536Y-100001224D01*
X149300536Y-99649493D01*
X151461169Y-99649493D01*
X151461169Y-99303224D01*
X150644651Y-98704080D01*
X149828132Y-98104937D01*
X149828132Y-97714973D01*
X153646926Y-97714973D01*
X153646926Y-98066704D01*
G37*
G36*
X156548706Y-106746922D02*
G01*
X156615568Y-106889551D01*
X156678412Y-106996019D01*
X156782115Y-107099133D01*
X156915668Y-107167491D01*
X157082627Y-107202772D01*
X157286549Y-107206659D01*
X157376817Y-107199298D01*
X157551356Y-107162345D01*
X157688600Y-107094501D01*
X157792458Y-106992445D01*
X157866841Y-106852858D01*
X157915657Y-106672420D01*
X157922380Y-106611327D01*
X157928500Y-106500414D01*
X157933616Y-106343937D01*
X157937679Y-106144290D01*
X157940641Y-105903865D01*
X157942453Y-105625057D01*
X157943068Y-105310260D01*
X157943068Y-104096378D01*
X158897766Y-104096378D01*
X158896890Y-105358840D01*
X158896555Y-105588992D01*
X158895502Y-105865064D01*
X158893668Y-106098000D01*
X158890952Y-106291917D01*
X158887252Y-106450930D01*
X158882465Y-106579155D01*
X158876489Y-106680709D01*
X158869222Y-106759706D01*
X158860560Y-106820263D01*
X158860178Y-106822399D01*
X158792891Y-107068199D01*
X158685383Y-107284638D01*
X158538991Y-107470592D01*
X158355053Y-107624937D01*
X158134907Y-107746549D01*
X157879889Y-107834303D01*
X157591337Y-107887077D01*
X157565668Y-107889921D01*
X157195576Y-107908466D01*
X156848389Y-107882385D01*
X156524216Y-107811684D01*
X156408605Y-107774172D01*
X156244835Y-107704362D01*
X156103039Y-107617324D01*
X155965534Y-107503296D01*
X155888729Y-107426594D01*
X155777585Y-107282570D01*
X155694516Y-107118785D01*
X155631144Y-106920640D01*
X155624227Y-106892733D01*
X155614254Y-106846812D01*
X155605957Y-106797068D01*
X155599182Y-106738859D01*
X155593777Y-106667543D01*
X155589588Y-106578476D01*
X155586463Y-106467017D01*
X155584249Y-106328523D01*
X155582794Y-106158352D01*
X155581943Y-105951861D01*
X155581545Y-105704408D01*
X155581446Y-105411350D01*
X155581446Y-104096378D01*
X156534058Y-104096378D01*
X156548706Y-106746922D01*
G37*
G36*
X165153553Y-106143954D02*
G01*
X165140991Y-106156516D01*
X165128429Y-106143954D01*
X165140991Y-106131392D01*
X165153553Y-106143954D01*
G37*
G36*
X164354307Y-106139354D02*
G01*
X164365936Y-106148397D01*
X164339128Y-106154533D01*
X164313646Y-106152756D01*
X164306153Y-106141337D01*
X164315042Y-106136359D01*
X164354307Y-106139354D01*
G37*
G36*
X162716560Y-107550878D02*
G01*
X162703998Y-107563440D01*
X162691436Y-107550878D01*
X162703998Y-107538316D01*
X162716560Y-107550878D01*
G37*
G36*
X164316098Y-106290509D02*
G01*
X164320029Y-106298065D01*
X164299349Y-106307258D01*
X164286049Y-106305445D01*
X164282600Y-106290509D01*
X164286282Y-106287502D01*
X164316098Y-106290509D01*
G37*
G36*
X132794305Y-102287475D02*
G01*
X132794305Y-102060894D01*
X131544403Y-102067409D01*
X130294502Y-102073925D01*
X130286777Y-102180700D01*
X130279051Y-102287475D01*
X129930210Y-102287475D01*
X129930210Y-101759879D01*
X130280597Y-101759879D01*
X132794305Y-101759879D01*
X132794305Y-101005701D01*
X131544403Y-101012216D01*
X130294502Y-101018732D01*
X130287550Y-101389305D01*
X130280597Y-101759879D01*
X129930210Y-101759879D01*
X129930210Y-100704686D01*
X133146035Y-100704686D01*
X133146035Y-102287475D01*
X132794305Y-102287475D01*
G37*
G36*
X132029080Y-104948183D02*
G01*
X132048001Y-104951922D01*
X132193031Y-104995024D01*
X132353893Y-105062950D01*
X132512553Y-105147251D01*
X132650978Y-105239483D01*
X132769181Y-105329738D01*
X132769181Y-105025952D01*
X133673632Y-105025952D01*
X133673632Y-107839800D01*
X132769181Y-107839800D01*
X132769181Y-105812224D01*
X132597593Y-105733133D01*
X132517095Y-105700052D01*
X132351838Y-105657494D01*
X132198918Y-105651444D01*
X132064820Y-105680914D01*
X131956024Y-105744918D01*
X131879016Y-105842471D01*
X131877983Y-105844474D01*
X131864775Y-105872531D01*
X131853993Y-105903631D01*
X131845337Y-105943020D01*
X131838508Y-105995943D01*
X131833207Y-106067643D01*
X131829134Y-106163366D01*
X131825989Y-106288357D01*
X131823473Y-106447860D01*
X131821288Y-106647120D01*
X131819132Y-106891382D01*
X131811220Y-107839800D01*
X130910032Y-107839800D01*
X130910032Y-105808481D01*
X130765571Y-105737604D01*
X130669345Y-105696735D01*
X130562854Y-105670547D01*
X130432682Y-105659110D01*
X130417346Y-105658566D01*
X130270371Y-105664397D01*
X130160344Y-105694560D01*
X130079018Y-105752701D01*
X130018142Y-105842471D01*
X130006174Y-105868495D01*
X129995370Y-105900005D01*
X129986659Y-105939817D01*
X129979749Y-105993174D01*
X129974347Y-106065320D01*
X129970162Y-106161497D01*
X129966901Y-106286949D01*
X129964273Y-106446919D01*
X129961987Y-106646649D01*
X129959749Y-106891382D01*
X129951603Y-107839800D01*
X129045575Y-107839800D01*
X129057694Y-106778326D01*
X129058614Y-106698662D01*
X129061943Y-106436998D01*
X129065594Y-106218948D01*
X129070083Y-106039303D01*
X129075925Y-105892852D01*
X129083635Y-105774386D01*
X129093727Y-105678694D01*
X129106718Y-105600567D01*
X129123122Y-105534795D01*
X129143454Y-105476168D01*
X129168229Y-105419475D01*
X129197962Y-105359508D01*
X129263386Y-105255601D01*
X129392153Y-105124293D01*
X129551493Y-105024648D01*
X129734076Y-104959872D01*
X129932571Y-104933170D01*
X130139648Y-104947747D01*
X130209747Y-104963731D01*
X130364172Y-105017424D01*
X130533196Y-105095656D01*
X130702721Y-105191556D01*
X130858650Y-105298250D01*
X131020820Y-105421535D01*
X131087454Y-105316465D01*
X131133389Y-105252317D01*
X131268347Y-105121510D01*
X131433747Y-105022427D01*
X131621236Y-104958334D01*
X131822465Y-104932497D01*
X132029080Y-104948183D01*
G37*
G36*
X164889378Y-103054721D02*
G01*
X164903680Y-103080622D01*
X164914097Y-103131728D01*
X164922256Y-103216382D01*
X164929789Y-103342930D01*
X164936771Y-103444496D01*
X164949007Y-103560505D01*
X164963563Y-103654139D01*
X164978595Y-103711471D01*
X164987224Y-103734678D01*
X164993478Y-103824324D01*
X164951177Y-103901564D01*
X164860175Y-103966710D01*
X164837752Y-103977451D01*
X164774430Y-103999871D01*
X164733496Y-104002852D01*
X164722809Y-103996935D01*
X164702675Y-103958055D01*
X164710929Y-103910462D01*
X164745294Y-103878219D01*
X164775952Y-103863938D01*
X164831340Y-103826574D01*
X164841313Y-103817637D01*
X164859360Y-103790763D01*
X164856941Y-103752701D01*
X164834443Y-103685931D01*
X164827716Y-103665007D01*
X164809314Y-103569232D01*
X164797645Y-103447375D01*
X164793467Y-103317765D01*
X164797536Y-103198732D01*
X164810608Y-103108605D01*
X164832884Y-103059123D01*
X164871809Y-103046058D01*
X164889378Y-103054721D01*
G37*
G36*
X142064928Y-107839800D02*
G01*
X141160477Y-107839800D01*
X141160477Y-106859978D01*
X142064928Y-106859978D01*
X142064928Y-107839800D01*
G37*
G36*
X163422349Y-104360188D02*
G01*
X163471796Y-104374088D01*
X163491519Y-104422985D01*
X163501990Y-104468251D01*
X163523358Y-104514015D01*
X163541637Y-104528481D01*
X163612806Y-104555158D01*
X163724892Y-104578512D01*
X163871728Y-104598291D01*
X164047147Y-104614241D01*
X164244981Y-104626108D01*
X164459061Y-104633641D01*
X164683221Y-104636587D01*
X164911293Y-104634691D01*
X165137108Y-104627702D01*
X165354500Y-104615366D01*
X165557301Y-104597431D01*
X165688047Y-104581186D01*
X165801045Y-104559899D01*
X165876657Y-104533850D01*
X165921834Y-104500519D01*
X165943527Y-104457386D01*
X165943681Y-104456776D01*
X165968173Y-104409985D01*
X166014925Y-104402511D01*
X166037760Y-104407960D01*
X166063885Y-104434849D01*
X166070566Y-104495644D01*
X166069954Y-104513649D01*
X166056756Y-104569405D01*
X166022633Y-104614779D01*
X165962698Y-104651517D01*
X165872066Y-104681366D01*
X165745847Y-104706073D01*
X165579155Y-104727383D01*
X165367104Y-104747044D01*
X165297217Y-104752264D01*
X165058043Y-104763847D01*
X164798401Y-104768368D01*
X164530033Y-104766161D01*
X164264683Y-104757562D01*
X164014095Y-104742904D01*
X163790012Y-104722525D01*
X163604178Y-104696757D01*
X163493224Y-104668433D01*
X163405038Y-104618176D01*
X163358335Y-104546284D01*
X163349710Y-104449448D01*
X163356684Y-104399707D01*
X163376849Y-104367638D01*
X163420022Y-104360176D01*
X163422349Y-104360188D01*
G37*
G36*
X162991090Y-101878673D02*
G01*
X163178921Y-101895294D01*
X163346409Y-101926501D01*
X163507850Y-101974930D01*
X163677539Y-102043221D01*
X163681698Y-102045070D01*
X163781667Y-102096064D01*
X163835920Y-102138843D01*
X163843427Y-102172165D01*
X163803157Y-102194786D01*
X163785218Y-102198941D01*
X163660889Y-102208786D01*
X163518582Y-102195355D01*
X163379988Y-102160410D01*
X163275003Y-102126123D01*
X163114213Y-102079420D01*
X162942415Y-102034640D01*
X162774251Y-101995354D01*
X162624364Y-101965133D01*
X162507395Y-101947549D01*
X162492063Y-101945887D01*
X162405116Y-101933222D01*
X162363559Y-101919137D01*
X162363110Y-101902291D01*
X162399287Y-101890927D01*
X162480980Y-101882103D01*
X162603092Y-101876349D01*
X162760702Y-101874016D01*
X162768623Y-101873997D01*
X162991090Y-101878673D01*
G37*
G36*
X154727242Y-107839800D02*
G01*
X153822791Y-107839800D01*
X153822791Y-105025952D01*
X154727242Y-105025952D01*
X154727242Y-107839800D01*
G37*
G36*
X133317523Y-99337919D02*
G01*
X133464047Y-99453594D01*
X133719250Y-99643380D01*
X133601364Y-99759493D01*
X133541021Y-99816311D01*
X133490031Y-99859203D01*
X133462828Y-99875606D01*
X133452120Y-99871606D01*
X133406225Y-99842296D01*
X133334346Y-99789902D01*
X133244577Y-99720825D01*
X133145013Y-99641466D01*
X133043748Y-99558224D01*
X132948876Y-99477500D01*
X132868494Y-99405693D01*
X132717093Y-99265522D01*
X132510743Y-99466221D01*
X132450429Y-99522889D01*
X132335189Y-99623549D01*
X132219104Y-99717159D01*
X132119926Y-99789054D01*
X131935459Y-99911189D01*
X132069679Y-99957092D01*
X132152329Y-99983865D01*
X132358026Y-100041843D01*
X132598060Y-100100234D01*
X132861739Y-100156817D01*
X133138373Y-100209368D01*
X133417268Y-100255665D01*
X133687734Y-100293485D01*
X134041005Y-100337650D01*
X133938970Y-100506821D01*
X133902526Y-100565398D01*
X133855460Y-100630443D01*
X133819130Y-100661666D01*
X133786688Y-100666239D01*
X133754675Y-100660751D01*
X133679491Y-100648864D01*
X133577109Y-100633234D01*
X133460081Y-100615799D01*
X133068818Y-100550400D01*
X132423952Y-100406662D01*
X131806482Y-100222470D01*
X131509560Y-100121882D01*
X131237980Y-100212098D01*
X131130666Y-100246605D01*
X130673082Y-100370277D01*
X130179269Y-100467603D01*
X129645494Y-100539351D01*
X129534061Y-100551688D01*
X129437931Y-100560270D01*
X129371448Y-100557595D01*
X129323431Y-100538839D01*
X129282700Y-100499180D01*
X129238072Y-100433796D01*
X129178369Y-100337862D01*
X129081949Y-100184589D01*
X129487236Y-100169632D01*
X129648210Y-100162105D01*
X130191928Y-100111388D01*
X130707328Y-100022425D01*
X130722695Y-100019119D01*
X130865246Y-99988230D01*
X130961299Y-99963955D01*
X131013007Y-99941565D01*
X131022523Y-99916336D01*
X130992002Y-99883539D01*
X130923597Y-99838449D01*
X130819462Y-99776337D01*
X130656231Y-99672853D01*
X130484652Y-99552178D01*
X130322409Y-99426932D01*
X130181313Y-99306246D01*
X130073172Y-99199253D01*
X130030708Y-99149845D01*
X129998066Y-99096773D01*
X130498196Y-99096773D01*
X130584777Y-99186801D01*
X130601665Y-99203591D01*
X130696259Y-99283591D01*
X130822603Y-99375325D01*
X130969487Y-99471379D01*
X131125705Y-99564338D01*
X131280048Y-99646787D01*
X131325987Y-99669324D01*
X131415176Y-99710689D01*
X131483770Y-99739301D01*
X131519753Y-99749988D01*
X131560727Y-99738083D01*
X131635438Y-99701566D01*
X131732315Y-99646216D01*
X131841942Y-99577920D01*
X131954899Y-99502563D01*
X132061767Y-99426031D01*
X132153128Y-99354209D01*
X132212454Y-99305001D01*
X132279803Y-99249064D01*
X132329535Y-99204091D01*
X132358390Y-99168897D01*
X132363105Y-99142291D01*
X132340417Y-99123087D01*
X132287064Y-99110097D01*
X132199784Y-99102133D01*
X132075315Y-99098006D01*
X131910393Y-99096529D01*
X131701758Y-99096514D01*
X131446145Y-99096773D01*
X130498196Y-99096773D01*
X129998066Y-99096773D01*
X129997492Y-99095840D01*
X129983391Y-99035115D01*
X129980457Y-98945959D01*
X129980457Y-98795289D01*
X131111021Y-98795289D01*
X131201088Y-98795266D01*
X131465109Y-98794809D01*
X131683544Y-98793613D01*
X131859962Y-98791480D01*
X131997932Y-98788211D01*
X132101026Y-98783608D01*
X132172813Y-98777472D01*
X132216864Y-98769603D01*
X132236748Y-98759803D01*
X132236035Y-98747873D01*
X132218296Y-98733614D01*
X132206706Y-98723812D01*
X132167828Y-98682029D01*
X132118432Y-98622537D01*
X132041857Y-98525854D01*
X132213405Y-98450083D01*
X132384952Y-98374312D01*
X132511964Y-98540834D01*
X132565439Y-98607303D01*
X132685619Y-98742249D01*
X132830767Y-98892226D01*
X132991033Y-99047792D01*
X133094142Y-99142291D01*
X133156568Y-99199504D01*
X133317523Y-99337919D01*
G37*
G36*
X131716106Y-97444445D02*
G01*
X131791967Y-97489235D01*
X131859979Y-97533747D01*
X131891155Y-97570449D01*
X131888380Y-97610818D01*
X131854541Y-97666336D01*
X131792522Y-97748479D01*
X131762483Y-97787260D01*
X131715052Y-97846329D01*
X131677835Y-97894418D01*
X131654471Y-97932642D01*
X131648597Y-97962113D01*
X131663851Y-97983945D01*
X131703872Y-97999254D01*
X131772296Y-98009151D01*
X131872762Y-98014751D01*
X132008908Y-98017168D01*
X132184371Y-98017515D01*
X132402790Y-98016907D01*
X132667802Y-98016457D01*
X133723879Y-98016457D01*
X133723879Y-98946031D01*
X133372148Y-98946031D01*
X133372148Y-98343064D01*
X129678973Y-98343064D01*
X129678973Y-98946031D01*
X129327242Y-98946031D01*
X129327242Y-98016457D01*
X131424168Y-98016457D01*
X131324123Y-97949774D01*
X131291503Y-97927953D01*
X131239216Y-97892564D01*
X131214248Y-97875043D01*
X131221957Y-97855134D01*
X131255270Y-97804931D01*
X131307852Y-97733614D01*
X131372897Y-97650127D01*
X131443597Y-97563412D01*
X131513142Y-97482413D01*
X131605168Y-97378712D01*
X131716106Y-97444445D01*
G37*
G36*
X151426050Y-104978544D02*
G01*
X151664222Y-105070940D01*
X151903013Y-105213120D01*
X152064136Y-105325753D01*
X152064136Y-105025952D01*
X152968587Y-105025952D01*
X152968587Y-107839800D01*
X152064136Y-107839800D01*
X152064136Y-105811647D01*
X151907114Y-105739870D01*
X151906092Y-105739404D01*
X151794238Y-105695649D01*
X151683743Y-105671023D01*
X151549102Y-105659823D01*
X151453595Y-105658576D01*
X151330542Y-105671646D01*
X151238957Y-105707629D01*
X151168652Y-105771340D01*
X151109438Y-105867594D01*
X151046629Y-105993212D01*
X151038218Y-106916506D01*
X151029806Y-107839800D01*
X150125790Y-107839800D01*
X150136205Y-106778326D01*
X150137380Y-106661258D01*
X150140369Y-106402805D01*
X150143889Y-106187427D01*
X150148487Y-106010007D01*
X150154710Y-105865427D01*
X150163107Y-105748572D01*
X150174223Y-105654323D01*
X150188608Y-105577565D01*
X150206809Y-105513180D01*
X150229372Y-105456050D01*
X150256846Y-105401060D01*
X150289778Y-105343092D01*
X150392514Y-105203666D01*
X150531729Y-105087499D01*
X150704889Y-105003648D01*
X150916201Y-104949470D01*
X150953531Y-104943634D01*
X151188989Y-104936065D01*
X151426050Y-104978544D01*
G37*
G36*
X166861960Y-107751867D02*
G01*
X166849398Y-107764429D01*
X166836837Y-107751867D01*
X166849398Y-107739305D01*
X166861960Y-107751867D01*
G37*
G36*
X138906998Y-104944278D02*
G01*
X139131641Y-104958500D01*
X139328567Y-104991713D01*
X139511983Y-105046820D01*
X139696094Y-105126726D01*
X139869519Y-105226556D01*
X140064021Y-105385472D01*
X140219055Y-105575274D01*
X140334772Y-105796201D01*
X140411318Y-106048491D01*
X140448844Y-106332381D01*
X140451967Y-106514963D01*
X140422387Y-106793798D01*
X140350839Y-107045998D01*
X140238621Y-107270029D01*
X140087030Y-107464352D01*
X139897365Y-107627433D01*
X139670923Y-107757735D01*
X139409002Y-107853722D01*
X139112900Y-107913856D01*
X138900602Y-107929605D01*
X138646332Y-107922475D01*
X138389484Y-107891328D01*
X138146582Y-107838247D01*
X137934154Y-107765314D01*
X137819033Y-107715967D01*
X137819033Y-107338220D01*
X137819101Y-107234122D01*
X137819983Y-107119335D01*
X137822804Y-107042194D01*
X137828692Y-106995219D01*
X137838777Y-106970928D01*
X137854188Y-106961839D01*
X137876055Y-106960472D01*
X137879108Y-106960615D01*
X137929368Y-106977861D01*
X138002336Y-107018265D01*
X138083325Y-107073797D01*
X138105741Y-107090196D01*
X138276337Y-107187766D01*
X138462001Y-107253149D01*
X138653905Y-107286211D01*
X138843224Y-107286815D01*
X139021129Y-107254827D01*
X139178794Y-107190111D01*
X139307393Y-107092533D01*
X139317271Y-107082284D01*
X139398107Y-106985292D01*
X139454649Y-106884409D01*
X139490534Y-106768285D01*
X139509398Y-106625568D01*
X139514878Y-106444910D01*
X139514591Y-106347931D01*
X139512065Y-106245753D01*
X139504919Y-106170786D01*
X139490785Y-106109589D01*
X139467299Y-106048719D01*
X139432092Y-105974736D01*
X139367656Y-105862172D01*
X139256952Y-105733661D01*
X139122255Y-105645565D01*
X138958501Y-105594898D01*
X138760627Y-105578672D01*
X138636980Y-105587326D01*
X138455679Y-105626608D01*
X138280715Y-105692387D01*
X138126439Y-105778914D01*
X138007200Y-105880443D01*
X137960360Y-105913041D01*
X137890510Y-105930403D01*
X137819033Y-105930403D01*
X137819033Y-105155181D01*
X137963493Y-105100802D01*
X138037270Y-105073718D01*
X138231314Y-105011637D01*
X138409711Y-104971695D01*
X138592283Y-104950154D01*
X138798854Y-104943276D01*
X138906998Y-104944278D01*
G37*
G36*
X166761466Y-107488069D02*
G01*
X166759653Y-107501369D01*
X166744717Y-107504818D01*
X166741710Y-107501136D01*
X166744717Y-107471320D01*
X166752273Y-107467389D01*
X166761466Y-107488069D01*
G37*
G36*
X164184301Y-106133365D02*
G01*
X164186293Y-106156516D01*
X164181136Y-106164035D01*
X164159686Y-106181640D01*
X164157179Y-106180986D01*
X164148607Y-106156516D01*
X164149630Y-106149630D01*
X164175214Y-106131392D01*
X164184301Y-106133365D01*
G37*
G36*
X165329418Y-106194201D02*
G01*
X165316856Y-106206763D01*
X165304295Y-106194201D01*
X165316856Y-106181640D01*
X165329418Y-106194201D01*
G37*
G36*
X146952101Y-99830072D02*
G01*
X146903823Y-99974289D01*
X146841102Y-100139988D01*
X146771048Y-100309736D01*
X146700769Y-100466095D01*
X146637374Y-100591630D01*
X146585132Y-100681418D01*
X146482446Y-100842166D01*
X146362305Y-101015861D01*
X146234660Y-101187772D01*
X146181806Y-101256318D01*
X146390775Y-101392079D01*
X146466967Y-101440040D01*
X146685239Y-101565238D01*
X146926468Y-101689357D01*
X147172130Y-101803157D01*
X147403701Y-101897397D01*
X147485728Y-101928200D01*
X147575006Y-101962360D01*
X147637246Y-101986952D01*
X147662397Y-101998065D01*
X147662226Y-102000729D01*
X147644248Y-102032302D01*
X147604397Y-102090989D01*
X147549340Y-102166839D01*
X147428825Y-102328580D01*
X147233165Y-102245764D01*
X147082622Y-102179144D01*
X146780631Y-102030589D01*
X146480749Y-101865226D01*
X146206674Y-101695754D01*
X146178549Y-101677210D01*
X146077360Y-101611092D01*
X145994034Y-101557567D01*
X145936557Y-101521721D01*
X145912915Y-101508643D01*
X145909332Y-101510090D01*
X145875081Y-101531889D01*
X145813921Y-101574428D01*
X145736052Y-101630667D01*
X145683223Y-101668886D01*
X145382108Y-101867342D01*
X145056126Y-102049518D01*
X144692606Y-102222602D01*
X144558840Y-102281760D01*
X144408298Y-102101365D01*
X144257756Y-101920971D01*
X144499175Y-101838526D01*
X144539819Y-101824325D01*
X144680034Y-101771837D01*
X144823094Y-101714054D01*
X144943596Y-101661116D01*
X145012507Y-101627217D01*
X145124964Y-101567057D01*
X145243782Y-101499126D01*
X145358780Y-101429631D01*
X145459779Y-101364775D01*
X145536597Y-101310764D01*
X145579054Y-101273804D01*
X145583921Y-101253491D01*
X145566463Y-101212502D01*
X145519958Y-101148224D01*
X145440784Y-101054926D01*
X145400885Y-101008758D01*
X145250736Y-100818969D01*
X145108249Y-100614758D01*
X144977235Y-100403429D01*
X144861501Y-100192283D01*
X144764855Y-99988624D01*
X144691107Y-99799755D01*
X144655811Y-99674617D01*
X145051255Y-99674617D01*
X145067964Y-99731145D01*
X145075569Y-99755344D01*
X145121931Y-99876330D01*
X145187080Y-100020744D01*
X145263699Y-100173800D01*
X145344473Y-100320717D01*
X145422087Y-100446711D01*
X145450890Y-100488791D01*
X145542733Y-100612998D01*
X145642663Y-100737192D01*
X145733644Y-100839876D01*
X145898924Y-101013200D01*
X146025252Y-100852662D01*
X146031697Y-100844455D01*
X146221273Y-100583909D01*
X146374011Y-100329900D01*
X146497991Y-100067404D01*
X146601293Y-99781392D01*
X146635027Y-99674617D01*
X145051255Y-99674617D01*
X144655811Y-99674617D01*
X144644066Y-99632977D01*
X144627539Y-99495594D01*
X144627539Y-99348010D01*
X145682732Y-99348010D01*
X145682732Y-98594300D01*
X144351179Y-98594300D01*
X144351179Y-98242569D01*
X145682732Y-98242569D01*
X145682732Y-97438613D01*
X146059586Y-97438613D01*
X146059586Y-98242569D01*
X147340892Y-98242569D01*
X147340892Y-98594300D01*
X146059586Y-98594300D01*
X146059586Y-99348010D01*
X147340892Y-99348010D01*
X147340892Y-99674617D01*
X146995691Y-99674617D01*
X146962608Y-99793954D01*
X146952101Y-99830072D01*
G37*
G36*
X135306669Y-100805181D02*
G01*
X137844156Y-100805181D01*
X137844156Y-101106664D01*
X135306669Y-101106664D01*
X135306669Y-101738621D01*
X135457861Y-101889813D01*
X135873348Y-101881374D01*
X136008190Y-101878788D01*
X136123324Y-101877505D01*
X136201105Y-101878741D01*
X136248443Y-101883210D01*
X136272249Y-101891629D01*
X136279432Y-101904715D01*
X136276904Y-101923183D01*
X136272933Y-101941737D01*
X136260633Y-102010177D01*
X136247755Y-102092767D01*
X136230538Y-102212105D01*
X135784034Y-102212105D01*
X135757531Y-102212102D01*
X135603784Y-102211737D01*
X135489972Y-102209991D01*
X135407101Y-102205792D01*
X135346181Y-102198064D01*
X135298220Y-102185736D01*
X135254225Y-102167731D01*
X135205206Y-102142978D01*
X135135747Y-102103187D01*
X135073094Y-102053804D01*
X135027700Y-101993847D01*
X134996577Y-101915392D01*
X134976738Y-101810515D01*
X134965196Y-101671292D01*
X134958964Y-101489800D01*
X134950428Y-101106664D01*
X134150981Y-101106664D01*
X134150981Y-100805181D01*
X134954938Y-100805181D01*
X134954938Y-100503697D01*
X135306669Y-100503697D01*
X135306669Y-100805181D01*
G37*
G36*
X148446332Y-98443559D02*
G01*
X149099547Y-98443559D01*
X149099547Y-98770166D01*
X148446332Y-98770166D01*
X148446332Y-99843620D01*
X148766659Y-99936295D01*
X148789585Y-99942931D01*
X148909248Y-99977709D01*
X149011139Y-100007540D01*
X149085086Y-100029434D01*
X149120921Y-100040403D01*
X149130824Y-100046364D01*
X149142786Y-100075238D01*
X149144564Y-100134537D01*
X149136948Y-100233801D01*
X149135884Y-100244444D01*
X149125694Y-100332936D01*
X149115845Y-100398350D01*
X149108332Y-100427193D01*
X149101336Y-100427124D01*
X149056582Y-100416778D01*
X148979643Y-100395330D01*
X148880965Y-100365986D01*
X148770990Y-100331949D01*
X148660165Y-100296424D01*
X148558932Y-100262615D01*
X148477737Y-100233726D01*
X148475825Y-100233349D01*
X148466911Y-100244095D01*
X148459866Y-100279390D01*
X148454509Y-100343517D01*
X148450659Y-100440757D01*
X148448134Y-100575393D01*
X148446752Y-100751706D01*
X148446332Y-100973979D01*
X148446332Y-101725997D01*
X148507654Y-101783605D01*
X148511323Y-101787028D01*
X148542430Y-101811932D01*
X148577776Y-101827059D01*
X148628842Y-101834128D01*
X148707109Y-101834858D01*
X148824059Y-101830968D01*
X149079142Y-101820723D01*
X149061752Y-101983106D01*
X149052066Y-102063388D01*
X149040785Y-102137613D01*
X149031581Y-102178797D01*
X149029837Y-102182125D01*
X149005284Y-102196289D01*
X148950068Y-102205541D01*
X148857687Y-102210580D01*
X148721640Y-102212105D01*
X148687056Y-102212019D01*
X148538094Y-102208428D01*
X148427279Y-102197967D01*
X148344652Y-102178466D01*
X148280250Y-102147752D01*
X148224113Y-102103656D01*
X148196519Y-102077583D01*
X148165821Y-102044968D01*
X148141089Y-102009663D01*
X148121586Y-101966386D01*
X148106573Y-101909852D01*
X148095313Y-101834778D01*
X148087068Y-101735881D01*
X148081100Y-101607875D01*
X148076671Y-101445478D01*
X148073042Y-101243406D01*
X148069478Y-100996375D01*
X148056916Y-100094692D01*
X147516758Y-99924252D01*
X147516758Y-99553069D01*
X147722240Y-99616173D01*
X147751668Y-99625254D01*
X147852213Y-99656901D01*
X147936126Y-99684204D01*
X147987674Y-99702071D01*
X148029399Y-99716925D01*
X148058551Y-99724864D01*
X148058781Y-99724760D01*
X148062161Y-99697941D01*
X148065097Y-99629091D01*
X148067413Y-99525926D01*
X148068932Y-99396161D01*
X148069478Y-99247515D01*
X148069478Y-98770166D01*
X147491634Y-98770166D01*
X147491634Y-98443559D01*
X148069478Y-98443559D01*
X148069478Y-97463737D01*
X148446332Y-97463737D01*
X148446332Y-98443559D01*
G37*
G36*
X162641189Y-107739305D02*
G01*
X162639376Y-107752606D01*
X162624440Y-107756054D01*
X162621433Y-107752372D01*
X162624440Y-107722556D01*
X162631996Y-107718626D01*
X162641189Y-107739305D01*
G37*
G36*
X163997865Y-106143954D02*
G01*
X163985304Y-106156516D01*
X163972742Y-106143954D01*
X163985304Y-106131392D01*
X163997865Y-106143954D01*
G37*
G36*
X137390949Y-106745894D02*
G01*
X137325600Y-107009711D01*
X137220795Y-107244635D01*
X137078185Y-107448706D01*
X136899424Y-107619966D01*
X136686166Y-107756456D01*
X136440062Y-107856215D01*
X136162767Y-107917286D01*
X136159427Y-107917747D01*
X136026178Y-107927581D01*
X135863236Y-107927310D01*
X135689341Y-107917931D01*
X135523236Y-107900442D01*
X135383663Y-107875838D01*
X135185914Y-107814912D01*
X134960450Y-107701123D01*
X134765396Y-107548679D01*
X134603150Y-107359968D01*
X134476109Y-107137375D01*
X134386669Y-106883287D01*
X134371851Y-106813241D01*
X134352991Y-106655713D01*
X134345560Y-106486883D01*
X135270847Y-106486883D01*
X135273191Y-106632477D01*
X135280383Y-106742299D01*
X135293420Y-106827306D01*
X135313299Y-106898459D01*
X135325049Y-106929747D01*
X135401545Y-107071433D01*
X135502841Y-107187060D01*
X135618937Y-107264649D01*
X135665932Y-107283309D01*
X135817452Y-107313280D01*
X135972592Y-107305081D01*
X136119760Y-107261652D01*
X136247366Y-107185931D01*
X136343819Y-107080857D01*
X136373921Y-107031906D01*
X136416199Y-106946425D01*
X136445214Y-106854746D01*
X136463185Y-106745904D01*
X136472329Y-106608935D01*
X136474863Y-106432876D01*
X136474084Y-106344217D01*
X136465378Y-106166343D01*
X136445035Y-106024628D01*
X136410599Y-105909643D01*
X136359612Y-105811961D01*
X136289616Y-105722154D01*
X136234222Y-105666455D01*
X136136595Y-105599438D01*
X136023347Y-105564093D01*
X135879038Y-105554100D01*
X135782705Y-105559439D01*
X135631438Y-105596380D01*
X135508589Y-105671338D01*
X135409442Y-105787700D01*
X135329277Y-105948854D01*
X135325894Y-105957587D01*
X135302861Y-106025366D01*
X135287319Y-106094591D01*
X135277799Y-106177455D01*
X135272833Y-106286152D01*
X135270949Y-106432876D01*
X135270847Y-106486883D01*
X134345560Y-106486883D01*
X134345093Y-106476281D01*
X134348148Y-106292536D01*
X134362149Y-106122068D01*
X134387087Y-105982465D01*
X134453083Y-105781051D01*
X134571699Y-105551019D01*
X134726876Y-105354894D01*
X134917059Y-105194212D01*
X135140693Y-105070510D01*
X135396225Y-104985323D01*
X135473272Y-104970027D01*
X135641098Y-104950773D01*
X135829841Y-104942578D01*
X136022022Y-104945458D01*
X136200160Y-104959428D01*
X136346776Y-104984503D01*
X136463247Y-105017533D01*
X136706485Y-105120539D01*
X136916575Y-105260128D01*
X137091962Y-105434186D01*
X137231086Y-105640601D01*
X137332389Y-105877263D01*
X137394313Y-106142059D01*
X137415301Y-106432876D01*
X137415187Y-106455143D01*
X137390949Y-106745894D01*
G37*
G36*
X165074129Y-106216114D02*
G01*
X165078182Y-106257011D01*
X165073919Y-106286195D01*
X165055410Y-106307258D01*
X165044370Y-106297072D01*
X165045779Y-106257011D01*
X165055353Y-106227478D01*
X165068550Y-106206763D01*
X165074129Y-106216114D01*
G37*
G36*
X146632397Y-106097146D02*
G01*
X146618951Y-106300372D01*
X146595712Y-106484144D01*
X146563170Y-106633455D01*
X146556385Y-106656211D01*
X146447092Y-106932639D01*
X146298328Y-107180164D01*
X146113446Y-107395956D01*
X145895796Y-107577187D01*
X145648731Y-107721028D01*
X145375603Y-107824651D01*
X145079764Y-107885226D01*
X144905700Y-107903533D01*
X144747413Y-107910596D01*
X144591431Y-107905204D01*
X144413988Y-107887435D01*
X144262357Y-107864128D01*
X143962725Y-107785728D01*
X143694691Y-107668804D01*
X143459278Y-107514247D01*
X143257509Y-107322948D01*
X143090408Y-107095798D01*
X142958998Y-106833689D01*
X142864301Y-106537512D01*
X142855812Y-106500156D01*
X142824330Y-106293821D01*
X142809591Y-106061881D01*
X142809760Y-106041449D01*
X143800216Y-106041449D01*
X143806001Y-106207077D01*
X143821951Y-106347631D01*
X143825852Y-106369152D01*
X143886430Y-106584437D01*
X143979839Y-106777437D01*
X144101367Y-106941658D01*
X144246298Y-107070605D01*
X144409920Y-107157782D01*
X144528416Y-107191735D01*
X144718376Y-107210754D01*
X144909587Y-107192395D01*
X145088787Y-107138366D01*
X145242714Y-107050378D01*
X145316426Y-106986584D01*
X145445020Y-106827499D01*
X145544044Y-106632214D01*
X145612155Y-106404622D01*
X145648012Y-106148615D01*
X145650271Y-105868086D01*
X145646509Y-105807838D01*
X145609734Y-105534117D01*
X145542860Y-105299785D01*
X145446136Y-105105162D01*
X145319811Y-104950568D01*
X145164134Y-104836323D01*
X144979354Y-104762748D01*
X144765719Y-104730163D01*
X144701810Y-104727577D01*
X144597799Y-104729968D01*
X144509990Y-104745030D01*
X144416028Y-104775672D01*
X144412805Y-104776895D01*
X144238132Y-104868666D01*
X144090417Y-105000953D01*
X143968515Y-105175050D01*
X143871281Y-105392253D01*
X143863951Y-105414602D01*
X143836465Y-105537323D01*
X143816188Y-105692251D01*
X143803859Y-105865066D01*
X143800216Y-106041449D01*
X142809760Y-106041449D01*
X142811572Y-105822406D01*
X142830253Y-105593468D01*
X142865614Y-105393138D01*
X142877632Y-105345938D01*
X142977517Y-105058933D01*
X143114891Y-104803248D01*
X143287902Y-104580931D01*
X143494701Y-104394031D01*
X143733436Y-104244598D01*
X144002258Y-104134678D01*
X144160692Y-104091633D01*
X144449339Y-104044282D01*
X144746492Y-104031007D01*
X145042329Y-104050913D01*
X145327028Y-104103102D01*
X145590766Y-104186680D01*
X145823722Y-104300752D01*
X145850576Y-104317325D01*
X146064175Y-104481507D01*
X146249028Y-104683960D01*
X146402115Y-104920118D01*
X146520415Y-105185418D01*
X146600907Y-105475293D01*
X146609092Y-105520812D01*
X146627957Y-105692359D01*
X146634737Y-105868086D01*
X146635562Y-105889473D01*
X146632397Y-106097146D01*
G37*
G36*
X149401031Y-104774716D02*
G01*
X148798063Y-104774716D01*
X148798063Y-107161462D01*
X149401031Y-107161462D01*
X149401031Y-107839800D01*
X147240397Y-107839800D01*
X147240397Y-107161462D01*
X147843365Y-107161462D01*
X147843365Y-104774716D01*
X147240397Y-104774716D01*
X147240397Y-104096378D01*
X149401031Y-104096378D01*
X149401031Y-104774716D01*
G37*
G36*
X165078182Y-106357505D02*
G01*
X165076369Y-106370806D01*
X165061433Y-106374254D01*
X165058426Y-106370572D01*
X165061433Y-106340756D01*
X165068990Y-106336826D01*
X165078182Y-106357505D01*
G37*
G36*
X165396415Y-105989025D02*
G01*
X165400345Y-105996582D01*
X165379666Y-106005774D01*
X165366365Y-106003961D01*
X165362916Y-105989025D01*
X165366599Y-105986018D01*
X165396415Y-105989025D01*
G37*
G36*
X165061838Y-105019684D02*
G01*
X165097025Y-105022359D01*
X165113530Y-105033905D01*
X165128429Y-105076794D01*
X165123879Y-105102176D01*
X165097025Y-105135266D01*
X165088926Y-105137059D01*
X165037034Y-105140933D01*
X164948555Y-105143461D01*
X164833361Y-105144433D01*
X164701327Y-105143641D01*
X164637045Y-105142791D01*
X164513537Y-105140494D01*
X164429281Y-105136851D01*
X164376498Y-105130610D01*
X164347406Y-105120520D01*
X164334226Y-105105330D01*
X164329178Y-105083789D01*
X164327671Y-105070684D01*
X164330609Y-105053047D01*
X164346930Y-105040846D01*
X164384006Y-105032809D01*
X164449207Y-105027667D01*
X164549905Y-105024147D01*
X164693470Y-105020980D01*
X164752347Y-105019898D01*
X164879754Y-105018420D01*
X164986166Y-105018359D01*
X165061838Y-105019684D01*
G37*
G36*
X164450091Y-106294696D02*
G01*
X164437529Y-106307258D01*
X164424967Y-106294696D01*
X164437529Y-106282134D01*
X164450091Y-106294696D01*
G37*
G36*
X166352167Y-102620175D02*
G01*
X166527574Y-102624858D01*
X166721969Y-102632543D01*
X166867968Y-102641848D01*
X166966622Y-102652842D01*
X167018983Y-102665597D01*
X167060849Y-102693452D01*
X167087279Y-102750592D01*
X167067810Y-102822307D01*
X167002653Y-102905517D01*
X166956427Y-102949512D01*
X166907314Y-102983466D01*
X166870944Y-102983423D01*
X166836225Y-102952515D01*
X166823229Y-102932705D01*
X166825420Y-102899273D01*
X166862652Y-102852021D01*
X166920966Y-102789948D01*
X166834935Y-102789672D01*
X166747464Y-102785042D01*
X166657233Y-102774235D01*
X166640102Y-102771517D01*
X166586689Y-102769519D01*
X166554069Y-102791942D01*
X166522471Y-102849883D01*
X166512881Y-102869924D01*
X166487712Y-102920590D01*
X166475962Y-102941068D01*
X166471657Y-102942399D01*
X166434351Y-102955386D01*
X166372049Y-102977651D01*
X166366517Y-102979645D01*
X166295360Y-103004060D01*
X166248971Y-103012069D01*
X166205978Y-103003857D01*
X166145009Y-102979607D01*
X166144378Y-102979342D01*
X166067303Y-102927877D01*
X166005154Y-102853989D01*
X165978140Y-102812927D01*
X165933728Y-102774773D01*
X165874995Y-102764825D01*
X165813032Y-102776426D01*
X165740033Y-102818759D01*
X165715826Y-102839980D01*
X165678331Y-102857303D01*
X165644200Y-102840807D01*
X165633287Y-102831074D01*
X165608887Y-102789254D01*
X165623794Y-102741370D01*
X165680109Y-102677888D01*
X165754441Y-102606674D01*
X166352167Y-102620175D01*
G37*
G36*
X137053691Y-101191482D02*
G01*
X137098616Y-101229786D01*
X137154749Y-101287491D01*
X137250022Y-101392947D01*
X137179199Y-101444514D01*
X137137651Y-101475109D01*
X137062888Y-101530637D01*
X136968975Y-101600677D01*
X136867017Y-101676962D01*
X136866172Y-101677595D01*
X136771665Y-101747708D01*
X136692266Y-101805291D01*
X136636289Y-101844404D01*
X136612048Y-101859108D01*
X136591857Y-101845738D01*
X136546259Y-101804919D01*
X136486430Y-101746041D01*
X136374423Y-101631708D01*
X136437232Y-101583191D01*
X136484108Y-101548012D01*
X136568815Y-101487161D01*
X136666530Y-101419098D01*
X136768248Y-101349864D01*
X136864968Y-101285500D01*
X136947685Y-101232047D01*
X137007398Y-101195545D01*
X137035103Y-101182035D01*
X137053691Y-101191482D01*
G37*
G36*
X164374720Y-106294696D02*
G01*
X164362158Y-106307258D01*
X164349596Y-106294696D01*
X164362158Y-106282134D01*
X164374720Y-106294696D01*
G37*
G36*
X163922494Y-105955527D02*
G01*
X163920681Y-105968827D01*
X163905745Y-105972276D01*
X163902739Y-105968594D01*
X163905745Y-105938778D01*
X163913302Y-105934847D01*
X163922494Y-105955527D01*
G37*
%TD*%
%LPC*%
D12*
%TO.C,J1*%
X126555000Y-125080000D03*
D13*
X129095000Y-125080000D03*
X131635000Y-125080000D03*
X134175000Y-125080000D03*
X136715000Y-125080000D03*
X139255000Y-125080000D03*
X141795000Y-125080000D03*
X144335000Y-125080000D03*
%TD*%
M02*
