%TF.GenerationSoftware,KiCad,Pcbnew,(6.0.7)*%
%TF.CreationDate,2022-09-23T01:36:15+08:00*%
%TF.ProjectId,UINIO-LCD2.4-ST7789,55494e49-4f2d-44c4-9344-322e342d5354,rev?*%
%TF.SameCoordinates,Original*%
%TF.FileFunction,Profile,NP*%
%FSLAX46Y46*%
G04 Gerber Fmt 4.6, Leading zero omitted, Abs format (unit mm)*
G04 Created by KiCad (PCBNEW (6.0.7)) date 2022-09-23 01:36:15*
%MOMM*%
%LPD*%
G01*
G04 APERTURE LIST*
%TA.AperFunction,Profile*%
%ADD10C,0.200000*%
%TD*%
G04 APERTURE END LIST*
D10*
X193640000Y-86210000D02*
G75*
G03*
X191640000Y-86210000I-1000000J0D01*
G01*
X195790000Y-124070000D02*
G75*
G03*
X195790000Y-124070000I-650000J0D01*
G01*
X129530000Y-105210000D02*
G75*
G03*
X129530000Y-105210000I-650000J0D01*
G01*
X129530000Y-87350000D02*
G75*
G03*
X129530000Y-87350000I-650000J0D01*
G01*
X162160010Y-128545500D02*
G75*
G03*
X162160010Y-128545500I-650000J0D01*
G01*
X192640000Y-130070000D02*
G75*
G03*
X196640000Y-126070000I0J4000000D01*
G01*
X134030000Y-82850000D02*
G75*
G03*
X134030000Y-82850000I-650000J0D01*
G01*
X162160000Y-82850000D02*
G75*
G03*
X162160000Y-82850000I-650000J0D01*
G01*
X196640000Y-85350000D02*
G75*
G03*
X192640000Y-81350000I-4000000J0D01*
G01*
X131380000Y-81350000D02*
X192640000Y-81350000D01*
X191640000Y-125210000D02*
G75*
G03*
X193640000Y-125210000I1000000J0D01*
G01*
X192640000Y-130070000D02*
X131380000Y-130070000D01*
X127380000Y-126070000D02*
X127380000Y-85350000D01*
X195790000Y-87350000D02*
G75*
G03*
X195790000Y-87350000I-650000J0D01*
G01*
X191640000Y-86210000D02*
X191640000Y-125210000D01*
X127380000Y-126070000D02*
G75*
G03*
X131380000Y-130070000I4000000J0D01*
G01*
X193640000Y-125210000D02*
X193640000Y-86210000D01*
X195790000Y-105210000D02*
G75*
G03*
X195790000Y-105210000I-650000J0D01*
G01*
X134030000Y-128570000D02*
G75*
G03*
X134030000Y-128570000I-650000J0D01*
G01*
X129530000Y-124070000D02*
G75*
G03*
X129530000Y-124070000I-650000J0D01*
G01*
X131380000Y-81350000D02*
G75*
G03*
X127380000Y-85350000I0J-4000000D01*
G01*
X191290000Y-128570000D02*
G75*
G03*
X191290000Y-128570000I-650000J0D01*
G01*
X191290000Y-82850000D02*
G75*
G03*
X191290000Y-82850000I-650000J0D01*
G01*
X196640000Y-85350000D02*
X196640000Y-126070000D01*
M02*
