%TF.GenerationSoftware,KiCad,Pcbnew,(6.0.8)*%
%TF.CreationDate,2022-10-12T18:40:44+08:00*%
%TF.ProjectId,UINIO-LCD2.4-ST7789,55494e49-4f2d-44c4-9344-322e342d5354,rev?*%
%TF.SameCoordinates,Original*%
%TF.FileFunction,Copper,L1,Top*%
%TF.FilePolarity,Positive*%
%FSLAX46Y46*%
G04 Gerber Fmt 4.6, Leading zero omitted, Abs format (unit mm)*
G04 Created by KiCad (PCBNEW (6.0.8)) date 2022-10-12 18:40:44*
%MOMM*%
%LPD*%
G01*
G04 APERTURE LIST*
G04 Aperture macros list*
%AMRoundRect*
0 Rectangle with rounded corners*
0 $1 Rounding radius*
0 $2 $3 $4 $5 $6 $7 $8 $9 X,Y pos of 4 corners*
0 Add a 4 corners polygon primitive as box body*
4,1,4,$2,$3,$4,$5,$6,$7,$8,$9,$2,$3,0*
0 Add four circle primitives for the rounded corners*
1,1,$1+$1,$2,$3*
1,1,$1+$1,$4,$5*
1,1,$1+$1,$6,$7*
1,1,$1+$1,$8,$9*
0 Add four rect primitives between the rounded corners*
20,1,$1+$1,$2,$3,$4,$5,0*
20,1,$1+$1,$4,$5,$6,$7,0*
20,1,$1+$1,$6,$7,$8,$9,0*
20,1,$1+$1,$8,$9,$2,$3,0*%
G04 Aperture macros list end*
%TA.AperFunction,SMDPad,CuDef*%
%ADD10C,2.000000*%
%TD*%
%TA.AperFunction,SMDPad,CuDef*%
%ADD11R,0.532000X1.070000*%
%TD*%
%TA.AperFunction,SMDPad,CuDef*%
%ADD12RoundRect,0.225000X-0.225000X-0.250000X0.225000X-0.250000X0.225000X0.250000X-0.225000X0.250000X0*%
%TD*%
%TA.AperFunction,SMDPad,CuDef*%
%ADD13RoundRect,0.200000X0.275000X-0.200000X0.275000X0.200000X-0.275000X0.200000X-0.275000X-0.200000X0*%
%TD*%
%TA.AperFunction,SMDPad,CuDef*%
%ADD14R,1.000000X0.600000*%
%TD*%
%TA.AperFunction,SMDPad,CuDef*%
%ADD15R,0.950000X1.200000*%
%TD*%
%TA.AperFunction,SMDPad,CuDef*%
%ADD16RoundRect,0.200000X-0.200000X-0.275000X0.200000X-0.275000X0.200000X0.275000X-0.200000X0.275000X0*%
%TD*%
%TA.AperFunction,SMDPad,CuDef*%
%ADD17RoundRect,0.105000X-4.895000X0.105000X-4.895000X-0.105000X4.895000X-0.105000X4.895000X0.105000X0*%
%TD*%
%TA.AperFunction,ComponentPad*%
%ADD18R,1.700000X1.700000*%
%TD*%
%TA.AperFunction,ComponentPad*%
%ADD19O,1.700000X1.700000*%
%TD*%
%TA.AperFunction,SMDPad,CuDef*%
%ADD20RoundRect,0.225000X0.250000X-0.225000X0.250000X0.225000X-0.250000X0.225000X-0.250000X-0.225000X0*%
%TD*%
%TA.AperFunction,SMDPad,CuDef*%
%ADD21R,0.300000X1.500000*%
%TD*%
%TA.AperFunction,SMDPad,CuDef*%
%ADD22R,2.000000X1.500000*%
%TD*%
%TA.AperFunction,SMDPad,CuDef*%
%ADD23RoundRect,0.200000X0.200000X0.275000X-0.200000X0.275000X-0.200000X-0.275000X0.200000X-0.275000X0*%
%TD*%
%TA.AperFunction,SMDPad,CuDef*%
%ADD24R,2.366000X0.980000*%
%TD*%
%TA.AperFunction,SMDPad,CuDef*%
%ADD25R,2.366000X3.600000*%
%TD*%
%TA.AperFunction,SMDPad,CuDef*%
%ADD26RoundRect,0.225000X-0.250000X0.225000X-0.250000X-0.225000X0.250000X-0.225000X0.250000X0.225000X0*%
%TD*%
%TA.AperFunction,ViaPad*%
%ADD27C,1.100000*%
%TD*%
%TA.AperFunction,ViaPad*%
%ADD28C,0.900000*%
%TD*%
%TA.AperFunction,ViaPad*%
%ADD29C,0.700000*%
%TD*%
%TA.AperFunction,Conductor*%
%ADD30C,0.500000*%
%TD*%
%TA.AperFunction,Conductor*%
%ADD31C,0.300000*%
%TD*%
%TA.AperFunction,Conductor*%
%ADD32C,0.600000*%
%TD*%
%TA.AperFunction,Conductor*%
%ADD33C,0.800000*%
%TD*%
%TA.AperFunction,Conductor*%
%ADD34C,0.700000*%
%TD*%
G04 APERTURE END LIST*
D10*
%TO.P,TP5,1,1*%
%TO.N,Net-(CON1-Pad5)*%
X148944284Y-120560000D03*
%TD*%
D11*
%TO.P,U3,1,GND*%
%TO.N,GND*%
X162870000Y-92550000D03*
%TO.P,U3,2,VO*%
%TO.N,/VDD_3.3V*%
X164770000Y-92550000D03*
%TO.P,U3,3,VI*%
%TO.N,/VDD_5V*%
X163820000Y-90280000D03*
%TD*%
D12*
%TO.P,C1,1,1*%
%TO.N,GND*%
X180475000Y-120264000D03*
%TO.P,C1,2,2*%
%TO.N,/VDD_3.3V*%
X182025000Y-120264000D03*
%TD*%
D13*
%TO.P,R2,1*%
%TO.N,/DC*%
X142360000Y-105505000D03*
%TO.P,R2,2*%
%TO.N,/VDD_3.3V*%
X142360000Y-103855000D03*
%TD*%
D14*
%TO.P,U1,1,Vin*%
%TO.N,/VDD_5V*%
X180020000Y-116484000D03*
%TO.P,U1,2,Vss*%
%TO.N,GND*%
X180020000Y-117434000D03*
%TO.P,U1,3,CE*%
%TO.N,/VDD_5V*%
X180020000Y-118384000D03*
%TO.P,U1,4,NC*%
%TO.N,unconnected-(U1-Pad4)*%
X182620000Y-118384000D03*
%TO.P,U1,5,Vout*%
%TO.N,/VDD_3.3V*%
X182620000Y-116484000D03*
%TD*%
D13*
%TO.P,R3,1*%
%TO.N,/SCK*%
X144690000Y-105505000D03*
%TO.P,R3,2*%
%TO.N,/VDD_3.3V*%
X144690000Y-103855000D03*
%TD*%
D12*
%TO.P,C6,1*%
%TO.N,/VDD_3.3V*%
X138775000Y-94624500D03*
%TO.P,C6,2*%
%TO.N,GND*%
X140325000Y-94624500D03*
%TD*%
D10*
%TO.P,TP7,1,1*%
%TO.N,Net-(CON1-Pad7)*%
X155621426Y-120560000D03*
%TD*%
D15*
%TO.P,D2,1,K*%
%TO.N,Net-(CON1-Pad4)*%
X142380000Y-111807000D03*
%TO.P,D2,2,A*%
%TO.N,/DC*%
X142380000Y-108407000D03*
%TD*%
D10*
%TO.P,TP4,1,1*%
%TO.N,Net-(CON1-Pad4)*%
X145605713Y-120560000D03*
%TD*%
D16*
%TO.P,R7,1*%
%TO.N,/VDD_3.3V*%
X138785000Y-91900000D03*
%TO.P,R7,2*%
%TO.N,Net-(Q1-Pad2)*%
X140435000Y-91900000D03*
%TD*%
D15*
%TO.P,D5,1,K*%
%TO.N,Net-(CON1-Pad7)*%
X149680000Y-111727000D03*
%TO.P,D5,2,A*%
%TO.N,/RES*%
X149680000Y-108327000D03*
%TD*%
D13*
%TO.P,R4,1*%
%TO.N,/MOSI*%
X147090000Y-105505000D03*
%TO.P,R4,2*%
%TO.N,/VDD_3.3V*%
X147090000Y-103855000D03*
%TD*%
D17*
%TO.P,U4,1,GND*%
%TO.N,GND*%
X181610000Y-101140000D03*
%TO.P,U4,2,RESET*%
%TO.N,/RES*%
X181610000Y-102140000D03*
%TO.P,U4,3,SCK*%
%TO.N,/SCK*%
X181610000Y-103140000D03*
%TO.P,U4,4,D/C*%
%TO.N,/DC*%
X181610000Y-104140000D03*
%TO.P,U4,5,CS*%
%TO.N,/CS*%
X181610000Y-105140000D03*
%TO.P,U4,6,MOSI*%
%TO.N,/MOSI*%
X181610000Y-106140000D03*
%TO.P,U4,7,MISO*%
%TO.N,/MISO*%
X181610000Y-107140000D03*
%TO.P,U4,8,VCC*%
%TO.N,/VDD_3.3V*%
X181610000Y-108140000D03*
%TO.P,U4,9,LEDA*%
X181610000Y-109140000D03*
%TO.P,U4,10,LEDK*%
%TO.N,Net-(R8-Pad2)*%
X181610000Y-110140000D03*
%TD*%
D10*
%TO.P,TP8,1,1*%
%TO.N,/BL*%
X158960000Y-120560000D03*
%TD*%
D18*
%TO.P,J1,1,Pin_1*%
%TO.N,/VDD_5V*%
X138355000Y-128310000D03*
D19*
%TO.P,J1,2,Pin_2*%
%TO.N,Net-(CON1-Pad2)*%
X140895000Y-128310000D03*
%TO.P,J1,3,Pin_3*%
%TO.N,GND*%
X143435000Y-128310000D03*
%TO.P,J1,4,Pin_4*%
%TO.N,Net-(CON1-Pad4)*%
X145975000Y-128310000D03*
%TO.P,J1,5,Pin_5*%
%TO.N,Net-(CON1-Pad5)*%
X148515000Y-128310000D03*
%TO.P,J1,6,Pin_6*%
%TO.N,Net-(CON1-Pad6)*%
X151055000Y-128310000D03*
%TO.P,J1,7,Pin_7*%
%TO.N,Net-(CON1-Pad7)*%
X153595000Y-128310000D03*
%TO.P,J1,8,Pin_8*%
%TO.N,/BL*%
X156135000Y-128310000D03*
%TD*%
D11*
%TO.P,Q1,1,E*%
%TO.N,GND*%
X142625000Y-94180500D03*
%TO.P,Q1,2,B*%
%TO.N,Net-(Q1-Pad2)*%
X144525000Y-94180500D03*
%TO.P,Q1,3,C*%
%TO.N,Net-(Q1-Pad3)*%
X143575000Y-91910500D03*
%TD*%
D20*
%TO.P,C4,1*%
%TO.N,GND*%
X160620000Y-92580500D03*
%TO.P,C4,2*%
%TO.N,/VDD_5V*%
X160620000Y-91030500D03*
%TD*%
D15*
%TO.P,D1,1,K*%
%TO.N,Net-(CON1-Pad2)*%
X140080000Y-111857000D03*
%TO.P,D1,2,A*%
%TO.N,/CS*%
X140080000Y-108457000D03*
%TD*%
D20*
%TO.P,C7,1*%
%TO.N,GND*%
X164800000Y-95865500D03*
%TO.P,C7,2*%
%TO.N,/VDD_3.3V*%
X164800000Y-94315500D03*
%TD*%
D10*
%TO.P,TP2,1,1*%
%TO.N,Net-(CON1-Pad2)*%
X138928571Y-120520000D03*
%TD*%
%TO.P,TP3,1,1*%
%TO.N,GND*%
X142267142Y-120560000D03*
%TD*%
D20*
%TO.P,C2,1*%
%TO.N,/VDD_5V*%
X185480000Y-91875000D03*
%TO.P,C2,2*%
%TO.N,GND*%
X185480000Y-90325000D03*
%TD*%
D16*
%TO.P,R8,1*%
%TO.N,Net-(Q1-Pad3)*%
X146655000Y-91885500D03*
%TO.P,R8,2*%
%TO.N,Net-(R8-Pad2)*%
X148305000Y-91885500D03*
%TD*%
D10*
%TO.P,TP6,1,1*%
%TO.N,Net-(CON1-Pad6)*%
X152282855Y-120560000D03*
%TD*%
D21*
%TO.P,CON1,1,1*%
%TO.N,/VDD_5V*%
X161060000Y-104661500D03*
%TO.P,CON1,2,2*%
%TO.N,Net-(CON1-Pad2)*%
X161560000Y-104661500D03*
%TO.P,CON1,3,3*%
%TO.N,GND*%
X162060000Y-104661500D03*
%TO.P,CON1,4,4*%
%TO.N,Net-(CON1-Pad4)*%
X162560000Y-104661500D03*
%TO.P,CON1,5,5*%
%TO.N,Net-(CON1-Pad5)*%
X163060000Y-104661500D03*
%TO.P,CON1,6,6*%
%TO.N,Net-(CON1-Pad6)*%
X163560000Y-104661500D03*
%TO.P,CON1,7,7*%
%TO.N,Net-(CON1-Pad7)*%
X164060000Y-104661500D03*
%TO.P,CON1,8,8*%
%TO.N,/BL*%
X164560000Y-104661500D03*
D22*
%TO.P,CON1,9*%
%TO.N,N/C*%
X166260000Y-107261500D03*
%TO.P,CON1,10*%
X159360000Y-107261500D03*
%TD*%
D10*
%TO.P,TP1,1,1*%
%TO.N,/VDD_5V*%
X135590000Y-120570000D03*
%TD*%
D23*
%TO.P,R6,1*%
%TO.N,/BL*%
X148325000Y-94680000D03*
%TO.P,R6,2*%
%TO.N,Net-(Q1-Pad2)*%
X146675000Y-94680000D03*
%TD*%
D15*
%TO.P,D4,1,K*%
%TO.N,Net-(CON1-Pad6)*%
X147095000Y-111742000D03*
%TO.P,D4,2,A*%
%TO.N,/MOSI*%
X147095000Y-108342000D03*
%TD*%
D20*
%TO.P,C5,1*%
%TO.N,GND*%
X162870000Y-95850500D03*
%TO.P,C5,2*%
%TO.N,/VDD_5V*%
X162870000Y-94300500D03*
%TD*%
D13*
%TO.P,R1,1*%
%TO.N,/CS*%
X140060000Y-105525000D03*
%TO.P,R1,2*%
%TO.N,/VDD_3.3V*%
X140060000Y-103875000D03*
%TD*%
%TO.P,R5,1*%
%TO.N,/RES*%
X149700000Y-105505000D03*
%TO.P,R5,2*%
%TO.N,/VDD_3.3V*%
X149700000Y-103855000D03*
%TD*%
D24*
%TO.P,U2,1,GND*%
%TO.N,GND*%
X182913000Y-94910000D03*
%TO.P,U2,2,Vout*%
%TO.N,/VDD_3.3V*%
X182913000Y-92610000D03*
%TO.P,U2,3,Vin*%
%TO.N,/VDD_5V*%
X182913000Y-90310000D03*
D25*
%TO.P,U2,4,Vout*%
%TO.N,/VDD_3.3V*%
X177187000Y-92610000D03*
%TD*%
D15*
%TO.P,D3,1,K*%
%TO.N,Net-(CON1-Pad5)*%
X144700000Y-111757000D03*
%TO.P,D3,2,A*%
%TO.N,/SCK*%
X144700000Y-108357000D03*
%TD*%
D26*
%TO.P,C3,1*%
%TO.N,/VDD_3.3V*%
X185490000Y-93370000D03*
%TO.P,C3,2*%
%TO.N,GND*%
X185490000Y-94920000D03*
%TD*%
D27*
%TO.N,GND*%
X162860000Y-98480000D03*
X161080000Y-101960000D03*
D28*
%TO.N,/VDD_3.3V*%
X167930000Y-94320000D03*
D27*
X173220000Y-108640000D03*
D28*
X151620000Y-102770000D03*
X183380000Y-115290000D03*
D27*
%TO.N,/VDD_5V*%
X171430000Y-124360000D03*
X138328571Y-124351429D03*
X159080000Y-102850000D03*
X159090000Y-94320000D03*
D29*
%TO.N,/DC*%
X172020000Y-104130000D03*
X143530000Y-106380000D03*
%TO.N,/SCK*%
X145880000Y-105750000D03*
X172000000Y-103110000D03*
%TO.N,/MOSI*%
X145860000Y-107720000D03*
X172060000Y-106090000D03*
%TO.N,/CS*%
X141160000Y-107040000D03*
X172060000Y-105110000D03*
%TO.N,/RES*%
X151580000Y-104210000D03*
X171980000Y-102140000D03*
%TD*%
D30*
%TO.N,/VDD_3.3V*%
X173720000Y-108140000D02*
X181610000Y-108140000D01*
X173220000Y-108640000D02*
X173720000Y-108140000D01*
X173700000Y-109120000D02*
X181590000Y-109120000D01*
X173220000Y-108640000D02*
X173700000Y-109120000D01*
X181590000Y-109120000D02*
X181610000Y-109140000D01*
D31*
%TO.N,Net-(R8-Pad2)*%
X149419500Y-93000000D02*
X148305000Y-91885500D01*
X155220000Y-93000000D02*
X149419500Y-93000000D01*
X172360000Y-110140000D02*
X155220000Y-93000000D01*
X181610000Y-110140000D02*
X172360000Y-110140000D01*
%TO.N,/MOSI*%
X172110000Y-106140000D02*
X172060000Y-106090000D01*
X181610000Y-106140000D02*
X172110000Y-106140000D01*
%TO.N,/CS*%
X172090000Y-105140000D02*
X172060000Y-105110000D01*
X181610000Y-105140000D02*
X172090000Y-105140000D01*
%TO.N,/DC*%
X172030000Y-104140000D02*
X172020000Y-104130000D01*
X181610000Y-104140000D02*
X172030000Y-104140000D01*
%TO.N,/SCK*%
X181610000Y-103140000D02*
X172030000Y-103140000D01*
%TO.N,/RES*%
X181610000Y-102140000D02*
X171980000Y-102140000D01*
%TO.N,/SCK*%
X172030000Y-103140000D02*
X172000000Y-103110000D01*
D30*
%TO.N,GND*%
X162870000Y-92550000D02*
X160650500Y-92550000D01*
D32*
X143480000Y-124390000D02*
X143480000Y-128265000D01*
D33*
X142205500Y-94600000D02*
X140349500Y-94600000D01*
X142625000Y-94180500D02*
X142205500Y-94600000D01*
X140349500Y-94600000D02*
X140325000Y-94624500D01*
D32*
X142267142Y-123177142D02*
X143480000Y-124390000D01*
X142267142Y-120560000D02*
X142267142Y-123177142D01*
D30*
X163900000Y-94965500D02*
X164800000Y-95865500D01*
X163900000Y-93580000D02*
X163900000Y-94965500D01*
X160650500Y-92550000D02*
X160620000Y-92580500D01*
X162060000Y-102940000D02*
X162060000Y-104661500D01*
D32*
X143480000Y-128265000D02*
X143435000Y-128310000D01*
D30*
X162860000Y-95860500D02*
X162870000Y-95850500D01*
X162870000Y-92550000D02*
X163900000Y-93580000D01*
X162860000Y-98480000D02*
X162860000Y-95860500D01*
X161080000Y-101960000D02*
X162060000Y-102940000D01*
%TO.N,/VDD_3.3V*%
X150220000Y-102770000D02*
X149700000Y-103290000D01*
X183374000Y-115756000D02*
X183374000Y-116484000D01*
X183374000Y-116484000D02*
X183820000Y-116930000D01*
D33*
X138740000Y-91945000D02*
X138785000Y-91900000D01*
D34*
X182913000Y-92610000D02*
X177187000Y-92610000D01*
X184370000Y-93760000D02*
X184790000Y-93340000D01*
X185460000Y-93340000D02*
X185490000Y-93370000D01*
D30*
X169640000Y-92610000D02*
X177187000Y-92610000D01*
D33*
X140060000Y-97660000D02*
X138740000Y-96340000D01*
D34*
X182940000Y-93760000D02*
X184370000Y-93760000D01*
D30*
X164800000Y-94315500D02*
X167925500Y-94315500D01*
X183380000Y-115290000D02*
X183380000Y-115750000D01*
D34*
X182913000Y-93733000D02*
X182940000Y-93760000D01*
X164800000Y-94315500D02*
X164800000Y-92580000D01*
D30*
X182620000Y-116484000D02*
X183374000Y-116484000D01*
X183820000Y-119860000D02*
X183416000Y-120264000D01*
D34*
X182913000Y-92610000D02*
X182913000Y-93733000D01*
D30*
X149700000Y-103290000D02*
X149700000Y-103855000D01*
D32*
X140060000Y-103875000D02*
X149680000Y-103875000D01*
D34*
X164800000Y-92580000D02*
X164770000Y-92550000D01*
D33*
X140060000Y-103875000D02*
X140060000Y-97660000D01*
D32*
X149680000Y-103875000D02*
X149700000Y-103855000D01*
D30*
X183820000Y-116930000D02*
X183820000Y-119860000D01*
X167930000Y-94320000D02*
X169640000Y-92610000D01*
X167925500Y-94315500D02*
X167930000Y-94320000D01*
D33*
X138740000Y-96340000D02*
X138740000Y-91945000D01*
D30*
X151620000Y-102770000D02*
X150220000Y-102770000D01*
D34*
X184790000Y-93340000D02*
X185460000Y-93340000D01*
D30*
X183416000Y-120264000D02*
X182025000Y-120264000D01*
X183380000Y-115750000D02*
X183374000Y-115756000D01*
D34*
%TO.N,/VDD_5V*%
X184805000Y-91875000D02*
X185480000Y-91875000D01*
X159090000Y-94320000D02*
X159090000Y-89340000D01*
X179070000Y-117760000D02*
X179070000Y-116710000D01*
X138328571Y-128283571D02*
X138355000Y-128310000D01*
X182913000Y-89133000D02*
X182913000Y-90310000D01*
X135590000Y-123250000D02*
X136691429Y-124351429D01*
X183240000Y-90310000D02*
X184805000Y-91875000D01*
X179270000Y-118384000D02*
X179070000Y-118184000D01*
X162870000Y-94300500D02*
X159109500Y-94300500D01*
X138328571Y-124351429D02*
X138328571Y-128283571D01*
X179296000Y-116484000D02*
X180020000Y-116484000D01*
X161340500Y-90310000D02*
X163790000Y-90310000D01*
X160891500Y-104661500D02*
X160960000Y-104661500D01*
X159109500Y-94300500D02*
X159090000Y-94320000D01*
X178030000Y-117760000D02*
X179070000Y-117760000D01*
X135590000Y-120570000D02*
X135590000Y-123250000D01*
X135590000Y-89320000D02*
X136840000Y-88070000D01*
X182913000Y-90310000D02*
X183240000Y-90310000D01*
X159090000Y-91700000D02*
X159759500Y-91030500D01*
X180020000Y-118384000D02*
X179270000Y-118384000D01*
X159759500Y-91030500D02*
X160620000Y-91030500D01*
X157820000Y-88070000D02*
X159090000Y-89340000D01*
X160330000Y-88100000D02*
X181880000Y-88100000D01*
X179070000Y-116710000D02*
X179296000Y-116484000D01*
X163790000Y-90310000D02*
X163820000Y-90280000D01*
X159090000Y-94320000D02*
X159090000Y-91700000D01*
X136691429Y-124351429D02*
X138328571Y-124351429D01*
X160620000Y-91030500D02*
X161340500Y-90310000D01*
X181880000Y-88100000D02*
X182913000Y-89133000D01*
X179070000Y-118184000D02*
X179070000Y-117760000D01*
X159080000Y-102850000D02*
X160891500Y-104661500D01*
X135590000Y-120570000D02*
X135590000Y-89320000D01*
X171430000Y-124360000D02*
X178030000Y-117760000D01*
X136840000Y-88070000D02*
X157820000Y-88070000D01*
X159090000Y-89340000D02*
X160330000Y-88100000D01*
D31*
%TO.N,Net-(CON1-Pad2)*%
X143152000Y-109210000D02*
X140505000Y-111857000D01*
X138928571Y-120520000D02*
X138928571Y-123148571D01*
X161560000Y-104661500D02*
X161560000Y-108700000D01*
X140980000Y-125200000D02*
X140980000Y-128225000D01*
X140080000Y-111857000D02*
X140080000Y-116270000D01*
X138928571Y-117421429D02*
X138928571Y-120520000D01*
X161050000Y-109210000D02*
X143152000Y-109210000D01*
X140080000Y-116270000D02*
X138928571Y-117421429D01*
X161560000Y-108700000D02*
X161050000Y-109210000D01*
X138928571Y-123148571D02*
X140980000Y-125200000D01*
X140980000Y-128225000D02*
X140895000Y-128310000D01*
X140505000Y-111857000D02*
X140080000Y-111857000D01*
%TO.N,Net-(CON1-Pad4)*%
X145990000Y-120944287D02*
X145990000Y-128295000D01*
X145605713Y-119445713D02*
X145605713Y-120560000D01*
X142380000Y-116220000D02*
X145605713Y-119445713D01*
X145990000Y-128295000D02*
X145975000Y-128310000D01*
X144427000Y-109760000D02*
X142380000Y-111807000D01*
X162560000Y-104661500D02*
X162560000Y-108414314D01*
X161214314Y-109760000D02*
X144427000Y-109760000D01*
X142380000Y-111807000D02*
X142380000Y-116220000D01*
X145605713Y-120560000D02*
X145990000Y-120944287D01*
X162560000Y-108414314D02*
X161214314Y-109760000D01*
%TO.N,Net-(CON1-Pad5)*%
X144700000Y-115400000D02*
X148944284Y-119644284D01*
X163060000Y-108620000D02*
X161350000Y-110330000D01*
X148550000Y-120954284D02*
X148550000Y-128275000D01*
X163060000Y-104661500D02*
X163060000Y-108620000D01*
X144700000Y-111757000D02*
X144700000Y-115400000D01*
X148550000Y-128275000D02*
X148515000Y-128310000D01*
X161350000Y-110330000D02*
X146127000Y-110330000D01*
X146127000Y-110330000D02*
X144700000Y-111757000D01*
X148944284Y-120560000D02*
X148550000Y-120954284D01*
X148944284Y-119644284D02*
X148944284Y-120560000D01*
%TO.N,Net-(CON1-Pad6)*%
X147967000Y-110870000D02*
X147095000Y-111742000D01*
X152282855Y-120132855D02*
X152282855Y-120560000D01*
X147060000Y-111777000D02*
X147060000Y-114910000D01*
X161540000Y-110870000D02*
X147967000Y-110870000D01*
X152282855Y-123217145D02*
X151040000Y-124460000D01*
X163560000Y-108850000D02*
X161540000Y-110870000D01*
X152282855Y-120560000D02*
X152282855Y-123217145D01*
X151040000Y-128295000D02*
X151055000Y-128310000D01*
X147095000Y-111742000D02*
X147060000Y-111777000D01*
X151040000Y-124460000D02*
X151040000Y-128295000D01*
X163560000Y-104661500D02*
X163560000Y-108850000D01*
X147060000Y-114910000D02*
X152282855Y-120132855D01*
%TO.N,Net-(CON1-Pad7)*%
X149997000Y-111410000D02*
X149680000Y-111727000D01*
X153580000Y-125210000D02*
X153580000Y-128295000D01*
X153580000Y-128295000D02*
X153595000Y-128310000D01*
X155621426Y-123168574D02*
X153580000Y-125210000D01*
X149680000Y-111727000D02*
X149680000Y-114618574D01*
X149680000Y-114618574D02*
X155621426Y-120560000D01*
X155621426Y-120560000D02*
X155621426Y-123168574D01*
X161760000Y-111410000D02*
X149997000Y-111410000D01*
X164060000Y-104661500D02*
X164060000Y-109110000D01*
X164060000Y-109110000D02*
X161760000Y-111410000D01*
D30*
%TO.N,/BL*%
X158960000Y-120560000D02*
X158960000Y-123290000D01*
X154910000Y-93780000D02*
X149225000Y-93780000D01*
X158960000Y-123290000D02*
X156135000Y-126115000D01*
X159010000Y-120610000D02*
X161370000Y-120610000D01*
X164560000Y-104661500D02*
X164560000Y-103430000D01*
X149225000Y-93780000D02*
X148325000Y-94680000D01*
X164560000Y-117420000D02*
X164560000Y-104661500D01*
X156135000Y-126115000D02*
X156135000Y-128310000D01*
X158960000Y-120560000D02*
X159010000Y-120610000D01*
X164560000Y-103430000D02*
X154910000Y-93780000D01*
X161370000Y-120610000D02*
X164560000Y-117420000D01*
D32*
%TO.N,/DC*%
X142360000Y-105505000D02*
X142360000Y-108387000D01*
X143530000Y-105800000D02*
X143530000Y-106380000D01*
X142360000Y-105505000D02*
X143235000Y-105505000D01*
X143235000Y-105505000D02*
X143530000Y-105800000D01*
X142360000Y-108387000D02*
X142380000Y-108407000D01*
%TO.N,/SCK*%
X145635000Y-105505000D02*
X145880000Y-105750000D01*
X144690000Y-105505000D02*
X145635000Y-105505000D01*
X144690000Y-105505000D02*
X144690000Y-108347000D01*
X144690000Y-108347000D02*
X144700000Y-108357000D01*
%TO.N,/MOSI*%
X147090000Y-105505000D02*
X147090000Y-108337000D01*
X145860000Y-108260000D02*
X145860000Y-107720000D01*
X146997000Y-108440000D02*
X146040000Y-108440000D01*
X147090000Y-108337000D02*
X147095000Y-108342000D01*
X147095000Y-108342000D02*
X146997000Y-108440000D01*
X146040000Y-108440000D02*
X145860000Y-108260000D01*
%TO.N,/CS*%
X140060000Y-108437000D02*
X140080000Y-108457000D01*
X140775000Y-105525000D02*
X141170000Y-105920000D01*
X140060000Y-105525000D02*
X140060000Y-108437000D01*
X140060000Y-105525000D02*
X140775000Y-105525000D01*
X141170000Y-105920000D02*
X141170000Y-107030000D01*
X141170000Y-107030000D02*
X141160000Y-107040000D01*
D30*
%TO.N,Net-(Q1-Pad2)*%
X146675000Y-94680000D02*
X146185000Y-94190000D01*
D32*
X140435000Y-91900000D02*
X141110000Y-91900000D01*
D30*
X144534500Y-94190000D02*
X144525000Y-94180500D01*
X146185000Y-94190000D02*
X144534500Y-94190000D01*
D32*
X143590000Y-93245500D02*
X144525000Y-94180500D01*
X141110000Y-91900000D02*
X142455500Y-93245500D01*
X142455500Y-93245500D02*
X143590000Y-93245500D01*
%TO.N,Net-(Q1-Pad3)*%
X146655000Y-91885500D02*
X143600000Y-91885500D01*
X143600000Y-91885500D02*
X143575000Y-91910500D01*
%TO.N,/RES*%
X151580000Y-105080000D02*
X151580000Y-104210000D01*
X151155000Y-105505000D02*
X151580000Y-105080000D01*
X149700000Y-105505000D02*
X149700000Y-108307000D01*
X149700000Y-105505000D02*
X151155000Y-105505000D01*
X149700000Y-108307000D02*
X149680000Y-108327000D01*
%TD*%
%TA.AperFunction,Conductor*%
%TO.N,GND*%
G36*
X132494676Y-81878502D02*
G01*
X132541169Y-81932158D01*
X132551273Y-82002432D01*
X132525505Y-82062506D01*
X132404238Y-82216333D01*
X132401549Y-82221444D01*
X132401547Y-82221447D01*
X132376988Y-82268126D01*
X132305100Y-82404762D01*
X132303386Y-82410283D01*
X132303384Y-82410287D01*
X132250494Y-82580623D01*
X132241961Y-82608102D01*
X132216936Y-82819544D01*
X132218932Y-82850000D01*
X132230861Y-83032006D01*
X132232283Y-83037604D01*
X132232283Y-83037606D01*
X132281851Y-83232777D01*
X132283272Y-83238372D01*
X132285689Y-83243615D01*
X132322389Y-83323223D01*
X132372411Y-83431731D01*
X132495296Y-83605609D01*
X132647809Y-83754181D01*
X132652605Y-83757386D01*
X132652608Y-83757388D01*
X132729612Y-83808840D01*
X132824843Y-83872471D01*
X132830146Y-83874749D01*
X132830149Y-83874751D01*
X132912324Y-83910056D01*
X133020470Y-83956519D01*
X133096316Y-83973681D01*
X133222501Y-84002234D01*
X133222506Y-84002235D01*
X133228138Y-84003509D01*
X133233909Y-84003736D01*
X133233911Y-84003736D01*
X133295252Y-84006146D01*
X133440891Y-84011869D01*
X133446600Y-84011041D01*
X133446604Y-84011041D01*
X133645890Y-83982145D01*
X133645894Y-83982144D01*
X133651605Y-83981316D01*
X133853223Y-83912876D01*
X134038993Y-83808840D01*
X134202693Y-83672693D01*
X134338840Y-83508993D01*
X134442876Y-83323223D01*
X134511316Y-83121605D01*
X134515377Y-83093603D01*
X134541337Y-82914561D01*
X134541337Y-82914559D01*
X134541869Y-82910891D01*
X134543463Y-82850000D01*
X134530461Y-82708500D01*
X134524510Y-82643730D01*
X134524509Y-82643727D01*
X134523981Y-82637976D01*
X134470749Y-82449231D01*
X134467754Y-82438611D01*
X134467753Y-82438609D01*
X134466186Y-82433052D01*
X134372015Y-82242092D01*
X134286014Y-82126922D01*
X134248079Y-82076120D01*
X134248077Y-82076118D01*
X134244622Y-82071491D01*
X134241319Y-82068438D01*
X134210780Y-82004806D01*
X134219542Y-81934352D01*
X134265004Y-81879820D01*
X134335133Y-81858500D01*
X160556555Y-81858500D01*
X160624676Y-81878502D01*
X160671169Y-81932158D01*
X160681273Y-82002432D01*
X160655505Y-82062506D01*
X160534238Y-82216333D01*
X160531549Y-82221444D01*
X160531547Y-82221447D01*
X160506988Y-82268126D01*
X160435100Y-82404762D01*
X160433386Y-82410283D01*
X160433384Y-82410287D01*
X160380494Y-82580623D01*
X160371961Y-82608102D01*
X160346936Y-82819544D01*
X160348932Y-82850000D01*
X160360861Y-83032006D01*
X160362283Y-83037604D01*
X160362283Y-83037606D01*
X160411851Y-83232777D01*
X160413272Y-83238372D01*
X160415689Y-83243615D01*
X160452389Y-83323223D01*
X160502411Y-83431731D01*
X160625296Y-83605609D01*
X160777809Y-83754181D01*
X160782605Y-83757386D01*
X160782608Y-83757388D01*
X160859612Y-83808840D01*
X160954843Y-83872471D01*
X160960146Y-83874749D01*
X160960149Y-83874751D01*
X161042324Y-83910056D01*
X161150470Y-83956519D01*
X161226316Y-83973681D01*
X161352501Y-84002234D01*
X161352506Y-84002235D01*
X161358138Y-84003509D01*
X161363909Y-84003736D01*
X161363911Y-84003736D01*
X161425252Y-84006146D01*
X161570891Y-84011869D01*
X161576600Y-84011041D01*
X161576604Y-84011041D01*
X161775890Y-83982145D01*
X161775894Y-83982144D01*
X161781605Y-83981316D01*
X161983223Y-83912876D01*
X162168993Y-83808840D01*
X162332693Y-83672693D01*
X162468840Y-83508993D01*
X162572876Y-83323223D01*
X162641316Y-83121605D01*
X162645377Y-83093603D01*
X162671337Y-82914561D01*
X162671337Y-82914559D01*
X162671869Y-82910891D01*
X162673463Y-82850000D01*
X162660461Y-82708500D01*
X162654510Y-82643730D01*
X162654509Y-82643727D01*
X162653981Y-82637976D01*
X162600749Y-82449231D01*
X162597754Y-82438611D01*
X162597753Y-82438609D01*
X162596186Y-82433052D01*
X162502015Y-82242092D01*
X162416014Y-82126922D01*
X162378079Y-82076120D01*
X162378077Y-82076118D01*
X162374622Y-82071491D01*
X162371319Y-82068438D01*
X162340780Y-82004806D01*
X162349542Y-81934352D01*
X162395004Y-81879820D01*
X162465133Y-81858500D01*
X189686555Y-81858500D01*
X189754676Y-81878502D01*
X189801169Y-81932158D01*
X189811273Y-82002432D01*
X189785505Y-82062506D01*
X189664238Y-82216333D01*
X189661549Y-82221444D01*
X189661547Y-82221447D01*
X189636988Y-82268126D01*
X189565100Y-82404762D01*
X189563386Y-82410283D01*
X189563384Y-82410287D01*
X189510494Y-82580623D01*
X189501961Y-82608102D01*
X189476936Y-82819544D01*
X189478932Y-82850000D01*
X189490861Y-83032006D01*
X189492283Y-83037604D01*
X189492283Y-83037606D01*
X189541851Y-83232777D01*
X189543272Y-83238372D01*
X189545689Y-83243615D01*
X189582389Y-83323223D01*
X189632411Y-83431731D01*
X189755296Y-83605609D01*
X189907809Y-83754181D01*
X189912605Y-83757386D01*
X189912608Y-83757388D01*
X189989612Y-83808840D01*
X190084843Y-83872471D01*
X190090146Y-83874749D01*
X190090149Y-83874751D01*
X190172324Y-83910056D01*
X190280470Y-83956519D01*
X190356316Y-83973681D01*
X190482501Y-84002234D01*
X190482506Y-84002235D01*
X190488138Y-84003509D01*
X190493909Y-84003736D01*
X190493911Y-84003736D01*
X190555252Y-84006146D01*
X190700891Y-84011869D01*
X190706600Y-84011041D01*
X190706604Y-84011041D01*
X190905890Y-83982145D01*
X190905894Y-83982144D01*
X190911605Y-83981316D01*
X191113223Y-83912876D01*
X191298993Y-83808840D01*
X191462693Y-83672693D01*
X191598840Y-83508993D01*
X191702876Y-83323223D01*
X191771316Y-83121605D01*
X191775377Y-83093603D01*
X191801337Y-82914561D01*
X191801337Y-82914559D01*
X191801869Y-82910891D01*
X191803463Y-82850000D01*
X191790461Y-82708500D01*
X191784510Y-82643730D01*
X191784509Y-82643727D01*
X191783981Y-82637976D01*
X191730749Y-82449231D01*
X191727754Y-82438611D01*
X191727753Y-82438609D01*
X191726186Y-82433052D01*
X191632015Y-82242092D01*
X191546014Y-82126922D01*
X191508079Y-82076120D01*
X191508077Y-82076118D01*
X191504622Y-82071491D01*
X191501319Y-82068438D01*
X191470780Y-82004806D01*
X191479542Y-81934352D01*
X191525004Y-81879820D01*
X191595133Y-81858500D01*
X192590633Y-81858500D01*
X192610018Y-81860000D01*
X192624852Y-81862310D01*
X192624855Y-81862310D01*
X192633724Y-81863691D01*
X192642627Y-81862527D01*
X192642628Y-81862527D01*
X192653076Y-81861161D01*
X192675594Y-81860249D01*
X192976051Y-81875010D01*
X192988345Y-81876221D01*
X193315034Y-81924680D01*
X193327156Y-81927090D01*
X193347387Y-81932158D01*
X193647523Y-82007339D01*
X193659355Y-82010928D01*
X193970311Y-82122190D01*
X193981735Y-82126922D01*
X194049500Y-82158972D01*
X194280292Y-82268128D01*
X194291188Y-82273953D01*
X194432101Y-82358412D01*
X194574467Y-82443744D01*
X194584748Y-82450614D01*
X194850017Y-82647350D01*
X194859556Y-82655177D01*
X195104282Y-82876985D01*
X195113015Y-82885718D01*
X195334823Y-83130444D01*
X195342650Y-83139983D01*
X195474494Y-83317755D01*
X195539386Y-83405252D01*
X195546256Y-83415533D01*
X195599257Y-83503959D01*
X195697733Y-83668255D01*
X195716045Y-83698807D01*
X195721874Y-83709712D01*
X195863078Y-84008265D01*
X195867810Y-84019689D01*
X195979072Y-84330645D01*
X195982661Y-84342477D01*
X196062909Y-84662841D01*
X196065320Y-84674966D01*
X196093029Y-84861760D01*
X196113779Y-85001650D01*
X196114990Y-85013949D01*
X196121370Y-85143787D01*
X196129390Y-85307034D01*
X196128042Y-85332598D01*
X196126309Y-85343724D01*
X196127474Y-85352630D01*
X196130436Y-85375283D01*
X196131500Y-85391621D01*
X196131500Y-86400717D01*
X196111498Y-86468838D01*
X196057842Y-86515331D01*
X195987568Y-86525435D01*
X195919972Y-86493242D01*
X195852517Y-86430888D01*
X195848271Y-86426963D01*
X195668201Y-86313347D01*
X195470441Y-86234449D01*
X195464781Y-86233323D01*
X195464777Y-86233322D01*
X195267282Y-86194038D01*
X195267280Y-86194038D01*
X195261615Y-86192911D01*
X195255840Y-86192835D01*
X195255836Y-86192835D01*
X195149161Y-86191439D01*
X195048716Y-86190124D01*
X195043019Y-86191103D01*
X195043018Y-86191103D01*
X194844564Y-86225203D01*
X194844561Y-86225204D01*
X194838874Y-86226181D01*
X194639116Y-86299875D01*
X194616472Y-86313347D01*
X194469618Y-86400717D01*
X194456134Y-86408739D01*
X194430878Y-86430888D01*
X194357577Y-86495171D01*
X194293173Y-86525048D01*
X194222840Y-86515362D01*
X194168909Y-86469189D01*
X194148500Y-86400439D01*
X194148500Y-86263250D01*
X194150246Y-86242345D01*
X194152770Y-86227344D01*
X194152770Y-86227341D01*
X194153576Y-86222552D01*
X194153729Y-86210000D01*
X194153039Y-86205182D01*
X194153036Y-86205135D01*
X194152162Y-86197256D01*
X194134923Y-85978223D01*
X194134535Y-85973289D01*
X194079105Y-85742406D01*
X193988240Y-85523037D01*
X193902683Y-85383421D01*
X193866759Y-85324798D01*
X193866755Y-85324792D01*
X193864176Y-85320584D01*
X193709969Y-85140031D01*
X193529416Y-84985824D01*
X193525208Y-84983245D01*
X193525202Y-84983241D01*
X193331183Y-84864346D01*
X193326963Y-84861760D01*
X193322393Y-84859867D01*
X193322389Y-84859865D01*
X193112167Y-84772789D01*
X193112165Y-84772788D01*
X193107594Y-84770895D01*
X193027391Y-84751640D01*
X192881524Y-84716620D01*
X192881518Y-84716619D01*
X192876711Y-84715465D01*
X192640000Y-84696835D01*
X192403289Y-84715465D01*
X192398482Y-84716619D01*
X192398476Y-84716620D01*
X192252609Y-84751640D01*
X192172406Y-84770895D01*
X192167835Y-84772788D01*
X192167833Y-84772789D01*
X191957611Y-84859865D01*
X191957607Y-84859867D01*
X191953037Y-84861760D01*
X191948817Y-84864346D01*
X191754798Y-84983241D01*
X191754792Y-84983245D01*
X191750584Y-84985824D01*
X191570031Y-85140031D01*
X191415824Y-85320584D01*
X191413245Y-85324792D01*
X191413241Y-85324798D01*
X191377317Y-85383421D01*
X191291760Y-85523037D01*
X191200895Y-85742406D01*
X191145465Y-85973289D01*
X191145077Y-85978223D01*
X191128746Y-86185720D01*
X191127785Y-86193921D01*
X191127821Y-86194011D01*
X191126309Y-86203724D01*
X191126946Y-86208593D01*
X191126835Y-86210000D01*
X191127130Y-86210000D01*
X191128380Y-86219560D01*
X191128380Y-86219562D01*
X191130436Y-86235283D01*
X191131500Y-86251620D01*
X191131500Y-125160633D01*
X191130000Y-125180018D01*
X191126309Y-125203724D01*
X191127130Y-125210000D01*
X191126835Y-125210000D01*
X191145465Y-125446711D01*
X191146619Y-125451518D01*
X191146620Y-125451524D01*
X191157818Y-125498167D01*
X191200895Y-125677594D01*
X191202788Y-125682165D01*
X191202789Y-125682167D01*
X191285195Y-125881113D01*
X191291760Y-125896963D01*
X191294346Y-125901183D01*
X191413241Y-126095202D01*
X191413245Y-126095208D01*
X191415824Y-126099416D01*
X191570031Y-126279969D01*
X191750584Y-126434176D01*
X191754792Y-126436755D01*
X191754798Y-126436759D01*
X191948817Y-126555654D01*
X191953037Y-126558240D01*
X191957607Y-126560133D01*
X191957611Y-126560135D01*
X192167833Y-126647211D01*
X192172406Y-126649105D01*
X192252609Y-126668360D01*
X192398476Y-126703380D01*
X192398482Y-126703381D01*
X192403289Y-126704535D01*
X192640000Y-126723165D01*
X192876711Y-126704535D01*
X192881518Y-126703381D01*
X192881524Y-126703380D01*
X193027391Y-126668360D01*
X193107594Y-126649105D01*
X193112167Y-126647211D01*
X193322389Y-126560135D01*
X193322393Y-126560133D01*
X193326963Y-126558240D01*
X193331183Y-126555654D01*
X193525202Y-126436759D01*
X193525208Y-126436755D01*
X193529416Y-126434176D01*
X193709969Y-126279969D01*
X193864176Y-126099416D01*
X193866755Y-126095208D01*
X193866759Y-126095202D01*
X193985654Y-125901183D01*
X193988240Y-125896963D01*
X193994806Y-125881113D01*
X194077211Y-125682167D01*
X194077212Y-125682165D01*
X194079105Y-125677594D01*
X194122182Y-125498167D01*
X194133380Y-125451524D01*
X194133381Y-125451518D01*
X194134535Y-125446711D01*
X194150512Y-125243704D01*
X194151871Y-125232684D01*
X194152768Y-125227356D01*
X194152768Y-125227351D01*
X194153576Y-125222552D01*
X194153729Y-125210000D01*
X194149773Y-125182376D01*
X194148500Y-125164514D01*
X194148500Y-125020221D01*
X194168502Y-124952100D01*
X194222158Y-124905607D01*
X194292432Y-124895503D01*
X194357012Y-124924997D01*
X194362422Y-124929967D01*
X194385142Y-124952100D01*
X194407809Y-124974181D01*
X194412605Y-124977386D01*
X194412608Y-124977388D01*
X194510499Y-125042796D01*
X194584843Y-125092471D01*
X194590146Y-125094749D01*
X194590149Y-125094751D01*
X194773413Y-125173487D01*
X194780470Y-125176519D01*
X194838457Y-125189640D01*
X194982501Y-125222234D01*
X194982506Y-125222235D01*
X194988138Y-125223509D01*
X194993909Y-125223736D01*
X194993911Y-125223736D01*
X195055252Y-125226146D01*
X195200891Y-125231869D01*
X195206600Y-125231041D01*
X195206604Y-125231041D01*
X195405890Y-125202145D01*
X195405894Y-125202144D01*
X195411605Y-125201316D01*
X195613223Y-125132876D01*
X195798993Y-125028840D01*
X195924931Y-124924099D01*
X195990095Y-124895918D01*
X196060150Y-124907442D01*
X196112854Y-124955011D01*
X196131500Y-125020973D01*
X196131500Y-126020633D01*
X196130000Y-126040018D01*
X196127756Y-126054432D01*
X196126309Y-126063724D01*
X196127473Y-126072627D01*
X196127473Y-126072628D01*
X196128839Y-126083076D01*
X196129751Y-126105594D01*
X196121185Y-126279969D01*
X196114991Y-126406045D01*
X196113779Y-126418345D01*
X196092747Y-126560135D01*
X196065321Y-126745031D01*
X196062909Y-126757159D01*
X195982661Y-127077523D01*
X195979072Y-127089355D01*
X195867810Y-127400311D01*
X195863078Y-127411735D01*
X195811932Y-127519875D01*
X195740650Y-127670590D01*
X195721874Y-127710288D01*
X195716047Y-127721188D01*
X195684600Y-127773655D01*
X195546256Y-128004467D01*
X195539386Y-128014748D01*
X195342650Y-128280017D01*
X195334823Y-128289556D01*
X195113445Y-128533808D01*
X195113020Y-128534277D01*
X195104282Y-128543015D01*
X194859556Y-128764823D01*
X194850017Y-128772650D01*
X194655517Y-128916901D01*
X194584748Y-128969386D01*
X194574467Y-128976256D01*
X194507306Y-129016511D01*
X194291188Y-129146047D01*
X194280292Y-129151872D01*
X194192300Y-129193489D01*
X193981735Y-129293078D01*
X193970311Y-129297810D01*
X193659355Y-129409072D01*
X193647523Y-129412661D01*
X193499733Y-129449681D01*
X193327156Y-129492910D01*
X193315034Y-129495320D01*
X192988345Y-129543779D01*
X192976051Y-129544990D01*
X192682961Y-129559390D01*
X192657402Y-129558042D01*
X192646276Y-129556309D01*
X192614714Y-129560436D01*
X192598379Y-129561500D01*
X191590973Y-129561500D01*
X191522852Y-129541498D01*
X191476359Y-129487842D01*
X191466255Y-129417568D01*
X191494099Y-129354931D01*
X191497225Y-129351173D01*
X191598840Y-129228993D01*
X191702876Y-129043223D01*
X191771316Y-128841605D01*
X191774076Y-128822575D01*
X191801337Y-128634561D01*
X191801337Y-128634559D01*
X191801869Y-128630891D01*
X191803463Y-128570000D01*
X191785996Y-128379908D01*
X191784510Y-128363730D01*
X191784509Y-128363727D01*
X191783981Y-128357976D01*
X191770450Y-128310000D01*
X191727754Y-128158611D01*
X191727753Y-128158609D01*
X191726186Y-128153052D01*
X191716846Y-128134111D01*
X191634570Y-127967273D01*
X191632015Y-127962092D01*
X191504622Y-127791491D01*
X191348271Y-127646963D01*
X191168201Y-127533347D01*
X190970441Y-127454449D01*
X190964781Y-127453323D01*
X190964777Y-127453322D01*
X190767282Y-127414038D01*
X190767280Y-127414038D01*
X190761615Y-127412911D01*
X190755840Y-127412835D01*
X190755836Y-127412835D01*
X190649161Y-127411439D01*
X190548716Y-127410124D01*
X190543019Y-127411103D01*
X190543018Y-127411103D01*
X190344564Y-127445203D01*
X190344561Y-127445204D01*
X190338874Y-127446181D01*
X190139116Y-127519875D01*
X189956134Y-127628739D01*
X189796054Y-127769125D01*
X189664238Y-127936333D01*
X189661549Y-127941444D01*
X189661547Y-127941447D01*
X189607085Y-128044961D01*
X189565100Y-128124762D01*
X189563386Y-128130283D01*
X189563384Y-128130287D01*
X189517923Y-128276695D01*
X189501961Y-128328102D01*
X189476936Y-128539544D01*
X189478932Y-128570000D01*
X189490861Y-128752006D01*
X189492283Y-128757604D01*
X189492283Y-128757606D01*
X189515006Y-128847075D01*
X189543272Y-128958372D01*
X189545689Y-128963615D01*
X189623291Y-129131947D01*
X189632411Y-129151731D01*
X189755296Y-129325609D01*
X189759430Y-129329636D01*
X189759435Y-129329642D01*
X189775453Y-129345246D01*
X189810291Y-129407107D01*
X189806154Y-129477983D01*
X189764355Y-129535371D01*
X189698165Y-129561051D01*
X189687532Y-129561500D01*
X162440607Y-129561500D01*
X162372486Y-129541498D01*
X162325993Y-129487842D01*
X162315889Y-129417568D01*
X162343733Y-129354931D01*
X162465159Y-129208931D01*
X162468850Y-129204493D01*
X162572886Y-129018723D01*
X162641326Y-128817105D01*
X162651602Y-128746239D01*
X162671347Y-128610061D01*
X162671347Y-128610059D01*
X162671879Y-128606391D01*
X162673473Y-128545500D01*
X162660471Y-128404000D01*
X162654520Y-128339230D01*
X162654519Y-128339227D01*
X162653991Y-128333476D01*
X162596196Y-128128552D01*
X162591804Y-128119644D01*
X162504580Y-127942773D01*
X162502025Y-127937592D01*
X162374632Y-127766991D01*
X162218281Y-127622463D01*
X162038211Y-127508847D01*
X161840451Y-127429949D01*
X161834791Y-127428823D01*
X161834787Y-127428822D01*
X161637292Y-127389538D01*
X161637290Y-127389538D01*
X161631625Y-127388411D01*
X161625850Y-127388335D01*
X161625846Y-127388335D01*
X161519171Y-127386939D01*
X161418726Y-127385624D01*
X161413029Y-127386603D01*
X161413028Y-127386603D01*
X161214574Y-127420703D01*
X161214571Y-127420704D01*
X161208884Y-127421681D01*
X161009126Y-127495375D01*
X160826144Y-127604239D01*
X160666064Y-127744625D01*
X160534248Y-127911833D01*
X160531559Y-127916944D01*
X160531557Y-127916947D01*
X160482719Y-128009773D01*
X160435110Y-128100262D01*
X160433396Y-128105783D01*
X160433394Y-128105787D01*
X160418718Y-128153052D01*
X160371971Y-128303602D01*
X160346946Y-128515044D01*
X160348942Y-128545500D01*
X160360871Y-128727506D01*
X160362293Y-128733104D01*
X160362293Y-128733106D01*
X160385016Y-128822575D01*
X160413282Y-128933872D01*
X160415699Y-128939115D01*
X160452399Y-129018723D01*
X160502421Y-129127231D01*
X160625306Y-129301109D01*
X160629440Y-129305136D01*
X160629445Y-129305142D01*
X160670613Y-129345246D01*
X160705451Y-129407107D01*
X160701314Y-129477983D01*
X160659515Y-129535371D01*
X160593325Y-129561051D01*
X160582692Y-129561500D01*
X157108741Y-129561500D01*
X157040620Y-129541498D01*
X156994127Y-129487842D01*
X156984023Y-129417568D01*
X157013517Y-129352988D01*
X157019801Y-129346249D01*
X157103884Y-129262460D01*
X157173096Y-129193489D01*
X157303453Y-129012077D01*
X157316995Y-128984678D01*
X157400136Y-128816453D01*
X157400137Y-128816451D01*
X157402430Y-128811811D01*
X157449030Y-128658433D01*
X157465865Y-128603023D01*
X157465865Y-128603021D01*
X157467370Y-128598069D01*
X157496529Y-128376590D01*
X157497442Y-128339230D01*
X157498074Y-128313365D01*
X157498074Y-128313361D01*
X157498156Y-128310000D01*
X157479852Y-128087361D01*
X157425431Y-127870702D01*
X157336354Y-127665840D01*
X157252632Y-127536426D01*
X157217822Y-127482617D01*
X157217820Y-127482614D01*
X157215014Y-127478277D01*
X157064670Y-127313051D01*
X157060615Y-127309848D01*
X156941407Y-127215703D01*
X156900345Y-127157785D01*
X156893500Y-127116821D01*
X156893500Y-126481371D01*
X156913502Y-126413250D01*
X156930405Y-126392276D01*
X158977531Y-124345150D01*
X170366482Y-124345150D01*
X170366998Y-124351294D01*
X170383115Y-124543223D01*
X170383852Y-124552004D01*
X170441069Y-124751545D01*
X170443887Y-124757027D01*
X170443888Y-124757031D01*
X170533135Y-124930686D01*
X170535955Y-124936173D01*
X170539786Y-124941007D01*
X170539787Y-124941008D01*
X170568923Y-124977768D01*
X170664894Y-125098854D01*
X170669581Y-125102843D01*
X170669584Y-125102846D01*
X170818284Y-125229399D01*
X170822976Y-125233392D01*
X171004180Y-125334664D01*
X171201603Y-125398810D01*
X171407725Y-125423389D01*
X171413860Y-125422917D01*
X171413862Y-125422917D01*
X171608555Y-125407936D01*
X171608560Y-125407935D01*
X171614696Y-125407463D01*
X171620626Y-125405807D01*
X171620628Y-125405807D01*
X171714664Y-125379552D01*
X171814632Y-125351640D01*
X171854190Y-125331658D01*
X171994416Y-125260825D01*
X171994418Y-125260824D01*
X171999917Y-125258046D01*
X172148018Y-125142337D01*
X172158634Y-125134043D01*
X172158635Y-125134042D01*
X172163495Y-125130245D01*
X172287630Y-124986432D01*
X172295109Y-124977768D01*
X172295109Y-124977767D01*
X172299133Y-124973106D01*
X172309413Y-124955011D01*
X172375510Y-124838658D01*
X172401667Y-124792614D01*
X172467190Y-124595644D01*
X172467962Y-124589535D01*
X172467964Y-124589525D01*
X172470277Y-124571216D01*
X172498660Y-124506139D01*
X172506188Y-124497914D01*
X176444664Y-120559438D01*
X179517000Y-120559438D01*
X179517337Y-120565953D01*
X179526894Y-120658057D01*
X179529788Y-120671456D01*
X179579381Y-120820107D01*
X179585555Y-120833286D01*
X179667788Y-120966173D01*
X179676824Y-120977574D01*
X179787429Y-121087986D01*
X179798840Y-121096998D01*
X179931880Y-121179004D01*
X179945061Y-121185151D01*
X180093814Y-121234491D01*
X180107190Y-121237358D01*
X180198097Y-121246672D01*
X180203126Y-121246929D01*
X180218124Y-121242525D01*
X180219329Y-121241135D01*
X180221000Y-121233452D01*
X180221000Y-120536115D01*
X180216525Y-120520876D01*
X180215135Y-120519671D01*
X180207452Y-120518000D01*
X179535115Y-120518000D01*
X179519876Y-120522475D01*
X179518671Y-120523865D01*
X179517000Y-120531548D01*
X179517000Y-120559438D01*
X176444664Y-120559438D01*
X178248905Y-118755197D01*
X178311217Y-118721171D01*
X178382032Y-118726236D01*
X178427095Y-118755197D01*
X178452911Y-118781013D01*
X178455365Y-118783535D01*
X178510308Y-118841636D01*
X178515950Y-118845471D01*
X178521146Y-118849893D01*
X178520809Y-118850289D01*
X178528799Y-118856902D01*
X178633679Y-118961782D01*
X178640822Y-118969549D01*
X178670064Y-119004153D01*
X178670068Y-119004157D01*
X178674471Y-119009367D01*
X178679895Y-119013514D01*
X178679896Y-119013515D01*
X178713106Y-119038906D01*
X178738247Y-119058127D01*
X178738962Y-119058674D01*
X178741379Y-119060568D01*
X178804738Y-119111510D01*
X178810857Y-119114547D01*
X178813652Y-119116335D01*
X178814013Y-119116588D01*
X178814380Y-119116790D01*
X178817238Y-119118521D01*
X178822652Y-119122660D01*
X178896262Y-119156985D01*
X178899033Y-119158319D01*
X178971814Y-119194447D01*
X178978435Y-119196098D01*
X178981563Y-119197249D01*
X178981957Y-119197413D01*
X178982361Y-119197532D01*
X178985524Y-119198609D01*
X178991704Y-119201490D01*
X179040968Y-119212502D01*
X179070950Y-119219204D01*
X179073909Y-119219903D01*
X179152801Y-119239573D01*
X179159623Y-119239763D01*
X179162933Y-119240217D01*
X179163798Y-119240373D01*
X179168697Y-119241053D01*
X179173740Y-119242180D01*
X179179463Y-119242500D01*
X179255829Y-119242500D01*
X179259347Y-119242549D01*
X179332437Y-119244591D01*
X179332442Y-119244591D01*
X179339257Y-119244781D01*
X179345958Y-119243503D01*
X179352762Y-119242955D01*
X179352804Y-119243475D01*
X179363125Y-119242500D01*
X179680588Y-119242500D01*
X179748709Y-119262502D01*
X179795202Y-119316158D01*
X179805306Y-119386432D01*
X179775812Y-119451012D01*
X179769761Y-119457518D01*
X179676014Y-119551429D01*
X179667002Y-119562840D01*
X179584996Y-119695880D01*
X179578849Y-119709061D01*
X179529509Y-119857814D01*
X179526642Y-119871190D01*
X179517328Y-119962097D01*
X179517000Y-119968514D01*
X179517000Y-119991885D01*
X179521475Y-120007124D01*
X179522865Y-120008329D01*
X179530548Y-120010000D01*
X180603000Y-120010000D01*
X180671121Y-120030002D01*
X180717614Y-120083658D01*
X180729000Y-120136000D01*
X180729000Y-121228885D01*
X180733475Y-121244124D01*
X180734865Y-121245329D01*
X180742548Y-121247000D01*
X180745438Y-121247000D01*
X180751953Y-121246663D01*
X180844057Y-121237106D01*
X180857456Y-121234212D01*
X181006107Y-121184619D01*
X181019286Y-121178445D01*
X181152173Y-121096212D01*
X181169311Y-121082629D01*
X181170841Y-121084559D01*
X181222880Y-121056097D01*
X181293699Y-121061113D01*
X181330617Y-121084799D01*
X181331372Y-121083843D01*
X181337118Y-121088381D01*
X181342298Y-121093552D01*
X181348528Y-121097392D01*
X181348529Y-121097393D01*
X181480020Y-121178445D01*
X181487899Y-121183302D01*
X181650243Y-121237149D01*
X181657080Y-121237849D01*
X181657082Y-121237850D01*
X181698401Y-121242083D01*
X181751268Y-121247500D01*
X182298732Y-121247500D01*
X182301978Y-121247163D01*
X182301982Y-121247163D01*
X182336083Y-121243625D01*
X182401019Y-121236887D01*
X182465108Y-121215505D01*
X182556324Y-121185073D01*
X182556326Y-121185072D01*
X182563268Y-121182756D01*
X182708713Y-121092752D01*
X182741925Y-121059482D01*
X182804207Y-121025403D01*
X182831098Y-121022500D01*
X183348930Y-121022500D01*
X183367880Y-121023933D01*
X183382115Y-121026099D01*
X183382119Y-121026099D01*
X183389349Y-121027199D01*
X183396641Y-121026606D01*
X183396644Y-121026606D01*
X183442018Y-121022915D01*
X183452233Y-121022500D01*
X183460293Y-121022500D01*
X183473583Y-121020951D01*
X183488507Y-121019211D01*
X183492882Y-121018778D01*
X183558339Y-121013454D01*
X183558342Y-121013453D01*
X183565637Y-121012860D01*
X183572601Y-121010604D01*
X183578560Y-121009413D01*
X183584415Y-121008029D01*
X183591681Y-121007182D01*
X183660327Y-120982265D01*
X183664455Y-120980848D01*
X183726936Y-120960607D01*
X183726938Y-120960606D01*
X183733899Y-120958351D01*
X183740154Y-120954555D01*
X183745628Y-120952049D01*
X183751058Y-120949330D01*
X183757937Y-120946833D01*
X183764058Y-120942820D01*
X183818976Y-120906814D01*
X183822680Y-120904477D01*
X183885107Y-120866595D01*
X183893484Y-120859197D01*
X183893508Y-120859224D01*
X183896500Y-120856571D01*
X183899733Y-120853868D01*
X183905852Y-120849856D01*
X183959128Y-120793617D01*
X183961506Y-120791175D01*
X184308911Y-120443770D01*
X184323323Y-120431384D01*
X184334918Y-120422851D01*
X184334923Y-120422846D01*
X184340818Y-120418508D01*
X184345557Y-120412930D01*
X184345560Y-120412927D01*
X184375035Y-120378232D01*
X184381965Y-120370716D01*
X184387660Y-120365021D01*
X184405281Y-120342749D01*
X184408072Y-120339345D01*
X184450591Y-120289297D01*
X184450592Y-120289295D01*
X184455333Y-120283715D01*
X184458661Y-120277199D01*
X184462028Y-120272150D01*
X184465195Y-120267021D01*
X184469734Y-120261284D01*
X184500655Y-120195125D01*
X184502561Y-120191225D01*
X184504219Y-120187978D01*
X184535769Y-120126192D01*
X184537508Y-120119084D01*
X184539607Y-120113441D01*
X184541524Y-120107678D01*
X184544622Y-120101050D01*
X184559487Y-120029583D01*
X184560457Y-120025299D01*
X184564201Y-120010000D01*
X184577808Y-119954390D01*
X184578500Y-119943236D01*
X184578536Y-119943238D01*
X184578775Y-119939245D01*
X184579149Y-119935053D01*
X184580640Y-119927885D01*
X184578546Y-119850479D01*
X184578500Y-119847072D01*
X184578500Y-116997069D01*
X184579933Y-116978118D01*
X184580244Y-116976078D01*
X184583199Y-116956651D01*
X184582589Y-116949141D01*
X184578915Y-116903982D01*
X184578500Y-116893767D01*
X184578500Y-116885707D01*
X184575211Y-116857493D01*
X184574778Y-116853118D01*
X184569454Y-116787661D01*
X184569453Y-116787658D01*
X184568860Y-116780363D01*
X184566604Y-116773399D01*
X184565413Y-116767440D01*
X184564029Y-116761585D01*
X184563182Y-116754319D01*
X184538265Y-116685673D01*
X184536848Y-116681545D01*
X184516607Y-116619064D01*
X184516606Y-116619062D01*
X184514351Y-116612101D01*
X184510555Y-116605846D01*
X184508049Y-116600372D01*
X184505330Y-116594942D01*
X184502833Y-116588063D01*
X184462809Y-116527016D01*
X184460472Y-116523312D01*
X184459242Y-116521284D01*
X184436375Y-116483600D01*
X184425509Y-116465693D01*
X184425505Y-116465688D01*
X184422595Y-116460892D01*
X184417547Y-116455176D01*
X184415197Y-116452516D01*
X184415223Y-116452493D01*
X184412574Y-116449503D01*
X184409866Y-116446264D01*
X184405856Y-116440148D01*
X184400549Y-116435121D01*
X184400546Y-116435117D01*
X184349617Y-116386872D01*
X184347175Y-116384494D01*
X184169405Y-116206724D01*
X184135379Y-116144412D01*
X184132500Y-116117629D01*
X184132500Y-115932038D01*
X184152502Y-115863917D01*
X184162716Y-115850246D01*
X184162995Y-115849850D01*
X184167023Y-115845184D01*
X184259870Y-115681744D01*
X184319203Y-115503382D01*
X184342762Y-115316892D01*
X184343138Y-115290000D01*
X184324795Y-115102926D01*
X184313803Y-115066517D01*
X184299321Y-115018551D01*
X184270465Y-114922977D01*
X184182218Y-114757008D01*
X184063415Y-114611340D01*
X183987302Y-114548374D01*
X183923329Y-114495450D01*
X183923324Y-114495447D01*
X183918580Y-114491522D01*
X183913161Y-114488592D01*
X183913158Y-114488590D01*
X183843671Y-114451019D01*
X183753231Y-114402119D01*
X183573666Y-114346534D01*
X183567541Y-114345890D01*
X183567540Y-114345890D01*
X183392852Y-114327529D01*
X183392851Y-114327529D01*
X183386724Y-114326885D01*
X183309673Y-114333897D01*
X183205665Y-114343363D01*
X183205662Y-114343364D01*
X183199526Y-114343922D01*
X183193620Y-114345660D01*
X183193616Y-114345661D01*
X183060278Y-114384905D01*
X183019202Y-114396994D01*
X182852621Y-114484080D01*
X182706128Y-114601864D01*
X182702170Y-114606582D01*
X182702167Y-114606584D01*
X182645477Y-114674145D01*
X182585302Y-114745859D01*
X182582338Y-114751251D01*
X182582335Y-114751255D01*
X182529404Y-114847537D01*
X182494746Y-114910580D01*
X182492885Y-114916447D01*
X182492884Y-114916449D01*
X182490813Y-114922977D01*
X182437909Y-115089752D01*
X182416956Y-115276552D01*
X182417472Y-115282696D01*
X182432165Y-115457670D01*
X182432685Y-115463865D01*
X182447282Y-115514771D01*
X182446832Y-115585764D01*
X182408070Y-115645246D01*
X182343303Y-115674329D01*
X182326163Y-115675500D01*
X182071866Y-115675500D01*
X182068469Y-115675869D01*
X182065560Y-115676185D01*
X182009684Y-115682255D01*
X181873295Y-115733385D01*
X181756739Y-115820739D01*
X181669385Y-115937295D01*
X181618255Y-116073684D01*
X181611500Y-116135866D01*
X181611500Y-116832134D01*
X181618255Y-116894316D01*
X181669385Y-117030705D01*
X181756739Y-117147261D01*
X181873295Y-117234615D01*
X182009684Y-117285745D01*
X182071866Y-117292500D01*
X182935500Y-117292500D01*
X183003621Y-117312502D01*
X183050114Y-117366158D01*
X183061500Y-117418500D01*
X183061500Y-117449500D01*
X183041498Y-117517621D01*
X182987842Y-117564114D01*
X182935500Y-117575500D01*
X182071866Y-117575500D01*
X182009684Y-117582255D01*
X181873295Y-117633385D01*
X181756739Y-117720739D01*
X181669385Y-117837295D01*
X181618255Y-117973684D01*
X181611500Y-118035866D01*
X181611500Y-118732134D01*
X181618255Y-118794316D01*
X181669385Y-118930705D01*
X181756739Y-119047261D01*
X181771987Y-119058688D01*
X181814501Y-119115543D01*
X181819528Y-119186362D01*
X181785471Y-119248656D01*
X181723141Y-119282649D01*
X181709426Y-119284841D01*
X181684449Y-119287433D01*
X181648981Y-119291113D01*
X181642440Y-119293295D01*
X181642441Y-119293295D01*
X181493676Y-119342927D01*
X181493674Y-119342928D01*
X181486732Y-119345244D01*
X181480508Y-119349096D01*
X181480507Y-119349096D01*
X181431375Y-119379500D01*
X181341287Y-119435248D01*
X181336114Y-119440430D01*
X181330377Y-119444977D01*
X181328945Y-119443170D01*
X181276425Y-119471902D01*
X181205605Y-119466892D01*
X181169147Y-119443501D01*
X181168317Y-119444552D01*
X181151160Y-119431002D01*
X181018120Y-119348996D01*
X181004939Y-119342849D01*
X180875948Y-119300064D01*
X180817588Y-119259633D01*
X180790352Y-119194069D01*
X180802886Y-119124187D01*
X180840051Y-119079645D01*
X180841191Y-119078791D01*
X180883261Y-119047261D01*
X180970615Y-118930705D01*
X181021745Y-118794316D01*
X181028500Y-118732134D01*
X181028500Y-118035866D01*
X181021745Y-117973684D01*
X181013810Y-117952517D01*
X181008627Y-117881711D01*
X181013810Y-117864058D01*
X181018478Y-117851605D01*
X181022105Y-117836351D01*
X181027631Y-117785486D01*
X181028000Y-117778672D01*
X181028000Y-117706115D01*
X181023525Y-117690876D01*
X181022135Y-117689671D01*
X181014452Y-117688000D01*
X180881553Y-117688000D01*
X180813432Y-117667998D01*
X180805988Y-117662826D01*
X180794061Y-117653887D01*
X180766705Y-117633385D01*
X180630316Y-117582255D01*
X180568134Y-117575500D01*
X180343276Y-117575500D01*
X180303431Y-117568904D01*
X180298296Y-117566510D01*
X180256006Y-117557057D01*
X180193890Y-117522677D01*
X180160221Y-117460171D01*
X180165691Y-117389385D01*
X180208562Y-117332794D01*
X180243305Y-117314673D01*
X180289637Y-117299081D01*
X180329825Y-117292500D01*
X180568134Y-117292500D01*
X180630316Y-117285745D01*
X180766705Y-117234615D01*
X180805988Y-117205174D01*
X180872494Y-117180326D01*
X180881553Y-117180000D01*
X181009884Y-117180000D01*
X181025123Y-117175525D01*
X181026328Y-117174135D01*
X181027999Y-117166452D01*
X181027999Y-117089331D01*
X181027629Y-117082510D01*
X181022105Y-117031648D01*
X181018479Y-117016397D01*
X181013810Y-117003942D01*
X181008627Y-116933135D01*
X181013808Y-116915488D01*
X181021745Y-116894316D01*
X181028500Y-116832134D01*
X181028500Y-116135866D01*
X181021745Y-116073684D01*
X180970615Y-115937295D01*
X180883261Y-115820739D01*
X180766705Y-115733385D01*
X180630316Y-115682255D01*
X180574440Y-115676185D01*
X180571531Y-115675869D01*
X180568134Y-115675500D01*
X180343276Y-115675500D01*
X180303431Y-115668904D01*
X180298296Y-115666510D01*
X180116260Y-115625820D01*
X180110537Y-115625500D01*
X179337390Y-115625500D01*
X179326847Y-115625058D01*
X179274901Y-115620696D01*
X179268141Y-115621598D01*
X179268139Y-115621598D01*
X179194398Y-115631437D01*
X179191343Y-115631807D01*
X179159111Y-115635309D01*
X179110563Y-115640583D01*
X179104099Y-115642758D01*
X179100824Y-115643478D01*
X179100428Y-115643548D01*
X179100004Y-115643671D01*
X179096784Y-115644462D01*
X179090011Y-115645366D01*
X179013677Y-115673149D01*
X179010802Y-115674156D01*
X179005647Y-115675891D01*
X178933777Y-115700078D01*
X178927923Y-115703596D01*
X178924916Y-115704985D01*
X178924511Y-115705152D01*
X178924135Y-115705357D01*
X178921148Y-115706827D01*
X178914732Y-115709162D01*
X178846080Y-115752730D01*
X178843611Y-115754255D01*
X178773891Y-115796147D01*
X178768934Y-115800834D01*
X178766277Y-115802851D01*
X178765531Y-115803369D01*
X178761598Y-115806344D01*
X178757241Y-115809109D01*
X178752968Y-115812930D01*
X178698987Y-115866911D01*
X178696465Y-115869365D01*
X178638364Y-115924308D01*
X178634529Y-115929950D01*
X178630107Y-115935146D01*
X178629711Y-115934809D01*
X178623098Y-115942799D01*
X178492218Y-116073679D01*
X178484451Y-116080822D01*
X178449847Y-116110064D01*
X178449843Y-116110068D01*
X178444633Y-116114471D01*
X178440486Y-116119895D01*
X178440485Y-116119896D01*
X178395326Y-116178962D01*
X178393427Y-116181385D01*
X178354065Y-116230342D01*
X178342490Y-116244738D01*
X178339453Y-116250857D01*
X178337665Y-116253652D01*
X178337412Y-116254013D01*
X178337210Y-116254380D01*
X178335479Y-116257238D01*
X178331340Y-116262652D01*
X178324337Y-116277670D01*
X178297015Y-116336262D01*
X178295681Y-116339033D01*
X178259553Y-116411814D01*
X178257902Y-116418435D01*
X178256751Y-116421563D01*
X178256587Y-116421956D01*
X178256468Y-116422361D01*
X178255391Y-116425525D01*
X178252510Y-116431704D01*
X178242610Y-116475994D01*
X178234785Y-116511002D01*
X178234076Y-116513998D01*
X178214428Y-116592801D01*
X178214237Y-116599622D01*
X178213785Y-116602925D01*
X178213626Y-116603809D01*
X178212948Y-116608692D01*
X178211820Y-116613740D01*
X178211500Y-116619463D01*
X178211500Y-116695844D01*
X178211451Y-116699362D01*
X178209226Y-116779018D01*
X178187330Y-116846554D01*
X178132397Y-116891530D01*
X178083275Y-116901500D01*
X178071391Y-116901500D01*
X178060848Y-116901058D01*
X178008902Y-116896696D01*
X178002142Y-116897598D01*
X178002139Y-116897598D01*
X177928395Y-116907437D01*
X177925341Y-116907807D01*
X177885980Y-116912083D01*
X177844563Y-116916583D01*
X177838092Y-116918761D01*
X177834852Y-116919473D01*
X177834417Y-116919550D01*
X177834017Y-116919666D01*
X177830774Y-116920463D01*
X177824012Y-116921365D01*
X177747644Y-116949161D01*
X177744823Y-116950149D01*
X177667777Y-116976078D01*
X177661930Y-116979591D01*
X177658896Y-116980993D01*
X177658508Y-116981153D01*
X177658121Y-116981364D01*
X177655146Y-116982828D01*
X177648733Y-116985162D01*
X177623266Y-117001324D01*
X177580180Y-117028667D01*
X177577561Y-117030285D01*
X177555462Y-117043563D01*
X177507891Y-117072147D01*
X177502928Y-117076840D01*
X177500280Y-117078850D01*
X177499532Y-117079369D01*
X177495599Y-117082344D01*
X177491242Y-117085109D01*
X177486969Y-117088929D01*
X177432990Y-117142908D01*
X177430468Y-117145362D01*
X177404261Y-117170145D01*
X177372364Y-117200308D01*
X177368528Y-117205951D01*
X177364110Y-117211143D01*
X177363714Y-117210806D01*
X177357100Y-117218797D01*
X171294400Y-123281497D01*
X171230711Y-123315217D01*
X171230697Y-123315218D01*
X171031560Y-123373827D01*
X170847600Y-123469999D01*
X170685823Y-123600071D01*
X170681865Y-123604788D01*
X170681863Y-123604790D01*
X170599895Y-123702476D01*
X170552391Y-123759089D01*
X170549427Y-123764481D01*
X170549424Y-123764485D01*
X170470726Y-123907636D01*
X170452387Y-123940995D01*
X170389621Y-124138861D01*
X170388935Y-124144978D01*
X170388934Y-124144982D01*
X170377599Y-124246037D01*
X170366482Y-124345150D01*
X158977531Y-124345150D01*
X159448911Y-123873770D01*
X159463323Y-123861384D01*
X159474918Y-123852851D01*
X159474923Y-123852846D01*
X159480818Y-123848508D01*
X159485557Y-123842930D01*
X159485560Y-123842927D01*
X159515035Y-123808232D01*
X159521965Y-123800716D01*
X159527660Y-123795021D01*
X159539173Y-123780469D01*
X159545281Y-123772749D01*
X159548072Y-123769345D01*
X159590591Y-123719297D01*
X159590592Y-123719295D01*
X159595333Y-123713715D01*
X159598661Y-123707199D01*
X159602028Y-123702150D01*
X159605195Y-123697021D01*
X159609734Y-123691284D01*
X159640655Y-123625125D01*
X159642561Y-123621225D01*
X159649683Y-123607278D01*
X159675769Y-123556192D01*
X159677508Y-123549084D01*
X159679607Y-123543441D01*
X159681524Y-123537678D01*
X159684622Y-123531050D01*
X159699487Y-123459583D01*
X159700457Y-123455299D01*
X159702837Y-123445572D01*
X159717808Y-123384390D01*
X159718500Y-123373236D01*
X159718536Y-123373238D01*
X159718775Y-123369245D01*
X159719149Y-123365053D01*
X159720640Y-123357885D01*
X159718546Y-123280479D01*
X159718500Y-123277072D01*
X159718500Y-121934965D01*
X159738502Y-121866844D01*
X159778664Y-121827533D01*
X159849416Y-121784176D01*
X160002787Y-121653185D01*
X160026213Y-121633177D01*
X160029969Y-121629969D01*
X160184176Y-121449416D01*
X160196893Y-121428664D01*
X160249538Y-121381034D01*
X160304324Y-121368500D01*
X161302930Y-121368500D01*
X161321880Y-121369933D01*
X161336115Y-121372099D01*
X161336119Y-121372099D01*
X161343349Y-121373199D01*
X161350641Y-121372606D01*
X161350644Y-121372606D01*
X161396018Y-121368915D01*
X161406233Y-121368500D01*
X161414293Y-121368500D01*
X161427583Y-121366951D01*
X161442507Y-121365211D01*
X161446882Y-121364778D01*
X161512339Y-121359454D01*
X161512342Y-121359453D01*
X161519637Y-121358860D01*
X161526601Y-121356604D01*
X161532560Y-121355413D01*
X161538415Y-121354029D01*
X161545681Y-121353182D01*
X161614327Y-121328265D01*
X161618455Y-121326848D01*
X161680936Y-121306607D01*
X161680938Y-121306606D01*
X161687899Y-121304351D01*
X161694154Y-121300555D01*
X161699628Y-121298049D01*
X161705058Y-121295330D01*
X161711937Y-121292833D01*
X161760211Y-121261183D01*
X161772976Y-121252814D01*
X161776680Y-121250477D01*
X161839107Y-121212595D01*
X161847484Y-121205197D01*
X161847508Y-121205224D01*
X161850500Y-121202571D01*
X161853733Y-121199868D01*
X161859852Y-121195856D01*
X161913128Y-121139617D01*
X161915506Y-121137175D01*
X165048911Y-118003770D01*
X165063323Y-117991384D01*
X165074918Y-117982851D01*
X165074923Y-117982846D01*
X165080818Y-117978508D01*
X165085557Y-117972930D01*
X165085560Y-117972927D01*
X165115035Y-117938232D01*
X165121965Y-117930716D01*
X165127660Y-117925021D01*
X165145281Y-117902749D01*
X165148072Y-117899345D01*
X165190591Y-117849297D01*
X165190592Y-117849295D01*
X165195333Y-117843715D01*
X165198661Y-117837199D01*
X165202028Y-117832150D01*
X165205195Y-117827021D01*
X165209734Y-117821284D01*
X165240655Y-117755125D01*
X165242561Y-117751225D01*
X165275769Y-117686192D01*
X165277508Y-117679084D01*
X165279607Y-117673441D01*
X165281524Y-117667678D01*
X165284622Y-117661050D01*
X165299487Y-117589583D01*
X165300457Y-117585299D01*
X165301411Y-117581402D01*
X165317808Y-117514390D01*
X165318500Y-117503236D01*
X165318536Y-117503238D01*
X165318775Y-117499245D01*
X165319149Y-117495053D01*
X165320640Y-117487885D01*
X165318546Y-117410479D01*
X165318500Y-117407072D01*
X165318500Y-108646000D01*
X165338502Y-108577879D01*
X165392158Y-108531386D01*
X165444500Y-108520000D01*
X167308134Y-108520000D01*
X167370316Y-108513245D01*
X167506705Y-108462115D01*
X167623261Y-108374761D01*
X167710615Y-108258205D01*
X167761745Y-108121816D01*
X167768500Y-108059634D01*
X167768500Y-106783949D01*
X167788502Y-106715828D01*
X167842158Y-106669335D01*
X167912432Y-106659231D01*
X167977012Y-106688725D01*
X167983595Y-106694854D01*
X171836341Y-110547600D01*
X171844331Y-110556381D01*
X171844339Y-110556390D01*
X171848584Y-110563080D01*
X171854359Y-110568503D01*
X171900274Y-110611620D01*
X171903116Y-110614375D01*
X171923667Y-110634926D01*
X171926801Y-110637357D01*
X171927163Y-110637638D01*
X171936191Y-110645348D01*
X171969867Y-110676972D01*
X171976818Y-110680793D01*
X171976819Y-110680794D01*
X171988655Y-110687301D01*
X172005184Y-110698158D01*
X172015869Y-110706447D01*
X172015871Y-110706448D01*
X172022131Y-110711304D01*
X172064544Y-110729657D01*
X172075181Y-110734868D01*
X172115663Y-110757124D01*
X172123342Y-110759096D01*
X172123343Y-110759096D01*
X172136434Y-110762457D01*
X172155136Y-110768859D01*
X172174823Y-110777379D01*
X172182652Y-110778619D01*
X172220448Y-110784605D01*
X172232074Y-110787013D01*
X172269135Y-110796529D01*
X172269136Y-110796529D01*
X172276812Y-110798500D01*
X172298258Y-110798500D01*
X172317968Y-110800051D01*
X172339151Y-110803406D01*
X172385135Y-110799059D01*
X172396994Y-110798500D01*
X176413430Y-110798500D01*
X176463107Y-110808788D01*
X176469413Y-110812517D01*
X176477025Y-110814728D01*
X176477026Y-110814729D01*
X176612088Y-110853969D01*
X176612094Y-110853970D01*
X176618265Y-110855763D01*
X176639166Y-110857408D01*
X176650586Y-110858307D01*
X176650595Y-110858307D01*
X176653043Y-110858500D01*
X181605987Y-110858500D01*
X186566956Y-110858499D01*
X186584960Y-110857083D01*
X186595317Y-110856268D01*
X186595318Y-110856268D01*
X186601735Y-110855763D01*
X186607917Y-110853967D01*
X186742974Y-110814729D01*
X186742975Y-110814728D01*
X186750587Y-110812517D01*
X186766286Y-110803233D01*
X186877186Y-110737647D01*
X186884007Y-110733613D01*
X186993613Y-110624007D01*
X187072517Y-110490587D01*
X187075352Y-110480829D01*
X187113969Y-110347912D01*
X187113970Y-110347906D01*
X187115763Y-110341735D01*
X187118500Y-110306957D01*
X187118499Y-109973044D01*
X187115763Y-109938265D01*
X187072517Y-109789413D01*
X187068481Y-109782588D01*
X187068479Y-109782584D01*
X187022087Y-109704139D01*
X187004627Y-109635323D01*
X187022087Y-109575861D01*
X187068479Y-109497416D01*
X187068481Y-109497412D01*
X187072517Y-109490587D01*
X187074729Y-109482974D01*
X187113969Y-109347912D01*
X187113970Y-109347906D01*
X187115763Y-109341735D01*
X187117408Y-109320834D01*
X187118307Y-109309414D01*
X187118307Y-109309405D01*
X187118500Y-109306957D01*
X187118499Y-108973044D01*
X187115763Y-108938265D01*
X187084891Y-108832004D01*
X187074729Y-108797026D01*
X187074728Y-108797025D01*
X187072517Y-108789413D01*
X187068481Y-108782588D01*
X187068479Y-108782584D01*
X187022087Y-108704139D01*
X187004627Y-108635323D01*
X187022087Y-108575861D01*
X187068479Y-108497416D01*
X187068481Y-108497412D01*
X187072517Y-108490587D01*
X187082354Y-108456729D01*
X187113969Y-108347912D01*
X187113970Y-108347906D01*
X187115763Y-108341735D01*
X187118500Y-108306957D01*
X187118499Y-107973044D01*
X187115763Y-107938265D01*
X187097735Y-107876212D01*
X187074729Y-107797026D01*
X187074728Y-107797025D01*
X187072517Y-107789413D01*
X187068481Y-107782588D01*
X187068479Y-107782584D01*
X187022087Y-107704139D01*
X187004627Y-107635323D01*
X187022087Y-107575861D01*
X187068479Y-107497416D01*
X187068481Y-107497412D01*
X187072517Y-107490587D01*
X187086128Y-107443739D01*
X187113969Y-107347912D01*
X187113970Y-107347906D01*
X187115763Y-107341735D01*
X187118500Y-107306957D01*
X187118499Y-106973044D01*
X187115763Y-106938265D01*
X187113967Y-106932083D01*
X187074729Y-106797026D01*
X187074728Y-106797025D01*
X187072517Y-106789413D01*
X187068481Y-106782588D01*
X187068479Y-106782584D01*
X187022087Y-106704139D01*
X187004627Y-106635323D01*
X187022087Y-106575861D01*
X187068479Y-106497416D01*
X187068481Y-106497412D01*
X187072517Y-106490587D01*
X187080426Y-106463366D01*
X187113969Y-106347912D01*
X187113970Y-106347906D01*
X187115763Y-106341735D01*
X187117647Y-106317794D01*
X187118307Y-106309414D01*
X187118307Y-106309405D01*
X187118500Y-106306957D01*
X187118499Y-105973044D01*
X187115763Y-105938265D01*
X187110756Y-105921032D01*
X187074729Y-105797026D01*
X187074728Y-105797025D01*
X187072517Y-105789413D01*
X187068481Y-105782588D01*
X187068479Y-105782584D01*
X187022087Y-105704139D01*
X187004627Y-105635323D01*
X187022087Y-105575861D01*
X187068479Y-105497416D01*
X187068481Y-105497412D01*
X187072517Y-105490587D01*
X187075127Y-105481605D01*
X187113969Y-105347912D01*
X187113970Y-105347906D01*
X187115763Y-105341735D01*
X187117665Y-105317572D01*
X187118307Y-105309414D01*
X187118307Y-105309405D01*
X187118500Y-105306957D01*
X187118499Y-104973044D01*
X187115763Y-104938265D01*
X187072517Y-104789413D01*
X187068481Y-104782588D01*
X187068479Y-104782584D01*
X187022087Y-104704139D01*
X187004627Y-104635323D01*
X187022087Y-104575861D01*
X187068479Y-104497416D01*
X187068481Y-104497412D01*
X187072517Y-104490587D01*
X187088343Y-104436114D01*
X187113969Y-104347912D01*
X187113970Y-104347906D01*
X187115763Y-104341735D01*
X187118500Y-104306957D01*
X187118499Y-103973044D01*
X187117083Y-103955040D01*
X187116268Y-103944683D01*
X187116268Y-103944682D01*
X187115763Y-103938265D01*
X187113967Y-103932083D01*
X187074729Y-103797026D01*
X187074728Y-103797025D01*
X187072517Y-103789413D01*
X187068481Y-103782588D01*
X187068479Y-103782584D01*
X187022087Y-103704139D01*
X187004627Y-103635323D01*
X187022087Y-103575861D01*
X187068479Y-103497416D01*
X187068481Y-103497412D01*
X187072517Y-103490587D01*
X187079582Y-103466269D01*
X187113969Y-103347912D01*
X187113970Y-103347906D01*
X187115763Y-103341735D01*
X187118500Y-103306957D01*
X187118499Y-102973044D01*
X187115763Y-102938265D01*
X187101368Y-102888716D01*
X187074729Y-102797026D01*
X187074728Y-102797025D01*
X187072517Y-102789413D01*
X187068481Y-102782588D01*
X187068479Y-102782584D01*
X187022087Y-102704139D01*
X187004627Y-102635323D01*
X187022087Y-102575861D01*
X187068479Y-102497416D01*
X187068481Y-102497412D01*
X187072517Y-102490587D01*
X187074729Y-102482974D01*
X187113969Y-102347912D01*
X187113970Y-102347906D01*
X187115763Y-102341735D01*
X187117515Y-102319475D01*
X187118307Y-102309414D01*
X187118307Y-102309405D01*
X187118500Y-102306957D01*
X187118499Y-101973044D01*
X187115763Y-101938265D01*
X187113967Y-101932083D01*
X187074729Y-101797026D01*
X187074728Y-101797025D01*
X187072517Y-101789413D01*
X187068480Y-101782586D01*
X187021796Y-101703646D01*
X187004337Y-101634830D01*
X187021796Y-101575369D01*
X187068021Y-101497206D01*
X187074267Y-101482774D01*
X187107787Y-101367395D01*
X187107747Y-101353295D01*
X187100477Y-101350000D01*
X176125274Y-101350000D01*
X176111743Y-101353973D01*
X176108945Y-101373433D01*
X176079452Y-101438013D01*
X176019725Y-101476396D01*
X175984228Y-101481500D01*
X172575160Y-101481500D01*
X172507039Y-101461498D01*
X172501099Y-101457436D01*
X172416957Y-101396303D01*
X172416956Y-101396302D01*
X172411615Y-101392422D01*
X172405587Y-101389738D01*
X172405585Y-101389737D01*
X172252783Y-101321705D01*
X172252781Y-101321705D01*
X172246752Y-101319020D01*
X172158492Y-101300260D01*
X172076689Y-101282872D01*
X172076685Y-101282872D01*
X172070232Y-101281500D01*
X171889768Y-101281500D01*
X171883315Y-101282872D01*
X171883311Y-101282872D01*
X171801508Y-101300260D01*
X171713248Y-101319020D01*
X171707219Y-101321704D01*
X171707217Y-101321705D01*
X171554416Y-101389737D01*
X171554414Y-101389738D01*
X171548386Y-101392422D01*
X171543045Y-101396302D01*
X171543044Y-101396303D01*
X171407731Y-101494613D01*
X171407729Y-101494615D01*
X171402387Y-101498496D01*
X171281633Y-101632607D01*
X171191401Y-101788893D01*
X171135635Y-101960525D01*
X171134945Y-101967088D01*
X171134945Y-101967089D01*
X171129931Y-102014789D01*
X171116771Y-102140000D01*
X171117461Y-102146565D01*
X171134578Y-102309414D01*
X171135635Y-102319475D01*
X171191401Y-102491107D01*
X171194704Y-102496829D01*
X171194705Y-102496830D01*
X171242331Y-102579320D01*
X171259069Y-102648315D01*
X171242332Y-102705318D01*
X171211401Y-102758893D01*
X171155635Y-102930525D01*
X171154945Y-102937088D01*
X171154945Y-102937089D01*
X171150079Y-102983382D01*
X171136771Y-103110000D01*
X171155635Y-103289475D01*
X171157675Y-103295753D01*
X171157675Y-103295754D01*
X171165164Y-103318802D01*
X171211401Y-103461107D01*
X171250311Y-103528500D01*
X171276765Y-103574320D01*
X171293503Y-103643315D01*
X171276765Y-103700320D01*
X171261710Y-103726397D01*
X171231401Y-103778893D01*
X171175635Y-103950525D01*
X171174945Y-103957088D01*
X171174945Y-103957089D01*
X171164874Y-104052911D01*
X171156771Y-104130000D01*
X171157461Y-104136565D01*
X171165870Y-104216565D01*
X171175635Y-104309475D01*
X171177675Y-104315753D01*
X171177675Y-104315754D01*
X171200190Y-104385048D01*
X171231401Y-104481107D01*
X171234704Y-104486829D01*
X171234705Y-104486830D01*
X171295218Y-104591641D01*
X171311956Y-104660636D01*
X171295218Y-104717640D01*
X171271401Y-104758893D01*
X171215635Y-104930525D01*
X171196771Y-105110000D01*
X171197461Y-105116565D01*
X171205699Y-105194938D01*
X171215635Y-105289475D01*
X171217675Y-105295753D01*
X171217675Y-105295754D01*
X171234622Y-105347912D01*
X171271401Y-105461107D01*
X171274704Y-105466829D01*
X171274705Y-105466830D01*
X171315218Y-105537000D01*
X171331956Y-105605995D01*
X171315218Y-105663000D01*
X171271401Y-105738893D01*
X171257999Y-105780140D01*
X171238082Y-105841441D01*
X171215635Y-105910525D01*
X171196771Y-106090000D01*
X171197461Y-106096565D01*
X171212884Y-106243297D01*
X171215635Y-106269475D01*
X171217675Y-106275753D01*
X171217675Y-106275754D01*
X171230224Y-106314377D01*
X171271401Y-106441107D01*
X171361633Y-106597393D01*
X171366051Y-106602300D01*
X171366052Y-106602301D01*
X171417312Y-106659231D01*
X171482387Y-106731504D01*
X171487729Y-106735385D01*
X171487731Y-106735387D01*
X171572570Y-106797026D01*
X171628385Y-106837578D01*
X171634413Y-106840262D01*
X171634415Y-106840263D01*
X171766385Y-106899020D01*
X171793248Y-106910980D01*
X171881508Y-106929740D01*
X171963311Y-106947128D01*
X171963315Y-106947128D01*
X171969768Y-106948500D01*
X172150232Y-106948500D01*
X172156685Y-106947128D01*
X172156689Y-106947128D01*
X172238492Y-106929740D01*
X172326752Y-106910980D01*
X172353615Y-106899020D01*
X172485585Y-106840263D01*
X172485587Y-106840262D01*
X172491615Y-106837578D01*
X172512280Y-106822564D01*
X172586341Y-106798500D01*
X175979333Y-106798500D01*
X176047454Y-106818502D01*
X176093947Y-106872158D01*
X176102161Y-106938102D01*
X176104237Y-106938265D01*
X176101694Y-106970580D01*
X176101500Y-106973043D01*
X176101500Y-106975512D01*
X176101501Y-107255500D01*
X176081499Y-107323620D01*
X176027844Y-107370113D01*
X175975501Y-107381500D01*
X173787070Y-107381500D01*
X173768120Y-107380067D01*
X173753885Y-107377901D01*
X173753881Y-107377901D01*
X173746651Y-107376801D01*
X173739359Y-107377394D01*
X173739356Y-107377394D01*
X173693982Y-107381085D01*
X173683767Y-107381500D01*
X173675707Y-107381500D01*
X173672073Y-107381924D01*
X173672067Y-107381924D01*
X173659042Y-107383443D01*
X173647480Y-107384791D01*
X173643132Y-107385221D01*
X173570364Y-107391140D01*
X173563403Y-107393395D01*
X173557463Y-107394582D01*
X173551588Y-107395971D01*
X173544319Y-107396818D01*
X173475670Y-107421736D01*
X173471542Y-107423153D01*
X173409064Y-107443393D01*
X173409062Y-107443394D01*
X173402101Y-107445649D01*
X173395846Y-107449445D01*
X173390372Y-107451951D01*
X173384942Y-107454670D01*
X173378063Y-107457167D01*
X173371943Y-107461180D01*
X173371942Y-107461180D01*
X173317024Y-107497186D01*
X173313320Y-107499523D01*
X173250893Y-107537405D01*
X173242516Y-107544803D01*
X173242493Y-107544777D01*
X173239501Y-107547429D01*
X173236272Y-107550129D01*
X173230148Y-107554144D01*
X173229829Y-107554481D01*
X173162886Y-107582278D01*
X173093531Y-107588590D01*
X173026836Y-107594659D01*
X173026833Y-107594660D01*
X173020697Y-107595218D01*
X173014791Y-107596956D01*
X173014787Y-107596957D01*
X172884431Y-107635323D01*
X172821560Y-107653827D01*
X172637600Y-107749999D01*
X172475823Y-107880071D01*
X172471865Y-107884788D01*
X172471863Y-107884790D01*
X172450805Y-107909886D01*
X172342391Y-108039089D01*
X172339427Y-108044481D01*
X172339424Y-108044485D01*
X172245354Y-108215598D01*
X172242387Y-108220995D01*
X172179621Y-108418861D01*
X172178935Y-108424978D01*
X172178934Y-108424982D01*
X172169345Y-108510471D01*
X172156482Y-108625150D01*
X172156998Y-108631294D01*
X172162512Y-108696961D01*
X172148280Y-108766516D01*
X172098703Y-108817336D01*
X172029521Y-108833285D01*
X171962699Y-108809299D01*
X171947859Y-108796599D01*
X164063865Y-100912605D01*
X176112213Y-100912605D01*
X176112253Y-100926705D01*
X176119523Y-100930000D01*
X181381885Y-100930000D01*
X181397124Y-100925525D01*
X181398329Y-100924135D01*
X181400000Y-100916452D01*
X181400000Y-100911885D01*
X181820000Y-100911885D01*
X181824475Y-100927124D01*
X181825865Y-100928329D01*
X181833548Y-100930000D01*
X187094726Y-100930000D01*
X187108257Y-100926027D01*
X187109392Y-100918129D01*
X187074267Y-100797226D01*
X187068018Y-100782787D01*
X186997253Y-100663129D01*
X186987606Y-100650693D01*
X186889307Y-100552394D01*
X186876871Y-100542747D01*
X186757213Y-100471982D01*
X186742774Y-100465733D01*
X186607833Y-100426530D01*
X186595246Y-100424230D01*
X186569361Y-100422193D01*
X186564435Y-100422000D01*
X181838115Y-100422000D01*
X181822876Y-100426475D01*
X181821671Y-100427865D01*
X181820000Y-100435548D01*
X181820000Y-100911885D01*
X181400000Y-100911885D01*
X181400000Y-100440116D01*
X181395525Y-100424877D01*
X181394135Y-100423672D01*
X181386452Y-100422001D01*
X176655569Y-100422001D01*
X176650633Y-100422195D01*
X176624762Y-100424230D01*
X176612161Y-100426531D01*
X176477226Y-100465733D01*
X176462787Y-100471982D01*
X176343129Y-100542747D01*
X176330693Y-100552394D01*
X176232394Y-100650693D01*
X176222747Y-100663129D01*
X176151982Y-100782787D01*
X176145733Y-100797226D01*
X176112213Y-100912605D01*
X164063865Y-100912605D01*
X159272198Y-96120938D01*
X161887000Y-96120938D01*
X161887337Y-96127453D01*
X161896894Y-96219557D01*
X161899788Y-96232956D01*
X161949381Y-96381607D01*
X161955555Y-96394786D01*
X162037788Y-96527673D01*
X162046824Y-96539074D01*
X162157429Y-96649486D01*
X162168840Y-96658498D01*
X162301880Y-96740504D01*
X162315061Y-96746651D01*
X162463814Y-96795991D01*
X162477190Y-96798858D01*
X162568097Y-96808172D01*
X162574513Y-96808500D01*
X162597885Y-96808500D01*
X162613124Y-96804025D01*
X162614329Y-96802635D01*
X162616000Y-96794952D01*
X162616000Y-96790385D01*
X163124000Y-96790385D01*
X163128475Y-96805624D01*
X163129865Y-96806829D01*
X163137548Y-96808500D01*
X163165438Y-96808500D01*
X163171953Y-96808163D01*
X163264057Y-96798606D01*
X163277456Y-96795712D01*
X163426107Y-96746119D01*
X163439286Y-96739945D01*
X163572173Y-96657712D01*
X163583574Y-96648676D01*
X163693986Y-96538071D01*
X163702998Y-96526660D01*
X163723139Y-96493985D01*
X163775911Y-96446492D01*
X163845983Y-96435068D01*
X163911107Y-96463342D01*
X163937543Y-96493798D01*
X163967788Y-96542673D01*
X163976824Y-96554074D01*
X164087429Y-96664486D01*
X164098840Y-96673498D01*
X164231880Y-96755504D01*
X164245061Y-96761651D01*
X164393814Y-96810991D01*
X164407190Y-96813858D01*
X164498097Y-96823172D01*
X164504513Y-96823500D01*
X164527885Y-96823500D01*
X164543124Y-96819025D01*
X164544329Y-96817635D01*
X164546000Y-96809952D01*
X164546000Y-96805385D01*
X165054000Y-96805385D01*
X165058475Y-96820624D01*
X165059865Y-96821829D01*
X165067548Y-96823500D01*
X165095438Y-96823500D01*
X165101953Y-96823163D01*
X165194057Y-96813606D01*
X165207456Y-96810712D01*
X165356107Y-96761119D01*
X165369286Y-96754945D01*
X165502173Y-96672712D01*
X165513574Y-96663676D01*
X165623986Y-96553071D01*
X165632998Y-96541660D01*
X165715004Y-96408620D01*
X165721151Y-96395439D01*
X165770491Y-96246686D01*
X165773358Y-96233310D01*
X165782672Y-96142403D01*
X165782929Y-96137374D01*
X165778525Y-96122376D01*
X165777135Y-96121171D01*
X165769452Y-96119500D01*
X165072115Y-96119500D01*
X165056876Y-96123975D01*
X165055671Y-96125365D01*
X165054000Y-96133048D01*
X165054000Y-96805385D01*
X164546000Y-96805385D01*
X164546000Y-96137615D01*
X164541525Y-96122376D01*
X164540135Y-96121171D01*
X164532452Y-96119500D01*
X163833513Y-96119500D01*
X163803090Y-96110567D01*
X163802559Y-96113007D01*
X163763452Y-96104500D01*
X163142115Y-96104500D01*
X163126876Y-96108975D01*
X163125671Y-96110365D01*
X163124000Y-96118048D01*
X163124000Y-96790385D01*
X162616000Y-96790385D01*
X162616000Y-96122615D01*
X162611525Y-96107376D01*
X162610135Y-96106171D01*
X162602452Y-96104500D01*
X161905115Y-96104500D01*
X161889876Y-96108975D01*
X161888671Y-96110365D01*
X161887000Y-96118048D01*
X161887000Y-96120938D01*
X159272198Y-96120938D01*
X158711984Y-95560724D01*
X158677958Y-95498412D01*
X158683023Y-95427597D01*
X158725570Y-95370761D01*
X158792090Y-95345950D01*
X158840013Y-95351795D01*
X158861603Y-95358810D01*
X159067725Y-95383389D01*
X159073860Y-95382917D01*
X159073862Y-95382917D01*
X159268555Y-95367936D01*
X159268560Y-95367935D01*
X159274696Y-95367463D01*
X159280626Y-95365807D01*
X159280628Y-95365807D01*
X159393140Y-95334393D01*
X159474632Y-95311640D01*
X159495328Y-95301186D01*
X159654414Y-95220826D01*
X159654416Y-95220825D01*
X159659917Y-95218046D01*
X159664775Y-95214251D01*
X159664779Y-95214248D01*
X159701307Y-95185710D01*
X159767301Y-95159533D01*
X159778879Y-95159000D01*
X161827894Y-95159000D01*
X161896015Y-95179002D01*
X161942508Y-95232658D01*
X161952612Y-95302932D01*
X161947487Y-95324668D01*
X161899509Y-95469314D01*
X161896642Y-95482690D01*
X161887328Y-95573597D01*
X161887071Y-95578626D01*
X161891475Y-95593624D01*
X161892865Y-95594829D01*
X161900548Y-95596500D01*
X163836487Y-95596500D01*
X163866910Y-95605433D01*
X163867441Y-95602993D01*
X163906548Y-95611500D01*
X165764885Y-95611500D01*
X165780124Y-95607025D01*
X165781329Y-95605635D01*
X165783000Y-95597952D01*
X165783000Y-95595062D01*
X165782663Y-95588547D01*
X165773106Y-95496443D01*
X165770212Y-95483044D01*
X165757409Y-95444669D01*
X181222001Y-95444669D01*
X181222371Y-95451490D01*
X181227895Y-95502352D01*
X181231521Y-95517604D01*
X181276676Y-95638054D01*
X181285214Y-95653649D01*
X181361715Y-95755724D01*
X181374276Y-95768285D01*
X181476351Y-95844786D01*
X181491946Y-95853324D01*
X181612394Y-95898478D01*
X181627649Y-95902105D01*
X181678514Y-95907631D01*
X181685328Y-95908000D01*
X182640885Y-95908000D01*
X182656124Y-95903525D01*
X182657329Y-95902135D01*
X182659000Y-95894452D01*
X182659000Y-95889884D01*
X183167000Y-95889884D01*
X183171475Y-95905123D01*
X183172865Y-95906328D01*
X183180548Y-95907999D01*
X184140669Y-95907999D01*
X184147490Y-95907629D01*
X184198352Y-95902105D01*
X184213604Y-95898479D01*
X184334054Y-95853324D01*
X184349649Y-95844786D01*
X184451724Y-95768285D01*
X184464284Y-95755725D01*
X184526968Y-95672085D01*
X184583827Y-95629569D01*
X184654646Y-95624543D01*
X184716812Y-95658476D01*
X184777424Y-95718982D01*
X184788840Y-95727998D01*
X184921880Y-95810004D01*
X184935061Y-95816151D01*
X185083814Y-95865491D01*
X185097190Y-95868358D01*
X185188097Y-95877672D01*
X185194513Y-95878000D01*
X185217885Y-95878000D01*
X185233124Y-95873525D01*
X185234329Y-95872135D01*
X185236000Y-95864452D01*
X185236000Y-95859885D01*
X185744000Y-95859885D01*
X185748475Y-95875124D01*
X185749865Y-95876329D01*
X185757548Y-95878000D01*
X185785438Y-95878000D01*
X185791953Y-95877663D01*
X185884057Y-95868106D01*
X185897456Y-95865212D01*
X186046107Y-95815619D01*
X186059286Y-95809445D01*
X186192173Y-95727212D01*
X186203574Y-95718176D01*
X186313986Y-95607571D01*
X186322998Y-95596160D01*
X186405004Y-95463120D01*
X186411151Y-95449939D01*
X186460491Y-95301186D01*
X186463358Y-95287810D01*
X186472672Y-95196903D01*
X186472929Y-95191874D01*
X186468525Y-95176876D01*
X186467135Y-95175671D01*
X186459452Y-95174000D01*
X185762115Y-95174000D01*
X185746876Y-95178475D01*
X185745671Y-95179865D01*
X185744000Y-95187548D01*
X185744000Y-95859885D01*
X185236000Y-95859885D01*
X185236000Y-95192115D01*
X185231525Y-95176876D01*
X185230135Y-95175671D01*
X185222452Y-95174000D01*
X184512970Y-95174000D01*
X184486187Y-95171121D01*
X184453452Y-95164000D01*
X183185115Y-95164000D01*
X183169876Y-95168475D01*
X183168671Y-95169865D01*
X183167000Y-95177548D01*
X183167000Y-95889884D01*
X182659000Y-95889884D01*
X182659000Y-95182115D01*
X182654525Y-95166876D01*
X182653135Y-95165671D01*
X182645452Y-95164000D01*
X181240116Y-95164000D01*
X181224877Y-95168475D01*
X181223672Y-95169865D01*
X181222001Y-95177548D01*
X181222001Y-95444669D01*
X165757409Y-95444669D01*
X165720619Y-95334393D01*
X165714445Y-95321215D01*
X165680465Y-95266303D01*
X165661627Y-95197851D01*
X165682788Y-95130082D01*
X165737229Y-95084510D01*
X165787609Y-95074000D01*
X167290631Y-95074000D01*
X167358752Y-95094002D01*
X167372294Y-95104046D01*
X167380324Y-95110880D01*
X167385702Y-95113886D01*
X167385704Y-95113887D01*
X167458657Y-95154659D01*
X167544409Y-95202584D01*
X167723180Y-95260670D01*
X167909830Y-95282927D01*
X167915965Y-95282455D01*
X167915967Y-95282455D01*
X168091105Y-95268979D01*
X168091109Y-95268978D01*
X168097247Y-95268506D01*
X168194149Y-95241450D01*
X168272350Y-95219616D01*
X168272353Y-95219615D01*
X168278294Y-95217956D01*
X168283798Y-95215176D01*
X168283800Y-95215175D01*
X168440574Y-95135983D01*
X168440576Y-95135982D01*
X168446075Y-95133204D01*
X168594199Y-95017477D01*
X168615340Y-94992985D01*
X168712994Y-94879852D01*
X168712995Y-94879850D01*
X168717023Y-94875184D01*
X168809870Y-94711744D01*
X168869203Y-94533382D01*
X168875350Y-94484723D01*
X168903732Y-94419646D01*
X168911261Y-94411420D01*
X169917276Y-93405405D01*
X169979588Y-93371379D01*
X170006371Y-93368500D01*
X175369500Y-93368500D01*
X175437621Y-93388502D01*
X175484114Y-93442158D01*
X175495500Y-93494500D01*
X175495500Y-94458134D01*
X175502255Y-94520316D01*
X175553385Y-94656705D01*
X175640739Y-94773261D01*
X175757295Y-94860615D01*
X175893684Y-94911745D01*
X175955866Y-94918500D01*
X178418134Y-94918500D01*
X178480316Y-94911745D01*
X178616705Y-94860615D01*
X178733261Y-94773261D01*
X178820615Y-94656705D01*
X178871745Y-94520316D01*
X178878500Y-94458134D01*
X178878500Y-93594500D01*
X178898502Y-93526379D01*
X178952158Y-93479886D01*
X179004500Y-93468500D01*
X181331754Y-93468500D01*
X181399875Y-93488502D01*
X181407314Y-93493671D01*
X181483295Y-93550615D01*
X181619684Y-93601745D01*
X181681866Y-93608500D01*
X181924898Y-93608500D01*
X181993019Y-93628502D01*
X182039512Y-93682158D01*
X182049665Y-93740488D01*
X182050100Y-93740477D01*
X182050171Y-93743396D01*
X182050457Y-93745037D01*
X182049696Y-93754099D01*
X182050598Y-93760858D01*
X182050598Y-93760863D01*
X182051729Y-93769338D01*
X182040912Y-93839506D01*
X181993876Y-93892686D01*
X181926836Y-93912001D01*
X181685331Y-93912001D01*
X181678510Y-93912371D01*
X181627648Y-93917895D01*
X181612396Y-93921521D01*
X181491946Y-93966676D01*
X181476351Y-93975214D01*
X181374276Y-94051715D01*
X181361715Y-94064276D01*
X181285214Y-94166351D01*
X181276676Y-94181946D01*
X181231522Y-94302394D01*
X181227895Y-94317649D01*
X181222369Y-94368514D01*
X181222000Y-94375328D01*
X181222000Y-94637885D01*
X181226475Y-94653124D01*
X181227865Y-94654329D01*
X181235548Y-94656000D01*
X184598030Y-94656000D01*
X184624813Y-94658879D01*
X184657548Y-94666000D01*
X186454885Y-94666000D01*
X186470124Y-94661525D01*
X186471329Y-94660135D01*
X186473000Y-94652452D01*
X186473000Y-94649562D01*
X186472663Y-94643047D01*
X186463106Y-94550943D01*
X186460212Y-94537544D01*
X186410619Y-94388893D01*
X186404445Y-94375714D01*
X186322212Y-94242827D01*
X186308629Y-94225689D01*
X186310559Y-94224159D01*
X186282097Y-94172120D01*
X186287113Y-94101301D01*
X186310799Y-94064383D01*
X186309843Y-94063628D01*
X186314381Y-94057882D01*
X186319552Y-94052702D01*
X186324932Y-94043974D01*
X186405462Y-93913331D01*
X186405463Y-93913329D01*
X186409302Y-93907101D01*
X186463149Y-93744757D01*
X186465233Y-93724424D01*
X186469721Y-93680618D01*
X186473500Y-93643732D01*
X186473500Y-93096268D01*
X186462887Y-92993981D01*
X186423980Y-92877364D01*
X186411073Y-92838676D01*
X186411072Y-92838674D01*
X186408756Y-92831732D01*
X186318752Y-92686287D01*
X186320116Y-92685443D01*
X186296732Y-92627658D01*
X186309909Y-92557895D01*
X186314856Y-92549098D01*
X186395462Y-92418331D01*
X186395463Y-92418329D01*
X186399302Y-92412101D01*
X186453149Y-92249757D01*
X186454486Y-92236714D01*
X186458377Y-92198732D01*
X186463500Y-92148732D01*
X186463500Y-91601268D01*
X186452887Y-91498981D01*
X186398756Y-91336732D01*
X186390340Y-91323131D01*
X186312606Y-91197515D01*
X186308752Y-91191287D01*
X186303570Y-91186114D01*
X186299023Y-91180377D01*
X186300830Y-91178945D01*
X186272098Y-91126425D01*
X186277108Y-91055605D01*
X186300499Y-91019147D01*
X186299448Y-91018317D01*
X186312998Y-91001160D01*
X186395004Y-90868120D01*
X186401151Y-90854939D01*
X186450491Y-90706186D01*
X186453358Y-90692810D01*
X186462672Y-90601903D01*
X186462929Y-90596874D01*
X186458525Y-90581876D01*
X186457135Y-90580671D01*
X186449452Y-90579000D01*
X185352000Y-90579000D01*
X185283879Y-90558998D01*
X185237386Y-90505342D01*
X185226000Y-90453000D01*
X185226000Y-90052885D01*
X185734000Y-90052885D01*
X185738475Y-90068124D01*
X185739865Y-90069329D01*
X185747548Y-90071000D01*
X186444885Y-90071000D01*
X186460124Y-90066525D01*
X186461329Y-90065135D01*
X186463000Y-90057452D01*
X186463000Y-90054562D01*
X186462663Y-90048047D01*
X186453106Y-89955943D01*
X186450212Y-89942544D01*
X186400619Y-89793893D01*
X186394445Y-89780714D01*
X186312212Y-89647827D01*
X186303176Y-89636426D01*
X186192571Y-89526014D01*
X186181160Y-89517002D01*
X186048120Y-89434996D01*
X186034939Y-89428849D01*
X185886186Y-89379509D01*
X185872810Y-89376642D01*
X185781903Y-89367328D01*
X185775486Y-89367000D01*
X185752115Y-89367000D01*
X185736876Y-89371475D01*
X185735671Y-89372865D01*
X185734000Y-89380548D01*
X185734000Y-90052885D01*
X185226000Y-90052885D01*
X185226000Y-89385115D01*
X185221525Y-89369876D01*
X185220135Y-89368671D01*
X185212452Y-89367000D01*
X185184562Y-89367000D01*
X185178047Y-89367337D01*
X185085943Y-89376894D01*
X185072544Y-89379788D01*
X184923893Y-89429381D01*
X184910714Y-89435555D01*
X184777827Y-89517788D01*
X184766426Y-89526824D01*
X184723746Y-89569578D01*
X184661463Y-89603657D01*
X184590643Y-89598654D01*
X184533747Y-89556125D01*
X184464643Y-89463920D01*
X184464642Y-89463919D01*
X184459261Y-89456739D01*
X184342705Y-89369385D01*
X184206316Y-89318255D01*
X184144134Y-89311500D01*
X183897500Y-89311500D01*
X183829379Y-89291498D01*
X183782886Y-89237842D01*
X183771500Y-89185500D01*
X183771500Y-89174391D01*
X183771942Y-89163848D01*
X183775733Y-89118700D01*
X183776304Y-89111902D01*
X183765563Y-89031395D01*
X183765193Y-89028341D01*
X183757154Y-88954349D01*
X183756417Y-88947563D01*
X183754239Y-88941092D01*
X183753527Y-88937852D01*
X183753450Y-88937417D01*
X183753334Y-88937017D01*
X183752537Y-88933774D01*
X183751635Y-88927012D01*
X183723839Y-88850644D01*
X183722841Y-88847794D01*
X183699098Y-88777243D01*
X183696922Y-88770777D01*
X183693409Y-88764930D01*
X183692007Y-88761896D01*
X183691847Y-88761508D01*
X183691636Y-88761121D01*
X183690172Y-88758147D01*
X183687838Y-88751733D01*
X183644276Y-88683090D01*
X183642751Y-88680621D01*
X183600853Y-88610891D01*
X183596163Y-88605932D01*
X183594148Y-88603277D01*
X183593640Y-88602546D01*
X183590662Y-88598608D01*
X183587891Y-88594241D01*
X183584071Y-88589968D01*
X183530075Y-88535972D01*
X183527621Y-88533450D01*
X183499307Y-88503509D01*
X183472692Y-88475364D01*
X183467044Y-88471526D01*
X183461852Y-88467107D01*
X183462192Y-88466707D01*
X183454203Y-88460100D01*
X182516320Y-87522217D01*
X182509177Y-87514450D01*
X182479935Y-87479847D01*
X182475529Y-87474633D01*
X182411031Y-87425321D01*
X182408615Y-87423427D01*
X182405286Y-87420750D01*
X182366331Y-87389430D01*
X182350583Y-87376768D01*
X182350582Y-87376767D01*
X182345262Y-87372490D01*
X182339143Y-87369453D01*
X182336348Y-87367665D01*
X182335987Y-87367412D01*
X182335620Y-87367210D01*
X182332762Y-87365479D01*
X182327348Y-87361340D01*
X182253736Y-87327014D01*
X182250964Y-87325680D01*
X182249921Y-87325162D01*
X182178186Y-87289553D01*
X182171565Y-87287902D01*
X182168437Y-87286751D01*
X182168044Y-87286587D01*
X182167639Y-87286468D01*
X182164475Y-87285391D01*
X182158296Y-87282510D01*
X182079000Y-87264785D01*
X182076002Y-87264076D01*
X182003821Y-87246079D01*
X182003820Y-87246079D01*
X181997199Y-87244428D01*
X181990378Y-87244237D01*
X181987075Y-87243785D01*
X181986191Y-87243626D01*
X181981308Y-87242948D01*
X181976260Y-87241820D01*
X181970537Y-87241500D01*
X181894156Y-87241500D01*
X181890637Y-87241451D01*
X181810743Y-87239219D01*
X181804039Y-87240498D01*
X181797238Y-87241045D01*
X181797196Y-87240525D01*
X181786875Y-87241500D01*
X160371390Y-87241500D01*
X160360847Y-87241058D01*
X160360692Y-87241045D01*
X160308901Y-87236696D01*
X160302141Y-87237598D01*
X160302139Y-87237598D01*
X160228398Y-87247437D01*
X160225343Y-87247807D01*
X160195743Y-87251023D01*
X160144563Y-87256583D01*
X160138099Y-87258758D01*
X160134824Y-87259478D01*
X160134428Y-87259548D01*
X160134004Y-87259671D01*
X160130784Y-87260462D01*
X160124011Y-87261366D01*
X160047677Y-87289149D01*
X160044802Y-87290156D01*
X160026356Y-87296364D01*
X159967777Y-87316078D01*
X159961923Y-87319596D01*
X159958916Y-87320985D01*
X159958511Y-87321152D01*
X159958135Y-87321357D01*
X159955148Y-87322827D01*
X159948732Y-87325162D01*
X159880080Y-87368730D01*
X159877611Y-87370255D01*
X159807891Y-87412147D01*
X159802934Y-87416834D01*
X159800277Y-87418851D01*
X159799543Y-87419361D01*
X159795605Y-87422339D01*
X159791241Y-87425109D01*
X159786968Y-87428929D01*
X159732972Y-87482925D01*
X159730450Y-87485379D01*
X159672364Y-87540308D01*
X159668526Y-87545956D01*
X159664107Y-87551148D01*
X159663707Y-87550808D01*
X159657100Y-87558797D01*
X159179095Y-88036802D01*
X159116783Y-88070828D01*
X159045968Y-88065763D01*
X159000905Y-88036802D01*
X158456320Y-87492217D01*
X158449177Y-87484450D01*
X158419935Y-87449847D01*
X158415529Y-87444633D01*
X158396626Y-87430180D01*
X158355751Y-87398929D01*
X158351031Y-87395321D01*
X158348615Y-87393427D01*
X158290583Y-87346768D01*
X158290582Y-87346767D01*
X158285262Y-87342490D01*
X158279143Y-87339453D01*
X158276348Y-87337665D01*
X158275987Y-87337412D01*
X158275620Y-87337210D01*
X158272762Y-87335479D01*
X158267348Y-87331340D01*
X158193736Y-87297014D01*
X158190964Y-87295680D01*
X158189921Y-87295162D01*
X158118186Y-87259553D01*
X158111565Y-87257902D01*
X158108437Y-87256751D01*
X158108044Y-87256587D01*
X158107639Y-87256468D01*
X158104475Y-87255391D01*
X158098296Y-87252510D01*
X158019000Y-87234785D01*
X158016002Y-87234076D01*
X157943821Y-87216079D01*
X157943820Y-87216079D01*
X157937199Y-87214428D01*
X157930378Y-87214237D01*
X157927075Y-87213785D01*
X157926191Y-87213626D01*
X157921308Y-87212948D01*
X157916260Y-87211820D01*
X157910537Y-87211500D01*
X157834156Y-87211500D01*
X157830637Y-87211451D01*
X157750743Y-87209219D01*
X157744039Y-87210498D01*
X157737238Y-87211045D01*
X157737196Y-87210525D01*
X157726875Y-87211500D01*
X136881390Y-87211500D01*
X136870847Y-87211058D01*
X136870692Y-87211045D01*
X136818901Y-87206696D01*
X136812141Y-87207598D01*
X136812139Y-87207598D01*
X136738398Y-87217437D01*
X136735343Y-87217807D01*
X136703111Y-87221309D01*
X136654563Y-87226583D01*
X136648099Y-87228758D01*
X136644824Y-87229478D01*
X136644428Y-87229548D01*
X136644004Y-87229671D01*
X136640784Y-87230462D01*
X136634011Y-87231366D01*
X136557677Y-87259149D01*
X136554802Y-87260156D01*
X136541048Y-87264785D01*
X136477777Y-87286078D01*
X136471923Y-87289596D01*
X136468916Y-87290985D01*
X136468511Y-87291152D01*
X136468135Y-87291357D01*
X136465148Y-87292827D01*
X136458732Y-87295162D01*
X136390080Y-87338730D01*
X136387611Y-87340255D01*
X136317891Y-87382147D01*
X136312934Y-87386834D01*
X136310277Y-87388851D01*
X136309543Y-87389361D01*
X136305605Y-87392339D01*
X136301241Y-87395109D01*
X136296968Y-87398929D01*
X136242972Y-87452925D01*
X136240450Y-87455379D01*
X136182364Y-87510308D01*
X136178526Y-87515956D01*
X136174107Y-87521148D01*
X136173707Y-87520808D01*
X136167100Y-87528797D01*
X135012217Y-88683680D01*
X135004451Y-88690822D01*
X134964633Y-88724471D01*
X134960486Y-88729895D01*
X134960485Y-88729896D01*
X134915326Y-88788962D01*
X134913432Y-88791379D01*
X134862490Y-88854738D01*
X134859453Y-88860857D01*
X134857665Y-88863652D01*
X134857412Y-88864013D01*
X134857210Y-88864380D01*
X134855479Y-88867238D01*
X134851340Y-88872652D01*
X134821092Y-88937519D01*
X134817015Y-88946262D01*
X134815681Y-88949033D01*
X134779553Y-89021814D01*
X134777902Y-89028435D01*
X134776751Y-89031563D01*
X134776587Y-89031956D01*
X134776468Y-89032361D01*
X134775391Y-89035525D01*
X134772510Y-89041704D01*
X134771023Y-89048358D01*
X134754785Y-89121002D01*
X134754076Y-89123998D01*
X134734428Y-89202801D01*
X134734237Y-89209622D01*
X134733785Y-89212925D01*
X134733626Y-89213809D01*
X134732948Y-89218692D01*
X134731820Y-89223740D01*
X134731500Y-89229463D01*
X134731500Y-89305844D01*
X134731451Y-89309363D01*
X134729219Y-89389257D01*
X134730498Y-89395961D01*
X134731045Y-89402762D01*
X134730525Y-89402804D01*
X134731500Y-89413125D01*
X134731500Y-119261332D01*
X134711498Y-119329453D01*
X134687331Y-119357143D01*
X134534244Y-119487892D01*
X134520031Y-119500031D01*
X134365824Y-119680584D01*
X134363245Y-119684792D01*
X134363241Y-119684798D01*
X134253277Y-119864243D01*
X134241760Y-119883037D01*
X134239867Y-119887607D01*
X134239865Y-119887611D01*
X134153044Y-120097218D01*
X134150895Y-120102406D01*
X134144616Y-120128560D01*
X134096663Y-120328301D01*
X134095465Y-120333289D01*
X134076835Y-120570000D01*
X134095465Y-120806711D01*
X134096619Y-120811518D01*
X134096620Y-120811524D01*
X134131640Y-120957391D01*
X134150895Y-121037594D01*
X134152788Y-121042165D01*
X134152789Y-121042167D01*
X134239543Y-121251610D01*
X134241760Y-121256963D01*
X134244346Y-121261183D01*
X134363241Y-121455202D01*
X134363245Y-121455208D01*
X134365824Y-121459416D01*
X134520031Y-121639969D01*
X134523787Y-121643177D01*
X134687331Y-121782857D01*
X134726140Y-121842308D01*
X134731500Y-121878668D01*
X134731500Y-123208610D01*
X134731058Y-123219152D01*
X134726696Y-123271099D01*
X134727598Y-123277859D01*
X134727598Y-123277861D01*
X134737437Y-123351602D01*
X134737807Y-123354657D01*
X134740836Y-123382535D01*
X134746583Y-123435437D01*
X134748758Y-123441901D01*
X134749478Y-123445176D01*
X134749548Y-123445572D01*
X134749671Y-123445996D01*
X134750462Y-123449216D01*
X134751366Y-123455989D01*
X134779139Y-123532294D01*
X134780156Y-123535198D01*
X134806078Y-123612223D01*
X134809596Y-123618077D01*
X134810985Y-123621084D01*
X134811152Y-123621489D01*
X134811357Y-123621865D01*
X134812827Y-123624852D01*
X134815162Y-123631268D01*
X134858730Y-123699920D01*
X134860255Y-123702389D01*
X134902147Y-123772109D01*
X134906834Y-123777066D01*
X134908851Y-123779723D01*
X134909369Y-123780469D01*
X134912344Y-123784402D01*
X134915109Y-123788759D01*
X134918930Y-123793032D01*
X134972909Y-123847011D01*
X134975363Y-123849533D01*
X135030308Y-123907636D01*
X135035956Y-123911474D01*
X135041148Y-123915893D01*
X135040808Y-123916293D01*
X135048800Y-123922902D01*
X136055109Y-124929212D01*
X136062251Y-124936978D01*
X136095900Y-124976796D01*
X136101324Y-124980943D01*
X136101325Y-124980944D01*
X136160391Y-125026103D01*
X136162808Y-125027997D01*
X136226167Y-125078939D01*
X136232286Y-125081976D01*
X136235081Y-125083764D01*
X136235442Y-125084017D01*
X136235809Y-125084219D01*
X136238667Y-125085950D01*
X136244081Y-125090089D01*
X136274115Y-125104094D01*
X136317691Y-125124414D01*
X136320462Y-125125748D01*
X136393243Y-125161876D01*
X136399864Y-125163527D01*
X136402992Y-125164678D01*
X136403385Y-125164842D01*
X136403790Y-125164961D01*
X136406954Y-125166038D01*
X136413133Y-125168919D01*
X136462788Y-125180018D01*
X136492431Y-125186644D01*
X136495427Y-125187353D01*
X136525496Y-125194850D01*
X136574230Y-125207001D01*
X136581051Y-125207192D01*
X136584354Y-125207644D01*
X136585238Y-125207803D01*
X136590121Y-125208481D01*
X136595169Y-125209609D01*
X136600892Y-125209929D01*
X136677273Y-125209929D01*
X136680792Y-125209978D01*
X136760686Y-125212210D01*
X136767390Y-125210931D01*
X136774191Y-125210384D01*
X136774233Y-125210904D01*
X136784554Y-125209929D01*
X137344071Y-125209929D01*
X137412192Y-125229931D01*
X137458685Y-125283587D01*
X137470071Y-125335929D01*
X137470071Y-126842666D01*
X137450069Y-126910787D01*
X137396413Y-126957280D01*
X137388300Y-126960648D01*
X137266705Y-127006232D01*
X137266704Y-127006233D01*
X137258295Y-127009385D01*
X137141739Y-127096739D01*
X137054385Y-127213295D01*
X137003255Y-127349684D01*
X136996500Y-127411866D01*
X136996500Y-129208134D01*
X137003255Y-129270316D01*
X137039948Y-129368193D01*
X137048599Y-129391270D01*
X137053782Y-129462077D01*
X137019861Y-129524446D01*
X136957606Y-129558576D01*
X136930617Y-129561500D01*
X134330973Y-129561500D01*
X134262852Y-129541498D01*
X134216359Y-129487842D01*
X134206255Y-129417568D01*
X134234099Y-129354931D01*
X134237225Y-129351173D01*
X134338840Y-129228993D01*
X134442876Y-129043223D01*
X134511316Y-128841605D01*
X134514076Y-128822575D01*
X134541337Y-128634561D01*
X134541337Y-128634559D01*
X134541869Y-128630891D01*
X134543463Y-128570000D01*
X134525996Y-128379908D01*
X134524510Y-128363730D01*
X134524509Y-128363727D01*
X134523981Y-128357976D01*
X134510450Y-128310000D01*
X134467754Y-128158611D01*
X134467753Y-128158609D01*
X134466186Y-128153052D01*
X134456846Y-128134111D01*
X134374570Y-127967273D01*
X134372015Y-127962092D01*
X134244622Y-127791491D01*
X134088271Y-127646963D01*
X133908201Y-127533347D01*
X133710441Y-127454449D01*
X133704781Y-127453323D01*
X133704777Y-127453322D01*
X133507282Y-127414038D01*
X133507280Y-127414038D01*
X133501615Y-127412911D01*
X133495840Y-127412835D01*
X133495836Y-127412835D01*
X133389161Y-127411439D01*
X133288716Y-127410124D01*
X133283019Y-127411103D01*
X133283018Y-127411103D01*
X133084564Y-127445203D01*
X133084561Y-127445204D01*
X133078874Y-127446181D01*
X132879116Y-127519875D01*
X132696134Y-127628739D01*
X132536054Y-127769125D01*
X132404238Y-127936333D01*
X132401549Y-127941444D01*
X132401547Y-127941447D01*
X132347085Y-128044961D01*
X132305100Y-128124762D01*
X132303386Y-128130283D01*
X132303384Y-128130287D01*
X132257923Y-128276695D01*
X132241961Y-128328102D01*
X132216936Y-128539544D01*
X132218932Y-128570000D01*
X132230861Y-128752006D01*
X132232283Y-128757604D01*
X132232283Y-128757606D01*
X132255006Y-128847075D01*
X132283272Y-128958372D01*
X132285689Y-128963615D01*
X132363291Y-129131947D01*
X132372411Y-129151731D01*
X132495296Y-129325609D01*
X132499430Y-129329636D01*
X132499435Y-129329642D01*
X132515453Y-129345246D01*
X132550291Y-129407107D01*
X132546154Y-129477983D01*
X132504355Y-129535371D01*
X132438165Y-129561051D01*
X132427532Y-129561500D01*
X131429367Y-129561500D01*
X131409982Y-129560000D01*
X131395148Y-129557690D01*
X131395145Y-129557690D01*
X131386276Y-129556309D01*
X131377373Y-129557473D01*
X131377372Y-129557473D01*
X131366924Y-129558839D01*
X131344406Y-129559751D01*
X131043949Y-129544990D01*
X131031655Y-129543779D01*
X130704966Y-129495320D01*
X130692844Y-129492910D01*
X130520267Y-129449681D01*
X130372477Y-129412661D01*
X130360645Y-129409072D01*
X130049689Y-129297810D01*
X130038265Y-129293078D01*
X129827700Y-129193489D01*
X129739708Y-129151872D01*
X129728812Y-129146047D01*
X129512694Y-129016511D01*
X129445533Y-128976256D01*
X129435252Y-128969386D01*
X129364483Y-128916901D01*
X129169983Y-128772650D01*
X129160444Y-128764823D01*
X128915718Y-128543015D01*
X128906980Y-128534277D01*
X128906555Y-128533808D01*
X128685177Y-128289556D01*
X128677350Y-128280017D01*
X128480614Y-128014748D01*
X128473744Y-128004467D01*
X128335400Y-127773655D01*
X128303953Y-127721188D01*
X128298126Y-127710288D01*
X128279351Y-127670590D01*
X128208068Y-127519875D01*
X128156922Y-127411735D01*
X128152190Y-127400311D01*
X128040928Y-127089355D01*
X128037339Y-127077523D01*
X127957091Y-126757159D01*
X127954679Y-126745031D01*
X127940169Y-126647211D01*
X127906220Y-126418343D01*
X127905009Y-126406045D01*
X127890795Y-126116695D01*
X127892387Y-126089619D01*
X127893576Y-126082552D01*
X127893729Y-126070000D01*
X127889773Y-126042376D01*
X127888500Y-126024514D01*
X127888500Y-125020221D01*
X127908502Y-124952100D01*
X127962158Y-124905607D01*
X128032432Y-124895503D01*
X128097012Y-124924997D01*
X128102422Y-124929967D01*
X128125142Y-124952100D01*
X128147809Y-124974181D01*
X128152605Y-124977386D01*
X128152608Y-124977388D01*
X128250499Y-125042796D01*
X128324843Y-125092471D01*
X128330146Y-125094749D01*
X128330149Y-125094751D01*
X128513413Y-125173487D01*
X128520470Y-125176519D01*
X128578457Y-125189640D01*
X128722501Y-125222234D01*
X128722506Y-125222235D01*
X128728138Y-125223509D01*
X128733909Y-125223736D01*
X128733911Y-125223736D01*
X128795252Y-125226146D01*
X128940891Y-125231869D01*
X128946600Y-125231041D01*
X128946604Y-125231041D01*
X129145890Y-125202145D01*
X129145894Y-125202144D01*
X129151605Y-125201316D01*
X129353223Y-125132876D01*
X129538993Y-125028840D01*
X129702693Y-124892693D01*
X129838840Y-124728993D01*
X129942876Y-124543223D01*
X130011316Y-124341605D01*
X130012699Y-124332071D01*
X130041337Y-124134561D01*
X130041337Y-124134559D01*
X130041869Y-124130891D01*
X130043463Y-124070000D01*
X130028544Y-123907636D01*
X130024510Y-123863730D01*
X130024509Y-123863727D01*
X130023981Y-123857976D01*
X129990935Y-123740804D01*
X129967754Y-123658611D01*
X129967753Y-123658609D01*
X129966186Y-123653052D01*
X129962356Y-123645284D01*
X129874570Y-123467273D01*
X129872015Y-123462092D01*
X129866943Y-123455299D01*
X129755939Y-123306647D01*
X129744622Y-123291491D01*
X129588271Y-123146963D01*
X129408201Y-123033347D01*
X129210441Y-122954449D01*
X129204781Y-122953323D01*
X129204777Y-122953322D01*
X129007282Y-122914038D01*
X129007280Y-122914038D01*
X129001615Y-122912911D01*
X128995840Y-122912835D01*
X128995836Y-122912835D01*
X128889161Y-122911439D01*
X128788716Y-122910124D01*
X128783019Y-122911103D01*
X128783018Y-122911103D01*
X128584564Y-122945203D01*
X128584561Y-122945204D01*
X128578874Y-122946181D01*
X128379116Y-123019875D01*
X128280794Y-123078371D01*
X128209618Y-123120717D01*
X128196134Y-123128739D01*
X128099777Y-123213242D01*
X128097577Y-123215171D01*
X128033173Y-123245048D01*
X127962840Y-123235362D01*
X127908909Y-123189189D01*
X127888500Y-123120439D01*
X127888500Y-106160221D01*
X127908502Y-106092100D01*
X127962158Y-106045607D01*
X128032432Y-106035503D01*
X128097012Y-106064997D01*
X128102422Y-106069967D01*
X128125142Y-106092100D01*
X128147809Y-106114181D01*
X128152605Y-106117386D01*
X128152608Y-106117388D01*
X128268979Y-106195144D01*
X128324843Y-106232471D01*
X128330146Y-106234749D01*
X128330149Y-106234751D01*
X128512191Y-106312962D01*
X128520470Y-106316519D01*
X128596316Y-106333681D01*
X128722501Y-106362234D01*
X128722506Y-106362235D01*
X128728138Y-106363509D01*
X128733909Y-106363736D01*
X128733911Y-106363736D01*
X128795252Y-106366146D01*
X128940891Y-106371869D01*
X128946600Y-106371041D01*
X128946604Y-106371041D01*
X129145890Y-106342145D01*
X129145894Y-106342144D01*
X129151605Y-106341316D01*
X129353223Y-106272876D01*
X129538993Y-106168840D01*
X129702693Y-106032693D01*
X129838840Y-105868993D01*
X129942876Y-105683223D01*
X130011316Y-105481605D01*
X130013459Y-105466830D01*
X130041337Y-105274561D01*
X130041337Y-105274559D01*
X130041869Y-105270891D01*
X130043463Y-105210000D01*
X130026446Y-105024804D01*
X130024510Y-105003730D01*
X130024509Y-105003727D01*
X130023981Y-104997976D01*
X130016949Y-104973044D01*
X129967754Y-104798611D01*
X129967753Y-104798609D01*
X129966186Y-104793052D01*
X129959368Y-104779225D01*
X129874570Y-104607273D01*
X129872015Y-104602092D01*
X129744622Y-104431491D01*
X129588271Y-104286963D01*
X129408201Y-104173347D01*
X129210441Y-104094449D01*
X129204781Y-104093323D01*
X129204777Y-104093322D01*
X129007282Y-104054038D01*
X129007280Y-104054038D01*
X129001615Y-104052911D01*
X128995840Y-104052835D01*
X128995836Y-104052835D01*
X128889161Y-104051439D01*
X128788716Y-104050124D01*
X128783019Y-104051103D01*
X128783018Y-104051103D01*
X128584564Y-104085203D01*
X128584561Y-104085204D01*
X128578874Y-104086181D01*
X128379116Y-104159875D01*
X128292442Y-104211441D01*
X128209618Y-104260717D01*
X128196134Y-104268739D01*
X128142524Y-104315754D01*
X128097577Y-104355171D01*
X128033173Y-104385048D01*
X127962840Y-104375362D01*
X127908909Y-104329189D01*
X127888500Y-104260439D01*
X127888500Y-88300221D01*
X127908502Y-88232100D01*
X127962158Y-88185607D01*
X128032432Y-88175503D01*
X128097012Y-88204997D01*
X128102422Y-88209967D01*
X128147809Y-88254181D01*
X128152605Y-88257386D01*
X128152608Y-88257388D01*
X128216713Y-88300221D01*
X128324843Y-88372471D01*
X128330146Y-88374749D01*
X128330149Y-88374751D01*
X128412324Y-88410056D01*
X128520470Y-88456519D01*
X128565495Y-88466707D01*
X128722501Y-88502234D01*
X128722506Y-88502235D01*
X128728138Y-88503509D01*
X128733909Y-88503736D01*
X128733911Y-88503736D01*
X128795252Y-88506146D01*
X128940891Y-88511869D01*
X128946600Y-88511041D01*
X128946604Y-88511041D01*
X129145890Y-88482145D01*
X129145894Y-88482144D01*
X129151605Y-88481316D01*
X129353223Y-88412876D01*
X129538993Y-88308840D01*
X129702693Y-88172693D01*
X129838840Y-88008993D01*
X129942876Y-87823223D01*
X130011316Y-87621605D01*
X130021582Y-87550808D01*
X130041337Y-87414561D01*
X130041337Y-87414559D01*
X130041869Y-87410891D01*
X130043463Y-87350000D01*
X130023981Y-87137976D01*
X129966186Y-86933052D01*
X129872015Y-86742092D01*
X129744622Y-86571491D01*
X129588271Y-86426963D01*
X129408201Y-86313347D01*
X129210441Y-86234449D01*
X129204781Y-86233323D01*
X129204777Y-86233322D01*
X129007282Y-86194038D01*
X129007280Y-86194038D01*
X129001615Y-86192911D01*
X128995840Y-86192835D01*
X128995836Y-86192835D01*
X128889161Y-86191439D01*
X128788716Y-86190124D01*
X128783019Y-86191103D01*
X128783018Y-86191103D01*
X128584564Y-86225203D01*
X128584561Y-86225204D01*
X128578874Y-86226181D01*
X128379116Y-86299875D01*
X128356472Y-86313347D01*
X128209618Y-86400717D01*
X128196134Y-86408739D01*
X128170878Y-86430888D01*
X128097577Y-86495171D01*
X128033173Y-86525048D01*
X127962840Y-86515362D01*
X127908909Y-86469189D01*
X127888500Y-86400439D01*
X127888500Y-85403250D01*
X127890246Y-85382345D01*
X127892770Y-85367344D01*
X127892770Y-85367341D01*
X127893576Y-85362552D01*
X127893729Y-85350000D01*
X127893040Y-85345185D01*
X127893039Y-85345177D01*
X127891550Y-85334781D01*
X127890429Y-85310735D01*
X127898816Y-85140031D01*
X127905010Y-85013949D01*
X127906221Y-85001650D01*
X127926972Y-84861760D01*
X127954680Y-84674966D01*
X127957091Y-84662841D01*
X128037339Y-84342477D01*
X128040928Y-84330645D01*
X128152190Y-84019689D01*
X128156922Y-84008265D01*
X128298126Y-83709712D01*
X128303955Y-83698807D01*
X128322268Y-83668255D01*
X128420743Y-83503959D01*
X128473744Y-83415533D01*
X128480614Y-83405252D01*
X128545506Y-83317755D01*
X128677350Y-83139983D01*
X128685177Y-83130444D01*
X128906985Y-82885718D01*
X128915718Y-82876985D01*
X129160444Y-82655177D01*
X129169983Y-82647350D01*
X129435252Y-82450614D01*
X129445533Y-82443744D01*
X129587899Y-82358412D01*
X129728812Y-82273953D01*
X129739708Y-82268128D01*
X129970500Y-82158972D01*
X130038265Y-82126922D01*
X130049689Y-82122190D01*
X130360645Y-82010928D01*
X130372477Y-82007339D01*
X130672613Y-81932158D01*
X130692844Y-81927090D01*
X130704966Y-81924680D01*
X131031655Y-81876221D01*
X131043949Y-81875010D01*
X131337039Y-81860610D01*
X131362598Y-81861958D01*
X131373724Y-81863691D01*
X131405286Y-81859564D01*
X131421621Y-81858500D01*
X132426555Y-81858500D01*
X132494676Y-81878502D01*
G37*
%TD.AperFunction*%
%TA.AperFunction,Conductor*%
G36*
X141314532Y-112082894D02*
G01*
X141371368Y-112125441D01*
X141396179Y-112191961D01*
X141396500Y-112200950D01*
X141396500Y-112455134D01*
X141403255Y-112517316D01*
X141454385Y-112653705D01*
X141541739Y-112770261D01*
X141658295Y-112857615D01*
X141658951Y-112857861D01*
X141706157Y-112905175D01*
X141721500Y-112965433D01*
X141721500Y-116137944D01*
X141720941Y-116149800D01*
X141719212Y-116157537D01*
X141719461Y-116165459D01*
X141721438Y-116228369D01*
X141721500Y-116232327D01*
X141721500Y-116261432D01*
X141722056Y-116265832D01*
X141722988Y-116277664D01*
X141724438Y-116323831D01*
X141728856Y-116339036D01*
X141730419Y-116344416D01*
X141734430Y-116363782D01*
X141737118Y-116385064D01*
X141740034Y-116392429D01*
X141740035Y-116392433D01*
X141754126Y-116428021D01*
X141757965Y-116439231D01*
X141770855Y-116483600D01*
X141781775Y-116502065D01*
X141790466Y-116519805D01*
X141798365Y-116539756D01*
X141817044Y-116565465D01*
X141825516Y-116577126D01*
X141832033Y-116587048D01*
X141851507Y-116619977D01*
X141851510Y-116619981D01*
X141855547Y-116626807D01*
X141870711Y-116641971D01*
X141883551Y-116657004D01*
X141896159Y-116674357D01*
X141931752Y-116703802D01*
X141940532Y-116711792D01*
X144538437Y-119309697D01*
X144572463Y-119372009D01*
X144567398Y-119442824D01*
X144538658Y-119487543D01*
X144535744Y-119490031D01*
X144532531Y-119493793D01*
X144532528Y-119493796D01*
X144529943Y-119496823D01*
X144381537Y-119670584D01*
X144378958Y-119674792D01*
X144378954Y-119674798D01*
X144360230Y-119705353D01*
X144257473Y-119873037D01*
X144255580Y-119877607D01*
X144255578Y-119877611D01*
X144168502Y-120087833D01*
X144166608Y-120092406D01*
X144165453Y-120097218D01*
X144119339Y-120289297D01*
X144111178Y-120323289D01*
X144092548Y-120560000D01*
X144111178Y-120796711D01*
X144112332Y-120801518D01*
X144112333Y-120801524D01*
X144128654Y-120869505D01*
X144166608Y-121027594D01*
X144168501Y-121032165D01*
X144168502Y-121032167D01*
X144255485Y-121242163D01*
X144257473Y-121246963D01*
X144260059Y-121251183D01*
X144378954Y-121445202D01*
X144378958Y-121445208D01*
X144381537Y-121449416D01*
X144535744Y-121629969D01*
X144716297Y-121784176D01*
X144720505Y-121786755D01*
X144720511Y-121786759D01*
X144872962Y-121880181D01*
X144918750Y-121908240D01*
X144923320Y-121910133D01*
X144923324Y-121910135D01*
X145133546Y-121997211D01*
X145138119Y-121999105D01*
X145142933Y-122000261D01*
X145142940Y-122000263D01*
X145234915Y-122022345D01*
X145296484Y-122057697D01*
X145329166Y-122120724D01*
X145331500Y-122144863D01*
X145331500Y-127036897D01*
X145311498Y-127105018D01*
X145263677Y-127148662D01*
X145248607Y-127156507D01*
X145069965Y-127290635D01*
X145066393Y-127294373D01*
X144921322Y-127446181D01*
X144915629Y-127452138D01*
X144808204Y-127609618D01*
X144807898Y-127610066D01*
X144752987Y-127655069D01*
X144682462Y-127663240D01*
X144618715Y-127631986D01*
X144598018Y-127607502D01*
X144517426Y-127482926D01*
X144511136Y-127474757D01*
X144367806Y-127317240D01*
X144360273Y-127310215D01*
X144193139Y-127178222D01*
X144184552Y-127172517D01*
X143998117Y-127069599D01*
X143988705Y-127065369D01*
X143787959Y-126994280D01*
X143777988Y-126991646D01*
X143706837Y-126978972D01*
X143693540Y-126980432D01*
X143689000Y-126994989D01*
X143689000Y-128438000D01*
X143668998Y-128506121D01*
X143615342Y-128552614D01*
X143563000Y-128564000D01*
X143307000Y-128564000D01*
X143238879Y-128543998D01*
X143192386Y-128490342D01*
X143181000Y-128438000D01*
X143181000Y-126993102D01*
X143177082Y-126979758D01*
X143162806Y-126977771D01*
X143124324Y-126983660D01*
X143114288Y-126986051D01*
X142911868Y-127052212D01*
X142902359Y-127056209D01*
X142713463Y-127154542D01*
X142704738Y-127160036D01*
X142534433Y-127287905D01*
X142526726Y-127294748D01*
X142379590Y-127448717D01*
X142373109Y-127456722D01*
X142268498Y-127610074D01*
X142213587Y-127655076D01*
X142143062Y-127663247D01*
X142079315Y-127631993D01*
X142058618Y-127607509D01*
X141977822Y-127482617D01*
X141977820Y-127482614D01*
X141975014Y-127478277D01*
X141824670Y-127313051D01*
X141820619Y-127309852D01*
X141820615Y-127309848D01*
X141709004Y-127221703D01*
X141686407Y-127203857D01*
X141645345Y-127145941D01*
X141638500Y-127104976D01*
X141638500Y-125282059D01*
X141639059Y-125270203D01*
X141640789Y-125262463D01*
X141639767Y-125229931D01*
X141638562Y-125191611D01*
X141638500Y-125187653D01*
X141638500Y-125158568D01*
X141637946Y-125154179D01*
X141637013Y-125142337D01*
X141636775Y-125134741D01*
X141635562Y-125096169D01*
X141629580Y-125075579D01*
X141625570Y-125056216D01*
X141623875Y-125042796D01*
X141623875Y-125042795D01*
X141622882Y-125034936D01*
X141619966Y-125027571D01*
X141619965Y-125027567D01*
X141605874Y-124991979D01*
X141602035Y-124980769D01*
X141589145Y-124936400D01*
X141578225Y-124917935D01*
X141569534Y-124900195D01*
X141561635Y-124880244D01*
X141534482Y-124842871D01*
X141527967Y-124832952D01*
X141508493Y-124800023D01*
X141508490Y-124800019D01*
X141504453Y-124793193D01*
X141489289Y-124778029D01*
X141476448Y-124762995D01*
X141468501Y-124752057D01*
X141463841Y-124745643D01*
X141428247Y-124716197D01*
X141419468Y-124708208D01*
X139623976Y-122912716D01*
X139589950Y-122850404D01*
X139587071Y-122823621D01*
X139587071Y-121956246D01*
X139607073Y-121888125D01*
X139647236Y-121848814D01*
X139738854Y-121792670D01*
X141399302Y-121792670D01*
X141405029Y-121800320D01*
X141576184Y-121905205D01*
X141584979Y-121909687D01*
X141795130Y-121996734D01*
X141804515Y-121999783D01*
X142025696Y-122052885D01*
X142035443Y-122054428D01*
X142262212Y-122072275D01*
X142272072Y-122072275D01*
X142498841Y-122054428D01*
X142508588Y-122052885D01*
X142729769Y-121999783D01*
X142739154Y-121996734D01*
X142949305Y-121909687D01*
X142958100Y-121905205D01*
X143125587Y-121802568D01*
X143135049Y-121792110D01*
X143131266Y-121783334D01*
X142279954Y-120932022D01*
X142266010Y-120924408D01*
X142264177Y-120924539D01*
X142257562Y-120928790D01*
X141406062Y-121780290D01*
X141399302Y-121792670D01*
X139738854Y-121792670D01*
X139813764Y-121746765D01*
X139813774Y-121746758D01*
X139817987Y-121744176D01*
X139998540Y-121589969D01*
X140152747Y-121409416D01*
X140155326Y-121405208D01*
X140155330Y-121405202D01*
X140274225Y-121211183D01*
X140276811Y-121206963D01*
X140285658Y-121185606D01*
X140365782Y-120992167D01*
X140365783Y-120992165D01*
X140367676Y-120987594D01*
X140399132Y-120856571D01*
X140421951Y-120761524D01*
X140421952Y-120761518D01*
X140423106Y-120756711D01*
X140438200Y-120564930D01*
X140754867Y-120564930D01*
X140772714Y-120791699D01*
X140774257Y-120801446D01*
X140827359Y-121022627D01*
X140830408Y-121032012D01*
X140917455Y-121242163D01*
X140921937Y-121250958D01*
X141024574Y-121418445D01*
X141035032Y-121427907D01*
X141043808Y-121424124D01*
X141895120Y-120572812D01*
X141901498Y-120561132D01*
X142631550Y-120561132D01*
X142631681Y-120562965D01*
X142635932Y-120569580D01*
X143487432Y-121421080D01*
X143499812Y-121427840D01*
X143507462Y-121422113D01*
X143612347Y-121250958D01*
X143616829Y-121242163D01*
X143703876Y-121032012D01*
X143706925Y-121022627D01*
X143760027Y-120801446D01*
X143761570Y-120791699D01*
X143779417Y-120564930D01*
X143779417Y-120555070D01*
X143761570Y-120328301D01*
X143760027Y-120318554D01*
X143706925Y-120097373D01*
X143703876Y-120087988D01*
X143616829Y-119877837D01*
X143612347Y-119869042D01*
X143509710Y-119701555D01*
X143499252Y-119692093D01*
X143490476Y-119695876D01*
X142639164Y-120547188D01*
X142631550Y-120561132D01*
X141901498Y-120561132D01*
X141902734Y-120558868D01*
X141902603Y-120557035D01*
X141898352Y-120550420D01*
X141046852Y-119698920D01*
X141034472Y-119692160D01*
X141026822Y-119697887D01*
X140921937Y-119869042D01*
X140917455Y-119877837D01*
X140830408Y-120087988D01*
X140827359Y-120097373D01*
X140774257Y-120318554D01*
X140772714Y-120328301D01*
X140754867Y-120555070D01*
X140754867Y-120564930D01*
X140438200Y-120564930D01*
X140441736Y-120520000D01*
X140423106Y-120283289D01*
X140420346Y-120271789D01*
X140378582Y-120097833D01*
X140367676Y-120052406D01*
X140330269Y-119962097D01*
X140278706Y-119837611D01*
X140278704Y-119837607D01*
X140276811Y-119833037D01*
X140198566Y-119705353D01*
X140155330Y-119634798D01*
X140155326Y-119634792D01*
X140152747Y-119630584D01*
X139998540Y-119450031D01*
X139855531Y-119327890D01*
X141399235Y-119327890D01*
X141403018Y-119336666D01*
X142254330Y-120187978D01*
X142268274Y-120195592D01*
X142270107Y-120195461D01*
X142276722Y-120191210D01*
X143128222Y-119339710D01*
X143134982Y-119327330D01*
X143129255Y-119319680D01*
X142958100Y-119214795D01*
X142949305Y-119210313D01*
X142739154Y-119123266D01*
X142729769Y-119120217D01*
X142508588Y-119067115D01*
X142498841Y-119065572D01*
X142272072Y-119047725D01*
X142262212Y-119047725D01*
X142035443Y-119065572D01*
X142025696Y-119067115D01*
X141804515Y-119120217D01*
X141795130Y-119123266D01*
X141584979Y-119210313D01*
X141576184Y-119214795D01*
X141408697Y-119317432D01*
X141399235Y-119327890D01*
X139855531Y-119327890D01*
X139817987Y-119295824D01*
X139813774Y-119293242D01*
X139813764Y-119293235D01*
X139647236Y-119191186D01*
X139599605Y-119138539D01*
X139587071Y-119083754D01*
X139587071Y-117746379D01*
X139607073Y-117678258D01*
X139623976Y-117657284D01*
X140487605Y-116793655D01*
X140496385Y-116785665D01*
X140496387Y-116785663D01*
X140503080Y-116781416D01*
X140551605Y-116729742D01*
X140554359Y-116726901D01*
X140574927Y-116706333D01*
X140577647Y-116702826D01*
X140585353Y-116693804D01*
X140616972Y-116660133D01*
X140623101Y-116648985D01*
X140627303Y-116641342D01*
X140638157Y-116624818D01*
X140646445Y-116614132D01*
X140651304Y-116607868D01*
X140657824Y-116592801D01*
X140669654Y-116565465D01*
X140674876Y-116554805D01*
X140693305Y-116521284D01*
X140693306Y-116521282D01*
X140697124Y-116514337D01*
X140702459Y-116493559D01*
X140708858Y-116474869D01*
X140717380Y-116455176D01*
X140719761Y-116440148D01*
X140724608Y-116409543D01*
X140727015Y-116397921D01*
X140736529Y-116360867D01*
X140736530Y-116360863D01*
X140738500Y-116353188D01*
X140738500Y-116331747D01*
X140740051Y-116312036D01*
X140742167Y-116298676D01*
X140743407Y-116290848D01*
X140742161Y-116277670D01*
X140739059Y-116244852D01*
X140738500Y-116232994D01*
X140738500Y-113015433D01*
X140758502Y-112947312D01*
X140800678Y-112908000D01*
X140801705Y-112907615D01*
X140918261Y-112820261D01*
X141005615Y-112703705D01*
X141056745Y-112567316D01*
X141063500Y-112505134D01*
X141063500Y-112281950D01*
X141083502Y-112213829D01*
X141100405Y-112192855D01*
X141181405Y-112111855D01*
X141243717Y-112077829D01*
X141314532Y-112082894D01*
G37*
%TD.AperFunction*%
%TA.AperFunction,Conductor*%
G36*
X139839771Y-92763984D02*
G01*
X139928217Y-92817548D01*
X139941301Y-92825472D01*
X139948548Y-92827743D01*
X139948550Y-92827744D01*
X140009304Y-92846783D01*
X140104938Y-92876753D01*
X140178365Y-92883500D01*
X140181263Y-92883500D01*
X140435665Y-92883499D01*
X140691634Y-92883499D01*
X140694492Y-92883236D01*
X140694501Y-92883236D01*
X140730004Y-92879974D01*
X140765062Y-92876753D01*
X140771439Y-92874755D01*
X140771442Y-92874754D01*
X140828002Y-92857029D01*
X140898987Y-92855745D01*
X140954776Y-92888168D01*
X141814095Y-93747487D01*
X141848121Y-93809799D01*
X141851000Y-93836582D01*
X141851000Y-93908385D01*
X141855475Y-93923624D01*
X141856865Y-93924829D01*
X141864548Y-93926500D01*
X141977620Y-93926500D01*
X142032463Y-93939062D01*
X142052140Y-93948575D01*
X142065551Y-93956101D01*
X142087813Y-93970447D01*
X142087816Y-93970448D01*
X142093738Y-93974265D01*
X142100357Y-93976674D01*
X142100361Y-93976676D01*
X142134473Y-93989092D01*
X142146217Y-93994053D01*
X142178899Y-94009852D01*
X142178901Y-94009853D01*
X142185248Y-94012921D01*
X142201898Y-94016765D01*
X142217927Y-94020466D01*
X142232668Y-94024832D01*
X142264185Y-94036303D01*
X142271171Y-94037185D01*
X142271177Y-94037187D01*
X142307201Y-94041738D01*
X142319753Y-94043974D01*
X142355114Y-94052138D01*
X142355117Y-94052138D01*
X142361985Y-94053724D01*
X142369031Y-94053749D01*
X142369034Y-94053749D01*
X142402556Y-94053866D01*
X142403438Y-94053895D01*
X142404269Y-94054000D01*
X142440919Y-94054000D01*
X142441359Y-94054001D01*
X142539843Y-94054345D01*
X142539848Y-94054345D01*
X142543370Y-94054357D01*
X142544570Y-94054089D01*
X142546207Y-94054000D01*
X142753000Y-94054000D01*
X142821121Y-94074002D01*
X142867614Y-94127658D01*
X142879000Y-94180000D01*
X142879000Y-95205384D01*
X142883475Y-95220623D01*
X142884865Y-95221828D01*
X142892548Y-95223499D01*
X142935669Y-95223499D01*
X142942490Y-95223129D01*
X142993352Y-95217605D01*
X143008604Y-95213979D01*
X143129054Y-95168824D01*
X143144649Y-95160286D01*
X143246724Y-95083785D01*
X143259285Y-95071224D01*
X143335786Y-94969149D01*
X143344324Y-94953554D01*
X143389478Y-94833106D01*
X143393105Y-94817851D01*
X143398631Y-94766986D01*
X143399000Y-94760172D01*
X143399000Y-94502081D01*
X143419002Y-94433960D01*
X143472658Y-94387467D01*
X143542932Y-94377363D01*
X143607512Y-94406857D01*
X143614095Y-94412986D01*
X143713595Y-94512486D01*
X143747621Y-94574798D01*
X143750500Y-94601581D01*
X143750500Y-94763634D01*
X143757255Y-94825816D01*
X143808385Y-94962205D01*
X143895739Y-95078761D01*
X144012295Y-95166115D01*
X144148684Y-95217245D01*
X144210866Y-95224000D01*
X144839134Y-95224000D01*
X144901316Y-95217245D01*
X145037705Y-95166115D01*
X145154261Y-95078761D01*
X145214088Y-94998934D01*
X145270946Y-94956420D01*
X145314913Y-94948500D01*
X145645746Y-94948500D01*
X145713867Y-94968502D01*
X145760360Y-95022158D01*
X145771218Y-95062974D01*
X145773247Y-95085062D01*
X145775246Y-95091440D01*
X145775246Y-95091441D01*
X145816788Y-95224000D01*
X145824528Y-95248699D01*
X145913361Y-95395381D01*
X146034619Y-95516639D01*
X146181301Y-95605472D01*
X146188548Y-95607743D01*
X146188550Y-95607744D01*
X146200536Y-95611500D01*
X146344938Y-95656753D01*
X146418365Y-95663500D01*
X146421263Y-95663500D01*
X146675665Y-95663499D01*
X146931634Y-95663499D01*
X146934492Y-95663236D01*
X146934501Y-95663236D01*
X146970004Y-95659974D01*
X147005062Y-95656753D01*
X147014967Y-95653649D01*
X147161450Y-95607744D01*
X147161452Y-95607743D01*
X147168699Y-95605472D01*
X147315381Y-95516639D01*
X147410905Y-95421115D01*
X147473217Y-95387089D01*
X147544032Y-95392154D01*
X147589095Y-95421115D01*
X147684619Y-95516639D01*
X147831301Y-95605472D01*
X147838548Y-95607743D01*
X147838550Y-95607744D01*
X147850536Y-95611500D01*
X147994938Y-95656753D01*
X148068365Y-95663500D01*
X148071263Y-95663500D01*
X148325665Y-95663499D01*
X148581634Y-95663499D01*
X148584492Y-95663236D01*
X148584501Y-95663236D01*
X148620004Y-95659974D01*
X148655062Y-95656753D01*
X148664967Y-95653649D01*
X148811450Y-95607744D01*
X148811452Y-95607743D01*
X148818699Y-95605472D01*
X148965381Y-95516639D01*
X149086639Y-95395381D01*
X149175472Y-95248699D01*
X149183835Y-95222015D01*
X149201352Y-95166115D01*
X149226753Y-95085062D01*
X149233500Y-95011635D01*
X149233500Y-94896371D01*
X149253502Y-94828250D01*
X149270405Y-94807276D01*
X149502276Y-94575405D01*
X149564588Y-94541379D01*
X149591371Y-94538500D01*
X154543629Y-94538500D01*
X154611750Y-94558502D01*
X154632724Y-94575405D01*
X163245224Y-103187905D01*
X163279250Y-103250217D01*
X163274185Y-103321032D01*
X163231638Y-103377868D01*
X163165118Y-103402679D01*
X163156129Y-103403000D01*
X162861866Y-103403000D01*
X162858471Y-103403369D01*
X162858467Y-103403369D01*
X162832469Y-103406193D01*
X162823606Y-103407156D01*
X162796394Y-103407156D01*
X162787531Y-103406193D01*
X162761533Y-103403369D01*
X162761529Y-103403369D01*
X162758134Y-103403000D01*
X162361866Y-103403000D01*
X162321280Y-103407409D01*
X162294067Y-103407409D01*
X162261483Y-103403869D01*
X162254672Y-103403500D01*
X162228115Y-103403500D01*
X162212876Y-103407975D01*
X162190611Y-103433670D01*
X162190082Y-103433212D01*
X162183318Y-103445600D01*
X162163160Y-103460708D01*
X162163294Y-103460886D01*
X162156111Y-103466269D01*
X162135564Y-103481668D01*
X162069057Y-103506515D01*
X161999675Y-103491461D01*
X161984436Y-103481668D01*
X161963889Y-103466269D01*
X161956706Y-103460886D01*
X161956922Y-103460597D01*
X161910861Y-103414435D01*
X161908647Y-103409082D01*
X161904135Y-103405172D01*
X161896452Y-103403501D01*
X161865330Y-103403501D01*
X161858512Y-103403870D01*
X161825933Y-103407409D01*
X161798720Y-103407409D01*
X161758134Y-103403000D01*
X161361866Y-103403000D01*
X161358471Y-103403369D01*
X161358467Y-103403369D01*
X161332469Y-103406193D01*
X161323606Y-103407156D01*
X161296394Y-103407156D01*
X161287531Y-103406193D01*
X161261533Y-103403369D01*
X161261529Y-103403369D01*
X161258134Y-103403000D01*
X160899293Y-103403000D01*
X160831172Y-103382998D01*
X160810198Y-103366095D01*
X160158523Y-102714420D01*
X160124019Y-102649804D01*
X160123966Y-102649536D01*
X160123365Y-102643408D01*
X160079111Y-102496830D01*
X160065152Y-102450593D01*
X160065151Y-102450590D01*
X160063368Y-102444685D01*
X160053219Y-102425598D01*
X159968809Y-102266847D01*
X159968808Y-102266845D01*
X159965913Y-102261401D01*
X159895264Y-102174776D01*
X159838610Y-102105311D01*
X159838607Y-102105308D01*
X159834715Y-102100536D01*
X159827770Y-102094790D01*
X159679518Y-101972145D01*
X159679519Y-101972145D01*
X159674770Y-101968217D01*
X159669353Y-101965288D01*
X159669350Y-101965286D01*
X159497590Y-101872416D01*
X159497585Y-101872414D01*
X159492170Y-101869486D01*
X159293871Y-101808102D01*
X159287746Y-101807458D01*
X159287745Y-101807458D01*
X159093554Y-101787048D01*
X159093552Y-101787048D01*
X159087425Y-101786404D01*
X159001515Y-101794223D01*
X158886836Y-101804659D01*
X158886833Y-101804660D01*
X158880697Y-101805218D01*
X158874791Y-101806956D01*
X158874787Y-101806957D01*
X158726932Y-101850473D01*
X158681560Y-101863827D01*
X158497600Y-101959999D01*
X158335823Y-102090071D01*
X158331865Y-102094788D01*
X158331863Y-102094790D01*
X158288419Y-102146565D01*
X158202391Y-102249089D01*
X158199427Y-102254481D01*
X158199424Y-102254485D01*
X158105354Y-102425598D01*
X158102387Y-102430995D01*
X158039621Y-102628861D01*
X158038935Y-102634978D01*
X158038934Y-102634982D01*
X158017169Y-102829025D01*
X158016482Y-102835150D01*
X158016998Y-102841294D01*
X158028416Y-102977263D01*
X158033852Y-103042004D01*
X158091069Y-103241545D01*
X158093887Y-103247027D01*
X158093888Y-103247031D01*
X158176312Y-103407409D01*
X158185955Y-103426173D01*
X158189786Y-103431007D01*
X158189787Y-103431008D01*
X158208662Y-103454822D01*
X158314894Y-103588854D01*
X158319581Y-103592843D01*
X158319584Y-103592846D01*
X158455272Y-103708325D01*
X158472976Y-103723392D01*
X158654180Y-103824664D01*
X158851603Y-103888810D01*
X158857720Y-103889539D01*
X158857727Y-103889541D01*
X158868576Y-103890835D01*
X158933849Y-103918762D01*
X158942751Y-103926853D01*
X159607538Y-104591641D01*
X160255180Y-105239283D01*
X160262322Y-105247049D01*
X160295971Y-105286867D01*
X160352030Y-105329727D01*
X160393997Y-105386992D01*
X160401500Y-105429823D01*
X160401500Y-105459634D01*
X160408255Y-105521816D01*
X160459385Y-105658205D01*
X160546739Y-105774761D01*
X160558476Y-105783557D01*
X160600989Y-105840416D01*
X160606014Y-105911234D01*
X160571954Y-105973527D01*
X160509623Y-106007518D01*
X160469303Y-106009645D01*
X160408134Y-106003000D01*
X158311866Y-106003000D01*
X158249684Y-106009755D01*
X158113295Y-106060885D01*
X157996739Y-106148239D01*
X157909385Y-106264795D01*
X157858255Y-106401184D01*
X157851500Y-106463366D01*
X157851500Y-108059634D01*
X157858255Y-108121816D01*
X157909385Y-108258205D01*
X157914771Y-108265391D01*
X157978133Y-108349935D01*
X158002981Y-108416441D01*
X157987928Y-108485824D01*
X157937754Y-108536054D01*
X157877307Y-108551500D01*
X150789500Y-108551500D01*
X150721379Y-108531498D01*
X150674886Y-108477842D01*
X150663500Y-108425500D01*
X150663500Y-107678866D01*
X150656745Y-107616684D01*
X150605615Y-107480295D01*
X150600230Y-107473110D01*
X150600229Y-107473108D01*
X150533674Y-107384304D01*
X150508826Y-107317797D01*
X150508500Y-107308739D01*
X150508500Y-106439500D01*
X150528502Y-106371379D01*
X150582158Y-106324886D01*
X150634500Y-106313500D01*
X151145786Y-106313500D01*
X151147106Y-106313507D01*
X151237221Y-106314451D01*
X151279597Y-106305289D01*
X151292163Y-106303231D01*
X151335255Y-106298397D01*
X151341906Y-106296081D01*
X151341910Y-106296080D01*
X151366930Y-106287367D01*
X151381742Y-106283204D01*
X151407619Y-106277609D01*
X151414510Y-106276119D01*
X151453813Y-106257792D01*
X151465589Y-106253010D01*
X151506552Y-106238745D01*
X151512527Y-106235011D01*
X151512530Y-106235010D01*
X151534995Y-106220973D01*
X151548512Y-106213634D01*
X151572514Y-106202441D01*
X151572515Y-106202440D01*
X151578902Y-106199462D01*
X151586563Y-106193520D01*
X151613153Y-106172894D01*
X151623612Y-106165598D01*
X151654404Y-106146358D01*
X151654407Y-106146356D01*
X151660376Y-106142626D01*
X151689179Y-106114024D01*
X151689804Y-106113439D01*
X151690470Y-106112922D01*
X151716460Y-106086932D01*
X151789082Y-106014815D01*
X151789740Y-106013778D01*
X151790843Y-106012549D01*
X152145158Y-105658234D01*
X152146095Y-105657306D01*
X152205475Y-105599157D01*
X152205476Y-105599156D01*
X152210507Y-105594229D01*
X152233998Y-105557779D01*
X152241417Y-105547454D01*
X152268476Y-105513557D01*
X152283073Y-105483362D01*
X152290602Y-105469945D01*
X152308765Y-105441762D01*
X152311173Y-105435145D01*
X152311176Y-105435140D01*
X152323592Y-105401027D01*
X152328553Y-105389284D01*
X152344353Y-105356600D01*
X152344356Y-105356591D01*
X152347421Y-105350251D01*
X152354966Y-105317572D01*
X152359334Y-105302825D01*
X152364193Y-105289475D01*
X152370803Y-105271315D01*
X152371685Y-105264330D01*
X152371687Y-105264323D01*
X152376237Y-105228308D01*
X152378472Y-105215757D01*
X152383279Y-105194938D01*
X152388225Y-105173515D01*
X152388367Y-105132928D01*
X152388396Y-105132058D01*
X152388500Y-105131231D01*
X152388500Y-105094590D01*
X152388857Y-104992130D01*
X152388589Y-104990930D01*
X152388500Y-104989292D01*
X152388500Y-104519813D01*
X152394667Y-104480877D01*
X152422325Y-104395754D01*
X152422325Y-104395753D01*
X152424365Y-104389475D01*
X152430702Y-104329189D01*
X152442539Y-104216565D01*
X152443229Y-104210000D01*
X152437750Y-104157876D01*
X152425055Y-104037089D01*
X152425055Y-104037088D01*
X152424365Y-104030525D01*
X152405689Y-103973044D01*
X152378557Y-103889541D01*
X152368599Y-103858893D01*
X152278367Y-103702607D01*
X152246903Y-103667662D01*
X152216187Y-103603657D01*
X152224950Y-103533204D01*
X152262965Y-103484067D01*
X152284199Y-103467477D01*
X152288594Y-103462385D01*
X152402994Y-103329852D01*
X152402995Y-103329850D01*
X152407023Y-103325184D01*
X152410649Y-103318802D01*
X152451420Y-103247031D01*
X152499870Y-103161744D01*
X152559203Y-102983382D01*
X152582762Y-102796892D01*
X152583138Y-102770000D01*
X152564795Y-102582926D01*
X152510465Y-102402977D01*
X152422218Y-102237008D01*
X152303415Y-102091340D01*
X152228437Y-102029313D01*
X152163329Y-101975450D01*
X152163324Y-101975447D01*
X152158580Y-101971522D01*
X152153161Y-101968592D01*
X152153158Y-101968590D01*
X152083671Y-101931019D01*
X151993231Y-101882119D01*
X151813666Y-101826534D01*
X151807541Y-101825890D01*
X151807540Y-101825890D01*
X151632852Y-101807529D01*
X151632851Y-101807529D01*
X151626724Y-101806885D01*
X151549673Y-101813897D01*
X151445665Y-101823363D01*
X151445662Y-101823364D01*
X151439526Y-101823922D01*
X151433620Y-101825660D01*
X151433616Y-101825661D01*
X151309848Y-101862088D01*
X151259202Y-101876994D01*
X151092621Y-101964080D01*
X151087823Y-101967938D01*
X151087821Y-101967939D01*
X151068224Y-101983696D01*
X151002602Y-102010793D01*
X150989271Y-102011500D01*
X150287070Y-102011500D01*
X150268120Y-102010067D01*
X150253885Y-102007901D01*
X150253881Y-102007901D01*
X150246651Y-102006801D01*
X150239359Y-102007394D01*
X150239356Y-102007394D01*
X150193982Y-102011085D01*
X150183767Y-102011500D01*
X150175707Y-102011500D01*
X150162417Y-102013049D01*
X150147493Y-102014789D01*
X150143118Y-102015222D01*
X150077661Y-102020546D01*
X150077658Y-102020547D01*
X150070363Y-102021140D01*
X150063399Y-102023396D01*
X150057440Y-102024587D01*
X150051585Y-102025971D01*
X150044319Y-102026818D01*
X149975673Y-102051735D01*
X149971545Y-102053152D01*
X149909064Y-102073393D01*
X149909062Y-102073394D01*
X149902101Y-102075649D01*
X149895846Y-102079445D01*
X149890372Y-102081951D01*
X149884942Y-102084670D01*
X149878063Y-102087167D01*
X149871943Y-102091180D01*
X149871942Y-102091180D01*
X149817024Y-102127186D01*
X149813320Y-102129523D01*
X149750893Y-102167405D01*
X149742516Y-102174803D01*
X149742492Y-102174776D01*
X149739500Y-102177429D01*
X149736267Y-102180132D01*
X149730148Y-102184144D01*
X149725116Y-102189456D01*
X149676872Y-102240383D01*
X149674494Y-102242825D01*
X149211089Y-102706230D01*
X149196677Y-102718616D01*
X149185082Y-102727149D01*
X149185077Y-102727154D01*
X149179182Y-102731492D01*
X149174443Y-102737070D01*
X149174440Y-102737073D01*
X149144965Y-102771768D01*
X149138035Y-102779284D01*
X149132340Y-102784979D01*
X149130060Y-102787861D01*
X149114719Y-102807251D01*
X149111928Y-102810655D01*
X149069409Y-102860703D01*
X149064667Y-102866285D01*
X149061339Y-102872801D01*
X149057972Y-102877850D01*
X149054805Y-102882979D01*
X149050266Y-102888716D01*
X149019345Y-102954875D01*
X149017438Y-102958776D01*
X148997510Y-102997802D01*
X148948717Y-103049374D01*
X148885294Y-103066500D01*
X147796207Y-103066500D01*
X147730936Y-103048276D01*
X147658699Y-103004528D01*
X147651452Y-103002257D01*
X147651450Y-103002256D01*
X147550371Y-102970580D01*
X147495062Y-102953247D01*
X147421635Y-102946500D01*
X147418737Y-102946500D01*
X147089140Y-102946501D01*
X146758366Y-102946501D01*
X146755508Y-102946764D01*
X146755499Y-102946764D01*
X146719996Y-102950026D01*
X146684938Y-102953247D01*
X146678560Y-102955246D01*
X146678559Y-102955246D01*
X146528550Y-103002256D01*
X146528548Y-103002257D01*
X146521301Y-103004528D01*
X146449064Y-103048276D01*
X146383793Y-103066500D01*
X145396207Y-103066500D01*
X145330936Y-103048276D01*
X145258699Y-103004528D01*
X145251452Y-103002257D01*
X145251450Y-103002256D01*
X145150371Y-102970580D01*
X145095062Y-102953247D01*
X145021635Y-102946500D01*
X145018737Y-102946500D01*
X144689140Y-102946501D01*
X144358366Y-102946501D01*
X144355508Y-102946764D01*
X144355499Y-102946764D01*
X144319996Y-102950026D01*
X144284938Y-102953247D01*
X144278560Y-102955246D01*
X144278559Y-102955246D01*
X144128550Y-103002256D01*
X144128548Y-103002257D01*
X144121301Y-103004528D01*
X144049064Y-103048276D01*
X143983793Y-103066500D01*
X143066207Y-103066500D01*
X143000936Y-103048276D01*
X142928699Y-103004528D01*
X142921452Y-103002257D01*
X142921450Y-103002256D01*
X142820371Y-102970580D01*
X142765062Y-102953247D01*
X142691635Y-102946500D01*
X142688737Y-102946500D01*
X142359140Y-102946501D01*
X142028366Y-102946501D01*
X142025508Y-102946764D01*
X142025499Y-102946764D01*
X141989996Y-102950026D01*
X141954938Y-102953247D01*
X141948560Y-102955246D01*
X141948559Y-102955246D01*
X141798550Y-103002256D01*
X141798548Y-103002257D01*
X141791301Y-103004528D01*
X141719064Y-103048276D01*
X141653793Y-103066500D01*
X141094500Y-103066500D01*
X141026379Y-103046498D01*
X140979886Y-102992842D01*
X140968500Y-102940500D01*
X140968500Y-97741417D01*
X140970051Y-97721705D01*
X140971220Y-97714325D01*
X140972252Y-97707810D01*
X140968673Y-97639520D01*
X140968500Y-97632926D01*
X140968500Y-97612390D01*
X140968156Y-97609116D01*
X140966353Y-97591958D01*
X140965836Y-97585384D01*
X140962603Y-97523696D01*
X140962603Y-97523694D01*
X140962257Y-97517097D01*
X140958615Y-97503504D01*
X140955014Y-97484075D01*
X140954232Y-97476639D01*
X140953542Y-97470072D01*
X140932407Y-97405025D01*
X140930535Y-97398706D01*
X140914538Y-97339003D01*
X140914537Y-97339000D01*
X140912830Y-97332630D01*
X140906438Y-97320085D01*
X140898874Y-97301823D01*
X140896568Y-97294726D01*
X140894527Y-97288444D01*
X140860336Y-97229223D01*
X140857188Y-97223426D01*
X140829126Y-97168351D01*
X140829124Y-97168348D01*
X140826129Y-97162470D01*
X140817273Y-97151533D01*
X140806073Y-97135237D01*
X140802343Y-97128776D01*
X140802340Y-97128772D01*
X140799040Y-97123056D01*
X140794623Y-97118150D01*
X140794619Y-97118145D01*
X140753278Y-97072231D01*
X140748994Y-97067216D01*
X140738148Y-97053823D01*
X140736072Y-97051259D01*
X140721557Y-97036744D01*
X140717016Y-97031959D01*
X140675673Y-96986043D01*
X140671253Y-96981134D01*
X140659865Y-96972860D01*
X140644832Y-96960019D01*
X139685405Y-96000592D01*
X139651379Y-95938280D01*
X139648500Y-95911497D01*
X139648500Y-95671582D01*
X139668502Y-95603461D01*
X139722158Y-95556968D01*
X139792432Y-95546864D01*
X139814167Y-95551989D01*
X139943811Y-95594990D01*
X139957190Y-95597858D01*
X140048097Y-95607172D01*
X140053126Y-95607429D01*
X140068124Y-95603025D01*
X140069329Y-95601635D01*
X140071000Y-95593952D01*
X140071000Y-95589385D01*
X140579000Y-95589385D01*
X140583475Y-95604624D01*
X140584865Y-95605829D01*
X140592548Y-95607500D01*
X140595438Y-95607500D01*
X140601953Y-95607163D01*
X140694057Y-95597606D01*
X140707456Y-95594712D01*
X140856107Y-95545119D01*
X140869286Y-95538945D01*
X141002173Y-95456712D01*
X141013574Y-95447676D01*
X141123986Y-95337071D01*
X141132998Y-95325660D01*
X141215004Y-95192620D01*
X141221151Y-95179439D01*
X141270491Y-95030686D01*
X141273358Y-95017310D01*
X141282672Y-94926403D01*
X141283000Y-94919987D01*
X141283000Y-94896615D01*
X141278525Y-94881376D01*
X141277135Y-94880171D01*
X141269452Y-94878500D01*
X140597115Y-94878500D01*
X140581876Y-94882975D01*
X140580671Y-94884365D01*
X140579000Y-94892048D01*
X140579000Y-95589385D01*
X140071000Y-95589385D01*
X140071000Y-94760169D01*
X141851001Y-94760169D01*
X141851371Y-94766990D01*
X141856895Y-94817852D01*
X141860521Y-94833104D01*
X141905676Y-94953554D01*
X141914214Y-94969149D01*
X141990715Y-95071224D01*
X142003276Y-95083785D01*
X142105351Y-95160286D01*
X142120946Y-95168824D01*
X142241394Y-95213978D01*
X142256649Y-95217605D01*
X142307514Y-95223131D01*
X142314328Y-95223500D01*
X142352885Y-95223500D01*
X142368124Y-95219025D01*
X142369329Y-95217635D01*
X142371000Y-95209952D01*
X142371000Y-94452615D01*
X142366525Y-94437376D01*
X142365135Y-94436171D01*
X142357452Y-94434500D01*
X141869116Y-94434500D01*
X141853877Y-94438975D01*
X141852672Y-94440365D01*
X141851001Y-94448048D01*
X141851001Y-94760169D01*
X140071000Y-94760169D01*
X140071000Y-94352385D01*
X140579000Y-94352385D01*
X140583475Y-94367624D01*
X140584865Y-94368829D01*
X140592548Y-94370500D01*
X141264885Y-94370500D01*
X141280124Y-94366025D01*
X141281329Y-94364635D01*
X141283000Y-94356952D01*
X141283000Y-94329062D01*
X141282663Y-94322547D01*
X141273106Y-94230443D01*
X141270212Y-94217044D01*
X141220619Y-94068393D01*
X141214445Y-94055214D01*
X141132212Y-93922327D01*
X141123176Y-93910926D01*
X141012571Y-93800514D01*
X141001160Y-93791502D01*
X140868120Y-93709496D01*
X140854939Y-93703349D01*
X140706186Y-93654009D01*
X140692810Y-93651142D01*
X140601903Y-93641828D01*
X140596874Y-93641571D01*
X140581876Y-93645975D01*
X140580671Y-93647365D01*
X140579000Y-93655048D01*
X140579000Y-94352385D01*
X140071000Y-94352385D01*
X140071000Y-93659615D01*
X140066525Y-93644376D01*
X140065135Y-93643171D01*
X140057452Y-93641500D01*
X140054562Y-93641500D01*
X140048047Y-93641837D01*
X139955943Y-93651394D01*
X139942541Y-93654289D01*
X139814375Y-93697047D01*
X139743426Y-93699631D01*
X139682342Y-93663447D01*
X139650518Y-93599982D01*
X139648500Y-93577523D01*
X139648500Y-92871760D01*
X139668502Y-92803639D01*
X139722158Y-92757146D01*
X139792432Y-92747042D01*
X139839771Y-92763984D01*
G37*
%TD.AperFunction*%
%TA.AperFunction,Conductor*%
G36*
X181540328Y-88978502D02*
G01*
X181561303Y-88995405D01*
X181674669Y-89108772D01*
X181708694Y-89171084D01*
X181703628Y-89241900D01*
X181661082Y-89298736D01*
X181619643Y-89318144D01*
X181619684Y-89318255D01*
X181612287Y-89321028D01*
X181612283Y-89321029D01*
X181496516Y-89364429D01*
X181483295Y-89369385D01*
X181366739Y-89456739D01*
X181279385Y-89573295D01*
X181228255Y-89709684D01*
X181221500Y-89771866D01*
X181221500Y-90848134D01*
X181228255Y-90910316D01*
X181279385Y-91046705D01*
X181366739Y-91163261D01*
X181483295Y-91250615D01*
X181619684Y-91301745D01*
X181681866Y-91308500D01*
X182972208Y-91308500D01*
X183040329Y-91328502D01*
X183061303Y-91345405D01*
X183112303Y-91396405D01*
X183146329Y-91458717D01*
X183141264Y-91529532D01*
X183098717Y-91586368D01*
X183032197Y-91611179D01*
X183023208Y-91611500D01*
X181681866Y-91611500D01*
X181619684Y-91618255D01*
X181483295Y-91669385D01*
X181409244Y-91724883D01*
X181407319Y-91726326D01*
X181340813Y-91751174D01*
X181331754Y-91751500D01*
X179004500Y-91751500D01*
X178936379Y-91731498D01*
X178889886Y-91677842D01*
X178878500Y-91625500D01*
X178878500Y-90761866D01*
X178871745Y-90699684D01*
X178820615Y-90563295D01*
X178733261Y-90446739D01*
X178616705Y-90359385D01*
X178480316Y-90308255D01*
X178418134Y-90301500D01*
X175955866Y-90301500D01*
X175893684Y-90308255D01*
X175757295Y-90359385D01*
X175640739Y-90446739D01*
X175553385Y-90563295D01*
X175502255Y-90699684D01*
X175495500Y-90761866D01*
X175495500Y-91725500D01*
X175475498Y-91793621D01*
X175421842Y-91840114D01*
X175369500Y-91851500D01*
X169707069Y-91851500D01*
X169688121Y-91850067D01*
X169680780Y-91848950D01*
X169673883Y-91847901D01*
X169673881Y-91847901D01*
X169666651Y-91846801D01*
X169659359Y-91847394D01*
X169659356Y-91847394D01*
X169613982Y-91851085D01*
X169603767Y-91851500D01*
X169595707Y-91851500D01*
X169582417Y-91853049D01*
X169567493Y-91854789D01*
X169563118Y-91855222D01*
X169497661Y-91860546D01*
X169497658Y-91860547D01*
X169490363Y-91861140D01*
X169483399Y-91863396D01*
X169477440Y-91864587D01*
X169471585Y-91865971D01*
X169464319Y-91866818D01*
X169395673Y-91891735D01*
X169391545Y-91893152D01*
X169329064Y-91913393D01*
X169329062Y-91913394D01*
X169322101Y-91915649D01*
X169315846Y-91919445D01*
X169310372Y-91921951D01*
X169304942Y-91924670D01*
X169298063Y-91927167D01*
X169237016Y-91967191D01*
X169233327Y-91969518D01*
X169213135Y-91981771D01*
X169175693Y-92004491D01*
X169175688Y-92004495D01*
X169170892Y-92007405D01*
X169162516Y-92014803D01*
X169162493Y-92014777D01*
X169159503Y-92017426D01*
X169156264Y-92020134D01*
X169150148Y-92024144D01*
X169145121Y-92029451D01*
X169145117Y-92029454D01*
X169096872Y-92080383D01*
X169094494Y-92082825D01*
X167841043Y-93336276D01*
X167778731Y-93370302D01*
X167763369Y-93372662D01*
X167755666Y-93373363D01*
X167755664Y-93373363D01*
X167749526Y-93373922D01*
X167569202Y-93426994D01*
X167402621Y-93514080D01*
X167397823Y-93517937D01*
X167397821Y-93517939D01*
X167383821Y-93529196D01*
X167318199Y-93556293D01*
X167304868Y-93557000D01*
X165784500Y-93557000D01*
X165716379Y-93536998D01*
X165669886Y-93483342D01*
X165658500Y-93431000D01*
X165658500Y-92621390D01*
X165658942Y-92610847D01*
X165662008Y-92574330D01*
X165663304Y-92558901D01*
X165658866Y-92525641D01*
X165652563Y-92478398D01*
X165652193Y-92475343D01*
X165645322Y-92412101D01*
X165643417Y-92394563D01*
X165641242Y-92388099D01*
X165640522Y-92384824D01*
X165640452Y-92384428D01*
X165640329Y-92384004D01*
X165639538Y-92380785D01*
X165638634Y-92374011D01*
X165610852Y-92297680D01*
X165609855Y-92294830D01*
X165586100Y-92224245D01*
X165586095Y-92224235D01*
X165583922Y-92217777D01*
X165580410Y-92211931D01*
X165579008Y-92208898D01*
X165578850Y-92208514D01*
X165578637Y-92208124D01*
X165577172Y-92205145D01*
X165574837Y-92198732D01*
X165571183Y-92192974D01*
X165571180Y-92192968D01*
X165564114Y-92181834D01*
X165544500Y-92114321D01*
X165544500Y-91966866D01*
X165537745Y-91904684D01*
X165486615Y-91768295D01*
X165399261Y-91651739D01*
X165282705Y-91564385D01*
X165146316Y-91513255D01*
X165084134Y-91506500D01*
X164455866Y-91506500D01*
X164393684Y-91513255D01*
X164257295Y-91564385D01*
X164140739Y-91651739D01*
X164053385Y-91768295D01*
X164002255Y-91904684D01*
X163995500Y-91966866D01*
X163995500Y-92141994D01*
X163981744Y-92194060D01*
X163983544Y-92194839D01*
X163980832Y-92201105D01*
X163977462Y-92207038D01*
X163975444Y-92213556D01*
X163975443Y-92213559D01*
X163924322Y-92378705D01*
X163922304Y-92385225D01*
X163906696Y-92571099D01*
X163907598Y-92577859D01*
X163907598Y-92577861D01*
X163914243Y-92627658D01*
X163931366Y-92755989D01*
X163933903Y-92762959D01*
X163934071Y-92763914D01*
X163935327Y-92769026D01*
X163934987Y-92769109D01*
X163941500Y-92806048D01*
X163941500Y-93566004D01*
X163921498Y-93634125D01*
X163867842Y-93680618D01*
X163797568Y-93690722D01*
X163732988Y-93661228D01*
X163708359Y-93632312D01*
X163698752Y-93616787D01*
X163589410Y-93507635D01*
X163555331Y-93445354D01*
X163560334Y-93374534D01*
X163577603Y-93342897D01*
X163580788Y-93338647D01*
X163589322Y-93323059D01*
X163634478Y-93202606D01*
X163638105Y-93187351D01*
X163643631Y-93136486D01*
X163644000Y-93129672D01*
X163644000Y-92822115D01*
X163639525Y-92806876D01*
X163638135Y-92805671D01*
X163630452Y-92804000D01*
X162114116Y-92804000D01*
X162098877Y-92808475D01*
X162097672Y-92809865D01*
X162096001Y-92817548D01*
X162096001Y-93129669D01*
X162096371Y-93136490D01*
X162101895Y-93187352D01*
X162105522Y-93202607D01*
X162131450Y-93271771D01*
X162136633Y-93342578D01*
X162102712Y-93404947D01*
X162040456Y-93439076D01*
X162013468Y-93442000D01*
X161564435Y-93442000D01*
X161496314Y-93421998D01*
X161449821Y-93368342D01*
X161439717Y-93298068D01*
X161457175Y-93249884D01*
X161535004Y-93123620D01*
X161541151Y-93110439D01*
X161590491Y-92961686D01*
X161593358Y-92948310D01*
X161602672Y-92857403D01*
X161602929Y-92852374D01*
X161598525Y-92837376D01*
X161597135Y-92836171D01*
X161589452Y-92834500D01*
X160492000Y-92834500D01*
X160423879Y-92814498D01*
X160377386Y-92760842D01*
X160366000Y-92708500D01*
X160366000Y-92452500D01*
X160386002Y-92384379D01*
X160439658Y-92337886D01*
X160492000Y-92326500D01*
X161584885Y-92326500D01*
X161600124Y-92322025D01*
X161601329Y-92320635D01*
X161603000Y-92312952D01*
X161603000Y-92310062D01*
X161602663Y-92303547D01*
X161600000Y-92277885D01*
X162096000Y-92277885D01*
X162100475Y-92293124D01*
X162101865Y-92294329D01*
X162109548Y-92296000D01*
X162597885Y-92296000D01*
X162613124Y-92291525D01*
X162614329Y-92290135D01*
X162616000Y-92282452D01*
X162616000Y-92277885D01*
X163124000Y-92277885D01*
X163128475Y-92293124D01*
X163129865Y-92294329D01*
X163137548Y-92296000D01*
X163625884Y-92296000D01*
X163641123Y-92291525D01*
X163642328Y-92290135D01*
X163643999Y-92282452D01*
X163643999Y-91970331D01*
X163643629Y-91963510D01*
X163638105Y-91912648D01*
X163634479Y-91897396D01*
X163589324Y-91776946D01*
X163580786Y-91761351D01*
X163504285Y-91659276D01*
X163491724Y-91646715D01*
X163389649Y-91570214D01*
X163374054Y-91561676D01*
X163253606Y-91516522D01*
X163238351Y-91512895D01*
X163187486Y-91507369D01*
X163180672Y-91507000D01*
X163142115Y-91507000D01*
X163126876Y-91511475D01*
X163125671Y-91512865D01*
X163124000Y-91520548D01*
X163124000Y-92277885D01*
X162616000Y-92277885D01*
X162616000Y-91525116D01*
X162611525Y-91509877D01*
X162610135Y-91508672D01*
X162602452Y-91507001D01*
X162559331Y-91507001D01*
X162552510Y-91507371D01*
X162501648Y-91512895D01*
X162486396Y-91516521D01*
X162365946Y-91561676D01*
X162350351Y-91570214D01*
X162248276Y-91646715D01*
X162235715Y-91659276D01*
X162159214Y-91761351D01*
X162150676Y-91776946D01*
X162105523Y-91897390D01*
X162101895Y-91912649D01*
X162096369Y-91963514D01*
X162096000Y-91970328D01*
X162096000Y-92277885D01*
X161600000Y-92277885D01*
X161593106Y-92211443D01*
X161590212Y-92198044D01*
X161540619Y-92049393D01*
X161534445Y-92036214D01*
X161452212Y-91903327D01*
X161438629Y-91886189D01*
X161440559Y-91884659D01*
X161412097Y-91832620D01*
X161417113Y-91761801D01*
X161440799Y-91724883D01*
X161439843Y-91724128D01*
X161444381Y-91718382D01*
X161449552Y-91713202D01*
X161484471Y-91656553D01*
X161535462Y-91573831D01*
X161535463Y-91573829D01*
X161539302Y-91567601D01*
X161593149Y-91405257D01*
X161599282Y-91345405D01*
X161603173Y-91307425D01*
X161603173Y-91307422D01*
X161603500Y-91304232D01*
X161604245Y-91304308D01*
X161626621Y-91240350D01*
X161639917Y-91224686D01*
X161659198Y-91205405D01*
X161721510Y-91171379D01*
X161748293Y-91168500D01*
X163135739Y-91168500D01*
X163203860Y-91188502D01*
X163211304Y-91193674D01*
X163291486Y-91253767D01*
X163307295Y-91265615D01*
X163443684Y-91316745D01*
X163505866Y-91323500D01*
X164134134Y-91323500D01*
X164196316Y-91316745D01*
X164332705Y-91265615D01*
X164449261Y-91178261D01*
X164536615Y-91061705D01*
X164587745Y-90925316D01*
X164594500Y-90863134D01*
X164594500Y-90680154D01*
X164607641Y-90624130D01*
X164627410Y-90584306D01*
X164627412Y-90584302D01*
X164630447Y-90578187D01*
X164635232Y-90558998D01*
X164673920Y-90403823D01*
X164675572Y-90397199D01*
X164676629Y-90359385D01*
X164678235Y-90301869D01*
X164680781Y-90210743D01*
X164656338Y-90082613D01*
X164647107Y-90034222D01*
X164647106Y-90034219D01*
X164645828Y-90027519D01*
X164604689Y-89931534D01*
X164594500Y-89881898D01*
X164594500Y-89696866D01*
X164587745Y-89634684D01*
X164536615Y-89498295D01*
X164449261Y-89381739D01*
X164332705Y-89294385D01*
X164196316Y-89243255D01*
X164134134Y-89236500D01*
X163505866Y-89236500D01*
X163443684Y-89243255D01*
X163307295Y-89294385D01*
X163190739Y-89381739D01*
X163185358Y-89388919D01*
X163176255Y-89401065D01*
X163119396Y-89443580D01*
X163075429Y-89451500D01*
X161381890Y-89451500D01*
X161371347Y-89451058D01*
X161319401Y-89446696D01*
X161312641Y-89447598D01*
X161312639Y-89447598D01*
X161238898Y-89457437D01*
X161235843Y-89457807D01*
X161203611Y-89461309D01*
X161155063Y-89466583D01*
X161148599Y-89468758D01*
X161145324Y-89469478D01*
X161144928Y-89469548D01*
X161144504Y-89469671D01*
X161141284Y-89470462D01*
X161134511Y-89471366D01*
X161058177Y-89499149D01*
X161055302Y-89500156D01*
X161036727Y-89506407D01*
X160978277Y-89526078D01*
X160972423Y-89529596D01*
X160969416Y-89530985D01*
X160969011Y-89531152D01*
X160968635Y-89531357D01*
X160965648Y-89532827D01*
X160959232Y-89535162D01*
X160890580Y-89578730D01*
X160888111Y-89580255D01*
X160818391Y-89622147D01*
X160813434Y-89626834D01*
X160810777Y-89628851D01*
X160810043Y-89629361D01*
X160806105Y-89632339D01*
X160801741Y-89635109D01*
X160797468Y-89638929D01*
X160743472Y-89692925D01*
X160740950Y-89695379D01*
X160682864Y-89750308D01*
X160679026Y-89755956D01*
X160674607Y-89761148D01*
X160674207Y-89760808D01*
X160667600Y-89768797D01*
X160400807Y-90035590D01*
X160338495Y-90069616D01*
X160321260Y-90071919D01*
X160321268Y-90072000D01*
X160318526Y-90072284D01*
X160318510Y-90072286D01*
X160318033Y-90072336D01*
X160318026Y-90072336D01*
X160270564Y-90077261D01*
X160218981Y-90082613D01*
X160212440Y-90084795D01*
X160212441Y-90084795D01*
X160114377Y-90117512D01*
X160043427Y-90120097D01*
X159982343Y-90083914D01*
X159950518Y-90020450D01*
X159948500Y-89997989D01*
X159948500Y-89747793D01*
X159968502Y-89679672D01*
X159985405Y-89658697D01*
X160648699Y-88995404D01*
X160711011Y-88961379D01*
X160737794Y-88958500D01*
X181472207Y-88958500D01*
X181540328Y-88978502D01*
G37*
%TD.AperFunction*%
%TD*%
M02*
