%TF.GenerationSoftware,KiCad,Pcbnew,(6.0.8)*%
%TF.CreationDate,2022-10-13T19:48:58+08:00*%
%TF.ProjectId,UINIO-LCD2.4-ST7789,55494e49-4f2d-44c4-9344-322e342d5354,rev?*%
%TF.SameCoordinates,Original*%
%TF.FileFunction,Legend,Top*%
%TF.FilePolarity,Positive*%
%FSLAX46Y46*%
G04 Gerber Fmt 4.6, Leading zero omitted, Abs format (unit mm)*
G04 Created by KiCad (PCBNEW (6.0.8)) date 2022-10-13 19:48:58*
%MOMM*%
%LPD*%
G01*
G04 APERTURE LIST*
G04 Aperture macros list*
%AMRoundRect*
0 Rectangle with rounded corners*
0 $1 Rounding radius*
0 $2 $3 $4 $5 $6 $7 $8 $9 X,Y pos of 4 corners*
0 Add a 4 corners polygon primitive as box body*
4,1,4,$2,$3,$4,$5,$6,$7,$8,$9,$2,$3,0*
0 Add four circle primitives for the rounded corners*
1,1,$1+$1,$2,$3*
1,1,$1+$1,$4,$5*
1,1,$1+$1,$6,$7*
1,1,$1+$1,$8,$9*
0 Add four rect primitives between the rounded corners*
20,1,$1+$1,$2,$3,$4,$5,0*
20,1,$1+$1,$4,$5,$6,$7,0*
20,1,$1+$1,$6,$7,$8,$9,0*
20,1,$1+$1,$8,$9,$2,$3,0*%
G04 Aperture macros list end*
%ADD10C,0.150000*%
%ADD11C,0.100000*%
%ADD12C,0.200000*%
%ADD13C,0.300000*%
%ADD14C,0.120000*%
%ADD15C,0.152000*%
%ADD16C,0.254000*%
%ADD17C,2.000000*%
%ADD18R,0.532000X1.070000*%
%ADD19RoundRect,0.225000X-0.225000X-0.250000X0.225000X-0.250000X0.225000X0.250000X-0.225000X0.250000X0*%
%ADD20RoundRect,0.200000X0.275000X-0.200000X0.275000X0.200000X-0.275000X0.200000X-0.275000X-0.200000X0*%
%ADD21R,1.000000X0.600000*%
%ADD22R,0.950000X1.200000*%
%ADD23RoundRect,0.200000X-0.200000X-0.275000X0.200000X-0.275000X0.200000X0.275000X-0.200000X0.275000X0*%
%ADD24RoundRect,0.105000X-4.895000X0.105000X-4.895000X-0.105000X4.895000X-0.105000X4.895000X0.105000X0*%
%ADD25R,1.700000X1.700000*%
%ADD26O,1.700000X1.700000*%
%ADD27RoundRect,0.225000X0.250000X-0.225000X0.250000X0.225000X-0.250000X0.225000X-0.250000X-0.225000X0*%
%ADD28R,0.300000X1.500000*%
%ADD29R,2.000000X1.500000*%
%ADD30RoundRect,0.200000X0.200000X0.275000X-0.200000X0.275000X-0.200000X-0.275000X0.200000X-0.275000X0*%
%ADD31R,2.366000X0.980000*%
%ADD32R,2.366000X3.600000*%
%ADD33RoundRect,0.225000X-0.250000X0.225000X-0.250000X-0.225000X0.250000X-0.225000X0.250000X0.225000X0*%
G04 APERTURE END LIST*
D10*
X123014000Y-82499500D02*
X140794000Y-82499500D01*
X140794000Y-82499500D02*
X140794000Y-94557500D01*
X140794000Y-94557500D02*
X123014000Y-94557500D01*
X123014000Y-94557500D02*
X123014000Y-82499500D01*
X123010000Y-97000000D02*
X140830000Y-97000000D01*
X140830000Y-97000000D02*
X140830000Y-112480000D01*
X140830000Y-112480000D02*
X123010000Y-112480000D01*
X123010000Y-112480000D02*
X123010000Y-97000000D01*
X161570000Y-110290000D02*
X177654000Y-110290000D01*
X177654000Y-110290000D02*
X177654000Y-121528000D01*
X177654000Y-121528000D02*
X161570000Y-121528000D01*
X161570000Y-121528000D02*
X161570000Y-110290000D01*
X143310000Y-82535500D02*
X159180000Y-82535500D01*
X159180000Y-82535500D02*
X159180000Y-94573500D01*
X159180000Y-94573500D02*
X143310000Y-94573500D01*
X143310000Y-94573500D02*
X143310000Y-82535500D01*
X161604000Y-82506000D02*
X177684000Y-82506000D01*
X177684000Y-82506000D02*
X177684000Y-94560000D01*
X177684000Y-94560000D02*
X161604000Y-94560000D01*
X161604000Y-94560000D02*
X161604000Y-82506000D01*
X145443904Y-83437880D02*
X146110571Y-84437880D01*
X146110571Y-83437880D02*
X145443904Y-84437880D01*
X147062952Y-84342642D02*
X147015333Y-84390261D01*
X146872476Y-84437880D01*
X146777238Y-84437880D01*
X146634380Y-84390261D01*
X146539142Y-84295023D01*
X146491523Y-84199785D01*
X146443904Y-84009309D01*
X146443904Y-83866452D01*
X146491523Y-83675976D01*
X146539142Y-83580738D01*
X146634380Y-83485500D01*
X146777238Y-83437880D01*
X146872476Y-83437880D01*
X147015333Y-83485500D01*
X147062952Y-83533119D01*
X147920095Y-83437880D02*
X147729619Y-83437880D01*
X147634380Y-83485500D01*
X147586761Y-83533119D01*
X147491523Y-83675976D01*
X147443904Y-83866452D01*
X147443904Y-84247404D01*
X147491523Y-84342642D01*
X147539142Y-84390261D01*
X147634380Y-84437880D01*
X147824857Y-84437880D01*
X147920095Y-84390261D01*
X147967714Y-84342642D01*
X148015333Y-84247404D01*
X148015333Y-84009309D01*
X147967714Y-83914071D01*
X147920095Y-83866452D01*
X147824857Y-83818833D01*
X147634380Y-83818833D01*
X147539142Y-83866452D01*
X147491523Y-83914071D01*
X147443904Y-84009309D01*
X148396285Y-83533119D02*
X148443904Y-83485500D01*
X148539142Y-83437880D01*
X148777238Y-83437880D01*
X148872476Y-83485500D01*
X148920095Y-83533119D01*
X148967714Y-83628357D01*
X148967714Y-83723595D01*
X148920095Y-83866452D01*
X148348666Y-84437880D01*
X148967714Y-84437880D01*
X149586761Y-83437880D02*
X149682000Y-83437880D01*
X149777238Y-83485500D01*
X149824857Y-83533119D01*
X149872476Y-83628357D01*
X149920095Y-83818833D01*
X149920095Y-84056928D01*
X149872476Y-84247404D01*
X149824857Y-84342642D01*
X149777238Y-84390261D01*
X149682000Y-84437880D01*
X149586761Y-84437880D01*
X149491523Y-84390261D01*
X149443904Y-84342642D01*
X149396285Y-84247404D01*
X149348666Y-84056928D01*
X149348666Y-83818833D01*
X149396285Y-83628357D01*
X149443904Y-83533119D01*
X149491523Y-83485500D01*
X149586761Y-83437880D01*
X150777238Y-83437880D02*
X150586761Y-83437880D01*
X150491523Y-83485500D01*
X150443904Y-83533119D01*
X150348666Y-83675976D01*
X150301047Y-83866452D01*
X150301047Y-84247404D01*
X150348666Y-84342642D01*
X150396285Y-84390261D01*
X150491523Y-84437880D01*
X150682000Y-84437880D01*
X150777238Y-84390261D01*
X150824857Y-84342642D01*
X150872476Y-84247404D01*
X150872476Y-84009309D01*
X150824857Y-83914071D01*
X150777238Y-83866452D01*
X150682000Y-83818833D01*
X150491523Y-83818833D01*
X150396285Y-83866452D01*
X150348666Y-83914071D01*
X150301047Y-84009309D01*
X151301047Y-84437880D02*
X151301047Y-83437880D01*
X151682000Y-83437880D01*
X151777238Y-83485500D01*
X151824857Y-83533119D01*
X151872476Y-83628357D01*
X151872476Y-83771214D01*
X151824857Y-83866452D01*
X151777238Y-83914071D01*
X151682000Y-83961690D01*
X151301047Y-83961690D01*
X152205809Y-83437880D02*
X152824857Y-83437880D01*
X152491523Y-83818833D01*
X152634380Y-83818833D01*
X152729619Y-83866452D01*
X152777238Y-83914071D01*
X152824857Y-84009309D01*
X152824857Y-84247404D01*
X152777238Y-84342642D01*
X152729619Y-84390261D01*
X152634380Y-84437880D01*
X152348666Y-84437880D01*
X152253428Y-84390261D01*
X152205809Y-84342642D01*
X153158190Y-83437880D02*
X153777238Y-83437880D01*
X153443904Y-83818833D01*
X153586761Y-83818833D01*
X153682000Y-83866452D01*
X153729619Y-83914071D01*
X153777238Y-84009309D01*
X153777238Y-84247404D01*
X153729619Y-84342642D01*
X153682000Y-84390261D01*
X153586761Y-84437880D01*
X153301047Y-84437880D01*
X153205809Y-84390261D01*
X153158190Y-84342642D01*
X154158190Y-83533119D02*
X154205809Y-83485500D01*
X154301047Y-83437880D01*
X154539142Y-83437880D01*
X154634380Y-83485500D01*
X154682000Y-83533119D01*
X154729619Y-83628357D01*
X154729619Y-83723595D01*
X154682000Y-83866452D01*
X154110571Y-84437880D01*
X154729619Y-84437880D01*
X155158190Y-84437880D02*
X155158190Y-83437880D01*
X155491523Y-84152166D01*
X155824857Y-83437880D01*
X155824857Y-84437880D01*
X156872476Y-84437880D02*
X156539142Y-83961690D01*
X156301047Y-84437880D02*
X156301047Y-83437880D01*
X156682000Y-83437880D01*
X156777238Y-83485500D01*
X156824857Y-83533119D01*
X156872476Y-83628357D01*
X156872476Y-83771214D01*
X156824857Y-83866452D01*
X156777238Y-83914071D01*
X156682000Y-83961690D01*
X156301047Y-83961690D01*
D11*
X123351904Y-123315238D02*
X124151904Y-123048571D01*
X123351904Y-122781904D01*
X124151904Y-122515238D02*
X123351904Y-122515238D01*
X123351904Y-122324761D01*
X123390000Y-122210476D01*
X123466190Y-122134285D01*
X123542380Y-122096190D01*
X123694761Y-122058095D01*
X123809047Y-122058095D01*
X123961428Y-122096190D01*
X124037619Y-122134285D01*
X124113809Y-122210476D01*
X124151904Y-122324761D01*
X124151904Y-122515238D01*
X124151904Y-121715238D02*
X123351904Y-121715238D01*
X123351904Y-121524761D01*
X123390000Y-121410476D01*
X123466190Y-121334285D01*
X123542380Y-121296190D01*
X123694761Y-121258095D01*
X123809047Y-121258095D01*
X123961428Y-121296190D01*
X124037619Y-121334285D01*
X124113809Y-121410476D01*
X124151904Y-121524761D01*
X124151904Y-121715238D01*
X124228095Y-121105714D02*
X124228095Y-120496190D01*
X123351904Y-119924761D02*
X123351904Y-120305714D01*
X123732857Y-120343809D01*
X123694761Y-120305714D01*
X123656666Y-120229523D01*
X123656666Y-120039047D01*
X123694761Y-119962857D01*
X123732857Y-119924761D01*
X123809047Y-119886666D01*
X123999523Y-119886666D01*
X124075714Y-119924761D01*
X124113809Y-119962857D01*
X124151904Y-120039047D01*
X124151904Y-120229523D01*
X124113809Y-120305714D01*
X124075714Y-120343809D01*
X123351904Y-119658095D02*
X124151904Y-119391428D01*
X123351904Y-119124761D01*
X127425714Y-119883333D02*
X127463809Y-119921428D01*
X127501904Y-120035714D01*
X127501904Y-120111904D01*
X127463809Y-120226190D01*
X127387619Y-120302380D01*
X127311428Y-120340476D01*
X127159047Y-120378571D01*
X127044761Y-120378571D01*
X126892380Y-120340476D01*
X126816190Y-120302380D01*
X126740000Y-120226190D01*
X126701904Y-120111904D01*
X126701904Y-120035714D01*
X126740000Y-119921428D01*
X126778095Y-119883333D01*
X127463809Y-119578571D02*
X127501904Y-119464285D01*
X127501904Y-119273809D01*
X127463809Y-119197619D01*
X127425714Y-119159523D01*
X127349523Y-119121428D01*
X127273333Y-119121428D01*
X127197142Y-119159523D01*
X127159047Y-119197619D01*
X127120952Y-119273809D01*
X127082857Y-119426190D01*
X127044761Y-119502380D01*
X127006666Y-119540476D01*
X126930476Y-119578571D01*
X126854285Y-119578571D01*
X126778095Y-119540476D01*
X126740000Y-119502380D01*
X126701904Y-119426190D01*
X126701904Y-119235714D01*
X126740000Y-119121428D01*
X137483809Y-121198571D02*
X137521904Y-121084285D01*
X137521904Y-120893809D01*
X137483809Y-120817619D01*
X137445714Y-120779523D01*
X137369523Y-120741428D01*
X137293333Y-120741428D01*
X137217142Y-120779523D01*
X137179047Y-120817619D01*
X137140952Y-120893809D01*
X137102857Y-121046190D01*
X137064761Y-121122380D01*
X137026666Y-121160476D01*
X136950476Y-121198571D01*
X136874285Y-121198571D01*
X136798095Y-121160476D01*
X136760000Y-121122380D01*
X136721904Y-121046190D01*
X136721904Y-120855714D01*
X136760000Y-120741428D01*
X137445714Y-119941428D02*
X137483809Y-119979523D01*
X137521904Y-120093809D01*
X137521904Y-120170000D01*
X137483809Y-120284285D01*
X137407619Y-120360476D01*
X137331428Y-120398571D01*
X137179047Y-120436666D01*
X137064761Y-120436666D01*
X136912380Y-120398571D01*
X136836190Y-120360476D01*
X136760000Y-120284285D01*
X136721904Y-120170000D01*
X136721904Y-120093809D01*
X136760000Y-119979523D01*
X136798095Y-119941428D01*
X137521904Y-119598571D02*
X136721904Y-119598571D01*
X137521904Y-119141428D02*
X137064761Y-119484285D01*
X136721904Y-119141428D02*
X137179047Y-119598571D01*
D10*
X125522380Y-110430476D02*
X125522380Y-111001904D01*
X125522380Y-110716190D02*
X124522380Y-110716190D01*
X124665238Y-110811428D01*
X124760476Y-110906666D01*
X124808095Y-111001904D01*
X125522380Y-110001904D02*
X124522380Y-110001904D01*
X125522380Y-109430476D01*
X124522380Y-109430476D01*
X124522380Y-108478095D02*
X124522380Y-108954285D01*
X124998571Y-109001904D01*
X124950952Y-108954285D01*
X124903333Y-108859047D01*
X124903333Y-108620952D01*
X124950952Y-108525714D01*
X124998571Y-108478095D01*
X125093809Y-108430476D01*
X125331904Y-108430476D01*
X125427142Y-108478095D01*
X125474761Y-108525714D01*
X125522380Y-108620952D01*
X125522380Y-108859047D01*
X125474761Y-108954285D01*
X125427142Y-109001904D01*
X124950952Y-107859047D02*
X124903333Y-107954285D01*
X124855714Y-108001904D01*
X124760476Y-108049523D01*
X124712857Y-108049523D01*
X124617619Y-108001904D01*
X124570000Y-107954285D01*
X124522380Y-107859047D01*
X124522380Y-107668571D01*
X124570000Y-107573333D01*
X124617619Y-107525714D01*
X124712857Y-107478095D01*
X124760476Y-107478095D01*
X124855714Y-107525714D01*
X124903333Y-107573333D01*
X124950952Y-107668571D01*
X124950952Y-107859047D01*
X124998571Y-107954285D01*
X125046190Y-108001904D01*
X125141428Y-108049523D01*
X125331904Y-108049523D01*
X125427142Y-108001904D01*
X125474761Y-107954285D01*
X125522380Y-107859047D01*
X125522380Y-107668571D01*
X125474761Y-107573333D01*
X125427142Y-107525714D01*
X125331904Y-107478095D01*
X125141428Y-107478095D01*
X125046190Y-107525714D01*
X124998571Y-107573333D01*
X124950952Y-107668571D01*
X125522380Y-106525714D02*
X125522380Y-107097142D01*
X125522380Y-106811428D02*
X124522380Y-106811428D01*
X124665238Y-106906666D01*
X124760476Y-107001904D01*
X124808095Y-107097142D01*
X125522380Y-106049523D02*
X125522380Y-105859047D01*
X125474761Y-105763809D01*
X125427142Y-105716190D01*
X125284285Y-105620952D01*
X125093809Y-105573333D01*
X124712857Y-105573333D01*
X124617619Y-105620952D01*
X124570000Y-105668571D01*
X124522380Y-105763809D01*
X124522380Y-105954285D01*
X124570000Y-106049523D01*
X124617619Y-106097142D01*
X124712857Y-106144761D01*
X124950952Y-106144761D01*
X125046190Y-106097142D01*
X125093809Y-106049523D01*
X125141428Y-105954285D01*
X125141428Y-105763809D01*
X125093809Y-105668571D01*
X125046190Y-105620952D01*
X124950952Y-105573333D01*
X125474761Y-104430476D02*
X125522380Y-104287619D01*
X125522380Y-104049523D01*
X125474761Y-103954285D01*
X125427142Y-103906666D01*
X125331904Y-103859047D01*
X125236666Y-103859047D01*
X125141428Y-103906666D01*
X125093809Y-103954285D01*
X125046190Y-104049523D01*
X124998571Y-104240000D01*
X124950952Y-104335238D01*
X124903333Y-104382857D01*
X124808095Y-104430476D01*
X124712857Y-104430476D01*
X124617619Y-104382857D01*
X124570000Y-104335238D01*
X124522380Y-104240000D01*
X124522380Y-104001904D01*
X124570000Y-103859047D01*
X125474761Y-103001904D02*
X125522380Y-103097142D01*
X125522380Y-103287619D01*
X125474761Y-103382857D01*
X125427142Y-103430476D01*
X125331904Y-103478095D01*
X125046190Y-103478095D01*
X124950952Y-103430476D01*
X124903333Y-103382857D01*
X124855714Y-103287619D01*
X124855714Y-103097142D01*
X124903333Y-103001904D01*
X125522380Y-102573333D02*
X124522380Y-102573333D01*
X125522380Y-102144761D02*
X124998571Y-102144761D01*
X124903333Y-102192380D01*
X124855714Y-102287619D01*
X124855714Y-102430476D01*
X124903333Y-102525714D01*
X124950952Y-102573333D01*
X125522380Y-101525714D02*
X125474761Y-101620952D01*
X125427142Y-101668571D01*
X125331904Y-101716190D01*
X125046190Y-101716190D01*
X124950952Y-101668571D01*
X124903333Y-101620952D01*
X124855714Y-101525714D01*
X124855714Y-101382857D01*
X124903333Y-101287619D01*
X124950952Y-101240000D01*
X125046190Y-101192380D01*
X125331904Y-101192380D01*
X125427142Y-101240000D01*
X125474761Y-101287619D01*
X125522380Y-101382857D01*
X125522380Y-101525714D01*
X124855714Y-100906666D02*
X124855714Y-100525714D01*
X124522380Y-100763809D02*
X125379523Y-100763809D01*
X125474761Y-100716190D01*
X125522380Y-100620952D01*
X125522380Y-100525714D01*
X124855714Y-100335238D02*
X124855714Y-99954285D01*
X124522380Y-100192380D02*
X125379523Y-100192380D01*
X125474761Y-100144761D01*
X125522380Y-100049523D01*
X125522380Y-99954285D01*
X125522380Y-99620952D02*
X124522380Y-99620952D01*
X125141428Y-99525714D02*
X125522380Y-99240000D01*
X124855714Y-99240000D02*
X125236666Y-99620952D01*
X124855714Y-98906666D02*
X125522380Y-98668571D01*
X124855714Y-98430476D02*
X125522380Y-98668571D01*
X125760476Y-98763809D01*
X125808095Y-98811428D01*
X125855714Y-98906666D01*
X125138095Y-84330261D02*
X125280952Y-84377880D01*
X125519047Y-84377880D01*
X125614285Y-84330261D01*
X125661904Y-84282642D01*
X125709523Y-84187404D01*
X125709523Y-84092166D01*
X125661904Y-83996928D01*
X125614285Y-83949309D01*
X125519047Y-83901690D01*
X125328571Y-83854071D01*
X125233333Y-83806452D01*
X125185714Y-83758833D01*
X125138095Y-83663595D01*
X125138095Y-83568357D01*
X125185714Y-83473119D01*
X125233333Y-83425500D01*
X125328571Y-83377880D01*
X125566666Y-83377880D01*
X125709523Y-83425500D01*
X126280952Y-83806452D02*
X126185714Y-83758833D01*
X126138095Y-83711214D01*
X126090476Y-83615976D01*
X126090476Y-83568357D01*
X126138095Y-83473119D01*
X126185714Y-83425500D01*
X126280952Y-83377880D01*
X126471428Y-83377880D01*
X126566666Y-83425500D01*
X126614285Y-83473119D01*
X126661904Y-83568357D01*
X126661904Y-83615976D01*
X126614285Y-83711214D01*
X126566666Y-83758833D01*
X126471428Y-83806452D01*
X126280952Y-83806452D01*
X126185714Y-83854071D01*
X126138095Y-83901690D01*
X126090476Y-83996928D01*
X126090476Y-84187404D01*
X126138095Y-84282642D01*
X126185714Y-84330261D01*
X126280952Y-84377880D01*
X126471428Y-84377880D01*
X126566666Y-84330261D01*
X126614285Y-84282642D01*
X126661904Y-84187404D01*
X126661904Y-83996928D01*
X126614285Y-83901690D01*
X126566666Y-83854071D01*
X126471428Y-83806452D01*
X127280952Y-83377880D02*
X127376190Y-83377880D01*
X127471428Y-83425500D01*
X127519047Y-83473119D01*
X127566666Y-83568357D01*
X127614285Y-83758833D01*
X127614285Y-83996928D01*
X127566666Y-84187404D01*
X127519047Y-84282642D01*
X127471428Y-84330261D01*
X127376190Y-84377880D01*
X127280952Y-84377880D01*
X127185714Y-84330261D01*
X127138095Y-84282642D01*
X127090476Y-84187404D01*
X127042857Y-83996928D01*
X127042857Y-83758833D01*
X127090476Y-83568357D01*
X127138095Y-83473119D01*
X127185714Y-83425500D01*
X127280952Y-83377880D01*
X128519047Y-83377880D02*
X128042857Y-83377880D01*
X127995238Y-83854071D01*
X128042857Y-83806452D01*
X128138095Y-83758833D01*
X128376190Y-83758833D01*
X128471428Y-83806452D01*
X128519047Y-83854071D01*
X128566666Y-83949309D01*
X128566666Y-84187404D01*
X128519047Y-84282642D01*
X128471428Y-84330261D01*
X128376190Y-84377880D01*
X128138095Y-84377880D01*
X128042857Y-84330261D01*
X127995238Y-84282642D01*
X129185714Y-83377880D02*
X129280952Y-83377880D01*
X129376190Y-83425500D01*
X129423809Y-83473119D01*
X129471428Y-83568357D01*
X129519047Y-83758833D01*
X129519047Y-83996928D01*
X129471428Y-84187404D01*
X129423809Y-84282642D01*
X129376190Y-84330261D01*
X129280952Y-84377880D01*
X129185714Y-84377880D01*
X129090476Y-84330261D01*
X129042857Y-84282642D01*
X128995238Y-84187404D01*
X128947619Y-83996928D01*
X128947619Y-83758833D01*
X128995238Y-83568357D01*
X129042857Y-83473119D01*
X129090476Y-83425500D01*
X129185714Y-83377880D01*
X130709523Y-84377880D02*
X130709523Y-83377880D01*
X131280952Y-84377880D01*
X131280952Y-83377880D01*
X131757142Y-84377880D02*
X131757142Y-83377880D01*
X132138095Y-83377880D01*
X132233333Y-83425500D01*
X132280952Y-83473119D01*
X132328571Y-83568357D01*
X132328571Y-83711214D01*
X132280952Y-83806452D01*
X132233333Y-83854071D01*
X132138095Y-83901690D01*
X131757142Y-83901690D01*
X132757142Y-84377880D02*
X132757142Y-83377880D01*
X133328571Y-84377880D01*
X133328571Y-83377880D01*
X134423809Y-83377880D02*
X134995238Y-83377880D01*
X134709523Y-84377880D02*
X134709523Y-83377880D01*
X135328571Y-84377880D02*
X135328571Y-83711214D01*
X135328571Y-83901690D02*
X135376190Y-83806452D01*
X135423809Y-83758833D01*
X135519047Y-83711214D01*
X135614285Y-83711214D01*
X135947619Y-84377880D02*
X135947619Y-83711214D01*
X135947619Y-83377880D02*
X135900000Y-83425500D01*
X135947619Y-83473119D01*
X135995238Y-83425500D01*
X135947619Y-83377880D01*
X135947619Y-83473119D01*
X136566666Y-84377880D02*
X136471428Y-84330261D01*
X136423809Y-84282642D01*
X136376190Y-84187404D01*
X136376190Y-83901690D01*
X136423809Y-83806452D01*
X136471428Y-83758833D01*
X136566666Y-83711214D01*
X136709523Y-83711214D01*
X136804761Y-83758833D01*
X136852380Y-83806452D01*
X136900000Y-83901690D01*
X136900000Y-84187404D01*
X136852380Y-84282642D01*
X136804761Y-84330261D01*
X136709523Y-84377880D01*
X136566666Y-84377880D01*
X137757142Y-84377880D02*
X137757142Y-83377880D01*
X137757142Y-84330261D02*
X137661904Y-84377880D01*
X137471428Y-84377880D01*
X137376190Y-84330261D01*
X137328571Y-84282642D01*
X137280952Y-84187404D01*
X137280952Y-83901690D01*
X137328571Y-83806452D01*
X137376190Y-83758833D01*
X137471428Y-83711214D01*
X137661904Y-83711214D01*
X137757142Y-83758833D01*
X138614285Y-84330261D02*
X138519047Y-84377880D01*
X138328571Y-84377880D01*
X138233333Y-84330261D01*
X138185714Y-84235023D01*
X138185714Y-83854071D01*
X138233333Y-83758833D01*
X138328571Y-83711214D01*
X138519047Y-83711214D01*
X138614285Y-83758833D01*
X138661904Y-83854071D01*
X138661904Y-83949309D01*
X138185714Y-84044547D01*
D12*
X151465238Y-124762380D02*
X151465238Y-125571904D01*
X151512857Y-125667142D01*
X151560476Y-125714761D01*
X151655714Y-125762380D01*
X151846190Y-125762380D01*
X151941428Y-125714761D01*
X151989047Y-125667142D01*
X152036666Y-125571904D01*
X152036666Y-124762380D01*
X152512857Y-125762380D02*
X152512857Y-124762380D01*
X152989047Y-125762380D02*
X152989047Y-124762380D01*
X153560476Y-125762380D01*
X153560476Y-124762380D01*
X154036666Y-125762380D02*
X154036666Y-124762380D01*
X154703333Y-124762380D02*
X154893809Y-124762380D01*
X154989047Y-124810000D01*
X155084285Y-124905238D01*
X155131904Y-125095714D01*
X155131904Y-125429047D01*
X155084285Y-125619523D01*
X154989047Y-125714761D01*
X154893809Y-125762380D01*
X154703333Y-125762380D01*
X154608095Y-125714761D01*
X154512857Y-125619523D01*
X154465238Y-125429047D01*
X154465238Y-125095714D01*
X154512857Y-124905238D01*
X154608095Y-124810000D01*
X154703333Y-124762380D01*
X155560476Y-125381428D02*
X156322380Y-125381428D01*
X157274761Y-125762380D02*
X156798571Y-125762380D01*
X156798571Y-124762380D01*
X158179523Y-125667142D02*
X158131904Y-125714761D01*
X157989047Y-125762380D01*
X157893809Y-125762380D01*
X157750952Y-125714761D01*
X157655714Y-125619523D01*
X157608095Y-125524285D01*
X157560476Y-125333809D01*
X157560476Y-125190952D01*
X157608095Y-125000476D01*
X157655714Y-124905238D01*
X157750952Y-124810000D01*
X157893809Y-124762380D01*
X157989047Y-124762380D01*
X158131904Y-124810000D01*
X158179523Y-124857619D01*
X158608095Y-125762380D02*
X158608095Y-124762380D01*
X158846190Y-124762380D01*
X158989047Y-124810000D01*
X159084285Y-124905238D01*
X159131904Y-125000476D01*
X159179523Y-125190952D01*
X159179523Y-125333809D01*
X159131904Y-125524285D01*
X159084285Y-125619523D01*
X158989047Y-125714761D01*
X158846190Y-125762380D01*
X158608095Y-125762380D01*
X159560476Y-124857619D02*
X159608095Y-124810000D01*
X159703333Y-124762380D01*
X159941428Y-124762380D01*
X160036666Y-124810000D01*
X160084285Y-124857619D01*
X160131904Y-124952857D01*
X160131904Y-125048095D01*
X160084285Y-125190952D01*
X159512857Y-125762380D01*
X160131904Y-125762380D01*
X160560476Y-125667142D02*
X160608095Y-125714761D01*
X160560476Y-125762380D01*
X160512857Y-125714761D01*
X160560476Y-125667142D01*
X160560476Y-125762380D01*
X161465238Y-125095714D02*
X161465238Y-125762380D01*
X161227142Y-124714761D02*
X160989047Y-125429047D01*
X161608095Y-125429047D01*
X161989047Y-125381428D02*
X162750952Y-125381428D01*
X163179523Y-125714761D02*
X163322380Y-125762380D01*
X163560476Y-125762380D01*
X163655714Y-125714761D01*
X163703333Y-125667142D01*
X163750952Y-125571904D01*
X163750952Y-125476666D01*
X163703333Y-125381428D01*
X163655714Y-125333809D01*
X163560476Y-125286190D01*
X163370000Y-125238571D01*
X163274761Y-125190952D01*
X163227142Y-125143333D01*
X163179523Y-125048095D01*
X163179523Y-124952857D01*
X163227142Y-124857619D01*
X163274761Y-124810000D01*
X163370000Y-124762380D01*
X163608095Y-124762380D01*
X163750952Y-124810000D01*
X164036666Y-124762380D02*
X164608095Y-124762380D01*
X164322380Y-125762380D02*
X164322380Y-124762380D01*
X164846190Y-124762380D02*
X165512857Y-124762380D01*
X165084285Y-125762380D01*
X165798571Y-124762380D02*
X166465238Y-124762380D01*
X166036666Y-125762380D01*
X166989047Y-125190952D02*
X166893809Y-125143333D01*
X166846190Y-125095714D01*
X166798571Y-125000476D01*
X166798571Y-124952857D01*
X166846190Y-124857619D01*
X166893809Y-124810000D01*
X166989047Y-124762380D01*
X167179523Y-124762380D01*
X167274761Y-124810000D01*
X167322380Y-124857619D01*
X167370000Y-124952857D01*
X167370000Y-125000476D01*
X167322380Y-125095714D01*
X167274761Y-125143333D01*
X167179523Y-125190952D01*
X166989047Y-125190952D01*
X166893809Y-125238571D01*
X166846190Y-125286190D01*
X166798571Y-125381428D01*
X166798571Y-125571904D01*
X166846190Y-125667142D01*
X166893809Y-125714761D01*
X166989047Y-125762380D01*
X167179523Y-125762380D01*
X167274761Y-125714761D01*
X167322380Y-125667142D01*
X167370000Y-125571904D01*
X167370000Y-125381428D01*
X167322380Y-125286190D01*
X167274761Y-125238571D01*
X167179523Y-125190952D01*
X167846190Y-125762380D02*
X168036666Y-125762380D01*
X168131904Y-125714761D01*
X168179523Y-125667142D01*
X168274761Y-125524285D01*
X168322380Y-125333809D01*
X168322380Y-124952857D01*
X168274761Y-124857619D01*
X168227142Y-124810000D01*
X168131904Y-124762380D01*
X167941428Y-124762380D01*
X167846190Y-124810000D01*
X167798571Y-124857619D01*
X167750952Y-124952857D01*
X167750952Y-125190952D01*
X167798571Y-125286190D01*
X167846190Y-125333809D01*
X167941428Y-125381428D01*
X168131904Y-125381428D01*
X168227142Y-125333809D01*
X168274761Y-125286190D01*
X168322380Y-125190952D01*
D11*
X130030000Y-120759523D02*
X129991904Y-120835714D01*
X129991904Y-120950000D01*
X130030000Y-121064285D01*
X130106190Y-121140476D01*
X130182380Y-121178571D01*
X130334761Y-121216666D01*
X130449047Y-121216666D01*
X130601428Y-121178571D01*
X130677619Y-121140476D01*
X130753809Y-121064285D01*
X130791904Y-120950000D01*
X130791904Y-120873809D01*
X130753809Y-120759523D01*
X130715714Y-120721428D01*
X130449047Y-120721428D01*
X130449047Y-120873809D01*
X130791904Y-120378571D02*
X129991904Y-120378571D01*
X130791904Y-119921428D01*
X129991904Y-119921428D01*
X130791904Y-119540476D02*
X129991904Y-119540476D01*
X129991904Y-119350000D01*
X130030000Y-119235714D01*
X130106190Y-119159523D01*
X130182380Y-119121428D01*
X130334761Y-119083333D01*
X130449047Y-119083333D01*
X130601428Y-119121428D01*
X130677619Y-119159523D01*
X130753809Y-119235714D01*
X130791904Y-119350000D01*
X130791904Y-119540476D01*
X147112857Y-120036666D02*
X147150952Y-119922380D01*
X147189047Y-119884285D01*
X147265238Y-119846190D01*
X147379523Y-119846190D01*
X147455714Y-119884285D01*
X147493809Y-119922380D01*
X147531904Y-119998571D01*
X147531904Y-120303333D01*
X146731904Y-120303333D01*
X146731904Y-120036666D01*
X146770000Y-119960476D01*
X146808095Y-119922380D01*
X146884285Y-119884285D01*
X146960476Y-119884285D01*
X147036666Y-119922380D01*
X147074761Y-119960476D01*
X147112857Y-120036666D01*
X147112857Y-120303333D01*
X147531904Y-119122380D02*
X147531904Y-119503333D01*
X146731904Y-119503333D01*
X144201904Y-120575238D02*
X143820952Y-120841904D01*
X144201904Y-121032380D02*
X143401904Y-121032380D01*
X143401904Y-120727619D01*
X143440000Y-120651428D01*
X143478095Y-120613333D01*
X143554285Y-120575238D01*
X143668571Y-120575238D01*
X143744761Y-120613333D01*
X143782857Y-120651428D01*
X143820952Y-120727619D01*
X143820952Y-121032380D01*
X143782857Y-120232380D02*
X143782857Y-119965714D01*
X144201904Y-119851428D02*
X144201904Y-120232380D01*
X143401904Y-120232380D01*
X143401904Y-119851428D01*
X144163809Y-119546666D02*
X144201904Y-119432380D01*
X144201904Y-119241904D01*
X144163809Y-119165714D01*
X144125714Y-119127619D01*
X144049523Y-119089523D01*
X143973333Y-119089523D01*
X143897142Y-119127619D01*
X143859047Y-119165714D01*
X143820952Y-119241904D01*
X143782857Y-119394285D01*
X143744761Y-119470476D01*
X143706666Y-119508571D01*
X143630476Y-119546666D01*
X143554285Y-119546666D01*
X143478095Y-119508571D01*
X143440000Y-119470476D01*
X143401904Y-119394285D01*
X143401904Y-119203809D01*
X143440000Y-119089523D01*
D10*
X163899523Y-112352380D02*
X163899523Y-111352380D01*
X164232857Y-112066666D01*
X164566190Y-111352380D01*
X164566190Y-112352380D01*
X165042380Y-111828571D02*
X165375714Y-111828571D01*
X165518571Y-112352380D02*
X165042380Y-112352380D01*
X165042380Y-111352380D01*
X165518571Y-111352380D01*
X166375714Y-111352380D02*
X166185238Y-111352380D01*
X166090000Y-111400000D01*
X166042380Y-111447619D01*
X165947142Y-111590476D01*
X165899523Y-111780952D01*
X165899523Y-112161904D01*
X165947142Y-112257142D01*
X165994761Y-112304761D01*
X166090000Y-112352380D01*
X166280476Y-112352380D01*
X166375714Y-112304761D01*
X166423333Y-112257142D01*
X166470952Y-112161904D01*
X166470952Y-111923809D01*
X166423333Y-111828571D01*
X166375714Y-111780952D01*
X166280476Y-111733333D01*
X166090000Y-111733333D01*
X165994761Y-111780952D01*
X165947142Y-111828571D01*
X165899523Y-111923809D01*
X166851904Y-111447619D02*
X166899523Y-111400000D01*
X166994761Y-111352380D01*
X167232857Y-111352380D01*
X167328095Y-111400000D01*
X167375714Y-111447619D01*
X167423333Y-111542857D01*
X167423333Y-111638095D01*
X167375714Y-111780952D01*
X166804285Y-112352380D01*
X167423333Y-112352380D01*
X168375714Y-112352380D02*
X167804285Y-112352380D01*
X168090000Y-112352380D02*
X168090000Y-111352380D01*
X167994761Y-111495238D01*
X167899523Y-111590476D01*
X167804285Y-111638095D01*
X169328095Y-112352380D02*
X168756666Y-112352380D01*
X169042380Y-112352380D02*
X169042380Y-111352380D01*
X168947142Y-111495238D01*
X168851904Y-111590476D01*
X168756666Y-111638095D01*
X170328095Y-112257142D02*
X170280476Y-112304761D01*
X170137619Y-112352380D01*
X170042380Y-112352380D01*
X169899523Y-112304761D01*
X169804285Y-112209523D01*
X169756666Y-112114285D01*
X169709047Y-111923809D01*
X169709047Y-111780952D01*
X169756666Y-111590476D01*
X169804285Y-111495238D01*
X169899523Y-111400000D01*
X170042380Y-111352380D01*
X170137619Y-111352380D01*
X170280476Y-111400000D01*
X170328095Y-111447619D01*
X170661428Y-111352380D02*
X171280476Y-111352380D01*
X170947142Y-111733333D01*
X171090000Y-111733333D01*
X171185238Y-111780952D01*
X171232857Y-111828571D01*
X171280476Y-111923809D01*
X171280476Y-112161904D01*
X171232857Y-112257142D01*
X171185238Y-112304761D01*
X171090000Y-112352380D01*
X170804285Y-112352380D01*
X170709047Y-112304761D01*
X170661428Y-112257142D01*
X171613809Y-111352380D02*
X172232857Y-111352380D01*
X171899523Y-111733333D01*
X172042380Y-111733333D01*
X172137619Y-111780952D01*
X172185238Y-111828571D01*
X172232857Y-111923809D01*
X172232857Y-112161904D01*
X172185238Y-112257142D01*
X172137619Y-112304761D01*
X172042380Y-112352380D01*
X171756666Y-112352380D01*
X171661428Y-112304761D01*
X171613809Y-112257142D01*
X172661428Y-112352380D02*
X172661428Y-111352380D01*
X172994761Y-112066666D01*
X173328095Y-111352380D01*
X173328095Y-112352380D01*
X174280476Y-111352380D02*
X173804285Y-111352380D01*
X173756666Y-111828571D01*
X173804285Y-111780952D01*
X173899523Y-111733333D01*
X174137619Y-111733333D01*
X174232857Y-111780952D01*
X174280476Y-111828571D01*
X174328095Y-111923809D01*
X174328095Y-112161904D01*
X174280476Y-112257142D01*
X174232857Y-112304761D01*
X174137619Y-112352380D01*
X173899523Y-112352380D01*
X173804285Y-112304761D01*
X173756666Y-112257142D01*
X175280476Y-111400000D02*
X175185238Y-111352380D01*
X175042380Y-111352380D01*
X174899523Y-111400000D01*
X174804285Y-111495238D01*
X174756666Y-111590476D01*
X174709047Y-111780952D01*
X174709047Y-111923809D01*
X174756666Y-112114285D01*
X174804285Y-112209523D01*
X174899523Y-112304761D01*
X175042380Y-112352380D01*
X175137619Y-112352380D01*
X175280476Y-112304761D01*
X175328095Y-112257142D01*
X175328095Y-111923809D01*
X175137619Y-111923809D01*
D11*
X140811904Y-121647142D02*
X140011904Y-121647142D01*
X140583333Y-121380476D01*
X140011904Y-121113809D01*
X140811904Y-121113809D01*
X140011904Y-120580476D02*
X140011904Y-120428095D01*
X140050000Y-120351904D01*
X140126190Y-120275714D01*
X140278571Y-120237619D01*
X140545238Y-120237619D01*
X140697619Y-120275714D01*
X140773809Y-120351904D01*
X140811904Y-120428095D01*
X140811904Y-120580476D01*
X140773809Y-120656666D01*
X140697619Y-120732857D01*
X140545238Y-120770952D01*
X140278571Y-120770952D01*
X140126190Y-120732857D01*
X140050000Y-120656666D01*
X140011904Y-120580476D01*
X140773809Y-119932857D02*
X140811904Y-119818571D01*
X140811904Y-119628095D01*
X140773809Y-119551904D01*
X140735714Y-119513809D01*
X140659523Y-119475714D01*
X140583333Y-119475714D01*
X140507142Y-119513809D01*
X140469047Y-119551904D01*
X140430952Y-119628095D01*
X140392857Y-119780476D01*
X140354761Y-119856666D01*
X140316666Y-119894761D01*
X140240476Y-119932857D01*
X140164285Y-119932857D01*
X140088095Y-119894761D01*
X140050000Y-119856666D01*
X140011904Y-119780476D01*
X140011904Y-119590000D01*
X140050000Y-119475714D01*
X140811904Y-119132857D02*
X140011904Y-119132857D01*
D10*
X165030000Y-84096666D02*
X165506190Y-84096666D01*
X164934761Y-84382380D02*
X165268095Y-83382380D01*
X165601428Y-84382380D01*
X165934761Y-84382380D02*
X165934761Y-83382380D01*
X166268095Y-84096666D01*
X166601428Y-83382380D01*
X166601428Y-84382380D01*
X167030000Y-84334761D02*
X167172857Y-84382380D01*
X167410952Y-84382380D01*
X167506190Y-84334761D01*
X167553809Y-84287142D01*
X167601428Y-84191904D01*
X167601428Y-84096666D01*
X167553809Y-84001428D01*
X167506190Y-83953809D01*
X167410952Y-83906190D01*
X167220476Y-83858571D01*
X167125238Y-83810952D01*
X167077619Y-83763333D01*
X167030000Y-83668095D01*
X167030000Y-83572857D01*
X167077619Y-83477619D01*
X167125238Y-83430000D01*
X167220476Y-83382380D01*
X167458571Y-83382380D01*
X167601428Y-83430000D01*
X168553809Y-84382380D02*
X167982380Y-84382380D01*
X168268095Y-84382380D02*
X168268095Y-83382380D01*
X168172857Y-83525238D01*
X168077619Y-83620476D01*
X167982380Y-83668095D01*
X169506190Y-84382380D02*
X168934761Y-84382380D01*
X169220476Y-84382380D02*
X169220476Y-83382380D01*
X169125238Y-83525238D01*
X169030000Y-83620476D01*
X168934761Y-83668095D01*
X170458571Y-84382380D02*
X169887142Y-84382380D01*
X170172857Y-84382380D02*
X170172857Y-83382380D01*
X170077619Y-83525238D01*
X169982380Y-83620476D01*
X169887142Y-83668095D01*
X170791904Y-83382380D02*
X171458571Y-83382380D01*
X171030000Y-84382380D01*
X171839523Y-84001428D02*
X172601428Y-84001428D01*
X172982380Y-83382380D02*
X173601428Y-83382380D01*
X173268095Y-83763333D01*
X173410952Y-83763333D01*
X173506190Y-83810952D01*
X173553809Y-83858571D01*
X173601428Y-83953809D01*
X173601428Y-84191904D01*
X173553809Y-84287142D01*
X173506190Y-84334761D01*
X173410952Y-84382380D01*
X173125238Y-84382380D01*
X173030000Y-84334761D01*
X172982380Y-84287142D01*
X174030000Y-84287142D02*
X174077619Y-84334761D01*
X174030000Y-84382380D01*
X173982380Y-84334761D01*
X174030000Y-84287142D01*
X174030000Y-84382380D01*
X174410952Y-83382380D02*
X175030000Y-83382380D01*
X174696666Y-83763333D01*
X174839523Y-83763333D01*
X174934761Y-83810952D01*
X174982380Y-83858571D01*
X175030000Y-83953809D01*
X175030000Y-84191904D01*
X174982380Y-84287142D01*
X174934761Y-84334761D01*
X174839523Y-84382380D01*
X174553809Y-84382380D01*
X174458571Y-84334761D01*
X174410952Y-84287142D01*
D11*
X169406190Y-124941904D02*
X169672857Y-125741904D01*
X169939523Y-124941904D01*
X170510952Y-125703809D02*
X170434761Y-125741904D01*
X170282380Y-125741904D01*
X170206190Y-125703809D01*
X170168095Y-125627619D01*
X170168095Y-125322857D01*
X170206190Y-125246666D01*
X170282380Y-125208571D01*
X170434761Y-125208571D01*
X170510952Y-125246666D01*
X170549047Y-125322857D01*
X170549047Y-125399047D01*
X170168095Y-125475238D01*
X170891904Y-125741904D02*
X170891904Y-125208571D01*
X170891904Y-125360952D02*
X170930000Y-125284761D01*
X170968095Y-125246666D01*
X171044285Y-125208571D01*
X171120476Y-125208571D01*
X171349047Y-125703809D02*
X171425238Y-125741904D01*
X171577619Y-125741904D01*
X171653809Y-125703809D01*
X171691904Y-125627619D01*
X171691904Y-125589523D01*
X171653809Y-125513333D01*
X171577619Y-125475238D01*
X171463333Y-125475238D01*
X171387142Y-125437142D01*
X171349047Y-125360952D01*
X171349047Y-125322857D01*
X171387142Y-125246666D01*
X171463333Y-125208571D01*
X171577619Y-125208571D01*
X171653809Y-125246666D01*
X172034761Y-125741904D02*
X172034761Y-125208571D01*
X172034761Y-124941904D02*
X171996666Y-124980000D01*
X172034761Y-125018095D01*
X172072857Y-124980000D01*
X172034761Y-124941904D01*
X172034761Y-125018095D01*
X172530000Y-125741904D02*
X172453809Y-125703809D01*
X172415714Y-125665714D01*
X172377619Y-125589523D01*
X172377619Y-125360952D01*
X172415714Y-125284761D01*
X172453809Y-125246666D01*
X172530000Y-125208571D01*
X172644285Y-125208571D01*
X172720476Y-125246666D01*
X172758571Y-125284761D01*
X172796666Y-125360952D01*
X172796666Y-125589523D01*
X172758571Y-125665714D01*
X172720476Y-125703809D01*
X172644285Y-125741904D01*
X172530000Y-125741904D01*
X173139523Y-125208571D02*
X173139523Y-125741904D01*
X173139523Y-125284761D02*
X173177619Y-125246666D01*
X173253809Y-125208571D01*
X173368095Y-125208571D01*
X173444285Y-125246666D01*
X173482380Y-125322857D01*
X173482380Y-125741904D01*
X174891904Y-125741904D02*
X174434761Y-125741904D01*
X174663333Y-125741904D02*
X174663333Y-124941904D01*
X174587142Y-125056190D01*
X174510952Y-125132380D01*
X174434761Y-125170476D01*
X175234761Y-125665714D02*
X175272857Y-125703809D01*
X175234761Y-125741904D01*
X175196666Y-125703809D01*
X175234761Y-125665714D01*
X175234761Y-125741904D01*
X175768095Y-124941904D02*
X175844285Y-124941904D01*
X175920476Y-124980000D01*
X175958571Y-125018095D01*
X175996666Y-125094285D01*
X176034761Y-125246666D01*
X176034761Y-125437142D01*
X175996666Y-125589523D01*
X175958571Y-125665714D01*
X175920476Y-125703809D01*
X175844285Y-125741904D01*
X175768095Y-125741904D01*
X175691904Y-125703809D01*
X175653809Y-125665714D01*
X175615714Y-125589523D01*
X175577619Y-125437142D01*
X175577619Y-125246666D01*
X175615714Y-125094285D01*
X175653809Y-125018095D01*
X175691904Y-124980000D01*
X175768095Y-124941904D01*
X176377619Y-125665714D02*
X176415714Y-125703809D01*
X176377619Y-125741904D01*
X176339523Y-125703809D01*
X176377619Y-125665714D01*
X176377619Y-125741904D01*
X176910952Y-124941904D02*
X176987142Y-124941904D01*
X177063333Y-124980000D01*
X177101428Y-125018095D01*
X177139523Y-125094285D01*
X177177619Y-125246666D01*
X177177619Y-125437142D01*
X177139523Y-125589523D01*
X177101428Y-125665714D01*
X177063333Y-125703809D01*
X176987142Y-125741904D01*
X176910952Y-125741904D01*
X176834761Y-125703809D01*
X176796666Y-125665714D01*
X176758571Y-125589523D01*
X176720476Y-125437142D01*
X176720476Y-125246666D01*
X176758571Y-125094285D01*
X176796666Y-125018095D01*
X176834761Y-124980000D01*
X176910952Y-124941904D01*
X134201904Y-120439523D02*
X133401904Y-120439523D01*
X133401904Y-120249047D01*
X133440000Y-120134761D01*
X133516190Y-120058571D01*
X133592380Y-120020476D01*
X133744761Y-119982380D01*
X133859047Y-119982380D01*
X134011428Y-120020476D01*
X134087619Y-120058571D01*
X134163809Y-120134761D01*
X134201904Y-120249047D01*
X134201904Y-120439523D01*
X134125714Y-119182380D02*
X134163809Y-119220476D01*
X134201904Y-119334761D01*
X134201904Y-119410952D01*
X134163809Y-119525238D01*
X134087619Y-119601428D01*
X134011428Y-119639523D01*
X133859047Y-119677619D01*
X133744761Y-119677619D01*
X133592380Y-119639523D01*
X133516190Y-119601428D01*
X133440000Y-119525238D01*
X133401904Y-119410952D01*
X133401904Y-119334761D01*
X133440000Y-119220476D01*
X133478095Y-119182380D01*
D12*
%TO.C,TP5*%
X136194760Y-114761904D02*
X136651903Y-114761904D01*
X136423331Y-115561904D02*
X136423331Y-114761904D01*
X136918569Y-115561904D02*
X136918569Y-114761904D01*
X137223331Y-114761904D01*
X137299522Y-114800000D01*
X137337617Y-114838095D01*
X137375712Y-114914285D01*
X137375712Y-115028571D01*
X137337617Y-115104761D01*
X137299522Y-115142857D01*
X137223331Y-115180952D01*
X136918569Y-115180952D01*
X138099522Y-114761904D02*
X137718569Y-114761904D01*
X137680474Y-115142857D01*
X137718569Y-115104761D01*
X137794760Y-115066666D01*
X137985236Y-115066666D01*
X138061426Y-115104761D01*
X138099522Y-115142857D01*
X138137617Y-115219047D01*
X138137617Y-115409523D01*
X138099522Y-115485714D01*
X138061426Y-115523809D01*
X137985236Y-115561904D01*
X137794760Y-115561904D01*
X137718569Y-115523809D01*
X137680474Y-115485714D01*
%TO.C,U3*%
X154280476Y-87827404D02*
X154280476Y-88475023D01*
X154318571Y-88551214D01*
X154356666Y-88589309D01*
X154432857Y-88627404D01*
X154585238Y-88627404D01*
X154661428Y-88589309D01*
X154699523Y-88551214D01*
X154737619Y-88475023D01*
X154737619Y-87827404D01*
X155042380Y-87827404D02*
X155537619Y-87827404D01*
X155270952Y-88132166D01*
X155385238Y-88132166D01*
X155461428Y-88170261D01*
X155499523Y-88208357D01*
X155537619Y-88284547D01*
X155537619Y-88475023D01*
X155499523Y-88551214D01*
X155461428Y-88589309D01*
X155385238Y-88627404D01*
X155156666Y-88627404D01*
X155080476Y-88589309D01*
X155042380Y-88551214D01*
%TO.C,C1*%
X172906666Y-119561714D02*
X172868571Y-119599809D01*
X172754285Y-119637904D01*
X172678095Y-119637904D01*
X172563809Y-119599809D01*
X172487619Y-119523619D01*
X172449523Y-119447428D01*
X172411428Y-119295047D01*
X172411428Y-119180761D01*
X172449523Y-119028380D01*
X172487619Y-118952190D01*
X172563809Y-118876000D01*
X172678095Y-118837904D01*
X172754285Y-118837904D01*
X172868571Y-118876000D01*
X172906666Y-118914095D01*
X173668571Y-119637904D02*
X173211428Y-119637904D01*
X173440000Y-119637904D02*
X173440000Y-118837904D01*
X173363809Y-118952190D01*
X173287619Y-119028380D01*
X173211428Y-119066476D01*
%TO.C,R2*%
X130951904Y-99043333D02*
X130570952Y-99310000D01*
X130951904Y-99500476D02*
X130151904Y-99500476D01*
X130151904Y-99195714D01*
X130190000Y-99119523D01*
X130228095Y-99081428D01*
X130304285Y-99043333D01*
X130418571Y-99043333D01*
X130494761Y-99081428D01*
X130532857Y-99119523D01*
X130570952Y-99195714D01*
X130570952Y-99500476D01*
X130228095Y-98738571D02*
X130190000Y-98700476D01*
X130151904Y-98624285D01*
X130151904Y-98433809D01*
X130190000Y-98357619D01*
X130228095Y-98319523D01*
X130304285Y-98281428D01*
X130380476Y-98281428D01*
X130494761Y-98319523D01*
X130951904Y-98776666D01*
X130951904Y-98281428D01*
%TO.C,U1*%
X172580476Y-116257904D02*
X172580476Y-116905523D01*
X172618571Y-116981714D01*
X172656666Y-117019809D01*
X172732857Y-117057904D01*
X172885238Y-117057904D01*
X172961428Y-117019809D01*
X172999523Y-116981714D01*
X173037619Y-116905523D01*
X173037619Y-116257904D01*
X173837619Y-117057904D02*
X173380476Y-117057904D01*
X173609047Y-117057904D02*
X173609047Y-116257904D01*
X173532857Y-116372190D01*
X173456666Y-116448380D01*
X173380476Y-116486476D01*
%TO.C,R3*%
X133341904Y-99023333D02*
X132960952Y-99290000D01*
X133341904Y-99480476D02*
X132541904Y-99480476D01*
X132541904Y-99175714D01*
X132580000Y-99099523D01*
X132618095Y-99061428D01*
X132694285Y-99023333D01*
X132808571Y-99023333D01*
X132884761Y-99061428D01*
X132922857Y-99099523D01*
X132960952Y-99175714D01*
X132960952Y-99480476D01*
X132541904Y-98756666D02*
X132541904Y-98261428D01*
X132846666Y-98528095D01*
X132846666Y-98413809D01*
X132884761Y-98337619D01*
X132922857Y-98299523D01*
X132999047Y-98261428D01*
X133189523Y-98261428D01*
X133265714Y-98299523D01*
X133303809Y-98337619D01*
X133341904Y-98413809D01*
X133341904Y-98642380D01*
X133303809Y-98718571D01*
X133265714Y-98756666D01*
%TO.C,C6*%
X125036666Y-91730214D02*
X124998571Y-91768309D01*
X124884285Y-91806404D01*
X124808095Y-91806404D01*
X124693809Y-91768309D01*
X124617619Y-91692119D01*
X124579523Y-91615928D01*
X124541428Y-91463547D01*
X124541428Y-91349261D01*
X124579523Y-91196880D01*
X124617619Y-91120690D01*
X124693809Y-91044500D01*
X124808095Y-91006404D01*
X124884285Y-91006404D01*
X124998571Y-91044500D01*
X125036666Y-91082595D01*
X125722380Y-91006404D02*
X125570000Y-91006404D01*
X125493809Y-91044500D01*
X125455714Y-91082595D01*
X125379523Y-91196880D01*
X125341428Y-91349261D01*
X125341428Y-91654023D01*
X125379523Y-91730214D01*
X125417619Y-91768309D01*
X125493809Y-91806404D01*
X125646190Y-91806404D01*
X125722380Y-91768309D01*
X125760476Y-91730214D01*
X125798571Y-91654023D01*
X125798571Y-91463547D01*
X125760476Y-91387357D01*
X125722380Y-91349261D01*
X125646190Y-91311166D01*
X125493809Y-91311166D01*
X125417619Y-91349261D01*
X125379523Y-91387357D01*
X125341428Y-91463547D01*
%TO.C,TP7*%
X142871902Y-114761904D02*
X143329045Y-114761904D01*
X143100473Y-115561904D02*
X143100473Y-114761904D01*
X143595711Y-115561904D02*
X143595711Y-114761904D01*
X143900473Y-114761904D01*
X143976664Y-114800000D01*
X144014759Y-114838095D01*
X144052854Y-114914285D01*
X144052854Y-115028571D01*
X144014759Y-115104761D01*
X143976664Y-115142857D01*
X143900473Y-115180952D01*
X143595711Y-115180952D01*
X144319521Y-114761904D02*
X144852854Y-114761904D01*
X144509997Y-115561904D01*
%TO.C,D2*%
X131021904Y-111176523D02*
X130221904Y-111176523D01*
X130221904Y-110986047D01*
X130260000Y-110871761D01*
X130336190Y-110795571D01*
X130412380Y-110757476D01*
X130564761Y-110719380D01*
X130679047Y-110719380D01*
X130831428Y-110757476D01*
X130907619Y-110795571D01*
X130983809Y-110871761D01*
X131021904Y-110986047D01*
X131021904Y-111176523D01*
X130298095Y-110414619D02*
X130260000Y-110376523D01*
X130221904Y-110300333D01*
X130221904Y-110109857D01*
X130260000Y-110033666D01*
X130298095Y-109995571D01*
X130374285Y-109957476D01*
X130450476Y-109957476D01*
X130564761Y-109995571D01*
X131021904Y-110452714D01*
X131021904Y-109957476D01*
%TO.C,TP4*%
X132856189Y-114761904D02*
X133313332Y-114761904D01*
X133084760Y-115561904D02*
X133084760Y-114761904D01*
X133579998Y-115561904D02*
X133579998Y-114761904D01*
X133884760Y-114761904D01*
X133960951Y-114800000D01*
X133999046Y-114838095D01*
X134037141Y-114914285D01*
X134037141Y-115028571D01*
X133999046Y-115104761D01*
X133960951Y-115142857D01*
X133884760Y-115180952D01*
X133579998Y-115180952D01*
X134722855Y-115028571D02*
X134722855Y-115561904D01*
X134532379Y-114723809D02*
X134341903Y-115295238D01*
X134837141Y-115295238D01*
%TO.C,R7*%
X125076666Y-89031904D02*
X124810000Y-88650952D01*
X124619523Y-89031904D02*
X124619523Y-88231904D01*
X124924285Y-88231904D01*
X125000476Y-88270000D01*
X125038571Y-88308095D01*
X125076666Y-88384285D01*
X125076666Y-88498571D01*
X125038571Y-88574761D01*
X125000476Y-88612857D01*
X124924285Y-88650952D01*
X124619523Y-88650952D01*
X125343333Y-88231904D02*
X125876666Y-88231904D01*
X125533809Y-89031904D01*
%TO.C,D5*%
X138321904Y-111176523D02*
X137521904Y-111176523D01*
X137521904Y-110986047D01*
X137560000Y-110871761D01*
X137636190Y-110795571D01*
X137712380Y-110757476D01*
X137864761Y-110719380D01*
X137979047Y-110719380D01*
X138131428Y-110757476D01*
X138207619Y-110795571D01*
X138283809Y-110871761D01*
X138321904Y-110986047D01*
X138321904Y-111176523D01*
X137521904Y-109995571D02*
X137521904Y-110376523D01*
X137902857Y-110414619D01*
X137864761Y-110376523D01*
X137826666Y-110300333D01*
X137826666Y-110109857D01*
X137864761Y-110033666D01*
X137902857Y-109995571D01*
X137979047Y-109957476D01*
X138169523Y-109957476D01*
X138245714Y-109995571D01*
X138283809Y-110033666D01*
X138321904Y-110109857D01*
X138321904Y-110300333D01*
X138283809Y-110376523D01*
X138245714Y-110414619D01*
%TO.C,R4*%
X135671904Y-98993333D02*
X135290952Y-99260000D01*
X135671904Y-99450476D02*
X134871904Y-99450476D01*
X134871904Y-99145714D01*
X134910000Y-99069523D01*
X134948095Y-99031428D01*
X135024285Y-98993333D01*
X135138571Y-98993333D01*
X135214761Y-99031428D01*
X135252857Y-99069523D01*
X135290952Y-99145714D01*
X135290952Y-99450476D01*
X135138571Y-98307619D02*
X135671904Y-98307619D01*
X134833809Y-98498095D02*
X135405238Y-98688571D01*
X135405238Y-98193333D01*
%TO.C,U4*%
X176011904Y-103089523D02*
X176659523Y-103089523D01*
X176735714Y-103051428D01*
X176773809Y-103013333D01*
X176811904Y-102937142D01*
X176811904Y-102784761D01*
X176773809Y-102708571D01*
X176735714Y-102670476D01*
X176659523Y-102632380D01*
X176011904Y-102632380D01*
X176278571Y-101908571D02*
X176811904Y-101908571D01*
X175973809Y-102099047D02*
X176545238Y-102289523D01*
X176545238Y-101794285D01*
D10*
X163270000Y-103593333D02*
X163270000Y-104293333D01*
X163036666Y-103793333D01*
X162803333Y-104293333D01*
X162803333Y-103593333D01*
X162470000Y-103593333D02*
X162470000Y-104293333D01*
X162170000Y-103626666D02*
X162070000Y-103593333D01*
X161903333Y-103593333D01*
X161836666Y-103626666D01*
X161803333Y-103660000D01*
X161770000Y-103726666D01*
X161770000Y-103793333D01*
X161803333Y-103860000D01*
X161836666Y-103893333D01*
X161903333Y-103926666D01*
X162036666Y-103960000D01*
X162103333Y-103993333D01*
X162136666Y-104026666D01*
X162170000Y-104093333D01*
X162170000Y-104160000D01*
X162136666Y-104226666D01*
X162103333Y-104260000D01*
X162036666Y-104293333D01*
X161870000Y-104293333D01*
X161770000Y-104260000D01*
X161336666Y-104293333D02*
X161203333Y-104293333D01*
X161136666Y-104260000D01*
X161070000Y-104193333D01*
X161036666Y-104060000D01*
X161036666Y-103826666D01*
X161070000Y-103693333D01*
X161136666Y-103626666D01*
X161203333Y-103593333D01*
X161336666Y-103593333D01*
X161403333Y-103626666D01*
X161470000Y-103693333D01*
X161503333Y-103826666D01*
X161503333Y-104060000D01*
X161470000Y-104193333D01*
X161403333Y-104260000D01*
X161336666Y-104293333D01*
X162903333Y-98260000D02*
X162970000Y-98293333D01*
X163070000Y-98293333D01*
X163170000Y-98260000D01*
X163236666Y-98193333D01*
X163270000Y-98126666D01*
X163303333Y-97993333D01*
X163303333Y-97893333D01*
X163270000Y-97760000D01*
X163236666Y-97693333D01*
X163170000Y-97626666D01*
X163070000Y-97593333D01*
X163003333Y-97593333D01*
X162903333Y-97626666D01*
X162870000Y-97660000D01*
X162870000Y-97893333D01*
X163003333Y-97893333D01*
X162570000Y-97593333D02*
X162570000Y-98293333D01*
X162170000Y-97593333D01*
X162170000Y-98293333D01*
X161836666Y-97593333D02*
X161836666Y-98293333D01*
X161670000Y-98293333D01*
X161570000Y-98260000D01*
X161503333Y-98193333D01*
X161470000Y-98126666D01*
X161436666Y-97993333D01*
X161436666Y-97893333D01*
X161470000Y-97760000D01*
X161503333Y-97693333D01*
X161570000Y-97626666D01*
X161670000Y-97593333D01*
X161836666Y-97593333D01*
X162970000Y-106593333D02*
X163303333Y-106593333D01*
X163303333Y-107293333D01*
X162736666Y-106960000D02*
X162503333Y-106960000D01*
X162403333Y-106593333D02*
X162736666Y-106593333D01*
X162736666Y-107293333D01*
X162403333Y-107293333D01*
X162103333Y-106593333D02*
X162103333Y-107293333D01*
X161936666Y-107293333D01*
X161836666Y-107260000D01*
X161770000Y-107193333D01*
X161736666Y-107126666D01*
X161703333Y-106993333D01*
X161703333Y-106893333D01*
X161736666Y-106760000D01*
X161770000Y-106693333D01*
X161836666Y-106626666D01*
X161936666Y-106593333D01*
X162103333Y-106593333D01*
X161403333Y-106593333D02*
X161403333Y-107293333D01*
X161003333Y-106593333D02*
X161303333Y-106993333D01*
X161003333Y-107293333D02*
X161403333Y-106893333D01*
X163020000Y-105593333D02*
X163353333Y-105593333D01*
X163353333Y-106293333D01*
X162786666Y-105960000D02*
X162553333Y-105960000D01*
X162453333Y-105593333D02*
X162786666Y-105593333D01*
X162786666Y-106293333D01*
X162453333Y-106293333D01*
X162153333Y-105593333D02*
X162153333Y-106293333D01*
X161986666Y-106293333D01*
X161886666Y-106260000D01*
X161820000Y-106193333D01*
X161786666Y-106126666D01*
X161753333Y-105993333D01*
X161753333Y-105893333D01*
X161786666Y-105760000D01*
X161820000Y-105693333D01*
X161886666Y-105626666D01*
X161986666Y-105593333D01*
X162153333Y-105593333D01*
X161486666Y-105793333D02*
X161153333Y-105793333D01*
X161553333Y-105593333D02*
X161320000Y-106293333D01*
X161086666Y-105593333D01*
X163270000Y-100593333D02*
X163270000Y-101293333D01*
X163103333Y-101293333D01*
X163003333Y-101260000D01*
X162936666Y-101193333D01*
X162903333Y-101126666D01*
X162870000Y-100993333D01*
X162870000Y-100893333D01*
X162903333Y-100760000D01*
X162936666Y-100693333D01*
X163003333Y-100626666D01*
X163103333Y-100593333D01*
X163270000Y-100593333D01*
X162070000Y-101326666D02*
X162670000Y-100426666D01*
X161436666Y-100660000D02*
X161470000Y-100626666D01*
X161570000Y-100593333D01*
X161636666Y-100593333D01*
X161736666Y-100626666D01*
X161803333Y-100693333D01*
X161836666Y-100760000D01*
X161870000Y-100893333D01*
X161870000Y-100993333D01*
X161836666Y-101126666D01*
X161803333Y-101193333D01*
X161736666Y-101260000D01*
X161636666Y-101293333D01*
X161570000Y-101293333D01*
X161470000Y-101260000D01*
X161436666Y-101226666D01*
X162886666Y-101660000D02*
X162920000Y-101626666D01*
X163020000Y-101593333D01*
X163086666Y-101593333D01*
X163186666Y-101626666D01*
X163253333Y-101693333D01*
X163286666Y-101760000D01*
X163320000Y-101893333D01*
X163320000Y-101993333D01*
X163286666Y-102126666D01*
X163253333Y-102193333D01*
X163186666Y-102260000D01*
X163086666Y-102293333D01*
X163020000Y-102293333D01*
X162920000Y-102260000D01*
X162886666Y-102226666D01*
X162620000Y-101626666D02*
X162520000Y-101593333D01*
X162353333Y-101593333D01*
X162286666Y-101626666D01*
X162253333Y-101660000D01*
X162220000Y-101726666D01*
X162220000Y-101793333D01*
X162253333Y-101860000D01*
X162286666Y-101893333D01*
X162353333Y-101926666D01*
X162486666Y-101960000D01*
X162553333Y-101993333D01*
X162586666Y-102026666D01*
X162620000Y-102093333D01*
X162620000Y-102160000D01*
X162586666Y-102226666D01*
X162553333Y-102260000D01*
X162486666Y-102293333D01*
X162320000Y-102293333D01*
X162220000Y-102260000D01*
X163303333Y-105293333D02*
X163070000Y-104593333D01*
X162836666Y-105293333D01*
X162203333Y-104660000D02*
X162236666Y-104626666D01*
X162336666Y-104593333D01*
X162403333Y-104593333D01*
X162503333Y-104626666D01*
X162570000Y-104693333D01*
X162603333Y-104760000D01*
X162636666Y-104893333D01*
X162636666Y-104993333D01*
X162603333Y-105126666D01*
X162570000Y-105193333D01*
X162503333Y-105260000D01*
X162403333Y-105293333D01*
X162336666Y-105293333D01*
X162236666Y-105260000D01*
X162203333Y-105226666D01*
X161503333Y-104660000D02*
X161536666Y-104626666D01*
X161636666Y-104593333D01*
X161703333Y-104593333D01*
X161803333Y-104626666D01*
X161870000Y-104693333D01*
X161903333Y-104760000D01*
X161936666Y-104893333D01*
X161936666Y-104993333D01*
X161903333Y-105126666D01*
X161870000Y-105193333D01*
X161803333Y-105260000D01*
X161703333Y-105293333D01*
X161636666Y-105293333D01*
X161536666Y-105260000D01*
X161503333Y-105226666D01*
X163203333Y-99626666D02*
X163103333Y-99593333D01*
X162936666Y-99593333D01*
X162870000Y-99626666D01*
X162836666Y-99660000D01*
X162803333Y-99726666D01*
X162803333Y-99793333D01*
X162836666Y-99860000D01*
X162870000Y-99893333D01*
X162936666Y-99926666D01*
X163070000Y-99960000D01*
X163136666Y-99993333D01*
X163170000Y-100026666D01*
X163203333Y-100093333D01*
X163203333Y-100160000D01*
X163170000Y-100226666D01*
X163136666Y-100260000D01*
X163070000Y-100293333D01*
X162903333Y-100293333D01*
X162803333Y-100260000D01*
X162103333Y-99660000D02*
X162136666Y-99626666D01*
X162236666Y-99593333D01*
X162303333Y-99593333D01*
X162403333Y-99626666D01*
X162470000Y-99693333D01*
X162503333Y-99760000D01*
X162536666Y-99893333D01*
X162536666Y-99993333D01*
X162503333Y-100126666D01*
X162470000Y-100193333D01*
X162403333Y-100260000D01*
X162303333Y-100293333D01*
X162236666Y-100293333D01*
X162136666Y-100260000D01*
X162103333Y-100226666D01*
X161470000Y-99593333D02*
X161803333Y-99593333D01*
X161803333Y-100293333D01*
X162886666Y-98593333D02*
X163120000Y-98926666D01*
X163286666Y-98593333D02*
X163286666Y-99293333D01*
X163020000Y-99293333D01*
X162953333Y-99260000D01*
X162920000Y-99226666D01*
X162886666Y-99160000D01*
X162886666Y-99060000D01*
X162920000Y-98993333D01*
X162953333Y-98960000D01*
X163020000Y-98926666D01*
X163286666Y-98926666D01*
X162586666Y-98960000D02*
X162353333Y-98960000D01*
X162253333Y-98593333D02*
X162586666Y-98593333D01*
X162586666Y-99293333D01*
X162253333Y-99293333D01*
X161986666Y-98626666D02*
X161886666Y-98593333D01*
X161720000Y-98593333D01*
X161653333Y-98626666D01*
X161620000Y-98660000D01*
X161586666Y-98726666D01*
X161586666Y-98793333D01*
X161620000Y-98860000D01*
X161653333Y-98893333D01*
X161720000Y-98926666D01*
X161853333Y-98960000D01*
X161920000Y-98993333D01*
X161953333Y-99026666D01*
X161986666Y-99093333D01*
X161986666Y-99160000D01*
X161953333Y-99226666D01*
X161920000Y-99260000D01*
X161853333Y-99293333D01*
X161686666Y-99293333D01*
X161586666Y-99260000D01*
X161286666Y-98960000D02*
X161053333Y-98960000D01*
X160953333Y-98593333D02*
X161286666Y-98593333D01*
X161286666Y-99293333D01*
X160953333Y-99293333D01*
X160753333Y-99293333D02*
X160353333Y-99293333D01*
X160553333Y-98593333D02*
X160553333Y-99293333D01*
X163270000Y-102593333D02*
X163270000Y-103293333D01*
X163036666Y-102793333D01*
X162803333Y-103293333D01*
X162803333Y-102593333D01*
X162336666Y-103293333D02*
X162203333Y-103293333D01*
X162136666Y-103260000D01*
X162070000Y-103193333D01*
X162036666Y-103060000D01*
X162036666Y-102826666D01*
X162070000Y-102693333D01*
X162136666Y-102626666D01*
X162203333Y-102593333D01*
X162336666Y-102593333D01*
X162403333Y-102626666D01*
X162470000Y-102693333D01*
X162503333Y-102826666D01*
X162503333Y-103060000D01*
X162470000Y-103193333D01*
X162403333Y-103260000D01*
X162336666Y-103293333D01*
X161770000Y-102626666D02*
X161670000Y-102593333D01*
X161503333Y-102593333D01*
X161436666Y-102626666D01*
X161403333Y-102660000D01*
X161370000Y-102726666D01*
X161370000Y-102793333D01*
X161403333Y-102860000D01*
X161436666Y-102893333D01*
X161503333Y-102926666D01*
X161636666Y-102960000D01*
X161703333Y-102993333D01*
X161736666Y-103026666D01*
X161770000Y-103093333D01*
X161770000Y-103160000D01*
X161736666Y-103226666D01*
X161703333Y-103260000D01*
X161636666Y-103293333D01*
X161470000Y-103293333D01*
X161370000Y-103260000D01*
X161070000Y-102593333D02*
X161070000Y-103293333D01*
D12*
%TO.C,TP8*%
X146210476Y-114761904D02*
X146667619Y-114761904D01*
X146439047Y-115561904D02*
X146439047Y-114761904D01*
X146934285Y-115561904D02*
X146934285Y-114761904D01*
X147239047Y-114761904D01*
X147315238Y-114800000D01*
X147353333Y-114838095D01*
X147391428Y-114914285D01*
X147391428Y-115028571D01*
X147353333Y-115104761D01*
X147315238Y-115142857D01*
X147239047Y-115180952D01*
X146934285Y-115180952D01*
X147848571Y-115104761D02*
X147772380Y-115066666D01*
X147734285Y-115028571D01*
X147696190Y-114952380D01*
X147696190Y-114914285D01*
X147734285Y-114838095D01*
X147772380Y-114800000D01*
X147848571Y-114761904D01*
X148000952Y-114761904D01*
X148077142Y-114800000D01*
X148115238Y-114838095D01*
X148153333Y-114914285D01*
X148153333Y-114952380D01*
X148115238Y-115028571D01*
X148077142Y-115066666D01*
X148000952Y-115104761D01*
X147848571Y-115104761D01*
X147772380Y-115142857D01*
X147734285Y-115180952D01*
X147696190Y-115257142D01*
X147696190Y-115409523D01*
X147734285Y-115485714D01*
X147772380Y-115523809D01*
X147848571Y-115561904D01*
X148000952Y-115561904D01*
X148077142Y-115523809D01*
X148115238Y-115485714D01*
X148153333Y-115409523D01*
X148153333Y-115257142D01*
X148115238Y-115180952D01*
X148077142Y-115142857D01*
X148000952Y-115104761D01*
%TO.C,J1*%
X123533333Y-124851904D02*
X123533333Y-125423333D01*
X123495238Y-125537619D01*
X123419047Y-125613809D01*
X123304761Y-125651904D01*
X123228571Y-125651904D01*
X124333333Y-125651904D02*
X123876190Y-125651904D01*
X124104761Y-125651904D02*
X124104761Y-124851904D01*
X124028571Y-124966190D01*
X123952380Y-125042380D01*
X123876190Y-125080476D01*
%TO.C,Q1*%
X131773809Y-87123595D02*
X131697619Y-87085500D01*
X131621428Y-87009309D01*
X131507142Y-86895023D01*
X131430952Y-86856928D01*
X131354761Y-86856928D01*
X131392857Y-87047404D02*
X131316666Y-87009309D01*
X131240476Y-86933119D01*
X131202380Y-86780738D01*
X131202380Y-86514071D01*
X131240476Y-86361690D01*
X131316666Y-86285500D01*
X131392857Y-86247404D01*
X131545238Y-86247404D01*
X131621428Y-86285500D01*
X131697619Y-86361690D01*
X131735714Y-86514071D01*
X131735714Y-86780738D01*
X131697619Y-86933119D01*
X131621428Y-87009309D01*
X131545238Y-87047404D01*
X131392857Y-87047404D01*
X132497619Y-87047404D02*
X132040476Y-87047404D01*
X132269047Y-87047404D02*
X132269047Y-86247404D01*
X132192857Y-86361690D01*
X132116666Y-86437880D01*
X132040476Y-86475976D01*
%TO.C,C4*%
X146826666Y-88961214D02*
X146788571Y-88999309D01*
X146674285Y-89037404D01*
X146598095Y-89037404D01*
X146483809Y-88999309D01*
X146407619Y-88923119D01*
X146369523Y-88846928D01*
X146331428Y-88694547D01*
X146331428Y-88580261D01*
X146369523Y-88427880D01*
X146407619Y-88351690D01*
X146483809Y-88275500D01*
X146598095Y-88237404D01*
X146674285Y-88237404D01*
X146788571Y-88275500D01*
X146826666Y-88313595D01*
X147512380Y-88504071D02*
X147512380Y-89037404D01*
X147321904Y-88199309D02*
X147131428Y-88770738D01*
X147626666Y-88770738D01*
%TO.C,D1*%
X128661904Y-111176523D02*
X127861904Y-111176523D01*
X127861904Y-110986047D01*
X127900000Y-110871761D01*
X127976190Y-110795571D01*
X128052380Y-110757476D01*
X128204761Y-110719380D01*
X128319047Y-110719380D01*
X128471428Y-110757476D01*
X128547619Y-110795571D01*
X128623809Y-110871761D01*
X128661904Y-110986047D01*
X128661904Y-111176523D01*
X128661904Y-109957476D02*
X128661904Y-110414619D01*
X128661904Y-110186047D02*
X127861904Y-110186047D01*
X127976190Y-110262238D01*
X128052380Y-110338428D01*
X128090476Y-110414619D01*
%TO.C,C7*%
X154726666Y-92171214D02*
X154688571Y-92209309D01*
X154574285Y-92247404D01*
X154498095Y-92247404D01*
X154383809Y-92209309D01*
X154307619Y-92133119D01*
X154269523Y-92056928D01*
X154231428Y-91904547D01*
X154231428Y-91790261D01*
X154269523Y-91637880D01*
X154307619Y-91561690D01*
X154383809Y-91485500D01*
X154498095Y-91447404D01*
X154574285Y-91447404D01*
X154688571Y-91485500D01*
X154726666Y-91523595D01*
X154993333Y-91447404D02*
X155526666Y-91447404D01*
X155183809Y-92247404D01*
%TO.C,TP2*%
X126179047Y-114721904D02*
X126636190Y-114721904D01*
X126407618Y-115521904D02*
X126407618Y-114721904D01*
X126902856Y-115521904D02*
X126902856Y-114721904D01*
X127207618Y-114721904D01*
X127283809Y-114760000D01*
X127321904Y-114798095D01*
X127359999Y-114874285D01*
X127359999Y-114988571D01*
X127321904Y-115064761D01*
X127283809Y-115102857D01*
X127207618Y-115140952D01*
X126902856Y-115140952D01*
X127664761Y-114798095D02*
X127702856Y-114760000D01*
X127779047Y-114721904D01*
X127969523Y-114721904D01*
X128045713Y-114760000D01*
X128083809Y-114798095D01*
X128121904Y-114874285D01*
X128121904Y-114950476D01*
X128083809Y-115064761D01*
X127626666Y-115521904D01*
X128121904Y-115521904D01*
D13*
%TO.C,*%
D12*
%TO.C,TP3*%
X129517618Y-114761904D02*
X129974761Y-114761904D01*
X129746189Y-115561904D02*
X129746189Y-114761904D01*
X130241427Y-115561904D02*
X130241427Y-114761904D01*
X130546189Y-114761904D01*
X130622380Y-114800000D01*
X130660475Y-114838095D01*
X130698570Y-114914285D01*
X130698570Y-115028571D01*
X130660475Y-115104761D01*
X130622380Y-115142857D01*
X130546189Y-115180952D01*
X130241427Y-115180952D01*
X130965237Y-114761904D02*
X131460475Y-114761904D01*
X131193808Y-115066666D01*
X131308094Y-115066666D01*
X131384284Y-115104761D01*
X131422380Y-115142857D01*
X131460475Y-115219047D01*
X131460475Y-115409523D01*
X131422380Y-115485714D01*
X131384284Y-115523809D01*
X131308094Y-115561904D01*
X131079522Y-115561904D01*
X131003332Y-115523809D01*
X130965237Y-115485714D01*
%TO.C,C2*%
X175436666Y-88290714D02*
X175398571Y-88328809D01*
X175284285Y-88366904D01*
X175208095Y-88366904D01*
X175093809Y-88328809D01*
X175017619Y-88252619D01*
X174979523Y-88176428D01*
X174941428Y-88024047D01*
X174941428Y-87909761D01*
X174979523Y-87757380D01*
X175017619Y-87681190D01*
X175093809Y-87605000D01*
X175208095Y-87566904D01*
X175284285Y-87566904D01*
X175398571Y-87605000D01*
X175436666Y-87643095D01*
X175741428Y-87643095D02*
X175779523Y-87605000D01*
X175855714Y-87566904D01*
X176046190Y-87566904D01*
X176122380Y-87605000D01*
X176160476Y-87643095D01*
X176198571Y-87719285D01*
X176198571Y-87795476D01*
X176160476Y-87909761D01*
X175703333Y-88366904D01*
X176198571Y-88366904D01*
%TO.C,R8*%
X138016666Y-89147404D02*
X137750000Y-88766452D01*
X137559523Y-89147404D02*
X137559523Y-88347404D01*
X137864285Y-88347404D01*
X137940476Y-88385500D01*
X137978571Y-88423595D01*
X138016666Y-88499785D01*
X138016666Y-88614071D01*
X137978571Y-88690261D01*
X137940476Y-88728357D01*
X137864285Y-88766452D01*
X137559523Y-88766452D01*
X138473809Y-88690261D02*
X138397619Y-88652166D01*
X138359523Y-88614071D01*
X138321428Y-88537880D01*
X138321428Y-88499785D01*
X138359523Y-88423595D01*
X138397619Y-88385500D01*
X138473809Y-88347404D01*
X138626190Y-88347404D01*
X138702380Y-88385500D01*
X138740476Y-88423595D01*
X138778571Y-88499785D01*
X138778571Y-88537880D01*
X138740476Y-88614071D01*
X138702380Y-88652166D01*
X138626190Y-88690261D01*
X138473809Y-88690261D01*
X138397619Y-88728357D01*
X138359523Y-88766452D01*
X138321428Y-88842642D01*
X138321428Y-88995023D01*
X138359523Y-89071214D01*
X138397619Y-89109309D01*
X138473809Y-89147404D01*
X138626190Y-89147404D01*
X138702380Y-89109309D01*
X138740476Y-89071214D01*
X138778571Y-88995023D01*
X138778571Y-88842642D01*
X138740476Y-88766452D01*
X138702380Y-88728357D01*
X138626190Y-88690261D01*
%TO.C,TP6*%
X139533331Y-114761904D02*
X139990474Y-114761904D01*
X139761902Y-115561904D02*
X139761902Y-114761904D01*
X140257140Y-115561904D02*
X140257140Y-114761904D01*
X140561902Y-114761904D01*
X140638093Y-114800000D01*
X140676188Y-114838095D01*
X140714283Y-114914285D01*
X140714283Y-115028571D01*
X140676188Y-115104761D01*
X140638093Y-115142857D01*
X140561902Y-115180952D01*
X140257140Y-115180952D01*
X141399997Y-114761904D02*
X141247616Y-114761904D01*
X141171426Y-114800000D01*
X141133331Y-114838095D01*
X141057140Y-114952380D01*
X141019045Y-115104761D01*
X141019045Y-115409523D01*
X141057140Y-115485714D01*
X141095235Y-115523809D01*
X141171426Y-115561904D01*
X141323807Y-115561904D01*
X141399997Y-115523809D01*
X141438093Y-115485714D01*
X141476188Y-115409523D01*
X141476188Y-115219047D01*
X141438093Y-115142857D01*
X141399997Y-115104761D01*
X141323807Y-115066666D01*
X141171426Y-115066666D01*
X141095235Y-115104761D01*
X141057140Y-115142857D01*
X141019045Y-115219047D01*
%TO.C,CON1*%
X150063619Y-99849214D02*
X150025523Y-99887309D01*
X149911238Y-99925404D01*
X149835047Y-99925404D01*
X149720761Y-99887309D01*
X149644571Y-99811119D01*
X149606476Y-99734928D01*
X149568380Y-99582547D01*
X149568380Y-99468261D01*
X149606476Y-99315880D01*
X149644571Y-99239690D01*
X149720761Y-99163500D01*
X149835047Y-99125404D01*
X149911238Y-99125404D01*
X150025523Y-99163500D01*
X150063619Y-99201595D01*
X150558857Y-99125404D02*
X150711238Y-99125404D01*
X150787428Y-99163500D01*
X150863619Y-99239690D01*
X150901714Y-99392071D01*
X150901714Y-99658738D01*
X150863619Y-99811119D01*
X150787428Y-99887309D01*
X150711238Y-99925404D01*
X150558857Y-99925404D01*
X150482666Y-99887309D01*
X150406476Y-99811119D01*
X150368380Y-99658738D01*
X150368380Y-99392071D01*
X150406476Y-99239690D01*
X150482666Y-99163500D01*
X150558857Y-99125404D01*
X151244571Y-99925404D02*
X151244571Y-99125404D01*
X151701714Y-99925404D01*
X151701714Y-99125404D01*
X152501714Y-99925404D02*
X152044571Y-99925404D01*
X152273142Y-99925404D02*
X152273142Y-99125404D01*
X152196952Y-99239690D01*
X152120761Y-99315880D01*
X152044571Y-99353976D01*
%TO.C,TP1*%
X122840476Y-114771904D02*
X123297619Y-114771904D01*
X123069047Y-115571904D02*
X123069047Y-114771904D01*
X123564285Y-115571904D02*
X123564285Y-114771904D01*
X123869047Y-114771904D01*
X123945238Y-114810000D01*
X123983333Y-114848095D01*
X124021428Y-114924285D01*
X124021428Y-115038571D01*
X123983333Y-115114761D01*
X123945238Y-115152857D01*
X123869047Y-115190952D01*
X123564285Y-115190952D01*
X124783333Y-115571904D02*
X124326190Y-115571904D01*
X124554761Y-115571904D02*
X124554761Y-114771904D01*
X124478571Y-114886190D01*
X124402380Y-114962380D01*
X124326190Y-115000476D01*
%TO.C,R6*%
X138036666Y-91871904D02*
X137770000Y-91490952D01*
X137579523Y-91871904D02*
X137579523Y-91071904D01*
X137884285Y-91071904D01*
X137960476Y-91110000D01*
X137998571Y-91148095D01*
X138036666Y-91224285D01*
X138036666Y-91338571D01*
X137998571Y-91414761D01*
X137960476Y-91452857D01*
X137884285Y-91490952D01*
X137579523Y-91490952D01*
X138722380Y-91071904D02*
X138570000Y-91071904D01*
X138493809Y-91110000D01*
X138455714Y-91148095D01*
X138379523Y-91262380D01*
X138341428Y-91414761D01*
X138341428Y-91719523D01*
X138379523Y-91795714D01*
X138417619Y-91833809D01*
X138493809Y-91871904D01*
X138646190Y-91871904D01*
X138722380Y-91833809D01*
X138760476Y-91795714D01*
X138798571Y-91719523D01*
X138798571Y-91529047D01*
X138760476Y-91452857D01*
X138722380Y-91414761D01*
X138646190Y-91376666D01*
X138493809Y-91376666D01*
X138417619Y-91414761D01*
X138379523Y-91452857D01*
X138341428Y-91529047D01*
%TO.C,D4*%
X135661904Y-111176523D02*
X134861904Y-111176523D01*
X134861904Y-110986047D01*
X134900000Y-110871761D01*
X134976190Y-110795571D01*
X135052380Y-110757476D01*
X135204761Y-110719380D01*
X135319047Y-110719380D01*
X135471428Y-110757476D01*
X135547619Y-110795571D01*
X135623809Y-110871761D01*
X135661904Y-110986047D01*
X135661904Y-111176523D01*
X135128571Y-110033666D02*
X135661904Y-110033666D01*
X134823809Y-110224142D02*
X135395238Y-110414619D01*
X135395238Y-109919380D01*
%TO.C,C5*%
X149016666Y-92131214D02*
X148978571Y-92169309D01*
X148864285Y-92207404D01*
X148788095Y-92207404D01*
X148673809Y-92169309D01*
X148597619Y-92093119D01*
X148559523Y-92016928D01*
X148521428Y-91864547D01*
X148521428Y-91750261D01*
X148559523Y-91597880D01*
X148597619Y-91521690D01*
X148673809Y-91445500D01*
X148788095Y-91407404D01*
X148864285Y-91407404D01*
X148978571Y-91445500D01*
X149016666Y-91483595D01*
X149740476Y-91407404D02*
X149359523Y-91407404D01*
X149321428Y-91788357D01*
X149359523Y-91750261D01*
X149435714Y-91712166D01*
X149626190Y-91712166D01*
X149702380Y-91750261D01*
X149740476Y-91788357D01*
X149778571Y-91864547D01*
X149778571Y-92055023D01*
X149740476Y-92131214D01*
X149702380Y-92169309D01*
X149626190Y-92207404D01*
X149435714Y-92207404D01*
X149359523Y-92169309D01*
X149321428Y-92131214D01*
%TO.C,R1*%
X128661904Y-99063333D02*
X128280952Y-99330000D01*
X128661904Y-99520476D02*
X127861904Y-99520476D01*
X127861904Y-99215714D01*
X127900000Y-99139523D01*
X127938095Y-99101428D01*
X128014285Y-99063333D01*
X128128571Y-99063333D01*
X128204761Y-99101428D01*
X128242857Y-99139523D01*
X128280952Y-99215714D01*
X128280952Y-99520476D01*
X128661904Y-98301428D02*
X128661904Y-98758571D01*
X128661904Y-98530000D02*
X127861904Y-98530000D01*
X127976190Y-98606190D01*
X128052380Y-98682380D01*
X128090476Y-98758571D01*
%TO.C,R5*%
X138301904Y-98963333D02*
X137920952Y-99230000D01*
X138301904Y-99420476D02*
X137501904Y-99420476D01*
X137501904Y-99115714D01*
X137540000Y-99039523D01*
X137578095Y-99001428D01*
X137654285Y-98963333D01*
X137768571Y-98963333D01*
X137844761Y-99001428D01*
X137882857Y-99039523D01*
X137920952Y-99115714D01*
X137920952Y-99420476D01*
X137501904Y-98239523D02*
X137501904Y-98620476D01*
X137882857Y-98658571D01*
X137844761Y-98620476D01*
X137806666Y-98544285D01*
X137806666Y-98353809D01*
X137844761Y-98277619D01*
X137882857Y-98239523D01*
X137959047Y-98201428D01*
X138149523Y-98201428D01*
X138225714Y-98239523D01*
X138263809Y-98277619D01*
X138301904Y-98353809D01*
X138301904Y-98544285D01*
X138263809Y-98620476D01*
X138225714Y-98658571D01*
%TO.C,U2*%
X164414476Y-91685904D02*
X164414476Y-92333523D01*
X164452571Y-92409714D01*
X164490666Y-92447809D01*
X164566857Y-92485904D01*
X164719238Y-92485904D01*
X164795428Y-92447809D01*
X164833523Y-92409714D01*
X164871619Y-92333523D01*
X164871619Y-91685904D01*
X165214476Y-91762095D02*
X165252571Y-91724000D01*
X165328761Y-91685904D01*
X165519238Y-91685904D01*
X165595428Y-91724000D01*
X165633523Y-91762095D01*
X165671619Y-91838285D01*
X165671619Y-91914476D01*
X165633523Y-92028761D01*
X165176380Y-92485904D01*
X165671619Y-92485904D01*
%TO.C,D3*%
X133271904Y-111176523D02*
X132471904Y-111176523D01*
X132471904Y-110986047D01*
X132510000Y-110871761D01*
X132586190Y-110795571D01*
X132662380Y-110757476D01*
X132814761Y-110719380D01*
X132929047Y-110719380D01*
X133081428Y-110757476D01*
X133157619Y-110795571D01*
X133233809Y-110871761D01*
X133271904Y-110986047D01*
X133271904Y-111176523D01*
X132471904Y-110452714D02*
X132471904Y-109957476D01*
X132776666Y-110224142D01*
X132776666Y-110109857D01*
X132814761Y-110033666D01*
X132852857Y-109995571D01*
X132929047Y-109957476D01*
X133119523Y-109957476D01*
X133195714Y-109995571D01*
X133233809Y-110033666D01*
X133271904Y-110109857D01*
X133271904Y-110338428D01*
X133233809Y-110414619D01*
X133195714Y-110452714D01*
%TO.C,C3*%
X175446666Y-91270714D02*
X175408571Y-91308809D01*
X175294285Y-91346904D01*
X175218095Y-91346904D01*
X175103809Y-91308809D01*
X175027619Y-91232619D01*
X174989523Y-91156428D01*
X174951428Y-91004047D01*
X174951428Y-90889761D01*
X174989523Y-90737380D01*
X175027619Y-90661190D01*
X175103809Y-90585000D01*
X175218095Y-90546904D01*
X175294285Y-90546904D01*
X175408571Y-90585000D01*
X175446666Y-90623095D01*
X175713333Y-90546904D02*
X176208571Y-90546904D01*
X175941904Y-90851666D01*
X176056190Y-90851666D01*
X176132380Y-90889761D01*
X176170476Y-90927857D01*
X176208571Y-91004047D01*
X176208571Y-91194523D01*
X176170476Y-91270714D01*
X176132380Y-91308809D01*
X176056190Y-91346904D01*
X175827619Y-91346904D01*
X175751428Y-91308809D01*
X175713333Y-91270714D01*
D14*
%TO.C,TP5*%
X138344284Y-117330000D02*
G75*
G03*
X138344284Y-117330000I-1200000J0D01*
G01*
D15*
%TO.C,U3*%
X153556000Y-89061000D02*
X153556000Y-87309000D01*
X150484000Y-87309000D02*
X151525000Y-87309000D01*
X150484000Y-89061000D02*
X150484000Y-87309000D01*
X153556000Y-87309000D02*
X152515000Y-87309000D01*
X152475000Y-89061000D02*
X151565000Y-89061000D01*
D14*
%TO.C,C1*%
X169499420Y-119700000D02*
X169780580Y-119700000D01*
X169499420Y-118680000D02*
X169780580Y-118680000D01*
%TO.C,R2*%
X130037500Y-101687258D02*
X130037500Y-101212742D01*
X131082500Y-101687258D02*
X131082500Y-101212742D01*
D16*
%TO.C,U1*%
X170570000Y-116180000D02*
X170570000Y-116980000D01*
X170570000Y-118130000D02*
X168770000Y-118130000D01*
X170570000Y-115030000D02*
X168770000Y-115030000D01*
X168273000Y-114929000D02*
G75*
G03*
X168273000Y-114929000I-127000J0D01*
G01*
D14*
%TO.C,R3*%
X133412500Y-101687258D02*
X133412500Y-101212742D01*
X132367500Y-101687258D02*
X132367500Y-101212742D01*
%TO.C,C6*%
X127609420Y-91904500D02*
X127890580Y-91904500D01*
X127609420Y-90884500D02*
X127890580Y-90884500D01*
%TO.C,TP7*%
X145021426Y-117330000D02*
G75*
G03*
X145021426Y-117330000I-1200000J0D01*
G01*
D16*
%TO.C,D2*%
X129730000Y-108223000D02*
X129730000Y-108520000D01*
X130580000Y-107157000D02*
X130580000Y-107487000D01*
X129730000Y-108223000D02*
X129730000Y-105531000D01*
X131430000Y-108515000D02*
X131429000Y-108516000D01*
X131430000Y-105531000D02*
X131430000Y-108223000D01*
X131430000Y-108223000D02*
X131430000Y-108515000D01*
X130072000Y-107131000D02*
X131088000Y-107131000D01*
X129730000Y-108520000D02*
X129731000Y-108521000D01*
X130580000Y-106471000D02*
X130580000Y-106157000D01*
X130174000Y-106471000D02*
X130986000Y-106471000D01*
X130986000Y-106471000D02*
X130580000Y-107055000D01*
X130580000Y-107055000D02*
X130174000Y-106471000D01*
X131286000Y-105531000D02*
X131430000Y-105531000D01*
X129730000Y-105531000D02*
X129874000Y-105531000D01*
G36*
X131557000Y-108683000D02*
G01*
X131187000Y-108683000D01*
X131187000Y-108379000D01*
X131557000Y-108379000D01*
X131557000Y-108683000D01*
G37*
D14*
X131557000Y-108683000D02*
X131187000Y-108683000D01*
X131187000Y-108379000D01*
X131557000Y-108379000D01*
X131557000Y-108683000D01*
G36*
X129973000Y-108683000D02*
G01*
X129603000Y-108683000D01*
X129603000Y-108379000D01*
X129973000Y-108379000D01*
X129973000Y-108683000D01*
G37*
X129973000Y-108683000D02*
X129603000Y-108683000D01*
X129603000Y-108379000D01*
X129973000Y-108379000D01*
X129973000Y-108683000D01*
G36*
X130580000Y-107055000D02*
G01*
X130174000Y-106471000D01*
X130986000Y-106471000D01*
X130580000Y-107055000D01*
G37*
X130580000Y-107055000D02*
X130174000Y-106471000D01*
X130986000Y-106471000D01*
X130580000Y-107055000D01*
%TO.C,TP4*%
X135005713Y-117330000D02*
G75*
G03*
X135005713Y-117330000I-1200000J0D01*
G01*
%TO.C,R7*%
X127572742Y-88147500D02*
X128047258Y-88147500D01*
X127572742Y-89192500D02*
X128047258Y-89192500D01*
D16*
%TO.C,D5*%
X137474000Y-106391000D02*
X138286000Y-106391000D01*
X138730000Y-105451000D02*
X138730000Y-108143000D01*
X137030000Y-108143000D02*
X137030000Y-105451000D01*
X138730000Y-108435000D02*
X138729000Y-108436000D01*
X137030000Y-108440000D02*
X137031000Y-108441000D01*
X138730000Y-108143000D02*
X138730000Y-108435000D01*
X137372000Y-107051000D02*
X138388000Y-107051000D01*
X137030000Y-108143000D02*
X137030000Y-108440000D01*
X137880000Y-106975000D02*
X137474000Y-106391000D01*
X137030000Y-105451000D02*
X137174000Y-105451000D01*
X138286000Y-106391000D02*
X137880000Y-106975000D01*
X137880000Y-106391000D02*
X137880000Y-106077000D01*
X137880000Y-107077000D02*
X137880000Y-107407000D01*
X138586000Y-105451000D02*
X138730000Y-105451000D01*
G36*
X137273000Y-108603000D02*
G01*
X136903000Y-108603000D01*
X136903000Y-108299000D01*
X137273000Y-108299000D01*
X137273000Y-108603000D01*
G37*
D14*
X137273000Y-108603000D02*
X136903000Y-108603000D01*
X136903000Y-108299000D01*
X137273000Y-108299000D01*
X137273000Y-108603000D01*
G36*
X137880000Y-106975000D02*
G01*
X137474000Y-106391000D01*
X138286000Y-106391000D01*
X137880000Y-106975000D01*
G37*
X137880000Y-106975000D02*
X137474000Y-106391000D01*
X138286000Y-106391000D01*
X137880000Y-106975000D01*
G36*
X138857000Y-108603000D02*
G01*
X138487000Y-108603000D01*
X138487000Y-108299000D01*
X138857000Y-108299000D01*
X138857000Y-108603000D01*
G37*
X138857000Y-108603000D02*
X138487000Y-108603000D01*
X138487000Y-108299000D01*
X138857000Y-108299000D01*
X138857000Y-108603000D01*
%TO.C,R4*%
X134767500Y-101687258D02*
X134767500Y-101212742D01*
X135812500Y-101687258D02*
X135812500Y-101212742D01*
%TO.C,U4*%
X163570000Y-108310000D02*
X174970000Y-108310000D01*
X174970000Y-108310000D02*
X174970000Y-96510000D01*
X174970000Y-96510000D02*
X163570000Y-96510000D01*
X163570000Y-96510000D02*
X163570000Y-108310000D01*
%TO.C,TP8*%
X148360000Y-117330000D02*
G75*
G03*
X148360000Y-117330000I-1200000J0D01*
G01*
%TO.C,J1*%
X125225000Y-126410000D02*
X125225000Y-125080000D01*
X145665000Y-126410000D02*
X145665000Y-123750000D01*
X127825000Y-126410000D02*
X145665000Y-126410000D01*
X126555000Y-126410000D02*
X125225000Y-126410000D01*
X127825000Y-123750000D02*
X145665000Y-123750000D01*
X127825000Y-126410000D02*
X127825000Y-123750000D01*
D15*
%TO.C,Q1*%
X132230000Y-90691500D02*
X131320000Y-90691500D01*
X130239000Y-90691500D02*
X130239000Y-88939500D01*
X133311000Y-88939500D02*
X132270000Y-88939500D01*
X133311000Y-90691500D02*
X133311000Y-88939500D01*
X130239000Y-88939500D02*
X131280000Y-88939500D01*
D14*
%TO.C,C4*%
X149330000Y-88716080D02*
X149330000Y-88434920D01*
X148310000Y-88716080D02*
X148310000Y-88434920D01*
D16*
%TO.C,D1*%
X127772000Y-107181000D02*
X128788000Y-107181000D01*
X127430000Y-105581000D02*
X127574000Y-105581000D01*
X127430000Y-108273000D02*
X127430000Y-105581000D01*
X127430000Y-108273000D02*
X127430000Y-108570000D01*
X129130000Y-108273000D02*
X129130000Y-108565000D01*
X128686000Y-106521000D02*
X128280000Y-107105000D01*
X128280000Y-107207000D02*
X128280000Y-107537000D01*
X128280000Y-106521000D02*
X128280000Y-106207000D01*
X127430000Y-108570000D02*
X127431000Y-108571000D01*
X129130000Y-105581000D02*
X129130000Y-108273000D01*
X129130000Y-108565000D02*
X129129000Y-108566000D01*
X127874000Y-106521000D02*
X128686000Y-106521000D01*
X128280000Y-107105000D02*
X127874000Y-106521000D01*
X128986000Y-105581000D02*
X129130000Y-105581000D01*
G36*
X128280000Y-107105000D02*
G01*
X127874000Y-106521000D01*
X128686000Y-106521000D01*
X128280000Y-107105000D01*
G37*
D14*
X128280000Y-107105000D02*
X127874000Y-106521000D01*
X128686000Y-106521000D01*
X128280000Y-107105000D01*
G36*
X129257000Y-108733000D02*
G01*
X128887000Y-108733000D01*
X128887000Y-108429000D01*
X129257000Y-108429000D01*
X129257000Y-108733000D01*
G37*
X129257000Y-108733000D02*
X128887000Y-108733000D01*
X128887000Y-108429000D01*
X129257000Y-108429000D01*
X129257000Y-108733000D01*
G36*
X127673000Y-108733000D02*
G01*
X127303000Y-108733000D01*
X127303000Y-108429000D01*
X127673000Y-108429000D01*
X127673000Y-108733000D01*
G37*
X127673000Y-108733000D02*
X127303000Y-108733000D01*
X127303000Y-108429000D01*
X127673000Y-108429000D01*
X127673000Y-108733000D01*
%TO.C,C7*%
X153510000Y-92001080D02*
X153510000Y-91719920D01*
X152490000Y-92001080D02*
X152490000Y-91719920D01*
%TO.C,TP2*%
X128328571Y-117290000D02*
G75*
G03*
X128328571Y-117290000I-1200000J0D01*
G01*
%TO.C,*%
G36*
X121313060Y-106183494D02*
G01*
X121307797Y-106188119D01*
X121300504Y-106189184D01*
X121290285Y-106188171D01*
X121287949Y-106186777D01*
X121293125Y-106183480D01*
X121300504Y-106181087D01*
X121310515Y-106180735D01*
X121313060Y-106183494D01*
G37*
G36*
X120735765Y-106100385D02*
G01*
X120737243Y-106103055D01*
X120736498Y-106113283D01*
X120730896Y-106129106D01*
X120728212Y-106134709D01*
X120711934Y-106157448D01*
X120692633Y-106168019D01*
X120670233Y-106166456D01*
X120664434Y-106164299D01*
X120650108Y-106160543D01*
X120626711Y-106156906D01*
X120597723Y-106153849D01*
X120572344Y-106152104D01*
X120540723Y-106150222D01*
X120519570Y-106148183D01*
X120506800Y-106145580D01*
X120500327Y-106142006D01*
X120498163Y-106137616D01*
X120501428Y-106127890D01*
X120513792Y-106122323D01*
X120536312Y-106119057D01*
X120566056Y-106118040D01*
X120598443Y-106119084D01*
X120628892Y-106122000D01*
X120652824Y-106126598D01*
X120658052Y-106128279D01*
X120674736Y-106133901D01*
X120684247Y-106134506D01*
X120690962Y-106129996D01*
X120693195Y-106127504D01*
X120702532Y-106113664D01*
X120706100Y-106106003D01*
X120714157Y-106097416D01*
X120726049Y-106095354D01*
X120735765Y-106100385D01*
G37*
G36*
X121677172Y-106631769D02*
G01*
X121674034Y-106634908D01*
X121670895Y-106631769D01*
X121674034Y-106628630D01*
X121677172Y-106631769D01*
G37*
G36*
X121244004Y-105897266D02*
G01*
X121240865Y-105900405D01*
X121237726Y-105897266D01*
X121240865Y-105894127D01*
X121244004Y-105897266D01*
G37*
G36*
X121274453Y-106023256D02*
G01*
X121274897Y-106029623D01*
X121273364Y-106036322D01*
X121271105Y-106033416D01*
X121270356Y-106023604D01*
X121271600Y-106021383D01*
X121274453Y-106023256D01*
G37*
G36*
X121696006Y-103602728D02*
G01*
X120992892Y-103602728D01*
X120992892Y-103376727D01*
X121696006Y-103376727D01*
X121696006Y-103602728D01*
G37*
G36*
X121294226Y-105960044D02*
G01*
X121291087Y-105963183D01*
X121287949Y-105960044D01*
X121291087Y-105956905D01*
X121294226Y-105960044D01*
G37*
G36*
X121274940Y-105978693D02*
G01*
X121275393Y-105982016D01*
X121273096Y-105987184D01*
X121271208Y-105986202D01*
X121270456Y-105978751D01*
X121271208Y-105977831D01*
X121274940Y-105978693D01*
G37*
G36*
X121237726Y-106324157D02*
G01*
X121234587Y-106327296D01*
X121231448Y-106324157D01*
X121234587Y-106321018D01*
X121237726Y-106324157D01*
G37*
G36*
X119530163Y-99471932D02*
G01*
X120308611Y-99471932D01*
X120308611Y-99559822D01*
X119530163Y-99559822D01*
X119530163Y-99685378D01*
X119442274Y-99685378D01*
X119442274Y-99559822D01*
X119096995Y-99559822D01*
X119096995Y-99471932D01*
X119442274Y-99471932D01*
X119442274Y-99352654D01*
X119530163Y-99352654D01*
X119530163Y-99471932D01*
G37*
G36*
X121634430Y-106595746D02*
G01*
X121633886Y-106596128D01*
X121629107Y-106601375D01*
X121635879Y-106604462D01*
X121637025Y-106604707D01*
X121644767Y-106606915D01*
X121640973Y-106609273D01*
X121635465Y-106610858D01*
X121625226Y-106611450D01*
X121623458Y-106604667D01*
X121629608Y-106594550D01*
X121633776Y-106592395D01*
X121639454Y-106591507D01*
X121634430Y-106595746D01*
G37*
G36*
X121612302Y-106605612D02*
G01*
X121611440Y-106609344D01*
X121608117Y-106609797D01*
X121602949Y-106607500D01*
X121603931Y-106605612D01*
X121611382Y-106604860D01*
X121612302Y-106605612D01*
G37*
G36*
X120930114Y-101882610D02*
G01*
X121526505Y-101882610D01*
X121526505Y-101731942D01*
X121696006Y-101731942D01*
X121696006Y-102271833D01*
X121526505Y-102271833D01*
X121526505Y-102121166D01*
X120930114Y-102121166D01*
X120930114Y-102271833D01*
X120760613Y-102271833D01*
X120760613Y-101731942D01*
X120930114Y-101731942D01*
X120930114Y-101882610D01*
G37*
G36*
X120112513Y-99753286D02*
G01*
X120132256Y-99769565D01*
X120147626Y-99783235D01*
X120156384Y-99792253D01*
X120157580Y-99794337D01*
X120153829Y-99802765D01*
X120143006Y-99818593D01*
X120126591Y-99840029D01*
X120106069Y-99865284D01*
X120082920Y-99892565D01*
X120058626Y-99920082D01*
X120034670Y-99946045D01*
X120016879Y-99964358D01*
X119922554Y-100050309D01*
X119817930Y-100130113D01*
X119704042Y-100203018D01*
X119632247Y-100242848D01*
X119552135Y-100284908D01*
X120314889Y-100288144D01*
X120314889Y-100382117D01*
X119552135Y-100385353D01*
X119611775Y-100415995D01*
X119697768Y-100463710D01*
X119783831Y-100518077D01*
X119865287Y-100576019D01*
X119915488Y-100615751D01*
X119940869Y-100637724D01*
X119969814Y-100664261D01*
X120001026Y-100694020D01*
X120033206Y-100725657D01*
X120065058Y-100757829D01*
X120095283Y-100789194D01*
X120122584Y-100818409D01*
X120145663Y-100844131D01*
X120163223Y-100865017D01*
X120173964Y-100879723D01*
X120176777Y-100886134D01*
X120172180Y-100891307D01*
X120159923Y-100902129D01*
X120142304Y-100916607D01*
X120134896Y-100922483D01*
X120093015Y-100955396D01*
X120079965Y-100939621D01*
X120070810Y-100928462D01*
X120055917Y-100910206D01*
X120037452Y-100887513D01*
X120020158Y-100866219D01*
X119984257Y-100824566D01*
X119940737Y-100778225D01*
X119892250Y-100729733D01*
X119841446Y-100681629D01*
X119790975Y-100636448D01*
X119743489Y-100596728D01*
X119717605Y-100576627D01*
X119686177Y-100553761D01*
X119651472Y-100529633D01*
X119615594Y-100505595D01*
X119580646Y-100482996D01*
X119548731Y-100463187D01*
X119521953Y-100447518D01*
X119502416Y-100437340D01*
X119497205Y-100435146D01*
X119494413Y-100434725D01*
X119492138Y-100436483D01*
X119490327Y-100441557D01*
X119488926Y-100451087D01*
X119487884Y-100466209D01*
X119487149Y-100488062D01*
X119486667Y-100517784D01*
X119486386Y-100556514D01*
X119486254Y-100605388D01*
X119486219Y-100665545D01*
X119486218Y-100673460D01*
X119486218Y-100915828D01*
X119398329Y-100915828D01*
X119398329Y-100382214D01*
X119096995Y-100382214D01*
X119096995Y-100288047D01*
X119398329Y-100288047D01*
X119398329Y-99748156D01*
X119486218Y-99748156D01*
X119486218Y-99992990D01*
X119486357Y-100049630D01*
X119486756Y-100101050D01*
X119487387Y-100146046D01*
X119488223Y-100183417D01*
X119489236Y-100211961D01*
X119490398Y-100230476D01*
X119491683Y-100237760D01*
X119491819Y-100237825D01*
X119500778Y-100234650D01*
X119518236Y-100225928D01*
X119542106Y-100212860D01*
X119570300Y-100196649D01*
X119600732Y-100178496D01*
X119631314Y-100159603D01*
X119659958Y-100141174D01*
X119661997Y-100139826D01*
X119759420Y-100069131D01*
X119849184Y-99991498D01*
X119930032Y-99908191D01*
X120000708Y-99820476D01*
X120045836Y-99753286D01*
X120067809Y-99717610D01*
X120112513Y-99753286D01*
G37*
G36*
X121312607Y-105991248D02*
G01*
X121313060Y-105994572D01*
X121310763Y-105999739D01*
X121308875Y-105998757D01*
X121308123Y-105991307D01*
X121308875Y-105990387D01*
X121312607Y-105991248D01*
G37*
G36*
X121007344Y-106002025D02*
G01*
X121012726Y-106003287D01*
X121016522Y-106006580D01*
X121019043Y-106013850D01*
X121020603Y-106027039D01*
X121021513Y-106048092D01*
X121022087Y-106078954D01*
X121022299Y-106095017D01*
X121022497Y-106128009D01*
X121022254Y-106156793D01*
X121021623Y-106178902D01*
X121020655Y-106191869D01*
X121020207Y-106193892D01*
X121011938Y-106200603D01*
X121005596Y-106201740D01*
X120994879Y-106198017D01*
X120991994Y-106193892D01*
X120991325Y-106185100D01*
X120990994Y-106166191D01*
X120991010Y-106139602D01*
X120991379Y-106107765D01*
X120991649Y-106093054D01*
X120992441Y-106057180D01*
X120993320Y-106032018D01*
X120994605Y-106015726D01*
X120996613Y-106006461D01*
X120999662Y-106002383D01*
X121004069Y-106001649D01*
X121007344Y-106002025D01*
G37*
G36*
X120886169Y-103609006D02*
G01*
X120716668Y-103609006D01*
X120716668Y-103370449D01*
X120886169Y-103370449D01*
X120886169Y-103609006D01*
G37*
G36*
X121696006Y-100438714D02*
G01*
X121451172Y-100438714D01*
X121451172Y-100212713D01*
X121696006Y-100212713D01*
X121696006Y-100438714D01*
G37*
G36*
X121162422Y-103816198D02*
G01*
X121224254Y-103816298D01*
X121275852Y-103816510D01*
X121318374Y-103816874D01*
X121352980Y-103817427D01*
X121380831Y-103818208D01*
X121403086Y-103819255D01*
X121420907Y-103820605D01*
X121435452Y-103822298D01*
X121447882Y-103824372D01*
X121459356Y-103826863D01*
X121466330Y-103828592D01*
X121515841Y-103844427D01*
X121556767Y-103865184D01*
X121592755Y-103892956D01*
X121611921Y-103912148D01*
X121640414Y-103946507D01*
X121662163Y-103981939D01*
X121679607Y-104022861D01*
X121688980Y-104051750D01*
X121706647Y-104132753D01*
X121713164Y-104219507D01*
X121708530Y-104311984D01*
X121707819Y-104318398D01*
X121694632Y-104390500D01*
X121672705Y-104454223D01*
X121642317Y-104509233D01*
X121603750Y-104555194D01*
X121557284Y-104591774D01*
X121503201Y-104618638D01*
X121441781Y-104635451D01*
X121441248Y-104635547D01*
X121426116Y-104637711D01*
X121406376Y-104639527D01*
X121381001Y-104641020D01*
X121348960Y-104642217D01*
X121309226Y-104643141D01*
X121260771Y-104643820D01*
X121202566Y-104644278D01*
X121133582Y-104644541D01*
X121076073Y-104644625D01*
X120760613Y-104644844D01*
X120760613Y-104406287D01*
X121063934Y-104406287D01*
X121142594Y-104406134D01*
X121212261Y-104405681D01*
X121272338Y-104404941D01*
X121322225Y-104403925D01*
X121361325Y-104402647D01*
X121389039Y-104401118D01*
X121404305Y-104399438D01*
X121449393Y-104387240D01*
X121484272Y-104368653D01*
X121509773Y-104342702D01*
X121526726Y-104308408D01*
X121535960Y-104264794D01*
X121537799Y-104242239D01*
X121536828Y-104191283D01*
X121528012Y-104149564D01*
X121510931Y-104116192D01*
X121485165Y-104090280D01*
X121458561Y-104074576D01*
X121422921Y-104057869D01*
X120760613Y-104054209D01*
X120760613Y-103816174D01*
X121089193Y-103816174D01*
X121162422Y-103816198D01*
G37*
G36*
X121329801Y-106184999D02*
G01*
X121328939Y-106188731D01*
X121325615Y-106189184D01*
X121320448Y-106186887D01*
X121321430Y-106184999D01*
X121328880Y-106184247D01*
X121329801Y-106184999D01*
G37*
G36*
X120013554Y-98660969D02*
G01*
X120109291Y-98663101D01*
X120154641Y-98664659D01*
X120189430Y-98667543D01*
X120215636Y-98672500D01*
X120235240Y-98680277D01*
X120250222Y-98691620D01*
X120262562Y-98707276D01*
X120272504Y-98724632D01*
X120278690Y-98736880D01*
X120283189Y-98747874D01*
X120286269Y-98759858D01*
X120288200Y-98775080D01*
X120289249Y-98795788D01*
X120289686Y-98824227D01*
X120289777Y-98862645D01*
X120289778Y-98869267D01*
X120289778Y-98980838D01*
X120259958Y-98985140D01*
X120239321Y-98988358D01*
X120222219Y-98991431D01*
X120217583Y-98992424D01*
X120212968Y-98993055D01*
X120209698Y-98991260D01*
X120207595Y-98985312D01*
X120206478Y-98973483D01*
X120206169Y-98954048D01*
X120206490Y-98925278D01*
X120207136Y-98891585D01*
X120209244Y-98787764D01*
X120190355Y-98768874D01*
X120171465Y-98749985D01*
X120013554Y-98749985D01*
X120013554Y-99384043D01*
X119938220Y-99384043D01*
X119938220Y-98749985D01*
X119862887Y-98749985D01*
X119862887Y-98662095D01*
X119938220Y-98662095D01*
X119938220Y-98461206D01*
X120013554Y-98461206D01*
X120013554Y-98660969D01*
G37*
G36*
X121274453Y-105998144D02*
G01*
X121274897Y-106004512D01*
X121273364Y-106011210D01*
X121271105Y-106008305D01*
X121270356Y-105998493D01*
X121271600Y-105996272D01*
X121274453Y-105998144D01*
G37*
G36*
X119429718Y-101939110D02*
G01*
X119548997Y-101939110D01*
X119586140Y-101938973D01*
X119618565Y-101938594D01*
X119644343Y-101938015D01*
X119661547Y-101937281D01*
X119668249Y-101936437D01*
X119668275Y-101936380D01*
X119666291Y-101929095D01*
X119662579Y-101918669D01*
X119658115Y-101905788D01*
X119651292Y-101884820D01*
X119643385Y-101859697D01*
X119641115Y-101852343D01*
X119625347Y-101800998D01*
X119718097Y-101800998D01*
X119739392Y-101868484D01*
X119760686Y-101935971D01*
X119985995Y-101939110D01*
X120047723Y-101940001D01*
X120098216Y-101940907D01*
X120138795Y-101942014D01*
X120170780Y-101943505D01*
X120195493Y-101945565D01*
X120214252Y-101948379D01*
X120228378Y-101952130D01*
X120239192Y-101957004D01*
X120248014Y-101963184D01*
X120256164Y-101970855D01*
X120262679Y-101977750D01*
X120273697Y-101991777D01*
X120281372Y-102007869D01*
X120286245Y-102028516D01*
X120288859Y-102056206D01*
X120289756Y-102093428D01*
X120289778Y-102102070D01*
X120289397Y-102136065D01*
X120288138Y-102159149D01*
X120285826Y-102172946D01*
X120282286Y-102179081D01*
X120281455Y-102179517D01*
X120271164Y-102181817D01*
X120252617Y-102184635D01*
X120232556Y-102187056D01*
X120191980Y-102191401D01*
X120194541Y-102127662D01*
X120195513Y-102098439D01*
X120195330Y-102078882D01*
X120193564Y-102066122D01*
X120189784Y-102057289D01*
X120183561Y-102049517D01*
X120182706Y-102048600D01*
X120168311Y-102033277D01*
X119980399Y-102033277D01*
X119924858Y-102033382D01*
X119880802Y-102033727D01*
X119847160Y-102034358D01*
X119822862Y-102035320D01*
X119806838Y-102036659D01*
X119798018Y-102038419D01*
X119795333Y-102040646D01*
X119795427Y-102041124D01*
X119802646Y-102061413D01*
X119811094Y-102086709D01*
X119819971Y-102114401D01*
X119828476Y-102141881D01*
X119835808Y-102166539D01*
X119841168Y-102185764D01*
X119843753Y-102196947D01*
X119843770Y-102198695D01*
X119836563Y-102200572D01*
X119820218Y-102203033D01*
X119798106Y-102205580D01*
X119795446Y-102205845D01*
X119770642Y-102207749D01*
X119755825Y-102207304D01*
X119748610Y-102204315D01*
X119747121Y-102201841D01*
X119744380Y-102192886D01*
X119738909Y-102174409D01*
X119731455Y-102148949D01*
X119722765Y-102119048D01*
X119721106Y-102113319D01*
X119697949Y-102033277D01*
X119429718Y-102033277D01*
X119429718Y-102196500D01*
X119348107Y-102196500D01*
X119348107Y-102033277D01*
X119103272Y-102033277D01*
X119103272Y-101939110D01*
X119348107Y-101939110D01*
X119348107Y-101794720D01*
X119429718Y-101794720D01*
X119429718Y-101939110D01*
G37*
G36*
X121281508Y-105959047D02*
G01*
X121281671Y-105959674D01*
X121277272Y-105965033D01*
X121275393Y-105966322D01*
X121269608Y-105965824D01*
X121269115Y-105963553D01*
X121273672Y-105957161D01*
X121275393Y-105956905D01*
X121281508Y-105959047D01*
G37*
G36*
X120444443Y-106327891D02*
G01*
X120446875Y-106330619D01*
X120450997Y-106339147D01*
X120446669Y-106348516D01*
X120441366Y-106354565D01*
X120430788Y-106372806D01*
X120427889Y-106388289D01*
X120430375Y-106402965D01*
X120439909Y-106414062D01*
X120450169Y-106420812D01*
X120468632Y-106436342D01*
X120481492Y-106455601D01*
X120481558Y-106455759D01*
X120487618Y-106470994D01*
X120489670Y-106481737D01*
X120487668Y-106493328D01*
X120481568Y-106511108D01*
X120481070Y-106512491D01*
X120475506Y-106528059D01*
X120472261Y-106537380D01*
X120471928Y-106538456D01*
X120466811Y-106541392D01*
X120454151Y-106547681D01*
X120449143Y-106550078D01*
X120434665Y-106557973D01*
X120429062Y-106566124D01*
X120429562Y-106579471D01*
X120430241Y-106583752D01*
X120432941Y-106606298D01*
X120434098Y-106628155D01*
X120434167Y-106649652D01*
X120449678Y-106635081D01*
X120461485Y-106625777D01*
X120469839Y-106625230D01*
X120474789Y-106628478D01*
X120482512Y-106637153D01*
X120482522Y-106646241D01*
X120474038Y-106658513D01*
X120463045Y-106670064D01*
X120442253Y-106686345D01*
X120424333Y-106691210D01*
X120410055Y-106684606D01*
X120403095Y-106674144D01*
X120399907Y-106661061D01*
X120397160Y-106636409D01*
X120394835Y-106599928D01*
X120392915Y-106551353D01*
X120391745Y-106507523D01*
X120388371Y-106358165D01*
X120406166Y-106339591D01*
X120422029Y-106325520D01*
X120433994Y-106321795D01*
X120444443Y-106327891D01*
G37*
G36*
X121675080Y-105576052D02*
G01*
X121674218Y-105579784D01*
X121670895Y-105580237D01*
X121665727Y-105577940D01*
X121666709Y-105576052D01*
X121674160Y-105575300D01*
X121675080Y-105576052D01*
G37*
G36*
X121237273Y-106261194D02*
G01*
X121237726Y-106264518D01*
X121235429Y-106269685D01*
X121233541Y-106268703D01*
X121232790Y-106261252D01*
X121233541Y-106260332D01*
X121237273Y-106261194D01*
G37*
G36*
X121696006Y-97411880D02*
G01*
X121459019Y-97413916D01*
X121397866Y-97414475D01*
X121347958Y-97415046D01*
X121307985Y-97415703D01*
X121276638Y-97416517D01*
X121252605Y-97417563D01*
X121234578Y-97418913D01*
X121221245Y-97420640D01*
X121211297Y-97422817D01*
X121203423Y-97425516D01*
X121196920Y-97428507D01*
X121174489Y-97443718D01*
X121159961Y-97464040D01*
X121152424Y-97491533D01*
X121150967Y-97528258D01*
X121151103Y-97532090D01*
X121153961Y-97564617D01*
X121160505Y-97591227D01*
X121170717Y-97615271D01*
X121188427Y-97651369D01*
X121696006Y-97651369D01*
X121696006Y-97876555D01*
X121459019Y-97878532D01*
X121397983Y-97879070D01*
X121348193Y-97879616D01*
X121308337Y-97880245D01*
X121277105Y-97881031D01*
X121253186Y-97882049D01*
X121235270Y-97883373D01*
X121222045Y-97885080D01*
X121212203Y-97887243D01*
X121204432Y-97889937D01*
X121197421Y-97893237D01*
X121196920Y-97893495D01*
X121172544Y-97912738D01*
X121156551Y-97939923D01*
X121149187Y-97973431D01*
X121150699Y-98011642D01*
X121161333Y-98052936D01*
X121169600Y-98073050D01*
X121189362Y-98115926D01*
X121696006Y-98115926D01*
X121696006Y-98341927D01*
X120992892Y-98341927D01*
X120992892Y-98115926D01*
X121068801Y-98115926D01*
X121046248Y-98086390D01*
X121023202Y-98051801D01*
X121002137Y-98012156D01*
X120985164Y-97971960D01*
X120974393Y-97935720D01*
X120973459Y-97930993D01*
X120969539Y-97879364D01*
X120975995Y-97829082D01*
X120992011Y-97782233D01*
X121016769Y-97740903D01*
X121049455Y-97707181D01*
X121065484Y-97695703D01*
X121091739Y-97679052D01*
X121060932Y-97638530D01*
X121034272Y-97599567D01*
X121010309Y-97557207D01*
X120990761Y-97514971D01*
X120977344Y-97476384D01*
X120973350Y-97458868D01*
X120969708Y-97407124D01*
X120976380Y-97357525D01*
X120992566Y-97311902D01*
X121017465Y-97272087D01*
X121050276Y-97239911D01*
X121076239Y-97223563D01*
X121091224Y-97216133D01*
X121105390Y-97209943D01*
X121120040Y-97204862D01*
X121136475Y-97200763D01*
X121155997Y-97197517D01*
X121179908Y-97194995D01*
X121209510Y-97193069D01*
X121246104Y-97191609D01*
X121290993Y-97190487D01*
X121345479Y-97189575D01*
X121410863Y-97188743D01*
X121430769Y-97188513D01*
X121696006Y-97185485D01*
X121696006Y-97411880D01*
G37*
G36*
X121275393Y-105916099D02*
G01*
X121272254Y-105919238D01*
X121269115Y-105916099D01*
X121272254Y-105912960D01*
X121275393Y-105916099D01*
G37*
G36*
X119655719Y-101757053D02*
G01*
X119574108Y-101757053D01*
X119574108Y-101580674D01*
X119655719Y-101580674D01*
X119682400Y-101572245D01*
X119753867Y-101546432D01*
X119819459Y-101515453D01*
X119882930Y-101477287D01*
X119948034Y-101429916D01*
X119950085Y-101428306D01*
X119990199Y-101396740D01*
X119946890Y-101355440D01*
X119921232Y-101332706D01*
X119890199Y-101307736D01*
X119859162Y-101284786D01*
X119848647Y-101277589D01*
X119817164Y-101258195D01*
X119780453Y-101238012D01*
X119742208Y-101218866D01*
X119706123Y-101202587D01*
X119675891Y-101191002D01*
X119669844Y-101189102D01*
X119655719Y-101184927D01*
X119655719Y-101580674D01*
X119574108Y-101580674D01*
X119574108Y-101436885D01*
X119385774Y-101436885D01*
X119385774Y-101757053D01*
X119297884Y-101757053D01*
X119297884Y-101436885D01*
X119096995Y-101436885D01*
X119096995Y-101342718D01*
X119297884Y-101342718D01*
X119297884Y-101009995D01*
X119385774Y-101009995D01*
X119385774Y-101342718D01*
X119574108Y-101342718D01*
X119574108Y-101079050D01*
X119610986Y-101079050D01*
X119645314Y-101083180D01*
X119686988Y-101094935D01*
X119734182Y-101113363D01*
X119785072Y-101137512D01*
X119837832Y-101166431D01*
X119890638Y-101199169D01*
X119941666Y-101234773D01*
X119989090Y-101272291D01*
X120000626Y-101282261D01*
X120023939Y-101302045D01*
X120040000Y-101313666D01*
X120050243Y-101318028D01*
X120055318Y-101316812D01*
X120064554Y-101306203D01*
X120078050Y-101287008D01*
X120094256Y-101261770D01*
X120111621Y-101233035D01*
X120128595Y-101203345D01*
X120143628Y-101175245D01*
X120152098Y-101158026D01*
X120165326Y-101127915D01*
X120179765Y-101092168D01*
X120192881Y-101057131D01*
X120196429Y-101046975D01*
X120217030Y-100986650D01*
X120262106Y-101024267D01*
X120307183Y-101061884D01*
X120292401Y-101095309D01*
X120249151Y-101186144D01*
X120203630Y-101267599D01*
X120154040Y-101342841D01*
X120144490Y-101356042D01*
X120130437Y-101375499D01*
X120119808Y-101390782D01*
X120114361Y-101399340D01*
X120113999Y-101400236D01*
X120117267Y-101406143D01*
X120126224Y-101420505D01*
X120139599Y-101441327D01*
X120156120Y-101466611D01*
X120160754Y-101473639D01*
X120203101Y-101542124D01*
X120244421Y-101617057D01*
X120281542Y-101692518D01*
X120298188Y-101730135D01*
X120318882Y-101779026D01*
X120278467Y-101809140D01*
X120259514Y-101822897D01*
X120244849Y-101832855D01*
X120236960Y-101837347D01*
X120236294Y-101837390D01*
X120233517Y-101831105D01*
X120227372Y-101815553D01*
X120218836Y-101793244D01*
X120211140Y-101772748D01*
X120187591Y-101714884D01*
X120159155Y-101653499D01*
X120128141Y-101593221D01*
X120096857Y-101538680D01*
X120084873Y-101519642D01*
X120050949Y-101467425D01*
X120033821Y-101480632D01*
X119990865Y-101512528D01*
X119947462Y-101542548D01*
X119907295Y-101568207D01*
X119884859Y-101581261D01*
X119853491Y-101597102D01*
X119814420Y-101614663D01*
X119772005Y-101632168D01*
X119730600Y-101647840D01*
X119694564Y-101659904D01*
X119685539Y-101662529D01*
X119655719Y-101670796D01*
X119655719Y-101757053D01*
G37*
G36*
X121275393Y-106204878D02*
G01*
X121272254Y-106208017D01*
X121269115Y-106204878D01*
X121272254Y-106201740D01*
X121275393Y-106204878D01*
G37*
G36*
X120873034Y-105759435D02*
G01*
X120890998Y-105771105D01*
X120903556Y-105793140D01*
X120910634Y-105820865D01*
X120917072Y-105867301D01*
X120922165Y-105923294D01*
X120925827Y-105985910D01*
X120927976Y-106052214D01*
X120928527Y-106119273D01*
X120927398Y-106184152D01*
X120924503Y-106243916D01*
X120923199Y-106261379D01*
X120918286Y-106314365D01*
X120912961Y-106356018D01*
X120906788Y-106387557D01*
X120899329Y-106410204D01*
X120890149Y-106425180D01*
X120878811Y-106433706D01*
X120864879Y-106437004D01*
X120860380Y-106437157D01*
X120845189Y-106435488D01*
X120838470Y-106428960D01*
X120837108Y-106423254D01*
X120838976Y-106411572D01*
X120850668Y-106405452D01*
X120850821Y-106405413D01*
X120861598Y-106399993D01*
X120869927Y-106388704D01*
X120876436Y-106369810D01*
X120881755Y-106341575D01*
X120885814Y-106308904D01*
X120890296Y-106258229D01*
X120893378Y-106203908D01*
X120895125Y-106147482D01*
X120895598Y-106090493D01*
X120894862Y-106034480D01*
X120892980Y-105980987D01*
X120890015Y-105931553D01*
X120886029Y-105887720D01*
X120881087Y-105851029D01*
X120875251Y-105823021D01*
X120868585Y-105805238D01*
X120864971Y-105800670D01*
X120853535Y-105795331D01*
X120842224Y-105792714D01*
X120830006Y-105787786D01*
X120826533Y-105775430D01*
X120826530Y-105774849D01*
X120828394Y-105764061D01*
X120836408Y-105759022D01*
X120848837Y-105757279D01*
X120873034Y-105759435D01*
G37*
G36*
X119737331Y-102785752D02*
G01*
X119958623Y-102788045D01*
X120022933Y-102788843D01*
X120075696Y-102789805D01*
X120117919Y-102790977D01*
X120150611Y-102792402D01*
X120174780Y-102794125D01*
X120191434Y-102796191D01*
X120201581Y-102798644D01*
X120201888Y-102798760D01*
X120238871Y-102818748D01*
X120266556Y-102847000D01*
X120278149Y-102866485D01*
X120283204Y-102877503D01*
X120287008Y-102888544D01*
X120289779Y-102901636D01*
X120291735Y-102918810D01*
X120293095Y-102942096D01*
X120294078Y-102973522D01*
X120294900Y-103015118D01*
X120295044Y-103023601D01*
X120295587Y-103062041D01*
X120295873Y-103095855D01*
X120295902Y-103123168D01*
X120295675Y-103142105D01*
X120295190Y-103150790D01*
X120295044Y-103151140D01*
X120288299Y-103152146D01*
X120272062Y-103154486D01*
X120249271Y-103157738D01*
X120237769Y-103159371D01*
X120211517Y-103162893D01*
X120195504Y-103164305D01*
X120187579Y-103163524D01*
X120185590Y-103160469D01*
X120186396Y-103157388D01*
X120187928Y-103147945D01*
X120189660Y-103128379D01*
X120191426Y-103101119D01*
X120193057Y-103068591D01*
X120193805Y-103050169D01*
X120195052Y-103011706D01*
X120195398Y-102983543D01*
X120194713Y-102963445D01*
X120192869Y-102949181D01*
X120189735Y-102938517D01*
X120187002Y-102932566D01*
X120181340Y-102922326D01*
X120175154Y-102914042D01*
X120167130Y-102907508D01*
X120155957Y-102902516D01*
X120140322Y-102898858D01*
X120118911Y-102896328D01*
X120090414Y-102894718D01*
X120053517Y-102893821D01*
X120006907Y-102893430D01*
X119949273Y-102893337D01*
X119938532Y-102893336D01*
X119737331Y-102893336D01*
X119737331Y-103464616D01*
X119649441Y-103464616D01*
X119649441Y-102893336D01*
X119520116Y-102893336D01*
X119391736Y-102717565D01*
X119361566Y-102676436D01*
X119333649Y-102638724D01*
X119308864Y-102605586D01*
X119288086Y-102578180D01*
X119272192Y-102557664D01*
X119262058Y-102545195D01*
X119258648Y-102541786D01*
X119257824Y-102547886D01*
X119257046Y-102565483D01*
X119256327Y-102593518D01*
X119255679Y-102630931D01*
X119255114Y-102676665D01*
X119254645Y-102729659D01*
X119254286Y-102788856D01*
X119254047Y-102853197D01*
X119253943Y-102921622D01*
X119253940Y-102937281D01*
X119253940Y-103332783D01*
X119166050Y-103332783D01*
X119166050Y-102378556D01*
X119263493Y-102378556D01*
X119413205Y-102582585D01*
X119562917Y-102786613D01*
X119649441Y-102786613D01*
X119649441Y-102246722D01*
X119737331Y-102246722D01*
X119737331Y-102785752D01*
G37*
G36*
X119460218Y-98131315D02*
G01*
X119422742Y-98095046D01*
X119389023Y-98065016D01*
X119372414Y-98051654D01*
X119330804Y-98019917D01*
X119368670Y-97934185D01*
X119392829Y-97953320D01*
X119407695Y-97965662D01*
X119418136Y-97975377D01*
X119420585Y-97978273D01*
X119424148Y-97982706D01*
X119427129Y-97982884D01*
X119429578Y-97977915D01*
X119431544Y-97966908D01*
X119433077Y-97948970D01*
X119434227Y-97923210D01*
X119435044Y-97888734D01*
X119435522Y-97849202D01*
X119511265Y-97849202D01*
X119511269Y-97901336D01*
X119511638Y-97942546D01*
X119512669Y-97973648D01*
X119514659Y-97995457D01*
X119517905Y-98008788D01*
X119522704Y-98014458D01*
X119529352Y-98013279D01*
X119538146Y-98006069D01*
X119549383Y-97993642D01*
X119563361Y-97976814D01*
X119575657Y-97961989D01*
X119593603Y-97939160D01*
X119612727Y-97912456D01*
X119631557Y-97884231D01*
X119648623Y-97856838D01*
X119662453Y-97832631D01*
X119671578Y-97813962D01*
X119674553Y-97803724D01*
X119671882Y-97794732D01*
X119664733Y-97777593D01*
X119654397Y-97755306D01*
X119648765Y-97743827D01*
X119628163Y-97705260D01*
X119604935Y-97666225D01*
X119580933Y-97629522D01*
X119558011Y-97597952D01*
X119538021Y-97574315D01*
X119533826Y-97570095D01*
X119511330Y-97548461D01*
X119511330Y-97785331D01*
X119511265Y-97849202D01*
X119435522Y-97849202D01*
X119435577Y-97844651D01*
X119435876Y-97790070D01*
X119435990Y-97724097D01*
X119435996Y-97701591D01*
X119435996Y-97419090D01*
X119473645Y-97419090D01*
X119495923Y-97419823D01*
X119511097Y-97423347D01*
X119524591Y-97431647D01*
X119536937Y-97442257D01*
X119563672Y-97469279D01*
X119593829Y-97504536D01*
X119625125Y-97545076D01*
X119655279Y-97587950D01*
X119681137Y-97628738D01*
X119696657Y-97654758D01*
X119707924Y-97671851D01*
X119716119Y-97679478D01*
X119722423Y-97677100D01*
X119728018Y-97664179D01*
X119734084Y-97640178D01*
X119741802Y-97604558D01*
X119742628Y-97600718D01*
X119764858Y-97471932D01*
X119777531Y-97336069D01*
X119779412Y-97295846D01*
X119783149Y-97194574D01*
X119821449Y-97218667D01*
X119845420Y-97233586D01*
X119861758Y-97244737D01*
X119871668Y-97254915D01*
X119876355Y-97266913D01*
X119877023Y-97283526D01*
X119874879Y-97307546D01*
X119871796Y-97335391D01*
X119853868Y-97468768D01*
X119829548Y-97592161D01*
X119798646Y-97706500D01*
X119790023Y-97733315D01*
X119767480Y-97801177D01*
X119792615Y-97875371D01*
X119838640Y-98029662D01*
X119874557Y-98190799D01*
X119890898Y-98288566D01*
X119895255Y-98317809D01*
X119899161Y-98343391D01*
X119902131Y-98362178D01*
X119903502Y-98370177D01*
X119902360Y-98378284D01*
X119894557Y-98387362D01*
X119878305Y-98399123D01*
X119863667Y-98408229D01*
X119821396Y-98433725D01*
X119810360Y-98345451D01*
X119800909Y-98277868D01*
X119789341Y-98208179D01*
X119776210Y-98139055D01*
X119762071Y-98073167D01*
X119747480Y-98013188D01*
X119732993Y-97961790D01*
X119726303Y-97941137D01*
X119714833Y-97907599D01*
X119684314Y-97953693D01*
X119666349Y-97978475D01*
X119642958Y-98007482D01*
X119617806Y-98036278D01*
X119603646Y-98051349D01*
X119553496Y-98102911D01*
X119588521Y-98140742D01*
X119606464Y-98160828D01*
X119626635Y-98184534D01*
X119647436Y-98209838D01*
X119667266Y-98234717D01*
X119684526Y-98257148D01*
X119697618Y-98275109D01*
X119704942Y-98286577D01*
X119705942Y-98289253D01*
X119701843Y-98296050D01*
X119691125Y-98308791D01*
X119676928Y-98323869D01*
X119647914Y-98353326D01*
X119600491Y-98289557D01*
X119571586Y-98252944D01*
X119537000Y-98212725D01*
X119522704Y-98197127D01*
X119499090Y-98171362D01*
X119460218Y-98131315D01*
G37*
G36*
X121313060Y-106010266D02*
G01*
X121309921Y-106013405D01*
X121306782Y-106010266D01*
X121309921Y-106007128D01*
X121313060Y-106010266D01*
G37*
G36*
X119473663Y-97343756D02*
G01*
X119322996Y-97343756D01*
X119322996Y-98266594D01*
X119473663Y-98266594D01*
X119473663Y-98354483D01*
X119241384Y-98354483D01*
X119241384Y-98090594D01*
X119241497Y-98024374D01*
X119241649Y-97969796D01*
X119241562Y-97925952D01*
X119240958Y-97891932D01*
X119239559Y-97866828D01*
X119237085Y-97849731D01*
X119233260Y-97839731D01*
X119227805Y-97835919D01*
X119220441Y-97837387D01*
X119210890Y-97843225D01*
X119198873Y-97852524D01*
X119184113Y-97864376D01*
X119174423Y-97871882D01*
X119153897Y-97887379D01*
X119140025Y-97895835D01*
X119129937Y-97896528D01*
X119120766Y-97888738D01*
X119109644Y-97871744D01*
X119098452Y-97852788D01*
X119082027Y-97825067D01*
X119107939Y-97802072D01*
X119128179Y-97784694D01*
X119149847Y-97767028D01*
X119170708Y-97750775D01*
X119188529Y-97737636D01*
X119201073Y-97729312D01*
X119206048Y-97727385D01*
X119210426Y-97733624D01*
X119219269Y-97746690D01*
X119224722Y-97754840D01*
X119241384Y-97779839D01*
X119241384Y-97255867D01*
X119473663Y-97255867D01*
X119473663Y-97343756D01*
G37*
G36*
X121206278Y-106517262D02*
G01*
X121189533Y-106499383D01*
X121173089Y-106476230D01*
X121165151Y-106462053D01*
X121148311Y-106427634D01*
X121112396Y-106492035D01*
X121080235Y-106547243D01*
X121050182Y-106593051D01*
X121020276Y-106631937D01*
X120988552Y-106666375D01*
X120953047Y-106698844D01*
X120939715Y-106709917D01*
X120912149Y-106730901D01*
X120880574Y-106752681D01*
X120848272Y-106773192D01*
X120818525Y-106790367D01*
X120794612Y-106802141D01*
X120790812Y-106803668D01*
X120783532Y-106807609D01*
X120778433Y-106814578D01*
X120774595Y-106827188D01*
X120771094Y-106848055D01*
X120768673Y-106866402D01*
X120756157Y-106924032D01*
X120733944Y-106973829D01*
X120701666Y-107016309D01*
X120658955Y-107051982D01*
X120618998Y-107075002D01*
X120571912Y-107091787D01*
X120520422Y-107099130D01*
X120478368Y-107097204D01*
X120468686Y-107096761D01*
X120429105Y-107087417D01*
X120377685Y-107064665D01*
X120334570Y-107034499D01*
X120308626Y-107007574D01*
X120295598Y-106992999D01*
X120284965Y-106984095D01*
X120280384Y-106982654D01*
X120272388Y-106984957D01*
X120254446Y-106989689D01*
X120228801Y-106996271D01*
X120197696Y-107004125D01*
X120178346Y-107008959D01*
X120142196Y-107018064D01*
X120116489Y-107024976D01*
X120099458Y-107030411D01*
X120089331Y-107035088D01*
X120084340Y-107039723D01*
X120082714Y-107045033D01*
X120082610Y-107047773D01*
X120077529Y-107063514D01*
X120064919Y-107079972D01*
X120048727Y-107093185D01*
X120032902Y-107099192D01*
X120031301Y-107099242D01*
X120017381Y-107097667D01*
X119996502Y-107093825D01*
X119979026Y-107089923D01*
X119951850Y-107085446D01*
X119914006Y-107082356D01*
X119867320Y-107080781D01*
X119847192Y-107080606D01*
X119804267Y-107079817D01*
X119756495Y-107077832D01*
X119709625Y-107074948D01*
X119669406Y-107071462D01*
X119668477Y-107071363D01*
X119632478Y-107067793D01*
X119607180Y-107066008D01*
X119590863Y-107065982D01*
X119581804Y-107067686D01*
X119578842Y-107069918D01*
X119571997Y-107080551D01*
X119563477Y-107094222D01*
X119546101Y-107112901D01*
X119524323Y-107122690D01*
X119501545Y-107122783D01*
X119482433Y-107113451D01*
X119471813Y-107101256D01*
X119460282Y-107083018D01*
X119455823Y-107074354D01*
X119444768Y-107054193D01*
X119429882Y-107033040D01*
X119409955Y-107009574D01*
X119383778Y-106982471D01*
X119350141Y-106950409D01*
X119339088Y-106940391D01*
X120329974Y-106940391D01*
X120330303Y-106947916D01*
X120339172Y-106962407D01*
X120356206Y-106980252D01*
X120378459Y-106998963D01*
X120402981Y-107016050D01*
X120425796Y-107028557D01*
X120444077Y-107036249D01*
X120460195Y-107040709D01*
X120478368Y-107042540D01*
X120502814Y-107042345D01*
X120517923Y-107041712D01*
X120559320Y-107037746D01*
X120592267Y-107029229D01*
X120620499Y-107014632D01*
X120647754Y-106992423D01*
X120654656Y-106985699D01*
X120675659Y-106960122D01*
X120694150Y-106929296D01*
X120708187Y-106897245D01*
X120715828Y-106867994D01*
X120716663Y-106857214D01*
X120716668Y-106831546D01*
X120664876Y-106842618D01*
X120619424Y-106850791D01*
X120566520Y-106857844D01*
X120511253Y-106863253D01*
X120458714Y-106866492D01*
X120439961Y-106866900D01*
X120426799Y-106867187D01*
X120401634Y-106867959D01*
X120384560Y-106870089D01*
X120377709Y-106873300D01*
X120377667Y-106873605D01*
X120373695Y-106881334D01*
X120369532Y-106886791D01*
X120363394Y-106894838D01*
X120352036Y-106907829D01*
X120336446Y-106926761D01*
X120329974Y-106940391D01*
X119339088Y-106940391D01*
X119307834Y-106912064D01*
X119305487Y-106909974D01*
X119260717Y-106869320D01*
X119223928Y-106833828D01*
X119203601Y-106812338D01*
X120439961Y-106812338D01*
X120504551Y-106807857D01*
X120600393Y-106797326D01*
X120686063Y-106779751D01*
X120761474Y-106755157D01*
X120826541Y-106723565D01*
X120835947Y-106717887D01*
X120871240Y-106693071D01*
X120909850Y-106661171D01*
X120948357Y-106625392D01*
X120983342Y-106588940D01*
X121011384Y-106555019D01*
X121014915Y-106550158D01*
X121052093Y-106490660D01*
X121085254Y-106423666D01*
X121112812Y-106353127D01*
X121120316Y-106327296D01*
X121200059Y-106327296D01*
X121204674Y-106337321D01*
X121217166Y-106339551D01*
X121235505Y-106333905D01*
X121244605Y-106329081D01*
X121256891Y-106321355D01*
X121262755Y-106316744D01*
X121262837Y-106316525D01*
X121257186Y-106315507D01*
X121255122Y-106315415D01*
X121242739Y-106314860D01*
X121231448Y-106314740D01*
X121222032Y-106315071D01*
X121212621Y-106315401D01*
X121204878Y-106317715D01*
X121203231Y-106318207D01*
X121200194Y-106324392D01*
X121200059Y-106327296D01*
X121120316Y-106327296D01*
X121128179Y-106300231D01*
X121212954Y-106300231D01*
X121217161Y-106307701D01*
X121222032Y-106308462D01*
X121229605Y-106303005D01*
X121230875Y-106295952D01*
X121237726Y-106295952D01*
X121242558Y-106305796D01*
X121255122Y-106308504D01*
X121272516Y-106303615D01*
X121275806Y-106301964D01*
X121286489Y-106293997D01*
X121284934Y-106288271D01*
X121271293Y-106284992D01*
X121262837Y-106284425D01*
X121246493Y-106284754D01*
X121239237Y-106288484D01*
X121237726Y-106295952D01*
X121230875Y-106295952D01*
X121231448Y-106292768D01*
X121232400Y-106283627D01*
X121237345Y-106278960D01*
X121249423Y-106277276D01*
X121264466Y-106277073D01*
X121285887Y-106275932D01*
X121298490Y-106271793D01*
X121305063Y-106264938D01*
X121309286Y-106255206D01*
X121304237Y-106250667D01*
X121301865Y-106249971D01*
X121296446Y-106247712D01*
X121303072Y-106246519D01*
X121304901Y-106246412D01*
X121318756Y-106241193D01*
X121324908Y-106234698D01*
X121327263Y-106227603D01*
X121322177Y-106223873D01*
X121307194Y-106221874D01*
X121305439Y-106221735D01*
X121290627Y-106222234D01*
X121285298Y-106222413D01*
X121274643Y-106227858D01*
X121274542Y-106228013D01*
X121270147Y-106232766D01*
X121269211Y-106228420D01*
X121263771Y-106222523D01*
X121253421Y-106220573D01*
X121241230Y-106223404D01*
X121237727Y-106233530D01*
X121237726Y-106233841D01*
X121239717Y-106242953D01*
X121248113Y-106245235D01*
X121256560Y-106244345D01*
X121270566Y-106244337D01*
X121275393Y-106248650D01*
X121269776Y-106253088D01*
X121254378Y-106253261D01*
X121253484Y-106253161D01*
X121237569Y-106252918D01*
X121229746Y-106258049D01*
X121227915Y-106262269D01*
X121221594Y-106278351D01*
X121218434Y-106284835D01*
X121212954Y-106300231D01*
X121128179Y-106300231D01*
X121133185Y-106283000D01*
X121143267Y-106229698D01*
X121146942Y-106203553D01*
X121150235Y-106181542D01*
X121152626Y-106167091D01*
X121153242Y-106164073D01*
X121154533Y-106150217D01*
X121154553Y-106126807D01*
X121153778Y-106104957D01*
X121203198Y-106104957D01*
X121203283Y-106142102D01*
X121203521Y-106174145D01*
X121203884Y-106199290D01*
X121204345Y-106215735D01*
X121204878Y-106221684D01*
X121204959Y-106221569D01*
X121209877Y-106203045D01*
X121210147Y-106201740D01*
X121244004Y-106201740D01*
X121245126Y-106208184D01*
X121250235Y-106211953D01*
X121261944Y-106213750D01*
X121282868Y-106214279D01*
X121290627Y-106214295D01*
X121315123Y-106213853D01*
X121329728Y-106212132D01*
X121337091Y-106208539D01*
X121339691Y-106203309D01*
X121339584Y-106185867D01*
X121329349Y-106175469D01*
X121323466Y-106173334D01*
X121306737Y-106167416D01*
X121295388Y-106162399D01*
X121294715Y-106162181D01*
X121283260Y-106158471D01*
X121276032Y-106162951D01*
X121275081Y-106164363D01*
X121270261Y-106169355D01*
X121269211Y-106165642D01*
X121264059Y-106158688D01*
X121259698Y-106157795D01*
X121252047Y-106163096D01*
X121250282Y-106171083D01*
X121252937Y-106180847D01*
X121262796Y-106181098D01*
X121262846Y-106181085D01*
X121271342Y-106180671D01*
X121271892Y-106183492D01*
X121263375Y-106188265D01*
X121256189Y-106189184D01*
X121245961Y-106193802D01*
X121244004Y-106201740D01*
X121210147Y-106201740D01*
X121215195Y-106177365D01*
X121220025Y-106149566D01*
X121223480Y-106124682D01*
X121224416Y-106112904D01*
X121259698Y-106112904D01*
X121277371Y-106119655D01*
X121294715Y-106125283D01*
X121303553Y-106124431D01*
X121306588Y-106116277D01*
X121306782Y-106110711D01*
X121304109Y-106099012D01*
X121298935Y-106095239D01*
X121287955Y-106098277D01*
X121275393Y-106104183D01*
X121260660Y-106112369D01*
X121259698Y-106112904D01*
X121224416Y-106112904D01*
X121224671Y-106109694D01*
X121223698Y-106090416D01*
X121220667Y-106064306D01*
X121216218Y-106036796D01*
X121215880Y-106035010D01*
X121211318Y-106012008D01*
X121207524Y-105994421D01*
X121205174Y-105985336D01*
X121204894Y-105984759D01*
X121204372Y-105990179D01*
X121203915Y-106006282D01*
X121203550Y-106031197D01*
X121203303Y-106063051D01*
X121203200Y-106099971D01*
X121203198Y-106104957D01*
X121153778Y-106104957D01*
X121153487Y-106096759D01*
X121151518Y-106062989D01*
X121148831Y-106028414D01*
X121145609Y-105995950D01*
X121142037Y-105968514D01*
X121140228Y-105957863D01*
X121117630Y-105869258D01*
X121117487Y-105868891D01*
X121203896Y-105868891D01*
X121205807Y-105879456D01*
X121209647Y-105892600D01*
X121215728Y-105910275D01*
X121221305Y-105922385D01*
X121223290Y-105924953D01*
X121227495Y-105933648D01*
X121228309Y-105940928D01*
X121234014Y-105952593D01*
X121244004Y-105957566D01*
X121252713Y-105960889D01*
X121249221Y-105962516D01*
X121248590Y-105962557D01*
X121240772Y-105966060D01*
X121240081Y-105977301D01*
X121240506Y-105979867D01*
X121243399Y-105996921D01*
X121246803Y-106018429D01*
X121247619Y-106023812D01*
X121251107Y-106040281D01*
X121255128Y-106049979D01*
X121256685Y-106051072D01*
X121259346Y-106056090D01*
X121258379Y-106063628D01*
X121256794Y-106073220D01*
X121260660Y-106075339D01*
X121272318Y-106070480D01*
X121277719Y-106067718D01*
X121287843Y-106060413D01*
X121289475Y-106054620D01*
X121289423Y-106054566D01*
X121289994Y-106051587D01*
X121294226Y-106052000D01*
X121303955Y-106051676D01*
X121318272Y-106048671D01*
X121333555Y-106044152D01*
X121346183Y-106039280D01*
X121352534Y-106035221D01*
X121351578Y-106033569D01*
X121345857Y-106026179D01*
X121344425Y-106017591D01*
X121341613Y-106004239D01*
X121334721Y-105988811D01*
X121326007Y-105975054D01*
X121317731Y-105966714D01*
X121313390Y-105966118D01*
X121308691Y-105963438D01*
X121305640Y-105952303D01*
X121303359Y-105941832D01*
X121297340Y-105936454D01*
X121284100Y-105934170D01*
X121272942Y-105933528D01*
X121254322Y-105931972D01*
X121241420Y-105929592D01*
X121238414Y-105928220D01*
X121240997Y-105925880D01*
X121252476Y-105925523D01*
X121253421Y-105925582D01*
X121275741Y-105926421D01*
X121287668Y-105924821D01*
X121291214Y-105920289D01*
X121290366Y-105916483D01*
X121282296Y-105908934D01*
X121267586Y-105903167D01*
X121267021Y-105903039D01*
X121254628Y-105899706D01*
X121253451Y-105896926D01*
X121259657Y-105894190D01*
X121266433Y-105890729D01*
X121264454Y-105886548D01*
X121252463Y-105879535D01*
X121250240Y-105878376D01*
X121232264Y-105870454D01*
X121216575Y-105865760D01*
X121214667Y-105865475D01*
X121206665Y-105865227D01*
X121203896Y-105868891D01*
X121117487Y-105868891D01*
X121084495Y-105783975D01*
X121041818Y-105703973D01*
X120990593Y-105631208D01*
X120952378Y-105587885D01*
X120897720Y-105536798D01*
X120841595Y-105495836D01*
X120781397Y-105463587D01*
X120714522Y-105438638D01*
X120712476Y-105438118D01*
X120644474Y-105420835D01*
X120623725Y-105417127D01*
X120596681Y-105413200D01*
X120565878Y-105409314D01*
X120533851Y-105405730D01*
X120503136Y-105402708D01*
X120476271Y-105400508D01*
X120455789Y-105399391D01*
X120444229Y-105399617D01*
X120442689Y-105400121D01*
X120443036Y-105407103D01*
X120447495Y-105419342D01*
X120454726Y-105430338D01*
X120465994Y-105435168D01*
X120480689Y-105436189D01*
X120519833Y-105442178D01*
X120554316Y-105458231D01*
X120581491Y-105483098D01*
X120582388Y-105484257D01*
X120593099Y-105500784D01*
X120601626Y-105520226D01*
X120608186Y-105544084D01*
X120612991Y-105573856D01*
X120616258Y-105611041D01*
X120618201Y-105657140D01*
X120619036Y-105713652D01*
X120619108Y-105740321D01*
X120619029Y-105786009D01*
X120618688Y-105821043D01*
X120617933Y-105847323D01*
X120616611Y-105866749D01*
X120614570Y-105881222D01*
X120611658Y-105892642D01*
X120607722Y-105902910D01*
X120605731Y-105907329D01*
X120580714Y-105948125D01*
X120547895Y-105979126D01*
X120507074Y-106000485D01*
X120471031Y-106010279D01*
X120448811Y-106014412D01*
X120448255Y-106014515D01*
X120443944Y-106069627D01*
X120442414Y-106100768D01*
X120442306Y-106132797D01*
X120443616Y-106159568D01*
X120443989Y-106163239D01*
X120447110Y-106184998D01*
X120450950Y-106196835D01*
X120456592Y-106201376D01*
X120459854Y-106201740D01*
X120478941Y-106205117D01*
X120503839Y-106213949D01*
X120530219Y-106226283D01*
X120553753Y-106240168D01*
X120566072Y-106249634D01*
X120582618Y-106268274D01*
X120598237Y-106291776D01*
X120604441Y-106303806D01*
X120609303Y-106315181D01*
X120612969Y-106326118D01*
X120615606Y-106338559D01*
X120617383Y-106354447D01*
X120618469Y-106375723D01*
X120619031Y-106404328D01*
X120619238Y-106442205D01*
X120619261Y-106474824D01*
X120618730Y-106537250D01*
X120617027Y-106588582D01*
X120613971Y-106630241D01*
X120609382Y-106663650D01*
X120603079Y-106690231D01*
X120594883Y-106711405D01*
X120587615Y-106724243D01*
X120564340Y-106748812D01*
X120532116Y-106766754D01*
X120493355Y-106776788D01*
X120487365Y-106777507D01*
X120466785Y-106780631D01*
X120461296Y-106783026D01*
X120454930Y-106785803D01*
X120447971Y-106794842D01*
X120447118Y-106796630D01*
X120439961Y-106812338D01*
X119203601Y-106812338D01*
X119193029Y-106801161D01*
X119165933Y-106768981D01*
X119140548Y-106734952D01*
X119114787Y-106696735D01*
X119114564Y-106696391D01*
X119052484Y-106589578D01*
X119002213Y-106478763D01*
X118963545Y-106363401D01*
X118936276Y-106242945D01*
X118930057Y-106204153D01*
X118923956Y-106147940D01*
X118920654Y-106085008D01*
X118920028Y-106018163D01*
X118921956Y-105950212D01*
X118926317Y-105883961D01*
X118932989Y-105822218D01*
X118941850Y-105767790D01*
X118950574Y-105730904D01*
X118966842Y-105684507D01*
X119857585Y-105684507D01*
X119859983Y-105692952D01*
X119867593Y-105709007D01*
X119872862Y-105719451D01*
X119900892Y-105781009D01*
X119927609Y-105851477D01*
X119951919Y-105927209D01*
X119972725Y-106004562D01*
X119988932Y-106079890D01*
X119997635Y-106134575D01*
X120001414Y-106171888D01*
X120004203Y-106216231D01*
X120005962Y-106264396D01*
X120006647Y-106313179D01*
X120006218Y-106359375D01*
X120004632Y-106399777D01*
X120001847Y-106431182D01*
X120001535Y-106433469D01*
X119997190Y-106455237D01*
X119989693Y-106470413D01*
X119976030Y-106483544D01*
X119961632Y-106493657D01*
X119956912Y-106498342D01*
X119955282Y-106506094D01*
X119956719Y-106519944D01*
X119961201Y-106542921D01*
X119961261Y-106543209D01*
X119977432Y-106598791D01*
X120001710Y-106647966D01*
X120035052Y-106691854D01*
X120078411Y-106731576D01*
X120132742Y-106768255D01*
X120170499Y-106789009D01*
X120184317Y-106795761D01*
X120196979Y-106800627D01*
X120211010Y-106803994D01*
X120228937Y-106806248D01*
X120253287Y-106807777D01*
X120286587Y-106808967D01*
X120304142Y-106809467D01*
X120342085Y-106810377D01*
X120369532Y-106810584D01*
X120388529Y-106809935D01*
X120401125Y-106808274D01*
X120409366Y-106805447D01*
X120415299Y-106801299D01*
X120415573Y-106801053D01*
X120426112Y-106789021D01*
X120425298Y-106781123D01*
X120412966Y-106775791D01*
X120412883Y-106775770D01*
X120393029Y-106765175D01*
X120375007Y-106745709D01*
X120361917Y-106720994D01*
X120359503Y-106713424D01*
X120353787Y-106684797D01*
X120349071Y-106646455D01*
X120345485Y-106601209D01*
X120343159Y-106551870D01*
X120342258Y-106503246D01*
X120365950Y-106503246D01*
X120366966Y-106557729D01*
X120369581Y-106609333D01*
X120373796Y-106655501D01*
X120379610Y-106693678D01*
X120384857Y-106715007D01*
X120391810Y-106732981D01*
X120400969Y-106744492D01*
X120415047Y-106750932D01*
X120436754Y-106753689D01*
X120461296Y-106754177D01*
X120496190Y-106752672D01*
X120524174Y-106747342D01*
X120546150Y-106736939D01*
X120563019Y-106720217D01*
X120575682Y-106695928D01*
X120585041Y-106662825D01*
X120591996Y-106619662D01*
X120597394Y-106565852D01*
X120600808Y-106518373D01*
X120602283Y-106478726D01*
X120601829Y-106442341D01*
X120599459Y-106404648D01*
X120597841Y-106386777D01*
X120589970Y-106338529D01*
X120576238Y-106300500D01*
X120555846Y-106271421D01*
X120527993Y-106250021D01*
X120505092Y-106239471D01*
X120466766Y-106228472D01*
X120435965Y-106227242D01*
X120412106Y-106235961D01*
X120394604Y-106254813D01*
X120384861Y-106277073D01*
X120377880Y-106307623D01*
X120372498Y-106348071D01*
X120368716Y-106395861D01*
X120366533Y-106448438D01*
X120365950Y-106503246D01*
X120342258Y-106503246D01*
X120342221Y-106501247D01*
X120342801Y-106452153D01*
X120345028Y-106407397D01*
X120345279Y-106404116D01*
X120350346Y-106349187D01*
X120356210Y-106305453D01*
X120363275Y-106271562D01*
X120371942Y-106246160D01*
X120382615Y-106227892D01*
X120395696Y-106215406D01*
X120402650Y-106211223D01*
X120420982Y-106201742D01*
X120424750Y-106012240D01*
X120404853Y-106003938D01*
X120388658Y-105993949D01*
X120377366Y-105981452D01*
X120377266Y-105981268D01*
X120366193Y-105952941D01*
X120357067Y-105914162D01*
X120349995Y-105866897D01*
X120345081Y-105813116D01*
X120342432Y-105754784D01*
X120342303Y-105726582D01*
X120366641Y-105726582D01*
X120367539Y-105781059D01*
X120370066Y-105832230D01*
X120374255Y-105877463D01*
X120380136Y-105914129D01*
X120380450Y-105915580D01*
X120390657Y-105950008D01*
X120404477Y-105973077D01*
X120423374Y-105985624D01*
X120448811Y-105988488D01*
X120482253Y-105982504D01*
X120492354Y-105979629D01*
X120530606Y-105962485D01*
X120560288Y-105936513D01*
X120581601Y-105901439D01*
X120594744Y-105856986D01*
X120597980Y-105834488D01*
X120599862Y-105804464D01*
X120600429Y-105765532D01*
X120599788Y-105721258D01*
X120598049Y-105675208D01*
X120595319Y-105630949D01*
X120591707Y-105592047D01*
X120590238Y-105580237D01*
X120581324Y-105536495D01*
X120567239Y-105503472D01*
X120546886Y-105480011D01*
X120519164Y-105464953D01*
X120482974Y-105457141D01*
X120472485Y-105456184D01*
X120437893Y-105456060D01*
X120413063Y-105461928D01*
X120396339Y-105474559D01*
X120386066Y-105494721D01*
X120385486Y-105496639D01*
X120378711Y-105528202D01*
X120373407Y-105569607D01*
X120369607Y-105618226D01*
X120367341Y-105671428D01*
X120366641Y-105726582D01*
X120342303Y-105726582D01*
X120342153Y-105693869D01*
X120344349Y-105632339D01*
X120349126Y-105572161D01*
X120353409Y-105536551D01*
X120359716Y-105501147D01*
X120368070Y-105475906D01*
X120379695Y-105458460D01*
X120395817Y-105446444D01*
X120401492Y-105443644D01*
X120416655Y-105436654D01*
X120426084Y-105432115D01*
X120427170Y-105431521D01*
X120425868Y-105425855D01*
X120419365Y-105414356D01*
X120419178Y-105414071D01*
X120411771Y-105405032D01*
X120402139Y-105400243D01*
X120386379Y-105398406D01*
X120371310Y-105398180D01*
X120344878Y-105400307D01*
X120310992Y-105406179D01*
X120273917Y-105415036D01*
X120268648Y-105416490D01*
X120212687Y-105434209D01*
X120166934Y-105453585D01*
X120129041Y-105476045D01*
X120096662Y-105503015D01*
X120067451Y-105535921D01*
X120063295Y-105541328D01*
X120043288Y-105565678D01*
X120020657Y-105590063D01*
X120000101Y-105609435D01*
X119998985Y-105610371D01*
X119978906Y-105625193D01*
X119953996Y-105640930D01*
X119927294Y-105655965D01*
X119901838Y-105668680D01*
X119880666Y-105677458D01*
X119866936Y-105680682D01*
X119860027Y-105681231D01*
X119857585Y-105684507D01*
X118966842Y-105684507D01*
X118970344Y-105674520D01*
X118996813Y-105618910D01*
X119028438Y-105566330D01*
X119063677Y-105519038D01*
X119100988Y-105479291D01*
X119138828Y-105449345D01*
X119145949Y-105444951D01*
X119162884Y-105430050D01*
X119182426Y-105404078D01*
X119195691Y-105382524D01*
X119219342Y-105347363D01*
X119250339Y-105309619D01*
X119285652Y-105272400D01*
X119304443Y-105255159D01*
X120338063Y-105255159D01*
X120342619Y-105265341D01*
X120352723Y-105281073D01*
X120362531Y-105291915D01*
X120372657Y-105304091D01*
X120381360Y-105320076D01*
X120389387Y-105339277D01*
X120494958Y-105347044D01*
X120552626Y-105352000D01*
X120605045Y-105357909D01*
X120650241Y-105364495D01*
X120686242Y-105371482D01*
X120704972Y-105376481D01*
X120712476Y-105377163D01*
X120715869Y-105370953D01*
X120716668Y-105355053D01*
X120716668Y-105354894D01*
X120714361Y-105334329D01*
X120708458Y-105309389D01*
X120703775Y-105295136D01*
X120684101Y-105257595D01*
X120655226Y-105222184D01*
X120620411Y-105192566D01*
X120602716Y-105181575D01*
X120585443Y-105172773D01*
X120570189Y-105167317D01*
X120552969Y-105164418D01*
X120529796Y-105163287D01*
X120509501Y-105163126D01*
X120479905Y-105163503D01*
X120458829Y-105165212D01*
X120442251Y-105169000D01*
X120426148Y-105175616D01*
X120416689Y-105180390D01*
X120392701Y-105195163D01*
X120368787Y-105213364D01*
X120358513Y-105222723D01*
X120344493Y-105237299D01*
X120338137Y-105246875D01*
X120338063Y-105255159D01*
X119304443Y-105255159D01*
X119322254Y-105238817D01*
X119357115Y-105211979D01*
X119369520Y-105204050D01*
X119421375Y-105178228D01*
X119482921Y-105156091D01*
X119551671Y-105138266D01*
X119625140Y-105125383D01*
X119700840Y-105118068D01*
X119712219Y-105117490D01*
X119779418Y-105116642D01*
X119851699Y-105119532D01*
X119926192Y-105125793D01*
X120000025Y-105135059D01*
X120070328Y-105146962D01*
X120134228Y-105161136D01*
X120188855Y-105177213D01*
X120194277Y-105179118D01*
X120217296Y-105185960D01*
X120239321Y-105190260D01*
X120248912Y-105191013D01*
X120268901Y-105193143D01*
X120285848Y-105198073D01*
X120296349Y-105201382D01*
X120305162Y-105198595D01*
X120316337Y-105187988D01*
X120320482Y-105183335D01*
X120342136Y-105164474D01*
X120372399Y-105145744D01*
X120407449Y-105129006D01*
X120443459Y-105116123D01*
X120472009Y-105109587D01*
X120521950Y-105106195D01*
X120568448Y-105112530D01*
X120614308Y-105129257D01*
X120657029Y-105153535D01*
X120700477Y-105188379D01*
X120733158Y-105229499D01*
X120755554Y-105277592D01*
X120763876Y-105308271D01*
X120768619Y-105333977D01*
X120771943Y-105358320D01*
X120773060Y-105374151D01*
X120773474Y-105384110D01*
X120775850Y-105391892D01*
X120782047Y-105399145D01*
X120793926Y-105407519D01*
X120813348Y-105418661D01*
X120838873Y-105432448D01*
X120869713Y-105449840D01*
X120896205Y-105467090D01*
X120921779Y-105486773D01*
X120949863Y-105511468D01*
X120972810Y-105533074D01*
X121008128Y-105568511D01*
X121038044Y-105602574D01*
X121064703Y-105638243D01*
X121090250Y-105678495D01*
X121116827Y-105726308D01*
X121129489Y-105750680D01*
X121154046Y-105798706D01*
X121161971Y-105775791D01*
X121176502Y-105744166D01*
X121197139Y-105712431D01*
X121220667Y-105685020D01*
X121239045Y-105669435D01*
X121276541Y-105646575D01*
X121322051Y-105624123D01*
X121376483Y-105601731D01*
X121440746Y-105579052D01*
X121515748Y-105555740D01*
X121595561Y-105533287D01*
X121627217Y-105524725D01*
X121655156Y-105517142D01*
X121676816Y-105511235D01*
X121689635Y-105507701D01*
X121691298Y-105507230D01*
X121698530Y-105507246D01*
X121701690Y-105514768D01*
X121702264Y-105528022D01*
X121702245Y-105551987D01*
X121655502Y-105567231D01*
X121633591Y-105575252D01*
X121618443Y-105582540D01*
X121612453Y-105587894D01*
X121612607Y-105588701D01*
X121611593Y-105592236D01*
X121606184Y-105590985D01*
X121593402Y-105590222D01*
X121576580Y-105593790D01*
X121575833Y-105594045D01*
X121555752Y-105601045D01*
X121592771Y-105612770D01*
X121613438Y-105617918D01*
X121635416Y-105621238D01*
X121655717Y-105622606D01*
X121671353Y-105621898D01*
X121679338Y-105618992D01*
X121679338Y-105616334D01*
X121682094Y-105612605D01*
X121689358Y-105611626D01*
X121702284Y-105611626D01*
X121702284Y-106588069D01*
X121654380Y-106585650D01*
X121629545Y-106584856D01*
X121615506Y-106585721D01*
X121610589Y-106588448D01*
X121611222Y-106590908D01*
X121611779Y-106595939D01*
X121603454Y-106594615D01*
X121592239Y-106593864D01*
X121578241Y-106596124D01*
X121565750Y-106600173D01*
X121559060Y-106604787D01*
X121559436Y-106607154D01*
X121567609Y-106610374D01*
X121577571Y-106612173D01*
X121593491Y-106615353D01*
X121601839Y-106618194D01*
X121612177Y-106622291D01*
X121630573Y-106629063D01*
X121653209Y-106637106D01*
X121655200Y-106637801D01*
X121699145Y-106653123D01*
X121701025Y-106687883D01*
X121701404Y-106708362D01*
X121699433Y-106718387D01*
X121694747Y-106719909D01*
X121686098Y-106717121D01*
X121667834Y-106711305D01*
X121642313Y-106703210D01*
X121611895Y-106693583D01*
X121598700Y-106689414D01*
X121523448Y-106664526D01*
X121452541Y-106638880D01*
X121387276Y-106613045D01*
X121328950Y-106587590D01*
X121278862Y-106563085D01*
X121238308Y-106540098D01*
X121217166Y-106525232D01*
X121208587Y-106519200D01*
X121206278Y-106517262D01*
G37*
G36*
X121229356Y-105896220D02*
G01*
X121228494Y-105899952D01*
X121225171Y-105900405D01*
X121220003Y-105898108D01*
X121220985Y-105896220D01*
X121228436Y-105895468D01*
X121229356Y-105896220D01*
G37*
G36*
X121275393Y-106267656D02*
G01*
X121272254Y-106270795D01*
X121269115Y-106267656D01*
X121272254Y-106264518D01*
X121275393Y-106267656D01*
G37*
G36*
X120216572Y-105510864D02*
G01*
X120220091Y-105521248D01*
X120223256Y-105542974D01*
X120223671Y-105546805D01*
X120228065Y-105576033D01*
X120235617Y-105613486D01*
X120245433Y-105655506D01*
X120256623Y-105698435D01*
X120268293Y-105738612D01*
X120276860Y-105764845D01*
X120285592Y-105799477D01*
X120288948Y-105835036D01*
X120286488Y-105866103D01*
X120285450Y-105870585D01*
X120279798Y-105880648D01*
X120271471Y-105878772D01*
X120260782Y-105865215D01*
X120248040Y-105840235D01*
X120247577Y-105839196D01*
X120230513Y-105796795D01*
X120218412Y-105756455D01*
X120210614Y-105714603D01*
X120206461Y-105667669D01*
X120205293Y-105612080D01*
X120205297Y-105610100D01*
X120205880Y-105570717D01*
X120207318Y-105540205D01*
X120209523Y-105519791D01*
X120212362Y-105510751D01*
X120216572Y-105510864D01*
G37*
G36*
X121599746Y-105601163D02*
G01*
X121598884Y-105604895D01*
X121595561Y-105605348D01*
X121590394Y-105603051D01*
X121591376Y-105601163D01*
X121598826Y-105600411D01*
X121599746Y-105601163D01*
G37*
G36*
X121696006Y-102678826D02*
G01*
X121465297Y-102680928D01*
X121234587Y-102683030D01*
X121203198Y-102698724D01*
X121179147Y-102713520D01*
X121163227Y-102731088D01*
X121154235Y-102753973D01*
X121150969Y-102784721D01*
X121151281Y-102808586D01*
X121154080Y-102842229D01*
X121160233Y-102869840D01*
X121171166Y-102897789D01*
X121171283Y-102898045D01*
X121189218Y-102937281D01*
X121696006Y-102937281D01*
X121696006Y-103163282D01*
X120992892Y-103163282D01*
X120992892Y-102937281D01*
X121067805Y-102937281D01*
X121039660Y-102897020D01*
X121004133Y-102837352D01*
X120981046Y-102777838D01*
X120970431Y-102718602D01*
X120972322Y-102659767D01*
X120973781Y-102650439D01*
X120987318Y-102597637D01*
X121008271Y-102554368D01*
X121037298Y-102519582D01*
X121072137Y-102493911D01*
X121086622Y-102485682D01*
X121100363Y-102478816D01*
X121114638Y-102473178D01*
X121130727Y-102468631D01*
X121149907Y-102465036D01*
X121173457Y-102462258D01*
X121202657Y-102460160D01*
X121238784Y-102458605D01*
X121283117Y-102457456D01*
X121336935Y-102456577D01*
X121401516Y-102455830D01*
X121430769Y-102455536D01*
X121696006Y-102452934D01*
X121696006Y-102678826D01*
G37*
G36*
X121313060Y-106029100D02*
G01*
X121309921Y-106032239D01*
X121306782Y-106029100D01*
X121309921Y-106025961D01*
X121313060Y-106029100D01*
G37*
G36*
X120280843Y-106318232D02*
G01*
X120285754Y-106328608D01*
X120288936Y-106350099D01*
X120287858Y-106376679D01*
X120282257Y-106410037D01*
X120271874Y-106451862D01*
X120260908Y-106489419D01*
X120250179Y-106526900D01*
X120240272Y-106565759D01*
X120232175Y-106601830D01*
X120226876Y-106630952D01*
X120226265Y-106635378D01*
X120222592Y-106660082D01*
X120218786Y-106679223D01*
X120215449Y-106690014D01*
X120214186Y-106691408D01*
X120210995Y-106685568D01*
X120208100Y-106669799D01*
X120205669Y-106646724D01*
X120203870Y-106618970D01*
X120202872Y-106589162D01*
X120202842Y-106559924D01*
X120203947Y-106533882D01*
X120204035Y-106532712D01*
X120211010Y-106480663D01*
X120223361Y-106427375D01*
X120239722Y-106378105D01*
X120250891Y-106352660D01*
X120263689Y-106329463D01*
X120273536Y-106318081D01*
X120280843Y-106318232D01*
G37*
G36*
X121287949Y-106248823D02*
G01*
X121284810Y-106251962D01*
X121281671Y-106248823D01*
X121284810Y-106245684D01*
X121287949Y-106248823D01*
G37*
G36*
X121626950Y-105595931D02*
G01*
X121623811Y-105599070D01*
X121620672Y-105595931D01*
X121623811Y-105592792D01*
X121626950Y-105595931D01*
G37*
G36*
X121218893Y-99395626D02*
G01*
X121214554Y-99413080D01*
X121206409Y-99424784D01*
X121181039Y-99454579D01*
X121159418Y-99493129D01*
X121142981Y-99536848D01*
X121133166Y-99582151D01*
X121131003Y-99613047D01*
X121135058Y-99662492D01*
X121147718Y-99703410D01*
X121169731Y-99737067D01*
X121201843Y-99764730D01*
X121229970Y-99780831D01*
X121248457Y-99789628D01*
X121263667Y-99795497D01*
X121278959Y-99799028D01*
X121297691Y-99800814D01*
X121323223Y-99801445D01*
X121347456Y-99801517D01*
X121392598Y-99800148D01*
X121428260Y-99795434D01*
X121457276Y-99786467D01*
X121482485Y-99772339D01*
X121506721Y-99752140D01*
X121509282Y-99749671D01*
X121533664Y-99717538D01*
X121549835Y-99678141D01*
X121557828Y-99633686D01*
X121557677Y-99586380D01*
X121549416Y-99538428D01*
X121533078Y-99492035D01*
X121508698Y-99449407D01*
X121504600Y-99443806D01*
X121490724Y-99423568D01*
X121480628Y-99405336D01*
X121476318Y-99392777D01*
X121476283Y-99392014D01*
X121476624Y-99386550D01*
X121478895Y-99382699D01*
X121484965Y-99380179D01*
X121496703Y-99378708D01*
X121515979Y-99378003D01*
X121544661Y-99377782D01*
X121570673Y-99377765D01*
X121665063Y-99377765D01*
X121677394Y-99406531D01*
X121695618Y-99459612D01*
X121708882Y-99520308D01*
X121716664Y-99584488D01*
X121718446Y-99648024D01*
X121714511Y-99701072D01*
X121699485Y-99775061D01*
X121675500Y-99840509D01*
X121642941Y-99897092D01*
X121602190Y-99944484D01*
X121553634Y-99982363D01*
X121497654Y-100010404D01*
X121434635Y-100028282D01*
X121364960Y-100035673D01*
X121319338Y-100034893D01*
X121248400Y-100025516D01*
X121185359Y-100006389D01*
X121130154Y-99977474D01*
X121082727Y-99938735D01*
X121043018Y-99890133D01*
X121018073Y-99846799D01*
X120998106Y-99800794D01*
X120984336Y-99754962D01*
X120976037Y-99705755D01*
X120972483Y-99649622D01*
X120972233Y-99622600D01*
X120973952Y-99570982D01*
X120979334Y-99525362D01*
X120989315Y-99480785D01*
X121004827Y-99432298D01*
X121011595Y-99413863D01*
X121025183Y-99377765D01*
X121218893Y-99377765D01*
X121218893Y-99395626D01*
G37*
G36*
X120173319Y-99044779D02*
G01*
X120188031Y-99059729D01*
X120198231Y-99071123D01*
X120201572Y-99076168D01*
X120197898Y-99082226D01*
X120188124Y-99096213D01*
X120173736Y-99116053D01*
X120156216Y-99139668D01*
X120156058Y-99139879D01*
X120136996Y-99165356D01*
X120119495Y-99188822D01*
X120105620Y-99207504D01*
X120097975Y-99217886D01*
X120085089Y-99235583D01*
X120058738Y-99211777D01*
X120044319Y-99197750D01*
X120034748Y-99186525D01*
X120032388Y-99181880D01*
X120035763Y-99174957D01*
X120044884Y-99160036D01*
X120058241Y-99139367D01*
X120074324Y-99115199D01*
X120091624Y-99089782D01*
X120108631Y-99065365D01*
X120123836Y-99044199D01*
X120132627Y-99032486D01*
X120144750Y-99016791D01*
X120173319Y-99044779D01*
G37*
G36*
X121275393Y-106047933D02*
G01*
X121281375Y-106053303D01*
X121281671Y-106054211D01*
X121277292Y-106059202D01*
X121275393Y-106060489D01*
X121270074Y-106058998D01*
X121269115Y-106054211D01*
X121272068Y-106047431D01*
X121275393Y-106047933D01*
G37*
G36*
X121275393Y-105947488D02*
G01*
X121272254Y-105950627D01*
X121269115Y-105947488D01*
X121272254Y-105944350D01*
X121275393Y-105947488D01*
G37*
G36*
X119913109Y-97406534D02*
G01*
X120308611Y-97406534D01*
X120308611Y-97493702D01*
X120281930Y-97495632D01*
X120255250Y-97497563D01*
X120253622Y-97809883D01*
X120251993Y-98122204D01*
X120308611Y-98122204D01*
X120308611Y-98210093D01*
X119913109Y-98210093D01*
X119913109Y-98122204D01*
X119988326Y-98122204D01*
X120176777Y-98122204D01*
X120176777Y-97494088D01*
X120084179Y-97495825D01*
X119991582Y-97497563D01*
X119989954Y-97809883D01*
X119988326Y-98122204D01*
X119913109Y-98122204D01*
X119913109Y-97406534D01*
G37*
G36*
X121205614Y-99256164D02*
G01*
X121146478Y-99230851D01*
X121094900Y-99196087D01*
X121051407Y-99152262D01*
X121016527Y-99099766D01*
X120990788Y-99038986D01*
X120982535Y-99009883D01*
X120976269Y-98973247D01*
X120972778Y-98928735D01*
X120972243Y-98893006D01*
X121124864Y-98893006D01*
X121127360Y-98929066D01*
X121136192Y-98957364D01*
X121152938Y-98981758D01*
X121166856Y-98995600D01*
X121189297Y-99013090D01*
X121213705Y-99025831D01*
X121242437Y-99034436D01*
X121277849Y-99039519D01*
X121322295Y-99041694D01*
X121344449Y-99041889D01*
X121388442Y-99041256D01*
X121422667Y-99038971D01*
X121449864Y-99034480D01*
X121472773Y-99027230D01*
X121494132Y-99016666D01*
X121506364Y-99009144D01*
X121532619Y-98985043D01*
X121551540Y-98953157D01*
X121562392Y-98916383D01*
X121564441Y-98877617D01*
X121556952Y-98839756D01*
X121552289Y-98828013D01*
X121532902Y-98799004D01*
X121504009Y-98773692D01*
X121468605Y-98754577D01*
X121460787Y-98751641D01*
X121443008Y-98746674D01*
X121421766Y-98743417D01*
X121394324Y-98741619D01*
X121357944Y-98741034D01*
X121344449Y-98741059D01*
X121307786Y-98741530D01*
X121280625Y-98742771D01*
X121259919Y-98745150D01*
X121242622Y-98749033D01*
X121225685Y-98754789D01*
X121223503Y-98755634D01*
X121183234Y-98775665D01*
X121154158Y-98800440D01*
X121135428Y-98831137D01*
X121126197Y-98868935D01*
X121124864Y-98893006D01*
X120972243Y-98893006D01*
X120972059Y-98880713D01*
X120974106Y-98833551D01*
X120978917Y-98791615D01*
X120982739Y-98772363D01*
X121004026Y-98708511D01*
X121034936Y-98652630D01*
X121075087Y-98605108D01*
X121124093Y-98566333D01*
X121181573Y-98536694D01*
X121231902Y-98520203D01*
X121266785Y-98513972D01*
X121309381Y-98510473D01*
X121355295Y-98509710D01*
X121400130Y-98511683D01*
X121439493Y-98516396D01*
X121456996Y-98520099D01*
X121520486Y-98542447D01*
X121576107Y-98574192D01*
X121623262Y-98614734D01*
X121661354Y-98663473D01*
X121689787Y-98719811D01*
X121705011Y-98769224D01*
X121711159Y-98804100D01*
X121715529Y-98845605D01*
X121717873Y-98889058D01*
X121717940Y-98929773D01*
X121715483Y-98963069D01*
X121715368Y-98963903D01*
X121700108Y-99033193D01*
X121675180Y-99094689D01*
X121641075Y-99147977D01*
X121598281Y-99192645D01*
X121547288Y-99228280D01*
X121488586Y-99254468D01*
X121422665Y-99270797D01*
X121350013Y-99276854D01*
X121344449Y-99276882D01*
X121271780Y-99271638D01*
X121205614Y-99256164D01*
G37*
G36*
X119260217Y-104217953D02*
G01*
X119103272Y-104217953D01*
X119103272Y-104117508D01*
X119260217Y-104117508D01*
X119260217Y-103759673D01*
X119347911Y-103759673D01*
X119349578Y-103937021D01*
X119351246Y-104114369D01*
X119456399Y-104116091D01*
X119561552Y-104117812D01*
X119561552Y-104117508D01*
X119649441Y-104117508D01*
X119856609Y-104117508D01*
X119856609Y-103759673D01*
X119649441Y-103759673D01*
X119649441Y-104117508D01*
X119561552Y-104117508D01*
X119561552Y-103759673D01*
X119347911Y-103759673D01*
X119260217Y-103759673D01*
X119260217Y-103659228D01*
X119944342Y-103659228D01*
X119945989Y-103886799D01*
X119947637Y-104114369D01*
X120029249Y-104116024D01*
X120064878Y-104116455D01*
X120090561Y-104115909D01*
X120108887Y-104114151D01*
X120122443Y-104110945D01*
X120132745Y-104106607D01*
X120143093Y-104100990D01*
X120151343Y-104094817D01*
X120157733Y-104086687D01*
X120162502Y-104075199D01*
X120165888Y-104058954D01*
X120168129Y-104036550D01*
X120169463Y-104006589D01*
X120170129Y-103967668D01*
X120170364Y-103918388D01*
X120170397Y-103885229D01*
X120170347Y-103832124D01*
X120170089Y-103790055D01*
X120169539Y-103757505D01*
X120168615Y-103732957D01*
X120167236Y-103714891D01*
X120165319Y-103701791D01*
X120162781Y-103692138D01*
X120159540Y-103684413D01*
X120159503Y-103684340D01*
X120146745Y-103666700D01*
X120126999Y-103652381D01*
X120098826Y-103640763D01*
X120060789Y-103631228D01*
X120019832Y-103624330D01*
X119991290Y-103620107D01*
X119967717Y-103616378D01*
X119951647Y-103613560D01*
X119945641Y-103612109D01*
X119946659Y-103605768D01*
X119951127Y-103590565D01*
X119958166Y-103569419D01*
X119960553Y-103562620D01*
X119969425Y-103538808D01*
X119976117Y-103524815D01*
X119982111Y-103518447D01*
X119988887Y-103517513D01*
X119990799Y-103517856D01*
X120002890Y-103520233D01*
X120023594Y-103524099D01*
X120049160Y-103528757D01*
X120059053Y-103530533D01*
X120108730Y-103540461D01*
X120147670Y-103550797D01*
X120177687Y-103562212D01*
X120200598Y-103575374D01*
X120215805Y-103588401D01*
X120227612Y-103600825D01*
X120237173Y-103612355D01*
X120244735Y-103624445D01*
X120250543Y-103638547D01*
X120254845Y-103656114D01*
X120257888Y-103678599D01*
X120259919Y-103707454D01*
X120261184Y-103744134D01*
X120261931Y-103790089D01*
X120262407Y-103846774D01*
X120262515Y-103863257D01*
X120262664Y-103913569D01*
X120262473Y-103960959D01*
X120261974Y-104003667D01*
X120261199Y-104039934D01*
X120260182Y-104068002D01*
X120258955Y-104086111D01*
X120258307Y-104090719D01*
X120244198Y-104133886D01*
X120221823Y-104168183D01*
X120191646Y-104193039D01*
X120165548Y-104204705D01*
X120151181Y-104207575D01*
X120127098Y-104210465D01*
X120096133Y-104213113D01*
X120061123Y-104215254D01*
X120043374Y-104216038D01*
X119944498Y-104219828D01*
X119944498Y-104569510D01*
X120032388Y-104569510D01*
X120032388Y-104669955D01*
X119260217Y-104669955D01*
X119260217Y-104569510D01*
X119348107Y-104569510D01*
X119561552Y-104569510D01*
X119649441Y-104569510D01*
X119856609Y-104569510D01*
X119856609Y-104217953D01*
X119649441Y-104217953D01*
X119649441Y-104569510D01*
X119561552Y-104569510D01*
X119561552Y-104217953D01*
X119348107Y-104217953D01*
X119348107Y-104569510D01*
X119260217Y-104569510D01*
X119260217Y-104217953D01*
G37*
G36*
X119285571Y-99899704D02*
G01*
X119298245Y-99909959D01*
X119313679Y-99923743D01*
X119328970Y-99938351D01*
X119341218Y-99951075D01*
X119347520Y-99959211D01*
X119347825Y-99960283D01*
X119343772Y-99966873D01*
X119333425Y-99979838D01*
X119319237Y-99996129D01*
X119304017Y-100013616D01*
X119283748Y-100037746D01*
X119261123Y-100065281D01*
X119239718Y-100091866D01*
X119220271Y-100115817D01*
X119203377Y-100135725D01*
X119190652Y-100149747D01*
X119183714Y-100156042D01*
X119183190Y-100156213D01*
X119176198Y-100152201D01*
X119163196Y-100141730D01*
X119148527Y-100128484D01*
X119119178Y-100100754D01*
X119148552Y-100057858D01*
X119165223Y-100034323D01*
X119184771Y-100007991D01*
X119205700Y-99980728D01*
X119226517Y-99954398D01*
X119245725Y-99930868D01*
X119261829Y-99912002D01*
X119273335Y-99899665D01*
X119278558Y-99895684D01*
X119285571Y-99899704D01*
G37*
G36*
X121116546Y-101574194D02*
G01*
X121105171Y-101572148D01*
X121032738Y-101552035D01*
X120966446Y-101522475D01*
X120907436Y-101484222D01*
X120856848Y-101438032D01*
X120815822Y-101384659D01*
X120811681Y-101377948D01*
X120783177Y-101319738D01*
X120762293Y-101253836D01*
X120749252Y-101182697D01*
X120744278Y-101108774D01*
X120744777Y-101097609D01*
X120918335Y-101097609D01*
X120918981Y-101113578D01*
X120927123Y-101166961D01*
X120945508Y-101213133D01*
X120974055Y-101252033D01*
X121012684Y-101283599D01*
X121061316Y-101307768D01*
X121119870Y-101324478D01*
X121188266Y-101333667D01*
X121203321Y-101334607D01*
X121273419Y-101334043D01*
X121337389Y-101325083D01*
X121394259Y-101308064D01*
X121443056Y-101283320D01*
X121482807Y-101251187D01*
X121498748Y-101232768D01*
X121520734Y-101194305D01*
X121534235Y-101149528D01*
X121538822Y-101101749D01*
X121534070Y-101054282D01*
X121525586Y-101024673D01*
X121503802Y-100983787D01*
X121471582Y-100947572D01*
X121430547Y-100917206D01*
X121382320Y-100893865D01*
X121328526Y-100878728D01*
X121323148Y-100877753D01*
X121288027Y-100873767D01*
X121246640Y-100872322D01*
X121202567Y-100873232D01*
X121159384Y-100876313D01*
X121120671Y-100881380D01*
X121090006Y-100888248D01*
X121084422Y-100890079D01*
X121030148Y-100914376D01*
X120986645Y-100944836D01*
X120953590Y-100981747D01*
X120930658Y-101025393D01*
X120930353Y-101026199D01*
X120922696Y-101049678D01*
X120918932Y-101071619D01*
X120918335Y-101097609D01*
X120744777Y-101097609D01*
X120747596Y-101034522D01*
X120759427Y-100962396D01*
X120770183Y-100922808D01*
X120797650Y-100855635D01*
X120834990Y-100795981D01*
X120881691Y-100744307D01*
X120937243Y-100701075D01*
X121001133Y-100666749D01*
X121072849Y-100641790D01*
X121084643Y-100638787D01*
X121134701Y-100629951D01*
X121191907Y-100625283D01*
X121251746Y-100624788D01*
X121309702Y-100628471D01*
X121361260Y-100636338D01*
X121370595Y-100638459D01*
X121444602Y-100662121D01*
X121510097Y-100694958D01*
X121566857Y-100736712D01*
X121614658Y-100787130D01*
X121653278Y-100845954D01*
X121682495Y-100912929D01*
X121702085Y-100987800D01*
X121707909Y-101025689D01*
X121712349Y-101070028D01*
X121713696Y-101109004D01*
X121711931Y-101148556D01*
X121707357Y-101192051D01*
X121692221Y-101265974D01*
X121666328Y-101334222D01*
X121630385Y-101395958D01*
X121585100Y-101450343D01*
X121531178Y-101496541D01*
X121469328Y-101533714D01*
X121400255Y-101561024D01*
X121394569Y-101562719D01*
X121357259Y-101570851D01*
X121311339Y-101576657D01*
X121260558Y-101580017D01*
X121208665Y-101580808D01*
X121203321Y-101580602D01*
X121159411Y-101578908D01*
X121116546Y-101574194D01*
G37*
G36*
X119187574Y-98614857D02*
G01*
X119203504Y-98623536D01*
X119217834Y-98633318D01*
X119226740Y-98641987D01*
X119227946Y-98645428D01*
X119224903Y-98653556D01*
X119217250Y-98670428D01*
X119206122Y-98693625D01*
X119192654Y-98720727D01*
X119191849Y-98722322D01*
X119156634Y-98791965D01*
X119129953Y-98775754D01*
X119114518Y-98765002D01*
X119104884Y-98755647D01*
X119103272Y-98752140D01*
X119105748Y-98743706D01*
X119112326Y-98726812D01*
X119121730Y-98704343D01*
X119132686Y-98679186D01*
X119143918Y-98654226D01*
X119154151Y-98632349D01*
X119162111Y-98616441D01*
X119166220Y-98609673D01*
X119173871Y-98609498D01*
X119187574Y-98614857D01*
G37*
G36*
X120449090Y-105521070D02*
G01*
X120453614Y-105524173D01*
X120472833Y-105541743D01*
X120481469Y-105558935D01*
X120480556Y-105570365D01*
X120472811Y-105579334D01*
X120460793Y-105576632D01*
X120451887Y-105569812D01*
X120442322Y-105562829D01*
X120437887Y-105561965D01*
X120436006Y-105569065D01*
X120433513Y-105585110D01*
X120431090Y-105605348D01*
X120426774Y-105646154D01*
X120445498Y-105653204D01*
X120466509Y-105667286D01*
X120480867Y-105689161D01*
X120487361Y-105715306D01*
X120484778Y-105742197D01*
X120480160Y-105753942D01*
X120467442Y-105770700D01*
X120450255Y-105784466D01*
X120448961Y-105785189D01*
X120432557Y-105799627D01*
X120427577Y-105818174D01*
X120434225Y-105839305D01*
X120440477Y-105848510D01*
X120448524Y-105861673D01*
X120447489Y-105870967D01*
X120445986Y-105873042D01*
X120433900Y-105880865D01*
X120419389Y-105877210D01*
X120404732Y-105865263D01*
X120388424Y-105848955D01*
X120391675Y-105695861D01*
X120392845Y-105646398D01*
X120394079Y-105607940D01*
X120395505Y-105578938D01*
X120397245Y-105557841D01*
X120399425Y-105543099D01*
X120402170Y-105533163D01*
X120405275Y-105526975D01*
X120417196Y-105514400D01*
X120431014Y-105512477D01*
X120449090Y-105521070D01*
G37*
G36*
X119398329Y-98975986D02*
G01*
X119316718Y-98975986D01*
X119316718Y-99352654D01*
X119241384Y-99352654D01*
X119241384Y-98975986D01*
X119096995Y-98975986D01*
X119096995Y-98888096D01*
X119241384Y-98888096D01*
X119241384Y-98492595D01*
X119316718Y-98492595D01*
X119316718Y-98888096D01*
X119398329Y-98888096D01*
X119473663Y-98888096D01*
X119561552Y-98888096D01*
X119561552Y-98655818D01*
X119630325Y-98655818D01*
X119633747Y-98884958D01*
X119718497Y-98888670D01*
X119718497Y-98655818D01*
X119630325Y-98655818D01*
X119561552Y-98655818D01*
X119473663Y-98655818D01*
X119473663Y-98888096D01*
X119398329Y-98888096D01*
X119398329Y-98567928D01*
X119862887Y-98567928D01*
X119862887Y-98655818D01*
X119787270Y-98655818D01*
X119790692Y-98884958D01*
X119829928Y-98886827D01*
X119869165Y-98888696D01*
X119869165Y-98975986D01*
X119787553Y-98975986D01*
X119787553Y-99201987D01*
X119887998Y-99201987D01*
X119887998Y-99289876D01*
X119398329Y-99289876D01*
X119398329Y-99201987D01*
X119473663Y-99201987D01*
X119561552Y-99201987D01*
X119630608Y-99201987D01*
X119718497Y-99201987D01*
X119718497Y-98975986D01*
X119630608Y-98975986D01*
X119630608Y-99201987D01*
X119561552Y-99201987D01*
X119561552Y-98975986D01*
X119473663Y-98975986D01*
X119473663Y-99201987D01*
X119398329Y-99201987D01*
X119398329Y-98975986D01*
G37*
%TO.C,TP3*%
X131667142Y-117330000D02*
G75*
G03*
X131667142Y-117330000I-1200000J0D01*
G01*
%TO.C,C2*%
X173170000Y-88010580D02*
X173170000Y-87729420D01*
X174190000Y-88010580D02*
X174190000Y-87729420D01*
%TO.C,R8*%
X135442742Y-89178000D02*
X135917258Y-89178000D01*
X135442742Y-88133000D02*
X135917258Y-88133000D01*
%TO.C,TP6*%
X141682855Y-117330000D02*
G75*
G03*
X141682855Y-117330000I-1200000J0D01*
G01*
D16*
%TO.C,CON1*%
X155210000Y-107231500D02*
X146810000Y-107231500D01*
X155210000Y-105012500D02*
X155210000Y-107231500D01*
X153141000Y-101981500D02*
X155210000Y-101981500D01*
X146810000Y-103050500D02*
X146810000Y-101981500D01*
X146810000Y-101981500D02*
X148879000Y-101981500D01*
X155210000Y-102031500D02*
X155210000Y-103050500D01*
X146810000Y-107231500D02*
X146810000Y-105012500D01*
X148784000Y-101431500D02*
G75*
G03*
X148784000Y-101431500I-224000J0D01*
G01*
D14*
%TO.C,TP1*%
X124990000Y-117340000D02*
G75*
G03*
X124990000Y-117340000I-1200000J0D01*
G01*
%TO.C,R6*%
X135937258Y-90927500D02*
X135462742Y-90927500D01*
X135937258Y-91972500D02*
X135462742Y-91972500D01*
D16*
%TO.C,D4*%
X136145000Y-105466000D02*
X136145000Y-108158000D01*
X135295000Y-106406000D02*
X135295000Y-106092000D01*
X135295000Y-107092000D02*
X135295000Y-107422000D01*
X136145000Y-108450000D02*
X136144000Y-108451000D01*
X135295000Y-106990000D02*
X134889000Y-106406000D01*
X134445000Y-108455000D02*
X134446000Y-108456000D01*
X134445000Y-108158000D02*
X134445000Y-105466000D01*
X134445000Y-108158000D02*
X134445000Y-108455000D01*
X136001000Y-105466000D02*
X136145000Y-105466000D01*
X136145000Y-108158000D02*
X136145000Y-108450000D01*
X134889000Y-106406000D02*
X135701000Y-106406000D01*
X135701000Y-106406000D02*
X135295000Y-106990000D01*
X134787000Y-107066000D02*
X135803000Y-107066000D01*
X134445000Y-105466000D02*
X134589000Y-105466000D01*
G36*
X134688000Y-108618000D02*
G01*
X134318000Y-108618000D01*
X134318000Y-108314000D01*
X134688000Y-108314000D01*
X134688000Y-108618000D01*
G37*
D14*
X134688000Y-108618000D02*
X134318000Y-108618000D01*
X134318000Y-108314000D01*
X134688000Y-108314000D01*
X134688000Y-108618000D01*
G36*
X136272000Y-108618000D02*
G01*
X135902000Y-108618000D01*
X135902000Y-108314000D01*
X136272000Y-108314000D01*
X136272000Y-108618000D01*
G37*
X136272000Y-108618000D02*
X135902000Y-108618000D01*
X135902000Y-108314000D01*
X136272000Y-108314000D01*
X136272000Y-108618000D01*
G36*
X135295000Y-106990000D02*
G01*
X134889000Y-106406000D01*
X135701000Y-106406000D01*
X135295000Y-106990000D01*
G37*
X135295000Y-106990000D02*
X134889000Y-106406000D01*
X135701000Y-106406000D01*
X135295000Y-106990000D01*
%TO.C,C5*%
X150560000Y-91986080D02*
X150560000Y-91704920D01*
X151580000Y-91986080D02*
X151580000Y-91704920D01*
%TO.C,R1*%
X127737500Y-101707258D02*
X127737500Y-101232742D01*
X128782500Y-101707258D02*
X128782500Y-101232742D01*
%TO.C,R5*%
X137377500Y-101687258D02*
X137377500Y-101212742D01*
X138422500Y-101687258D02*
X138422500Y-101212742D01*
D15*
%TO.C,U2*%
X169625000Y-92731000D02*
X166875000Y-92731000D01*
X166875000Y-86029000D02*
X169625000Y-86029000D01*
X166875000Y-92731000D02*
X166875000Y-86029000D01*
X169625000Y-86029000D02*
X169625000Y-92731000D01*
D16*
X171552000Y-92682000D02*
G75*
G03*
X171552000Y-92682000I-254000J0D01*
G01*
%TO.C,D3*%
X133750000Y-105481000D02*
X133750000Y-108173000D01*
X133750000Y-108173000D02*
X133750000Y-108465000D01*
X132050000Y-105481000D02*
X132194000Y-105481000D01*
X132050000Y-108470000D02*
X132051000Y-108471000D01*
X133306000Y-106421000D02*
X132900000Y-107005000D01*
X133750000Y-108465000D02*
X133749000Y-108466000D01*
X132050000Y-108173000D02*
X132050000Y-105481000D01*
X132900000Y-107005000D02*
X132494000Y-106421000D01*
X132050000Y-108173000D02*
X132050000Y-108470000D01*
X132900000Y-106421000D02*
X132900000Y-106107000D01*
X132494000Y-106421000D02*
X133306000Y-106421000D01*
X132392000Y-107081000D02*
X133408000Y-107081000D01*
X132900000Y-107107000D02*
X132900000Y-107437000D01*
X133606000Y-105481000D02*
X133750000Y-105481000D01*
G36*
X132293000Y-108633000D02*
G01*
X131923000Y-108633000D01*
X131923000Y-108329000D01*
X132293000Y-108329000D01*
X132293000Y-108633000D01*
G37*
D14*
X132293000Y-108633000D02*
X131923000Y-108633000D01*
X131923000Y-108329000D01*
X132293000Y-108329000D01*
X132293000Y-108633000D01*
G36*
X133877000Y-108633000D02*
G01*
X133507000Y-108633000D01*
X133507000Y-108329000D01*
X133877000Y-108329000D01*
X133877000Y-108633000D01*
G37*
X133877000Y-108633000D02*
X133507000Y-108633000D01*
X133507000Y-108329000D01*
X133877000Y-108329000D01*
X133877000Y-108633000D01*
G36*
X132900000Y-107005000D02*
G01*
X132494000Y-106421000D01*
X133306000Y-106421000D01*
X132900000Y-107005000D01*
G37*
X132900000Y-107005000D02*
X132494000Y-106421000D01*
X133306000Y-106421000D01*
X132900000Y-107005000D01*
%TO.C,C3*%
X174200000Y-90774420D02*
X174200000Y-91055580D01*
X173180000Y-90774420D02*
X173180000Y-91055580D01*
%TD*%
%LPC*%
D17*
%TO.C,TP5*%
X137144284Y-117330000D03*
%TD*%
D18*
%TO.C,U3*%
X151070000Y-89320000D03*
X152970000Y-89320000D03*
X152020000Y-87050000D03*
%TD*%
D19*
%TO.C,C1*%
X168865000Y-119190000D03*
X170415000Y-119190000D03*
%TD*%
D20*
%TO.C,R2*%
X130560000Y-102275000D03*
X130560000Y-100625000D03*
%TD*%
D21*
%TO.C,U1*%
X168370000Y-115630000D03*
X168370000Y-116580000D03*
X168370000Y-117530000D03*
X170970000Y-117530000D03*
X170970000Y-115630000D03*
%TD*%
D20*
%TO.C,R3*%
X132890000Y-102275000D03*
X132890000Y-100625000D03*
%TD*%
D19*
%TO.C,C6*%
X126975000Y-91394500D03*
X128525000Y-91394500D03*
%TD*%
D17*
%TO.C,TP7*%
X143821426Y-117330000D03*
%TD*%
D22*
%TO.C,D2*%
X130580000Y-108577000D03*
X130580000Y-105177000D03*
%TD*%
D17*
%TO.C,TP4*%
X133805713Y-117330000D03*
%TD*%
D23*
%TO.C,R7*%
X126985000Y-88670000D03*
X128635000Y-88670000D03*
%TD*%
D22*
%TO.C,D5*%
X137880000Y-108497000D03*
X137880000Y-105097000D03*
%TD*%
D20*
%TO.C,R4*%
X135290000Y-102275000D03*
X135290000Y-100625000D03*
%TD*%
D24*
%TO.C,U4*%
X169270000Y-106910000D03*
X169270000Y-105910000D03*
X169270000Y-104910000D03*
X169270000Y-103910000D03*
X169270000Y-102910000D03*
X169270000Y-101910000D03*
X169270000Y-100910000D03*
X169270000Y-99910000D03*
X169270000Y-98910000D03*
X169270000Y-97910000D03*
%TD*%
D17*
%TO.C,TP8*%
X147160000Y-117330000D03*
%TD*%
D25*
%TO.C,J1*%
X126555000Y-125080000D03*
D26*
X129095000Y-125080000D03*
X131635000Y-125080000D03*
X134175000Y-125080000D03*
X136715000Y-125080000D03*
X139255000Y-125080000D03*
X141795000Y-125080000D03*
X144335000Y-125080000D03*
%TD*%
D18*
%TO.C,Q1*%
X130825000Y-90950500D03*
X132725000Y-90950500D03*
X131775000Y-88680500D03*
%TD*%
D27*
%TO.C,C4*%
X148820000Y-89350500D03*
X148820000Y-87800500D03*
%TD*%
D22*
%TO.C,D1*%
X128280000Y-108627000D03*
X128280000Y-105227000D03*
%TD*%
D27*
%TO.C,C7*%
X153000000Y-92635500D03*
X153000000Y-91085500D03*
%TD*%
D17*
%TO.C,TP2*%
X127128571Y-117290000D03*
%TD*%
%TO.C,TP3*%
X130467142Y-117330000D03*
%TD*%
D27*
%TO.C,C2*%
X173680000Y-88645000D03*
X173680000Y-87095000D03*
%TD*%
D23*
%TO.C,R8*%
X134855000Y-88655500D03*
X136505000Y-88655500D03*
%TD*%
D17*
%TO.C,TP6*%
X140482855Y-117330000D03*
%TD*%
D28*
%TO.C,CON1*%
X149260000Y-101431500D03*
X149760000Y-101431500D03*
X150260000Y-101431500D03*
X150760000Y-101431500D03*
X151260000Y-101431500D03*
X151760000Y-101431500D03*
X152260000Y-101431500D03*
X152760000Y-101431500D03*
D29*
X154460000Y-104031500D03*
X147560000Y-104031500D03*
%TD*%
D17*
%TO.C,TP1*%
X123790000Y-117340000D03*
%TD*%
D30*
%TO.C,R6*%
X136525000Y-91450000D03*
X134875000Y-91450000D03*
%TD*%
D22*
%TO.C,D4*%
X135295000Y-108512000D03*
X135295000Y-105112000D03*
%TD*%
D27*
%TO.C,C5*%
X151070000Y-92620500D03*
X151070000Y-91070500D03*
%TD*%
D20*
%TO.C,R1*%
X128260000Y-102295000D03*
X128260000Y-100645000D03*
%TD*%
%TO.C,R5*%
X137900000Y-102275000D03*
X137900000Y-100625000D03*
%TD*%
D31*
%TO.C,U2*%
X171113000Y-91680000D03*
X171113000Y-89380000D03*
X171113000Y-87080000D03*
D32*
X165387000Y-89380000D03*
%TD*%
D22*
%TO.C,D3*%
X132900000Y-108527000D03*
X132900000Y-105127000D03*
%TD*%
D33*
%TO.C,C3*%
X173690000Y-90140000D03*
X173690000Y-91690000D03*
%TD*%
M02*
