%TF.GenerationSoftware,KiCad,Pcbnew,(6.0.8)*%
%TF.CreationDate,2022-10-12T18:40:44+08:00*%
%TF.ProjectId,UINIO-LCD2.4-ST7789,55494e49-4f2d-44c4-9344-322e342d5354,rev?*%
%TF.SameCoordinates,Original*%
%TF.FileFunction,Legend,Bot*%
%TF.FilePolarity,Positive*%
%FSLAX46Y46*%
G04 Gerber Fmt 4.6, Leading zero omitted, Abs format (unit mm)*
G04 Created by KiCad (PCBNEW (6.0.8)) date 2022-10-12 18:40:44*
%MOMM*%
%LPD*%
G01*
G04 APERTURE LIST*
%ADD10C,0.100000*%
%ADD11C,0.300000*%
%ADD12C,0.200000*%
%ADD13R,1.700000X1.700000*%
%ADD14O,1.700000X1.700000*%
G04 APERTURE END LIST*
D10*
X162920480Y-105261940D02*
X161825242Y-105261940D01*
X162920480Y-105547654D02*
X161825242Y-105547654D01*
X162349051Y-105880987D02*
X161730004Y-105880987D01*
X162920480Y-104928607D02*
X162920480Y-105642892D01*
X162349051Y-104738130D02*
X162349051Y-105880987D01*
X162920480Y-104928607D02*
X161825242Y-104928607D01*
X161825242Y-105547654D01*
X161682385Y-105642892D02*
X161730004Y-105880987D01*
X161444289Y-105357178D02*
X160206194Y-105357178D01*
X161110956Y-105880987D02*
X160825242Y-105880987D01*
X160825242Y-105119083D02*
X160825242Y-105880987D01*
X161301432Y-104880987D02*
X160349051Y-104880987D01*
X160491908Y-104976226D01*
X160825242Y-105119083D01*
X159491908Y-104976226D02*
X158777623Y-104976226D01*
X159968099Y-105023845D02*
X159587147Y-105023845D01*
X159920480Y-105880987D02*
X159777623Y-105880987D01*
X159730004Y-104738130D02*
X159730004Y-105880987D01*
X159158575Y-104738130D02*
X159158575Y-105261940D01*
X159396670Y-105261940D02*
X159301432Y-105500035D01*
X159063337Y-105738130D01*
X158730004Y-105880987D01*
X159491908Y-105261940D02*
X158825242Y-105261940D01*
X158920480Y-105452416D01*
X159158575Y-105690511D01*
X159587147Y-105880987D01*
X159539527Y-105357178D02*
X159968099Y-105452416D01*
X158444289Y-105071464D02*
X157301432Y-105071464D01*
X157872861Y-104738130D02*
X157872861Y-105880987D01*
X157825242Y-105166702D02*
X157349051Y-105690511D01*
X157920480Y-105071464D02*
X157682385Y-105309559D01*
X158301432Y-105595273D02*
X158491908Y-105690511D01*
X157872861Y-105023845D02*
X157968099Y-105261940D01*
X158349051Y-105642892D01*
X157682385Y-104785749D02*
X157491908Y-104880987D01*
X156634766Y-104928607D02*
X155777623Y-104928607D01*
X157015718Y-105119083D02*
X156634766Y-105119083D01*
X156539527Y-105214321D02*
X155872861Y-105214321D01*
X156539527Y-105404797D02*
X155872861Y-105404797D01*
X156634766Y-105547654D02*
X155777623Y-105547654D01*
X156206194Y-105880987D02*
X156015718Y-105880987D01*
X156825242Y-104738130D02*
X156825242Y-105880987D01*
X156539527Y-105071464D02*
X156539527Y-105404797D01*
X156206194Y-104738130D02*
X156206194Y-105404797D01*
X156015718Y-105404797D02*
X156015718Y-105880987D01*
X156539527Y-105071464D02*
X155872861Y-105071464D01*
X155872861Y-105404797D01*
X156444289Y-105642892D02*
X156301432Y-105785749D01*
X156063337Y-104785749D02*
X155872861Y-104833368D01*
X155253813Y-105833368D02*
X154539527Y-105833368D01*
X155491908Y-104880987D02*
X155491908Y-105023845D01*
X155253813Y-105500035D02*
X155253813Y-105880987D01*
X154920480Y-104738130D02*
X154920480Y-104880987D01*
X155396670Y-105547654D02*
X154539527Y-105547654D01*
X154539527Y-105880987D01*
X155491908Y-104880987D02*
X154349051Y-104880987D01*
X154349051Y-105023845D01*
X155110956Y-104976226D02*
X155301432Y-105166702D01*
X155491908Y-105261940D01*
X155158575Y-105071464D02*
X155015718Y-105261940D01*
X154777623Y-105404797D01*
X154301432Y-105547654D01*
X155158575Y-105071464D02*
X154587147Y-105071464D01*
X154777623Y-105261940D01*
X155110956Y-105452416D01*
X155539527Y-105547654D01*
D11*
X162855718Y-106691464D02*
X162855718Y-107662892D01*
X162798575Y-107777178D01*
X162741432Y-107834321D01*
X162627147Y-107891464D01*
X162398575Y-107891464D01*
X162284289Y-107834321D01*
X162227147Y-107777178D01*
X162170004Y-107662892D01*
X162170004Y-106691464D01*
X161598575Y-107891464D02*
X161598575Y-107091464D01*
X161598575Y-106691464D02*
X161655718Y-106748607D01*
X161598575Y-106805749D01*
X161541432Y-106748607D01*
X161598575Y-106691464D01*
X161598575Y-106805749D01*
X161027147Y-107091464D02*
X161027147Y-107891464D01*
X161027147Y-107205749D02*
X160970004Y-107148607D01*
X160855718Y-107091464D01*
X160684289Y-107091464D01*
X160570004Y-107148607D01*
X160512861Y-107262892D01*
X160512861Y-107891464D01*
X159941432Y-107891464D02*
X159941432Y-106691464D01*
X159141432Y-106691464D02*
X158912861Y-106691464D01*
X158798575Y-106748607D01*
X158684289Y-106862892D01*
X158627147Y-107091464D01*
X158627147Y-107491464D01*
X158684289Y-107720035D01*
X158798575Y-107834321D01*
X158912861Y-107891464D01*
X159141432Y-107891464D01*
X159255718Y-107834321D01*
X159370004Y-107720035D01*
X159427147Y-107491464D01*
X159427147Y-107091464D01*
X159370004Y-106862892D01*
X159255718Y-106748607D01*
X159141432Y-106691464D01*
X158112861Y-107777178D02*
X158055718Y-107834321D01*
X158112861Y-107891464D01*
X158170004Y-107834321D01*
X158112861Y-107777178D01*
X158112861Y-107891464D01*
X157027147Y-107834321D02*
X157141432Y-107891464D01*
X157370004Y-107891464D01*
X157484289Y-107834321D01*
X157541432Y-107777178D01*
X157598575Y-107662892D01*
X157598575Y-107320035D01*
X157541432Y-107205749D01*
X157484289Y-107148607D01*
X157370004Y-107091464D01*
X157141432Y-107091464D01*
X157027147Y-107148607D01*
X156341432Y-107891464D02*
X156455718Y-107834321D01*
X156512861Y-107777178D01*
X156570004Y-107662892D01*
X156570004Y-107320035D01*
X156512861Y-107205749D01*
X156455718Y-107148607D01*
X156341432Y-107091464D01*
X156170004Y-107091464D01*
X156055718Y-107148607D01*
X155998575Y-107205749D01*
X155941432Y-107320035D01*
X155941432Y-107662892D01*
X155998575Y-107777178D01*
X156055718Y-107834321D01*
X156170004Y-107891464D01*
X156341432Y-107891464D01*
X155427147Y-107891464D02*
X155427147Y-107091464D01*
X155427147Y-107205749D02*
X155370004Y-107148607D01*
X155255718Y-107091464D01*
X155084289Y-107091464D01*
X154970004Y-107148607D01*
X154912861Y-107262892D01*
X154912861Y-107891464D01*
X154912861Y-107262892D02*
X154855718Y-107148607D01*
X154741432Y-107091464D01*
X154570004Y-107091464D01*
X154455718Y-107148607D01*
X154398575Y-107262892D01*
X154398575Y-107891464D01*
D12*
X130330000Y-127030000D02*
X190590000Y-127030000D01*
X190590000Y-127030000D02*
X190590000Y-84310000D01*
X190590000Y-84310000D02*
X130330000Y-84310000D01*
X130330000Y-84310000D02*
X130330000Y-127030000D01*
D11*
%TO.C,*%
G36*
X164972744Y-106512644D02*
G01*
X164994144Y-106518660D01*
X165002680Y-106539822D01*
X165007212Y-106559413D01*
X165016459Y-106579220D01*
X165024371Y-106585480D01*
X165055172Y-106597026D01*
X165103682Y-106607133D01*
X165167231Y-106615693D01*
X165243151Y-106622596D01*
X165328771Y-106627732D01*
X165421423Y-106630993D01*
X165518438Y-106632267D01*
X165617145Y-106631447D01*
X165714876Y-106628422D01*
X165808962Y-106623083D01*
X165896732Y-106615321D01*
X165953318Y-106608291D01*
X166002222Y-106599078D01*
X166034946Y-106587804D01*
X166054499Y-106573379D01*
X166063887Y-106554711D01*
X166063954Y-106554447D01*
X166074554Y-106534196D01*
X166094788Y-106530962D01*
X166104670Y-106533320D01*
X166115977Y-106544957D01*
X166118868Y-106571269D01*
X166118604Y-106579061D01*
X166112891Y-106603192D01*
X166098123Y-106622829D01*
X166072184Y-106638729D01*
X166032959Y-106651648D01*
X165978333Y-106662340D01*
X165906190Y-106671563D01*
X165814416Y-106680072D01*
X165784170Y-106682331D01*
X165680658Y-106687345D01*
X165568287Y-106689301D01*
X165452139Y-106688346D01*
X165337298Y-106684624D01*
X165228846Y-106678281D01*
X165131865Y-106669461D01*
X165051438Y-106658309D01*
X165003418Y-106646050D01*
X164965252Y-106624299D01*
X164945039Y-106593185D01*
X164941306Y-106551275D01*
X164944324Y-106529748D01*
X164953052Y-106515869D01*
X164971736Y-106512639D01*
X164972744Y-106512644D01*
G37*
G36*
X165687619Y-107315873D02*
G01*
X165689373Y-107333572D01*
X165687528Y-107346203D01*
X165679518Y-107355319D01*
X165674740Y-107350911D01*
X165675350Y-107333572D01*
X165679493Y-107320791D01*
X165685205Y-107311826D01*
X165687619Y-107315873D01*
G37*
G36*
X165221822Y-107284643D02*
G01*
X165216385Y-107290079D01*
X165210949Y-107284643D01*
X165216385Y-107279206D01*
X165221822Y-107284643D01*
G37*
G36*
X165721993Y-107284643D02*
G01*
X165716557Y-107290079D01*
X165711120Y-107284643D01*
X165716557Y-107279206D01*
X165721993Y-107284643D01*
G37*
G36*
X165337804Y-107282830D02*
G01*
X165339505Y-107286101D01*
X165330555Y-107290079D01*
X165324799Y-107289295D01*
X165323306Y-107282830D01*
X165324900Y-107281529D01*
X165337804Y-107282830D01*
G37*
G36*
X166417884Y-107866364D02*
G01*
X166417099Y-107872120D01*
X166410635Y-107873612D01*
X166409333Y-107872019D01*
X166410635Y-107859115D01*
X166413905Y-107857414D01*
X166417884Y-107866364D01*
G37*
G36*
X165607661Y-105947650D02*
G01*
X165613851Y-105958860D01*
X165618359Y-105980978D01*
X165621890Y-106017616D01*
X165625150Y-106072384D01*
X165628172Y-106116341D01*
X165633467Y-106166549D01*
X165639767Y-106207073D01*
X165646273Y-106231886D01*
X165650008Y-106241929D01*
X165652714Y-106280727D01*
X165634407Y-106314156D01*
X165595022Y-106342351D01*
X165585317Y-106346999D01*
X165557912Y-106356702D01*
X165540197Y-106357992D01*
X165535571Y-106355432D01*
X165526858Y-106338605D01*
X165530430Y-106318007D01*
X165545302Y-106304053D01*
X165558571Y-106297872D01*
X165582543Y-106281701D01*
X165586859Y-106277833D01*
X165594669Y-106266203D01*
X165593622Y-106249730D01*
X165583885Y-106220832D01*
X165580974Y-106211776D01*
X165573010Y-106170326D01*
X165567960Y-106117587D01*
X165566151Y-106061493D01*
X165567912Y-106009977D01*
X165573570Y-105970971D01*
X165583211Y-105949555D01*
X165600057Y-105943901D01*
X165607661Y-105947650D01*
G37*
G36*
X165830726Y-107284643D02*
G01*
X165825289Y-107290079D01*
X165819853Y-107284643D01*
X165825289Y-107279206D01*
X165830726Y-107284643D01*
G37*
G36*
X165189202Y-107230276D02*
G01*
X165183765Y-107235713D01*
X165178329Y-107230276D01*
X165183765Y-107224840D01*
X165189202Y-107230276D01*
G37*
G36*
X164678158Y-107844617D02*
G01*
X164677373Y-107850373D01*
X164670909Y-107851866D01*
X164669607Y-107850272D01*
X164670909Y-107837368D01*
X164674179Y-107835667D01*
X164678158Y-107844617D01*
G37*
G36*
X164634664Y-107975096D02*
G01*
X164633880Y-107980853D01*
X164627416Y-107982345D01*
X164626114Y-107980752D01*
X164627416Y-107967848D01*
X164630686Y-107966146D01*
X164634664Y-107975096D01*
G37*
G36*
X164786099Y-105438667D02*
G01*
X164867390Y-105445860D01*
X164939877Y-105459366D01*
X165009748Y-105480326D01*
X165083188Y-105509882D01*
X165084988Y-105510682D01*
X165128253Y-105532752D01*
X165151733Y-105551266D01*
X165154982Y-105565688D01*
X165137554Y-105575478D01*
X165129790Y-105577276D01*
X165075982Y-105581537D01*
X165014392Y-105575724D01*
X164954410Y-105560600D01*
X164908974Y-105545761D01*
X164839385Y-105525549D01*
X164765033Y-105506168D01*
X164692253Y-105489165D01*
X164627383Y-105476086D01*
X164576760Y-105468476D01*
X164570124Y-105467757D01*
X164532494Y-105462275D01*
X164514509Y-105456180D01*
X164514314Y-105448888D01*
X164529972Y-105443970D01*
X164565328Y-105440151D01*
X164618177Y-105437661D01*
X164686389Y-105436651D01*
X164689817Y-105436643D01*
X164786099Y-105438667D01*
G37*
G36*
X166336977Y-107296088D02*
G01*
X166379421Y-107382842D01*
X166423509Y-107483863D01*
X166468256Y-107596903D01*
X166512675Y-107719716D01*
X166555782Y-107850054D01*
X166563004Y-107872907D01*
X166579676Y-107925592D01*
X166593698Y-107969795D01*
X166603772Y-108001429D01*
X166608600Y-108016410D01*
X166605964Y-108024525D01*
X166588600Y-108027938D01*
X166553130Y-108027283D01*
X166492926Y-108024026D01*
X166466388Y-107947913D01*
X166465184Y-107944464D01*
X166451253Y-107905258D01*
X166439524Y-107873396D01*
X166432428Y-107855490D01*
X166427508Y-107841032D01*
X166421999Y-107813458D01*
X166418884Y-107796203D01*
X166413306Y-107782048D01*
X166409207Y-107781396D01*
X166401215Y-107792984D01*
X166394202Y-107814618D01*
X166390288Y-107838863D01*
X166391588Y-107858288D01*
X166393881Y-107872707D01*
X166385168Y-107871741D01*
X166380907Y-107870645D01*
X166376183Y-107879162D01*
X166374685Y-107903477D01*
X166376060Y-107946493D01*
X166380250Y-108029463D01*
X164689031Y-108029463D01*
X164689031Y-108007075D01*
X164690727Y-107994494D01*
X164697186Y-107989721D01*
X164701788Y-107989720D01*
X164706822Y-107975891D01*
X164708048Y-107948808D01*
X164705680Y-107913647D01*
X164699930Y-107875581D01*
X164691012Y-107839784D01*
X164670705Y-107775666D01*
X164658580Y-107810448D01*
X164658138Y-107811742D01*
X164651959Y-107840877D01*
X164653281Y-107863017D01*
X164655447Y-107872385D01*
X164649325Y-107874141D01*
X164647927Y-107873874D01*
X164638653Y-107884249D01*
X164626032Y-107910486D01*
X164612139Y-107948436D01*
X164585735Y-108029395D01*
X164544227Y-108029429D01*
X164521271Y-108028435D01*
X164508243Y-108022962D01*
X164508215Y-108010435D01*
X164509031Y-108007555D01*
X164515152Y-107985351D01*
X164525383Y-107947836D01*
X164538517Y-107899446D01*
X164553347Y-107844617D01*
X164592235Y-107706379D01*
X164632612Y-107576475D01*
X164671892Y-107465170D01*
X164710676Y-107370892D01*
X164749564Y-107292068D01*
X164789157Y-107227124D01*
X164816150Y-107195294D01*
X164844405Y-107171041D01*
X165128273Y-107171041D01*
X165128703Y-107184901D01*
X165129197Y-107188205D01*
X165137326Y-107215380D01*
X165151048Y-107246514D01*
X165153056Y-107250365D01*
X165165202Y-107271133D01*
X165172443Y-107274560D01*
X165178438Y-107262824D01*
X165183176Y-107252075D01*
X165187992Y-107254114D01*
X165193764Y-107275579D01*
X165193987Y-107276557D01*
X165203974Y-107302036D01*
X165217050Y-107316013D01*
X165223641Y-107317482D01*
X165231492Y-107311341D01*
X165234262Y-107290682D01*
X165232809Y-107252023D01*
X165232708Y-107250387D01*
X165233326Y-107230505D01*
X165237379Y-107226031D01*
X165239754Y-107231237D01*
X165243877Y-107253584D01*
X165246572Y-107285834D01*
X165247683Y-107305160D01*
X165251640Y-107328093D01*
X165260955Y-107338517D01*
X165279091Y-107342467D01*
X165298377Y-107347752D01*
X165303018Y-107355892D01*
X165304052Y-107363410D01*
X165318496Y-107377744D01*
X165342324Y-107392836D01*
X165369045Y-107404774D01*
X165392170Y-107409645D01*
X165407045Y-107412124D01*
X165419845Y-107422033D01*
X165422707Y-107423689D01*
X165429737Y-107412688D01*
X165438174Y-107390817D01*
X165446003Y-107364346D01*
X165451206Y-107339549D01*
X165451496Y-107330854D01*
X165526659Y-107330854D01*
X165533194Y-107339816D01*
X165553457Y-107344446D01*
X165563097Y-107344109D01*
X165577220Y-107338853D01*
X165578696Y-107323545D01*
X165568948Y-107293505D01*
X165557255Y-107262896D01*
X165635007Y-107262896D01*
X165636553Y-107270448D01*
X165648599Y-107279372D01*
X165655029Y-107281191D01*
X165646383Y-107289539D01*
X165643937Y-107291186D01*
X165636177Y-107303706D01*
X165642604Y-107323545D01*
X165642981Y-107324710D01*
X165651672Y-107344368D01*
X165661921Y-107373343D01*
X165667096Y-107386084D01*
X165685344Y-107403133D01*
X165707114Y-107404260D01*
X165725725Y-107390448D01*
X165734496Y-107362677D01*
X165734499Y-107362599D01*
X165735826Y-107340522D01*
X165737488Y-107339294D01*
X165740654Y-107358034D01*
X165743195Y-107371270D01*
X165750635Y-107381752D01*
X165766208Y-107376679D01*
X165778653Y-107365639D01*
X165788494Y-107341345D01*
X165788673Y-107338264D01*
X165790746Y-107326653D01*
X165794658Y-107335929D01*
X165795863Y-107340037D01*
X165803724Y-107348783D01*
X165820580Y-107341468D01*
X165832454Y-107330084D01*
X165839623Y-107308255D01*
X165841599Y-107271154D01*
X165841637Y-107268333D01*
X165854333Y-107268333D01*
X165855316Y-107282979D01*
X165860995Y-107306604D01*
X165870911Y-107309297D01*
X165884710Y-107290794D01*
X165887571Y-107285097D01*
X165896038Y-107254969D01*
X165891349Y-107233209D01*
X165874298Y-107224840D01*
X165861363Y-107227457D01*
X165854903Y-107240025D01*
X165854333Y-107268333D01*
X165841637Y-107268333D01*
X165841951Y-107245098D01*
X165844868Y-107224180D01*
X165852951Y-107215614D01*
X165868783Y-107213966D01*
X165906839Y-107213966D01*
X165907047Y-107233522D01*
X165908007Y-107254969D01*
X165908167Y-107258545D01*
X165909931Y-107268333D01*
X165910310Y-107268190D01*
X165918296Y-107258033D01*
X165931678Y-107236753D01*
X165940033Y-107220992D01*
X165949813Y-107189229D01*
X165945950Y-107167593D01*
X165928586Y-107159600D01*
X165923556Y-107159832D01*
X165912844Y-107165094D01*
X165911992Y-107167945D01*
X165907984Y-107181357D01*
X165907412Y-107197656D01*
X165906839Y-107213966D01*
X165868783Y-107213966D01*
X165886514Y-107210774D01*
X165895966Y-107197656D01*
X165894647Y-107189220D01*
X165881710Y-107181935D01*
X165855043Y-107191426D01*
X165843813Y-107196899D01*
X165815958Y-107207846D01*
X165808649Y-107211017D01*
X165799762Y-107224568D01*
X165800183Y-107252133D01*
X165800357Y-107253680D01*
X165800057Y-107280350D01*
X165792369Y-107290079D01*
X165784900Y-107281720D01*
X165784914Y-107257459D01*
X165786455Y-107242830D01*
X165782503Y-107228288D01*
X165766720Y-107224840D01*
X165766181Y-107224842D01*
X165748644Y-107230908D01*
X165743740Y-107252023D01*
X165747117Y-107269950D01*
X165757331Y-107279372D01*
X165764162Y-107280547D01*
X165758962Y-107287527D01*
X165753486Y-107292268D01*
X165740792Y-107311826D01*
X165738830Y-107314595D01*
X165735447Y-107306098D01*
X165733725Y-107281924D01*
X165731754Y-107253637D01*
X165725116Y-107239263D01*
X165711120Y-107235713D01*
X165697373Y-107239102D01*
X165689373Y-107256818D01*
X165687782Y-107269264D01*
X165679514Y-107284016D01*
X165674630Y-107283063D01*
X165675346Y-107268348D01*
X165675368Y-107268261D01*
X165674933Y-107251185D01*
X165658022Y-107246586D01*
X165644189Y-107249644D01*
X165635007Y-107262896D01*
X165557255Y-107262896D01*
X165556330Y-107264561D01*
X165542150Y-107290079D01*
X165531921Y-107311837D01*
X165526659Y-107330854D01*
X165451496Y-107330854D01*
X165451768Y-107322699D01*
X165451052Y-107315368D01*
X165456212Y-107314380D01*
X165456306Y-107314470D01*
X165466339Y-107311643D01*
X165478992Y-107294108D01*
X165483776Y-107284754D01*
X165492192Y-107264561D01*
X165488522Y-107257866D01*
X165471908Y-107260610D01*
X165458852Y-107262286D01*
X165450161Y-107257676D01*
X165448268Y-107254980D01*
X165431471Y-107248015D01*
X165402946Y-107241975D01*
X165393622Y-107240561D01*
X165356370Y-107234664D01*
X165326833Y-107229654D01*
X165322388Y-107228918D01*
X165302919Y-107230115D01*
X165296851Y-107243655D01*
X165296781Y-107244749D01*
X165293963Y-107250798D01*
X165288206Y-107235713D01*
X165279593Y-107218410D01*
X165259388Y-107208530D01*
X165246780Y-107207120D01*
X165231720Y-107199835D01*
X165227272Y-107196398D01*
X165206297Y-107186739D01*
X165175685Y-107176206D01*
X165152918Y-107169555D01*
X165144178Y-107167974D01*
X165335304Y-107167974D01*
X165336305Y-107168458D01*
X165352040Y-107172528D01*
X165382501Y-107179099D01*
X165422341Y-107187002D01*
X165425434Y-107187588D01*
X165473082Y-107195293D01*
X165518305Y-107200543D01*
X165551695Y-107202229D01*
X165577655Y-107200165D01*
X165620754Y-107194181D01*
X165668903Y-107185815D01*
X165713381Y-107176604D01*
X165745465Y-107168086D01*
X165745664Y-107167945D01*
X165735361Y-107167023D01*
X165706876Y-107166225D01*
X165663326Y-107165596D01*
X165607826Y-107165184D01*
X165543490Y-107165036D01*
X165534855Y-107165039D01*
X165470908Y-107165217D01*
X165415736Y-107165646D01*
X165372584Y-107166279D01*
X165344692Y-107167070D01*
X165335304Y-107167974D01*
X165144178Y-107167974D01*
X165134620Y-107166245D01*
X165128273Y-107171041D01*
X164844405Y-107171041D01*
X164863627Y-107154541D01*
X164918593Y-107118799D01*
X164973369Y-107093630D01*
X165013058Y-107079903D01*
X164929876Y-107037370D01*
X164887662Y-107015440D01*
X164804849Y-106969407D01*
X164735132Y-106925160D01*
X164673354Y-106878986D01*
X164614355Y-106827170D01*
X164552978Y-106765999D01*
X164515555Y-106726254D01*
X164472783Y-106677612D01*
X164438691Y-106633318D01*
X164408815Y-106587434D01*
X164378692Y-106534018D01*
X164354811Y-106489809D01*
X164335514Y-106456169D01*
X164321010Y-106435594D01*
X164308447Y-106424861D01*
X164294968Y-106420746D01*
X164277719Y-106420027D01*
X164250299Y-106418094D01*
X164208137Y-106412337D01*
X164163615Y-106404122D01*
X164110477Y-106389707D01*
X164027179Y-106350917D01*
X163955959Y-106294313D01*
X163895607Y-106219060D01*
X163853558Y-106145067D01*
X163824586Y-106065635D01*
X163813615Y-105985100D01*
X163815080Y-105963538D01*
X163912220Y-105963538D01*
X163912499Y-105998690D01*
X163914458Y-106038826D01*
X163919480Y-106068651D01*
X163928929Y-106095071D01*
X163944174Y-106124989D01*
X163963210Y-106155637D01*
X164014509Y-106215937D01*
X164075842Y-106265949D01*
X164140864Y-106300026D01*
X164165550Y-106308136D01*
X164208746Y-106318360D01*
X164244367Y-106322357D01*
X164244641Y-106322357D01*
X164272181Y-106320972D01*
X164282936Y-106315095D01*
X164281755Y-106302098D01*
X164273097Y-106269657D01*
X164260996Y-106207303D01*
X164249588Y-106129022D01*
X164239353Y-106038232D01*
X164230769Y-105938350D01*
X164225778Y-105870509D01*
X164321435Y-105870509D01*
X164323370Y-105905983D01*
X164327180Y-105952515D01*
X164332415Y-106005713D01*
X164338623Y-106061185D01*
X164345353Y-106114537D01*
X164352155Y-106161377D01*
X164358578Y-106197314D01*
X164388511Y-106315095D01*
X164389412Y-106318639D01*
X164432625Y-106434468D01*
X164488481Y-106538732D01*
X164559427Y-106635943D01*
X164647911Y-106730610D01*
X164722947Y-106796799D01*
X164848978Y-106885523D01*
X164987544Y-106959440D01*
X165135254Y-107016830D01*
X165288720Y-107055971D01*
X165307168Y-107059104D01*
X165354688Y-107065291D01*
X165410917Y-107070871D01*
X165470801Y-107075526D01*
X165529292Y-107078936D01*
X165581336Y-107080783D01*
X165621882Y-107080748D01*
X165645880Y-107078512D01*
X165651108Y-107077444D01*
X165676137Y-107073303D01*
X165714261Y-107067599D01*
X165759544Y-107061234D01*
X165851865Y-107043773D01*
X165973327Y-107008487D01*
X166095500Y-106960754D01*
X166211537Y-106903319D01*
X166314587Y-106838925D01*
X166323007Y-106832810D01*
X166381759Y-106784240D01*
X166444895Y-106723647D01*
X166506864Y-106656951D01*
X166562116Y-106590078D01*
X166605099Y-106528949D01*
X166614932Y-106512659D01*
X166669650Y-106399961D01*
X166694960Y-106322357D01*
X166801957Y-106322357D01*
X166846415Y-106322348D01*
X166865086Y-106320901D01*
X166915749Y-106307667D01*
X166971262Y-106283354D01*
X167024654Y-106251328D01*
X167068954Y-106214951D01*
X167080600Y-106202996D01*
X167119066Y-106155790D01*
X167144350Y-106106890D01*
X167159100Y-106049827D01*
X167165970Y-105978126D01*
X167167066Y-105951957D01*
X167167404Y-105909616D01*
X167164232Y-105878139D01*
X167156507Y-105850222D01*
X167143185Y-105818559D01*
X167121523Y-105779045D01*
X167091928Y-105736571D01*
X167059520Y-105698029D01*
X167028611Y-105668525D01*
X167003512Y-105653164D01*
X166990480Y-105652594D01*
X166966872Y-105663805D01*
X166934082Y-105690806D01*
X166911581Y-105710479D01*
X166897646Y-105721109D01*
X166888192Y-105728321D01*
X166874805Y-105735199D01*
X166874277Y-105735273D01*
X166868716Y-105747138D01*
X166865026Y-105776710D01*
X166863688Y-105820297D01*
X166863192Y-105843095D01*
X166862485Y-105875575D01*
X166856875Y-105966574D01*
X166847507Y-106062296D01*
X166835290Y-106153927D01*
X166821135Y-106232652D01*
X166801957Y-106322357D01*
X166694960Y-106322357D01*
X166712248Y-106269347D01*
X166742688Y-106120965D01*
X166760927Y-105954965D01*
X166768690Y-105843095D01*
X166741483Y-105855491D01*
X166738385Y-105856967D01*
X166722729Y-105869020D01*
X166717919Y-105880047D01*
X166713772Y-105889554D01*
X166708362Y-105925198D01*
X166707116Y-105935573D01*
X166689736Y-106002708D01*
X166658660Y-106058521D01*
X166616106Y-106098833D01*
X166593872Y-106111421D01*
X166557197Y-106125618D01*
X166511158Y-106136535D01*
X166453293Y-106144483D01*
X166381138Y-106149776D01*
X166292231Y-106152726D01*
X166184108Y-106153645D01*
X166127612Y-106153605D01*
X166062008Y-106153246D01*
X166012463Y-106152273D01*
X165975613Y-106150393D01*
X165948095Y-106147314D01*
X165926546Y-106142747D01*
X165907602Y-106136398D01*
X165887902Y-106127977D01*
X165867066Y-106117232D01*
X165826359Y-106090178D01*
X165794074Y-106061520D01*
X165777678Y-106040184D01*
X165753629Y-105999423D01*
X165732267Y-105953732D01*
X165716970Y-105910608D01*
X165711120Y-105877548D01*
X165710489Y-105871900D01*
X165702624Y-105862127D01*
X165682124Y-105855475D01*
X165644436Y-105850070D01*
X165638078Y-105849424D01*
X165591710Y-105847155D01*
X165536234Y-105847343D01*
X165482298Y-105849993D01*
X165386843Y-105857460D01*
X165386664Y-105858423D01*
X165379506Y-105896907D01*
X165362542Y-105959336D01*
X165325548Y-106030038D01*
X165271854Y-106086881D01*
X165201195Y-106130211D01*
X165193541Y-106133660D01*
X165175757Y-106140476D01*
X165155977Y-106145520D01*
X165130909Y-106149055D01*
X165097263Y-106151345D01*
X165051746Y-106152653D01*
X164991067Y-106153243D01*
X164911933Y-106153380D01*
X164865742Y-106153255D01*
X164767863Y-106151810D01*
X164688019Y-106148444D01*
X164623612Y-106142785D01*
X164572047Y-106134462D01*
X164530725Y-106123102D01*
X164497050Y-106108332D01*
X164468425Y-106089780D01*
X164466418Y-106088227D01*
X164423348Y-106041159D01*
X164395543Y-105981434D01*
X164385170Y-105913635D01*
X164383402Y-105888184D01*
X164375036Y-105868668D01*
X164355991Y-105856144D01*
X164334794Y-105848420D01*
X164322700Y-105847820D01*
X164321827Y-105850485D01*
X164321435Y-105870509D01*
X164225778Y-105870509D01*
X164223498Y-105839512D01*
X164419588Y-105839512D01*
X164419803Y-105899426D01*
X164421459Y-105917594D01*
X164434991Y-105980275D01*
X164461072Y-106028290D01*
X164501707Y-106063542D01*
X164558903Y-106087937D01*
X164634664Y-106103377D01*
X164655121Y-106105921D01*
X164722500Y-106112176D01*
X164799157Y-106116905D01*
X164878916Y-106119918D01*
X164955599Y-106121028D01*
X165023031Y-106120047D01*
X165075033Y-106116786D01*
X165114000Y-106111181D01*
X165190993Y-106088417D01*
X165251742Y-106051503D01*
X165296726Y-106000093D01*
X165326419Y-105933839D01*
X165331400Y-105916344D01*
X165341763Y-105858423D01*
X165339259Y-105836173D01*
X165755290Y-105836173D01*
X165757422Y-105889520D01*
X165776471Y-105955903D01*
X165794745Y-105995567D01*
X165831810Y-106043808D01*
X165882175Y-106079128D01*
X165948042Y-106102912D01*
X166031609Y-106116546D01*
X166062562Y-106119348D01*
X166127847Y-106123453D01*
X166190866Y-106124239D01*
X166259535Y-106121684D01*
X166341771Y-106115771D01*
X166434971Y-106106422D01*
X166509730Y-106094375D01*
X166567064Y-106078166D01*
X166609133Y-106056233D01*
X166638097Y-106027016D01*
X166656114Y-105988952D01*
X166665346Y-105940483D01*
X166667952Y-105880047D01*
X166667108Y-105837540D01*
X166662333Y-105799942D01*
X166651179Y-105775559D01*
X166631240Y-105759695D01*
X166600111Y-105747653D01*
X166563167Y-105738565D01*
X166497044Y-105728495D01*
X166417080Y-105721194D01*
X166327701Y-105716664D01*
X166233335Y-105714905D01*
X166138406Y-105715916D01*
X166047342Y-105719696D01*
X165964569Y-105726247D01*
X165894513Y-105735569D01*
X165841599Y-105747660D01*
X165803043Y-105764534D01*
X165770392Y-105794848D01*
X165755290Y-105836173D01*
X165339259Y-105836173D01*
X165336804Y-105814365D01*
X165315071Y-105781634D01*
X165275115Y-105757698D01*
X165215485Y-105740020D01*
X165212973Y-105739475D01*
X165149466Y-105729289D01*
X165071121Y-105722035D01*
X164982493Y-105717657D01*
X164888138Y-105716102D01*
X164792609Y-105717314D01*
X164700463Y-105721239D01*
X164616254Y-105727821D01*
X164544538Y-105737007D01*
X164489871Y-105748741D01*
X164486550Y-105749746D01*
X164451628Y-105767539D01*
X164429752Y-105796505D01*
X164419588Y-105839512D01*
X164223498Y-105839512D01*
X164217317Y-105755498D01*
X164184060Y-105741596D01*
X164156374Y-105726522D01*
X164153570Y-105724190D01*
X164319339Y-105724190D01*
X164319729Y-105750288D01*
X164322911Y-105777586D01*
X164331207Y-105794268D01*
X164346862Y-105807098D01*
X164347356Y-105807421D01*
X164367272Y-105818684D01*
X164377086Y-105820940D01*
X164378114Y-105819058D01*
X164385977Y-105802728D01*
X164398083Y-105776465D01*
X164402932Y-105766635D01*
X164423745Y-105738712D01*
X164453961Y-105718577D01*
X164497680Y-105704108D01*
X164559000Y-105693183D01*
X164620677Y-105685766D01*
X164724907Y-105677492D01*
X164831478Y-105673688D01*
X164936983Y-105674171D01*
X165038016Y-105678760D01*
X165131167Y-105687270D01*
X165213029Y-105699520D01*
X165280196Y-105715326D01*
X165329259Y-105734505D01*
X165329578Y-105734679D01*
X165351223Y-105754236D01*
X165368523Y-105782286D01*
X165382904Y-105816749D01*
X165547014Y-105813486D01*
X165711125Y-105810222D01*
X165727545Y-105778470D01*
X165734791Y-105766425D01*
X165756417Y-105743770D01*
X165788057Y-105725284D01*
X165832054Y-105710272D01*
X165890755Y-105698036D01*
X165966502Y-105687879D01*
X166061640Y-105679103D01*
X166067323Y-105678668D01*
X166144841Y-105674811D01*
X166229874Y-105673806D01*
X166317553Y-105675431D01*
X166403010Y-105679460D01*
X166481377Y-105685670D01*
X166547785Y-105693838D01*
X166597368Y-105703739D01*
X166610480Y-105707921D01*
X166653287Y-105730593D01*
X166687002Y-105761807D01*
X166705353Y-105796194D01*
X166705390Y-105796338D01*
X166714625Y-105817698D01*
X166728303Y-105819106D01*
X166749143Y-105800854D01*
X166749569Y-105800379D01*
X166756753Y-105790102D01*
X166761650Y-105775829D01*
X166764526Y-105754013D01*
X166765651Y-105721109D01*
X166765293Y-105673571D01*
X166763717Y-105607853D01*
X166762851Y-105577447D01*
X166760790Y-105519772D01*
X166758141Y-105477596D01*
X166754236Y-105446546D01*
X166748405Y-105422243D01*
X166739977Y-105400314D01*
X166728282Y-105376381D01*
X166692337Y-105310984D01*
X166628808Y-105216881D01*
X166560008Y-105141783D01*
X166483993Y-105084035D01*
X166398822Y-105041984D01*
X166302551Y-105013976D01*
X166302053Y-105013872D01*
X166262257Y-105006110D01*
X166238268Y-105003621D01*
X166224841Y-105006444D01*
X166216728Y-105014618D01*
X166199212Y-105039556D01*
X166176468Y-105063220D01*
X166150182Y-105076205D01*
X166112480Y-105083731D01*
X166108518Y-105084272D01*
X166054126Y-105089095D01*
X165984148Y-105091842D01*
X165904136Y-105092585D01*
X165819643Y-105091398D01*
X165736219Y-105088352D01*
X165659417Y-105083521D01*
X165594789Y-105076975D01*
X165500074Y-105061902D01*
X165369604Y-105033831D01*
X165235628Y-104997795D01*
X165104458Y-104955690D01*
X164982406Y-104909415D01*
X164875786Y-104860867D01*
X164857697Y-104851742D01*
X164829890Y-104838560D01*
X164815263Y-104834407D01*
X164809589Y-104838637D01*
X164808637Y-104850604D01*
X164803054Y-104874383D01*
X164787851Y-104911054D01*
X164765827Y-104955144D01*
X164739786Y-105001393D01*
X164712529Y-105044537D01*
X164686857Y-105079314D01*
X164685237Y-105081247D01*
X164651683Y-105116850D01*
X164609448Y-105156048D01*
X164567273Y-105190701D01*
X164557909Y-105197898D01*
X164500915Y-105248493D01*
X164454203Y-105304574D01*
X164415302Y-105370205D01*
X164381742Y-105449451D01*
X164351052Y-105546376D01*
X164348534Y-105555502D01*
X164333193Y-105619717D01*
X164323022Y-105678408D01*
X164319339Y-105724190D01*
X164153570Y-105724190D01*
X164135285Y-105708983D01*
X164116506Y-105691996D01*
X164089258Y-105674495D01*
X164071623Y-105666604D01*
X164057276Y-105666733D01*
X164040689Y-105677742D01*
X164015442Y-105702024D01*
X163999232Y-105719820D01*
X163967709Y-105761239D01*
X163942121Y-105802786D01*
X163933853Y-105819169D01*
X163922394Y-105847061D01*
X163915832Y-105875775D01*
X163912873Y-105912278D01*
X163912220Y-105963538D01*
X163815080Y-105963538D01*
X163819490Y-105898602D01*
X163830810Y-105849153D01*
X163853124Y-105786782D01*
X163882113Y-105726076D01*
X163914554Y-105673658D01*
X163947222Y-105636155D01*
X163955281Y-105628975D01*
X163973652Y-105609620D01*
X163978480Y-105594354D01*
X163972749Y-105576168D01*
X163964211Y-105546815D01*
X163960521Y-105512193D01*
X163959216Y-105495582D01*
X163951768Y-105457434D01*
X163939919Y-105417563D01*
X163936618Y-105408173D01*
X163908773Y-105313558D01*
X163884224Y-105202881D01*
X163863607Y-105081116D01*
X163847558Y-104953236D01*
X163836713Y-104824213D01*
X163831708Y-104699020D01*
X163833178Y-104582631D01*
X163834178Y-104562921D01*
X163846848Y-104431807D01*
X163869162Y-104304558D01*
X163900035Y-104185481D01*
X163938377Y-104078882D01*
X163983101Y-103989069D01*
X163996834Y-103967583D01*
X164043319Y-103907202D01*
X164101485Y-103843807D01*
X164165948Y-103782644D01*
X164231322Y-103728957D01*
X164292222Y-103687993D01*
X164329553Y-103665018D01*
X164374537Y-103631171D01*
X164400346Y-103601838D01*
X164407957Y-103589505D01*
X164459823Y-103523964D01*
X164528667Y-103459341D01*
X164610578Y-103398307D01*
X164701647Y-103343532D01*
X164797965Y-103297688D01*
X164895623Y-103263445D01*
X164959510Y-103248335D01*
X165053781Y-103232987D01*
X165160721Y-103221431D01*
X165275468Y-103213878D01*
X165393161Y-103210538D01*
X165508938Y-103211623D01*
X165617938Y-103217343D01*
X165715301Y-103227908D01*
X165782488Y-103238680D01*
X165991122Y-103285912D01*
X166190931Y-103352885D01*
X166382864Y-103439956D01*
X166567867Y-103547479D01*
X166568462Y-103547865D01*
X166634654Y-103592484D01*
X166693594Y-103636451D01*
X166749330Y-103683383D01*
X166805910Y-103736899D01*
X166867382Y-103800620D01*
X166937796Y-103878162D01*
X166941416Y-103882227D01*
X167007830Y-103955504D01*
X167063363Y-104013764D01*
X167110306Y-104059103D01*
X167150950Y-104093616D01*
X167187587Y-104119399D01*
X167222507Y-104138546D01*
X167237512Y-104146270D01*
X167269101Y-104166241D01*
X167290223Y-104184636D01*
X167306386Y-104217738D01*
X167306225Y-104257191D01*
X167289270Y-104294911D01*
X167256919Y-104325006D01*
X167233240Y-104339762D01*
X167214823Y-104351618D01*
X167210957Y-104356748D01*
X167208006Y-104372439D01*
X167208051Y-104400701D01*
X167211142Y-104444516D01*
X167217326Y-104506868D01*
X167217496Y-104508477D01*
X167223534Y-104578137D01*
X167228530Y-104659316D01*
X167231968Y-104742058D01*
X167233334Y-104816406D01*
X167233638Y-104851268D01*
X167236366Y-104932129D01*
X167241718Y-104997675D01*
X167249473Y-105044745D01*
X167256231Y-105075014D01*
X167262885Y-105111176D01*
X167265613Y-105135286D01*
X167265526Y-105138059D01*
X167255121Y-105165468D01*
X167232236Y-105193513D01*
X167203732Y-105215354D01*
X167176467Y-105224155D01*
X167171722Y-105224336D01*
X167162524Y-105227150D01*
X167154496Y-105235795D01*
X167146396Y-105253335D01*
X167136982Y-105282835D01*
X167125011Y-105327359D01*
X167109240Y-105389972D01*
X167100869Y-105423485D01*
X167087265Y-105477360D01*
X167075865Y-105521778D01*
X167067669Y-105552855D01*
X167063680Y-105566703D01*
X167066176Y-105574638D01*
X167081598Y-105593054D01*
X167106842Y-105615619D01*
X167153476Y-105660555D01*
X167205725Y-105735230D01*
X167245132Y-105824291D01*
X167261316Y-105892847D01*
X167262084Y-105909616D01*
X167265419Y-105982454D01*
X167252700Y-106071635D01*
X167223629Y-106153189D01*
X167183758Y-106222396D01*
X167121970Y-106296373D01*
X167048396Y-106352279D01*
X166962145Y-106390752D01*
X166862330Y-106412430D01*
X166830552Y-106416623D01*
X166794410Y-106422687D01*
X166772569Y-106429335D01*
X166760499Y-106438165D01*
X166753672Y-106450776D01*
X166751027Y-106457357D01*
X166730634Y-106498774D01*
X166700887Y-106550297D01*
X166665362Y-106606245D01*
X166627638Y-106660933D01*
X166591293Y-106708678D01*
X166572116Y-106731770D01*
X166515878Y-106793264D01*
X166456230Y-106848211D01*
X166388880Y-106900010D01*
X166309539Y-106952062D01*
X166213917Y-107007766D01*
X166102374Y-107069971D01*
X166161989Y-107099138D01*
X166186544Y-107112887D01*
X166226645Y-107141368D01*
X166257611Y-107170371D01*
X166260968Y-107174371D01*
X166271415Y-107189229D01*
X166297164Y-107225848D01*
X166336977Y-107296088D01*
G37*
G36*
X165417541Y-107349882D02*
G01*
X165412105Y-107355319D01*
X165406668Y-107349882D01*
X165412105Y-107344446D01*
X165417541Y-107349882D01*
G37*
G36*
X165276188Y-107284643D02*
G01*
X165270752Y-107290079D01*
X165265315Y-107284643D01*
X165270752Y-107279206D01*
X165276188Y-107284643D01*
G37*
G36*
X166382143Y-105432451D02*
G01*
X166433772Y-105434180D01*
X166481842Y-105437295D01*
X166521808Y-105441505D01*
X166549121Y-105446520D01*
X166559236Y-105452047D01*
X166556821Y-105454234D01*
X166538132Y-105460015D01*
X166504978Y-105466607D01*
X166462190Y-105472968D01*
X166454524Y-105474027D01*
X166404086Y-105483205D01*
X166341609Y-105497229D01*
X166274305Y-105514388D01*
X166209386Y-105532970D01*
X166144338Y-105551963D01*
X166071895Y-105569947D01*
X166014119Y-105579648D01*
X165968082Y-105581516D01*
X165930859Y-105576004D01*
X165912887Y-105567498D01*
X165912626Y-105554843D01*
X165932340Y-105537787D01*
X165972517Y-105515621D01*
X166016588Y-105496275D01*
X166101926Y-105467939D01*
X166194220Y-105446546D01*
X166284372Y-105434466D01*
X166286398Y-105434313D01*
X166331503Y-105432398D01*
X166382143Y-105432451D01*
G37*
G36*
X165827102Y-107217591D02*
G01*
X165828803Y-107220861D01*
X165819853Y-107224840D01*
X165814097Y-107224055D01*
X165812604Y-107217591D01*
X165814198Y-107216289D01*
X165827102Y-107217591D01*
G37*
G36*
X165376087Y-107282652D02*
G01*
X165381120Y-107286565D01*
X165369517Y-107289221D01*
X165358489Y-107288452D01*
X165355246Y-107283510D01*
X165359093Y-107281355D01*
X165376087Y-107282652D01*
G37*
G36*
X165302510Y-107280060D02*
G01*
X165303372Y-107290079D01*
X165301140Y-107293333D01*
X165291857Y-107300953D01*
X165290772Y-107300670D01*
X165287062Y-107290079D01*
X165287504Y-107287099D01*
X165298577Y-107279206D01*
X165302510Y-107280060D01*
G37*
G36*
X165359550Y-107348070D02*
G01*
X165361251Y-107351341D01*
X165352301Y-107355319D01*
X165346545Y-107354534D01*
X165345053Y-107348070D01*
X165346646Y-107346769D01*
X165359550Y-107348070D01*
G37*
G36*
X165689373Y-107377066D02*
G01*
X165688589Y-107382822D01*
X165682125Y-107384314D01*
X165680823Y-107382721D01*
X165682125Y-107369817D01*
X165685395Y-107368116D01*
X165689373Y-107377066D01*
G37*
G36*
X166240743Y-105759582D02*
G01*
X166316657Y-105761609D01*
X166400790Y-105764935D01*
X166463977Y-105768962D01*
X166506673Y-105773720D01*
X166529335Y-105779241D01*
X166547454Y-105791296D01*
X166558893Y-105816026D01*
X166550467Y-105847063D01*
X166522267Y-105883076D01*
X166502261Y-105902116D01*
X166481005Y-105916811D01*
X166465265Y-105916793D01*
X166450239Y-105903416D01*
X166444614Y-105894843D01*
X166445562Y-105880374D01*
X166461676Y-105859923D01*
X166486914Y-105833059D01*
X166449681Y-105832939D01*
X166411824Y-105830935D01*
X166372773Y-105826258D01*
X166365359Y-105825082D01*
X166342242Y-105824217D01*
X166328124Y-105833921D01*
X166314449Y-105858998D01*
X166310298Y-105867672D01*
X166299406Y-105889599D01*
X166294320Y-105898462D01*
X166292457Y-105899038D01*
X166276311Y-105904659D01*
X166249348Y-105914295D01*
X166246953Y-105915158D01*
X166216157Y-105925724D01*
X166196080Y-105929191D01*
X166177474Y-105925636D01*
X166151087Y-105915141D01*
X166150814Y-105915027D01*
X166117456Y-105892753D01*
X166090559Y-105860775D01*
X166078867Y-105843004D01*
X166059646Y-105826491D01*
X166034227Y-105822185D01*
X166007410Y-105827206D01*
X165975817Y-105845528D01*
X165965340Y-105854712D01*
X165949113Y-105862209D01*
X165934341Y-105855070D01*
X165929618Y-105850858D01*
X165919058Y-105832758D01*
X165925510Y-105812035D01*
X165949882Y-105784560D01*
X165982052Y-105753739D01*
X166240743Y-105759582D01*
G37*
G36*
X165384921Y-107349882D02*
G01*
X165379485Y-107355319D01*
X165374048Y-107349882D01*
X165379485Y-107344446D01*
X165384921Y-107349882D01*
G37*
G36*
X165928586Y-107219403D02*
G01*
X165923149Y-107224840D01*
X165917712Y-107219403D01*
X165923149Y-107213966D01*
X165928586Y-107219403D01*
G37*
G36*
X165419580Y-107282652D02*
G01*
X165424613Y-107286565D01*
X165413011Y-107289221D01*
X165401982Y-107288452D01*
X165398739Y-107283510D01*
X165402586Y-107281355D01*
X165419580Y-107282652D01*
G37*
G36*
X165798106Y-107306389D02*
G01*
X165792670Y-107311826D01*
X165787233Y-107306389D01*
X165792670Y-107300953D01*
X165798106Y-107306389D01*
G37*
G36*
X165189202Y-107203093D02*
G01*
X165188417Y-107208849D01*
X165181953Y-107210342D01*
X165180652Y-107208748D01*
X165181953Y-107195844D01*
X165185224Y-107194143D01*
X165189202Y-107203093D01*
G37*
G36*
X165682300Y-106798068D02*
G01*
X165697528Y-106799226D01*
X165704672Y-106804223D01*
X165711120Y-106822785D01*
X165709151Y-106833770D01*
X165697528Y-106848091D01*
X165694023Y-106848867D01*
X165671565Y-106850544D01*
X165633272Y-106851638D01*
X165583417Y-106852059D01*
X165526274Y-106851716D01*
X165498453Y-106851348D01*
X165445000Y-106850354D01*
X165408535Y-106848777D01*
X165385691Y-106846076D01*
X165373100Y-106841709D01*
X165367396Y-106835135D01*
X165365211Y-106825813D01*
X165364559Y-106820141D01*
X165365830Y-106812508D01*
X165372894Y-106807227D01*
X165388940Y-106803749D01*
X165417159Y-106801523D01*
X165460740Y-106800000D01*
X165522874Y-106798629D01*
X165548355Y-106798161D01*
X165603496Y-106797521D01*
X165649550Y-106797495D01*
X165682300Y-106798068D01*
G37*
G36*
X165297935Y-107317262D02*
G01*
X165292498Y-107322699D01*
X165287062Y-107317262D01*
X165292498Y-107311826D01*
X165297935Y-107317262D01*
G37*
G36*
X164667284Y-107893547D02*
G01*
X164661848Y-107898983D01*
X164656411Y-107893547D01*
X164661848Y-107888110D01*
X164667284Y-107893547D01*
G37*
G36*
X165463889Y-107280867D02*
G01*
X165466471Y-107290079D01*
X165464242Y-107293369D01*
X165455598Y-107300953D01*
X165454025Y-107300441D01*
X165444724Y-107290079D01*
X165443854Y-107284320D01*
X165455598Y-107279206D01*
X165463889Y-107280867D01*
G37*
G36*
X166461377Y-107980533D02*
G01*
X166455940Y-107985970D01*
X166450503Y-107980533D01*
X166455940Y-107975096D01*
X166461377Y-107980533D01*
G37*
G36*
X166420747Y-107895997D02*
G01*
X166419721Y-107913731D01*
X166416976Y-107923271D01*
X166412892Y-107929844D01*
X166409067Y-107916433D01*
X166408643Y-107914448D01*
X166403297Y-107902720D01*
X166394208Y-107910997D01*
X166393548Y-107911939D01*
X166386205Y-107920640D01*
X166387744Y-107910807D01*
X166391477Y-107903587D01*
X166408998Y-107892934D01*
X166420747Y-107895997D01*
G37*
G36*
X165128336Y-105782077D02*
G01*
X165149028Y-105807463D01*
X165155358Y-105832596D01*
X165141809Y-105853530D01*
X165138215Y-105856133D01*
X165122118Y-105857926D01*
X165099320Y-105843988D01*
X165083376Y-105833159D01*
X165046777Y-105821644D01*
X165014652Y-105830270D01*
X164989647Y-105858682D01*
X164988394Y-105860923D01*
X164964550Y-105890691D01*
X164935526Y-105912720D01*
X164915182Y-105920719D01*
X164868607Y-105925192D01*
X164823324Y-105913945D01*
X164785436Y-105889076D01*
X164761045Y-105852684D01*
X164748834Y-105820254D01*
X164678158Y-105827729D01*
X164643105Y-105831925D01*
X164615315Y-105836244D01*
X164603017Y-105839501D01*
X164604513Y-105847182D01*
X164616609Y-105863750D01*
X164628421Y-105879176D01*
X164633101Y-105899992D01*
X164617567Y-105913406D01*
X164597769Y-105914986D01*
X164567992Y-105900028D01*
X164537561Y-105866741D01*
X164532186Y-105858905D01*
X164517304Y-105827598D01*
X164520634Y-105803664D01*
X164542413Y-105783017D01*
X164553132Y-105777639D01*
X164570342Y-105772885D01*
X164595874Y-105769109D01*
X164632414Y-105766095D01*
X164682647Y-105763626D01*
X164749257Y-105761487D01*
X164834929Y-105759462D01*
X165100090Y-105753831D01*
X165128336Y-105782077D01*
G37*
%TD*%
%LPC*%
D13*
%TO.C,J1*%
X138355000Y-128310000D03*
D14*
X140895000Y-128310000D03*
X143435000Y-128310000D03*
X145975000Y-128310000D03*
X148515000Y-128310000D03*
X151055000Y-128310000D03*
X153595000Y-128310000D03*
X156135000Y-128310000D03*
%TD*%
M02*
